<?xml version="1.0" encoding="utf-8" standalone="no"?>
<!DOCTYPE svg PUBLIC "-//W3C//DTD SVG 1.1//EN"
  "http://www.w3.org/Graphics/SVG/1.1/DTD/svg11.dtd">
<!-- Created with matplotlib (http://matplotlib.org/) -->
<svg height="288pt" version="1.1" viewBox="0 0 432 288" width="432pt" xmlns="http://www.w3.org/2000/svg" xmlns:xlink="http://www.w3.org/1999/xlink">
 <defs>
  <style type="text/css">
*{stroke-linecap:butt;stroke-linejoin:round;}
  </style>
 </defs>
 <g id="figure_1">
  <g id="patch_1">
   <path d="M 0 288 
L 432 288 
L 432 0 
L 0 0 
z
" style="fill:#ffffff;"/>
  </g>
  <g id="axes_1">
   <g id="patch_2">
    <path d="M 54 252 
L 388.8 252 
L 388.8 34.56 
L 54 34.56 
z
" style="fill:#ffffff;"/>
   </g>
   <g id="matplotlib.axis_1">
    <g id="xtick_1">
     <g id="line2d_1">
      <defs>
       <path d="M 0 0 
L 0 3.5 
" id="m2418b1c20a" style="stroke:#000000;stroke-width:0.8;"/>
      </defs>
      <g>
       <use style="stroke:#000000;stroke-width:0.8;" x="56.15122" xlink:href="#m2418b1c20a" y="252"/>
      </g>
     </g>
     <g id="text_1">
      <!-- 0.0 -->
      <defs>
       <path d="M 31.78125 66.40625 
Q 24.171875 66.40625 20.328125 58.90625 
Q 16.5 51.421875 16.5 36.375 
Q 16.5 21.390625 20.328125 13.890625 
Q 24.171875 6.390625 31.78125 6.390625 
Q 39.453125 6.390625 43.28125 13.890625 
Q 47.125 21.390625 47.125 36.375 
Q 47.125 51.421875 43.28125 58.90625 
Q 39.453125 66.40625 31.78125 66.40625 
z
M 31.78125 74.21875 
Q 44.046875 74.21875 50.515625 64.515625 
Q 56.984375 54.828125 56.984375 36.375 
Q 56.984375 17.96875 50.515625 8.265625 
Q 44.046875 -1.421875 31.78125 -1.421875 
Q 19.53125 -1.421875 13.0625 8.265625 
Q 6.59375 17.96875 6.59375 36.375 
Q 6.59375 54.828125 13.0625 64.515625 
Q 19.53125 74.21875 31.78125 74.21875 
z
" id="DejaVuSans-30"/>
       <path d="M 10.6875 12.40625 
L 21 12.40625 
L 21 0 
L 10.6875 0 
z
" id="DejaVuSans-2e"/>
      </defs>
      <g transform="translate(48.199658 266.598437)scale(0.1 -0.1)">
       <use xlink:href="#DejaVuSans-30"/>
       <use x="63.623047" xlink:href="#DejaVuSans-2e"/>
       <use x="95.410156" xlink:href="#DejaVuSans-30"/>
      </g>
     </g>
    </g>
    <g id="xtick_2">
     <g id="line2d_2">
      <g>
       <use style="stroke:#000000;stroke-width:0.8;" x="97.000794" xlink:href="#m2418b1c20a" y="252"/>
      </g>
     </g>
     <g id="text_2">
      <!-- 2.5 -->
      <defs>
       <path d="M 19.1875 8.296875 
L 53.609375 8.296875 
L 53.609375 0 
L 7.328125 0 
L 7.328125 8.296875 
Q 12.9375 14.109375 22.625 23.890625 
Q 32.328125 33.6875 34.8125 36.53125 
Q 39.546875 41.84375 41.421875 45.53125 
Q 43.3125 49.21875 43.3125 52.78125 
Q 43.3125 58.59375 39.234375 62.25 
Q 35.15625 65.921875 28.609375 65.921875 
Q 23.96875 65.921875 18.8125 64.3125 
Q 13.671875 62.703125 7.8125 59.421875 
L 7.8125 69.390625 
Q 13.765625 71.78125 18.9375 73 
Q 24.125 74.21875 28.421875 74.21875 
Q 39.75 74.21875 46.484375 68.546875 
Q 53.21875 62.890625 53.21875 53.421875 
Q 53.21875 48.921875 51.53125 44.890625 
Q 49.859375 40.875 45.40625 35.40625 
Q 44.1875 33.984375 37.640625 27.21875 
Q 31.109375 20.453125 19.1875 8.296875 
z
" id="DejaVuSans-32"/>
       <path d="M 10.796875 72.90625 
L 49.515625 72.90625 
L 49.515625 64.59375 
L 19.828125 64.59375 
L 19.828125 46.734375 
Q 21.96875 47.46875 24.109375 47.828125 
Q 26.265625 48.1875 28.421875 48.1875 
Q 40.625 48.1875 47.75 41.5 
Q 54.890625 34.8125 54.890625 23.390625 
Q 54.890625 11.625 47.5625 5.09375 
Q 40.234375 -1.421875 26.90625 -1.421875 
Q 22.3125 -1.421875 17.546875 -0.640625 
Q 12.796875 0.140625 7.71875 1.703125 
L 7.71875 11.625 
Q 12.109375 9.234375 16.796875 8.0625 
Q 21.484375 6.890625 26.703125 6.890625 
Q 35.15625 6.890625 40.078125 11.328125 
Q 45.015625 15.765625 45.015625 23.390625 
Q 45.015625 31 40.078125 35.4375 
Q 35.15625 39.890625 26.703125 39.890625 
Q 22.75 39.890625 18.8125 39.015625 
Q 14.890625 38.140625 10.796875 36.28125 
z
" id="DejaVuSans-35"/>
      </defs>
      <g transform="translate(89.049231 266.598437)scale(0.1 -0.1)">
       <use xlink:href="#DejaVuSans-32"/>
       <use x="63.623047" xlink:href="#DejaVuSans-2e"/>
       <use x="95.410156" xlink:href="#DejaVuSans-35"/>
      </g>
     </g>
    </g>
    <g id="xtick_3">
     <g id="line2d_3">
      <g>
       <use style="stroke:#000000;stroke-width:0.8;" x="137.850367" xlink:href="#m2418b1c20a" y="252"/>
      </g>
     </g>
     <g id="text_3">
      <!-- 5.0 -->
      <g transform="translate(129.898805 266.598437)scale(0.1 -0.1)">
       <use xlink:href="#DejaVuSans-35"/>
       <use x="63.623047" xlink:href="#DejaVuSans-2e"/>
       <use x="95.410156" xlink:href="#DejaVuSans-30"/>
      </g>
     </g>
    </g>
    <g id="xtick_4">
     <g id="line2d_4">
      <g>
       <use style="stroke:#000000;stroke-width:0.8;" x="178.699941" xlink:href="#m2418b1c20a" y="252"/>
      </g>
     </g>
     <g id="text_4">
      <!-- 7.5 -->
      <defs>
       <path d="M 8.203125 72.90625 
L 55.078125 72.90625 
L 55.078125 68.703125 
L 28.609375 0 
L 18.3125 0 
L 43.21875 64.59375 
L 8.203125 64.59375 
z
" id="DejaVuSans-37"/>
      </defs>
      <g transform="translate(170.748378 266.598437)scale(0.1 -0.1)">
       <use xlink:href="#DejaVuSans-37"/>
       <use x="63.623047" xlink:href="#DejaVuSans-2e"/>
       <use x="95.410156" xlink:href="#DejaVuSans-35"/>
      </g>
     </g>
    </g>
    <g id="xtick_5">
     <g id="line2d_5">
      <g>
       <use style="stroke:#000000;stroke-width:0.8;" x="219.549514" xlink:href="#m2418b1c20a" y="252"/>
      </g>
     </g>
     <g id="text_5">
      <!-- 10.0 -->
      <defs>
       <path d="M 12.40625 8.296875 
L 28.515625 8.296875 
L 28.515625 63.921875 
L 10.984375 60.40625 
L 10.984375 69.390625 
L 28.421875 72.90625 
L 38.28125 72.90625 
L 38.28125 8.296875 
L 54.390625 8.296875 
L 54.390625 0 
L 12.40625 0 
z
" id="DejaVuSans-31"/>
      </defs>
      <g transform="translate(208.416702 266.598437)scale(0.1 -0.1)">
       <use xlink:href="#DejaVuSans-31"/>
       <use x="63.623047" xlink:href="#DejaVuSans-30"/>
       <use x="127.246094" xlink:href="#DejaVuSans-2e"/>
       <use x="159.033203" xlink:href="#DejaVuSans-30"/>
      </g>
     </g>
    </g>
    <g id="xtick_6">
     <g id="line2d_6">
      <g>
       <use style="stroke:#000000;stroke-width:0.8;" x="260.399088" xlink:href="#m2418b1c20a" y="252"/>
      </g>
     </g>
     <g id="text_6">
      <!-- 12.5 -->
      <g transform="translate(249.266275 266.598437)scale(0.1 -0.1)">
       <use xlink:href="#DejaVuSans-31"/>
       <use x="63.623047" xlink:href="#DejaVuSans-32"/>
       <use x="127.246094" xlink:href="#DejaVuSans-2e"/>
       <use x="159.033203" xlink:href="#DejaVuSans-35"/>
      </g>
     </g>
    </g>
    <g id="xtick_7">
     <g id="line2d_7">
      <g>
       <use style="stroke:#000000;stroke-width:0.8;" x="301.248661" xlink:href="#m2418b1c20a" y="252"/>
      </g>
     </g>
     <g id="text_7">
      <!-- 15.0 -->
      <g transform="translate(290.115849 266.598437)scale(0.1 -0.1)">
       <use xlink:href="#DejaVuSans-31"/>
       <use x="63.623047" xlink:href="#DejaVuSans-35"/>
       <use x="127.246094" xlink:href="#DejaVuSans-2e"/>
       <use x="159.033203" xlink:href="#DejaVuSans-30"/>
      </g>
     </g>
    </g>
    <g id="xtick_8">
     <g id="line2d_8">
      <g>
       <use style="stroke:#000000;stroke-width:0.8;" x="342.098235" xlink:href="#m2418b1c20a" y="252"/>
      </g>
     </g>
     <g id="text_8">
      <!-- 17.5 -->
      <g transform="translate(330.965422 266.598437)scale(0.1 -0.1)">
       <use xlink:href="#DejaVuSans-31"/>
       <use x="63.623047" xlink:href="#DejaVuSans-37"/>
       <use x="127.246094" xlink:href="#DejaVuSans-2e"/>
       <use x="159.033203" xlink:href="#DejaVuSans-35"/>
      </g>
     </g>
    </g>
    <g id="xtick_9">
     <g id="line2d_9">
      <g>
       <use style="stroke:#000000;stroke-width:0.8;" x="382.947808" xlink:href="#m2418b1c20a" y="252"/>
      </g>
     </g>
     <g id="text_9">
      <!-- 20.0 -->
      <g transform="translate(371.814996 266.598437)scale(0.1 -0.1)">
       <use xlink:href="#DejaVuSans-32"/>
       <use x="63.623047" xlink:href="#DejaVuSans-30"/>
       <use x="127.246094" xlink:href="#DejaVuSans-2e"/>
       <use x="159.033203" xlink:href="#DejaVuSans-30"/>
      </g>
     </g>
    </g>
   </g>
   <g id="matplotlib.axis_2">
    <g id="ytick_1">
     <g id="line2d_10">
      <defs>
       <path d="M 0 0 
L -3.5 0 
" id="mf5e6f872f7" style="stroke:#000000;stroke-width:0.8;"/>
      </defs>
      <g>
       <use style="stroke:#000000;stroke-width:0.8;" x="54" xlink:href="#mf5e6f872f7" y="240.8256"/>
      </g>
     </g>
     <g id="text_10">
      <!-- 1.2 -->
      <g transform="translate(31.096875 244.624818)scale(0.1 -0.1)">
       <use xlink:href="#DejaVuSans-31"/>
       <use x="63.623047" xlink:href="#DejaVuSans-2e"/>
       <use x="95.410156" xlink:href="#DejaVuSans-32"/>
      </g>
     </g>
    </g>
    <g id="ytick_2">
     <g id="line2d_11">
      <g>
       <use style="stroke:#000000;stroke-width:0.8;" x="54" xlink:href="#mf5e6f872f7" y="195.663969"/>
      </g>
     </g>
     <g id="text_11">
      <!-- 1.4 -->
      <defs>
       <path d="M 37.796875 64.3125 
L 12.890625 25.390625 
L 37.796875 25.390625 
z
M 35.203125 72.90625 
L 47.609375 72.90625 
L 47.609375 25.390625 
L 58.015625 25.390625 
L 58.015625 17.1875 
L 47.609375 17.1875 
L 47.609375 0 
L 37.796875 0 
L 37.796875 17.1875 
L 4.890625 17.1875 
L 4.890625 26.703125 
z
" id="DejaVuSans-34"/>
      </defs>
      <g transform="translate(31.096875 199.463188)scale(0.1 -0.1)">
       <use xlink:href="#DejaVuSans-31"/>
       <use x="63.623047" xlink:href="#DejaVuSans-2e"/>
       <use x="95.410156" xlink:href="#DejaVuSans-34"/>
      </g>
     </g>
    </g>
    <g id="ytick_3">
     <g id="line2d_12">
      <g>
       <use style="stroke:#000000;stroke-width:0.8;" x="54" xlink:href="#mf5e6f872f7" y="150.502339"/>
      </g>
     </g>
     <g id="text_12">
      <!-- 1.6 -->
      <defs>
       <path d="M 33.015625 40.375 
Q 26.375 40.375 22.484375 35.828125 
Q 18.609375 31.296875 18.609375 23.390625 
Q 18.609375 15.53125 22.484375 10.953125 
Q 26.375 6.390625 33.015625 6.390625 
Q 39.65625 6.390625 43.53125 10.953125 
Q 47.40625 15.53125 47.40625 23.390625 
Q 47.40625 31.296875 43.53125 35.828125 
Q 39.65625 40.375 33.015625 40.375 
z
M 52.59375 71.296875 
L 52.59375 62.3125 
Q 48.875 64.0625 45.09375 64.984375 
Q 41.3125 65.921875 37.59375 65.921875 
Q 27.828125 65.921875 22.671875 59.328125 
Q 17.53125 52.734375 16.796875 39.40625 
Q 19.671875 43.65625 24.015625 45.921875 
Q 28.375 48.1875 33.59375 48.1875 
Q 44.578125 48.1875 50.953125 41.515625 
Q 57.328125 34.859375 57.328125 23.390625 
Q 57.328125 12.15625 50.6875 5.359375 
Q 44.046875 -1.421875 33.015625 -1.421875 
Q 20.359375 -1.421875 13.671875 8.265625 
Q 6.984375 17.96875 6.984375 36.375 
Q 6.984375 53.65625 15.1875 63.9375 
Q 23.390625 74.21875 37.203125 74.21875 
Q 40.921875 74.21875 44.703125 73.484375 
Q 48.484375 72.75 52.59375 71.296875 
z
" id="DejaVuSans-36"/>
      </defs>
      <g transform="translate(31.096875 154.301557)scale(0.1 -0.1)">
       <use xlink:href="#DejaVuSans-31"/>
       <use x="63.623047" xlink:href="#DejaVuSans-2e"/>
       <use x="95.410156" xlink:href="#DejaVuSans-36"/>
      </g>
     </g>
    </g>
    <g id="ytick_4">
     <g id="line2d_13">
      <g>
       <use style="stroke:#000000;stroke-width:0.8;" x="54" xlink:href="#mf5e6f872f7" y="105.340708"/>
      </g>
     </g>
     <g id="text_13">
      <!-- 1.8 -->
      <defs>
       <path d="M 31.78125 34.625 
Q 24.75 34.625 20.71875 30.859375 
Q 16.703125 27.09375 16.703125 20.515625 
Q 16.703125 13.921875 20.71875 10.15625 
Q 24.75 6.390625 31.78125 6.390625 
Q 38.8125 6.390625 42.859375 10.171875 
Q 46.921875 13.96875 46.921875 20.515625 
Q 46.921875 27.09375 42.890625 30.859375 
Q 38.875 34.625 31.78125 34.625 
z
M 21.921875 38.8125 
Q 15.578125 40.375 12.03125 44.71875 
Q 8.5 49.078125 8.5 55.328125 
Q 8.5 64.0625 14.71875 69.140625 
Q 20.953125 74.21875 31.78125 74.21875 
Q 42.671875 74.21875 48.875 69.140625 
Q 55.078125 64.0625 55.078125 55.328125 
Q 55.078125 49.078125 51.53125 44.71875 
Q 48 40.375 41.703125 38.8125 
Q 48.828125 37.15625 52.796875 32.3125 
Q 56.78125 27.484375 56.78125 20.515625 
Q 56.78125 9.90625 50.3125 4.234375 
Q 43.84375 -1.421875 31.78125 -1.421875 
Q 19.734375 -1.421875 13.25 4.234375 
Q 6.78125 9.90625 6.78125 20.515625 
Q 6.78125 27.484375 10.78125 32.3125 
Q 14.796875 37.15625 21.921875 38.8125 
z
M 18.3125 54.390625 
Q 18.3125 48.734375 21.84375 45.5625 
Q 25.390625 42.390625 31.78125 42.390625 
Q 38.140625 42.390625 41.71875 45.5625 
Q 45.3125 48.734375 45.3125 54.390625 
Q 45.3125 60.0625 41.71875 63.234375 
Q 38.140625 66.40625 31.78125 66.40625 
Q 25.390625 66.40625 21.84375 63.234375 
Q 18.3125 60.0625 18.3125 54.390625 
z
" id="DejaVuSans-38"/>
      </defs>
      <g transform="translate(31.096875 109.139927)scale(0.1 -0.1)">
       <use xlink:href="#DejaVuSans-31"/>
       <use x="63.623047" xlink:href="#DejaVuSans-2e"/>
       <use x="95.410156" xlink:href="#DejaVuSans-38"/>
      </g>
     </g>
    </g>
    <g id="ytick_5">
     <g id="line2d_14">
      <g>
       <use style="stroke:#000000;stroke-width:0.8;" x="54" xlink:href="#mf5e6f872f7" y="60.179077"/>
      </g>
     </g>
     <g id="text_14">
      <!-- 2.0 -->
      <g transform="translate(31.096875 63.978296)scale(0.1 -0.1)">
       <use xlink:href="#DejaVuSans-32"/>
       <use x="63.623047" xlink:href="#DejaVuSans-2e"/>
       <use x="95.410156" xlink:href="#DejaVuSans-30"/>
      </g>
     </g>
    </g>
   </g>
   <g id="LineCollection_1">
    <path clip-path="url(#pf1e99c696a)" d="M 69.218182 242.116364 
L 69.218182 227.288057 
" style="fill:none;stroke:#000000;stroke-width:1.5;"/>
    <path clip-path="url(#pf1e99c696a)" d="M 72.291704 240.832089 
L 72.291704 226.293598 
" style="fill:none;stroke:#000000;stroke-width:1.5;"/>
    <path clip-path="url(#pf1e99c696a)" d="M 75.36686 239.589442 
L 75.36686 225.134256 
" style="fill:none;stroke:#000000;stroke-width:1.5;"/>
    <path clip-path="url(#pf1e99c696a)" d="M 78.440382 238.313521 
L 78.440382 223.882009 
" style="fill:none;stroke:#000000;stroke-width:1.5;"/>
    <path clip-path="url(#pf1e99c696a)" d="M 81.515537 236.978847 
L 81.515537 222.55405 
" style="fill:none;stroke:#000000;stroke-width:1.5;"/>
    <path clip-path="url(#pf1e99c696a)" d="M 84.589059 235.577913 
L 84.589059 221.155018 
" style="fill:none;stroke:#000000;stroke-width:1.5;"/>
    <path clip-path="url(#pf1e99c696a)" d="M 87.664215 234.104616 
L 87.664215 219.68226 
" style="fill:none;stroke:#000000;stroke-width:1.5;"/>
    <path clip-path="url(#pf1e99c696a)" d="M 90.737737 232.557112 
L 90.737737 218.134908 
" style="fill:none;stroke:#000000;stroke-width:1.5;"/>
    <path clip-path="url(#pf1e99c696a)" d="M 93.812893 230.930676 
L 93.812893 216.508516 
" style="fill:none;stroke:#000000;stroke-width:1.5;"/>
    <path clip-path="url(#pf1e99c696a)" d="M 96.886415 229.224055 
L 96.886415 214.801907 
" style="fill:none;stroke:#000000;stroke-width:1.5;"/>
    <path clip-path="url(#pf1e99c696a)" d="M 99.961571 227.432491 
L 99.961571 213.010347 
" style="fill:none;stroke:#000000;stroke-width:1.5;"/>
    <path clip-path="url(#pf1e99c696a)" d="M 103.035093 225.554986 
L 103.035093 211.132843 
" style="fill:none;stroke:#000000;stroke-width:1.5;"/>
    <path clip-path="url(#pf1e99c696a)" d="M 106.110249 223.586692 
L 106.110249 209.164549 
" style="fill:none;stroke:#000000;stroke-width:1.5;"/>
    <path clip-path="url(#pf1e99c696a)" d="M 109.183771 221.526928 
L 109.183771 207.104785 
" style="fill:none;stroke:#000000;stroke-width:1.5;"/>
    <path clip-path="url(#pf1e99c696a)" d="M 112.258926 219.370832 
L 112.258926 204.948689 
" style="fill:none;stroke:#000000;stroke-width:1.5;"/>
    <path clip-path="url(#pf1e99c696a)" d="M 115.332448 217.118155 
L 115.332448 202.696012 
" style="fill:none;stroke:#000000;stroke-width:1.5;"/>
    <path clip-path="url(#pf1e99c696a)" d="M 118.407604 214.764121 
L 118.407604 200.341978 
" style="fill:none;stroke:#000000;stroke-width:1.5;"/>
    <path clip-path="url(#pf1e99c696a)" d="M 121.48276 212.307719 
L 121.48276 197.885576 
" style="fill:none;stroke:#000000;stroke-width:1.5;"/>
    <path clip-path="url(#pf1e99c696a)" d="M 124.556282 209.748391 
L 124.556282 195.326248 
" style="fill:none;stroke:#000000;stroke-width:1.5;"/>
    <path clip-path="url(#pf1e99c696a)" d="M 127.631438 207.081743 
L 127.631438 192.6596 
" style="fill:none;stroke:#000000;stroke-width:1.5;"/>
    <path clip-path="url(#pf1e99c696a)" d="M 130.70496 204.309261 
L 130.70496 189.887118 
" style="fill:none;stroke:#000000;stroke-width:1.5;"/>
    <path clip-path="url(#pf1e99c696a)" d="M 133.780116 201.427013 
L 133.780116 187.00487 
" style="fill:none;stroke:#000000;stroke-width:1.5;"/>
    <path clip-path="url(#pf1e99c696a)" d="M 136.853638 198.437498 
L 136.853638 184.015355 
" style="fill:none;stroke:#000000;stroke-width:1.5;"/>
    <path clip-path="url(#pf1e99c696a)" d="M 139.928794 195.337439 
L 139.928794 180.915296 
" style="fill:none;stroke:#000000;stroke-width:1.5;"/>
    <path clip-path="url(#pf1e99c696a)" d="M 143.002315 192.130559 
L 143.002315 177.708416 
" style="fill:none;stroke:#000000;stroke-width:1.5;"/>
    <path clip-path="url(#pf1e99c696a)" d="M 146.077471 188.814455 
L 146.077471 174.392312 
" style="fill:none;stroke:#000000;stroke-width:1.5;"/>
    <path clip-path="url(#pf1e99c696a)" d="M 149.150993 185.394296 
L 149.150993 170.972153 
" style="fill:none;stroke:#000000;stroke-width:1.5;"/>
    <path clip-path="url(#pf1e99c696a)" d="M 152.226149 181.868787 
L 152.226149 167.446644 
" style="fill:none;stroke:#000000;stroke-width:1.5;"/>
    <path clip-path="url(#pf1e99c696a)" d="M 155.299671 178.24477 
L 155.299671 163.822627 
" style="fill:none;stroke:#000000;stroke-width:1.5;"/>
    <path clip-path="url(#pf1e99c696a)" d="M 158.374827 174.5223 
L 158.374827 160.100157 
" style="fill:none;stroke:#000000;stroke-width:1.5;"/>
    <path clip-path="url(#pf1e99c696a)" d="M 161.448349 170.710107 
L 161.448349 156.287964 
" style="fill:none;stroke:#000000;stroke-width:1.5;"/>
    <path clip-path="url(#pf1e99c696a)" d="M 164.523505 166.809834 
L 164.523505 152.387691 
" style="fill:none;stroke:#000000;stroke-width:1.5;"/>
    <path clip-path="url(#pf1e99c696a)" d="M 167.598661 162.830152 
L 167.598661 148.408009 
" style="fill:none;stroke:#000000;stroke-width:1.5;"/>
    <path clip-path="url(#pf1e99c696a)" d="M 170.672183 158.780913 
L 170.672183 144.35877 
" style="fill:none;stroke:#000000;stroke-width:1.5;"/>
    <path clip-path="url(#pf1e99c696a)" d="M 173.747339 154.666533 
L 173.747339 140.24439 
" style="fill:none;stroke:#000000;stroke-width:1.5;"/>
    <path clip-path="url(#pf1e99c696a)" d="M 176.82086 150.501174 
L 176.82086 136.079031 
" style="fill:none;stroke:#000000;stroke-width:1.5;"/>
    <path clip-path="url(#pf1e99c696a)" d="M 179.896016 146.291294 
L 179.896016 131.869151 
" style="fill:none;stroke:#000000;stroke-width:1.5;"/>
    <path clip-path="url(#pf1e99c696a)" d="M 182.969538 142.053338 
L 182.969538 127.631195 
" style="fill:none;stroke:#000000;stroke-width:1.5;"/>
    <path clip-path="url(#pf1e99c696a)" d="M 186.044694 137.795866 
L 186.044694 123.373723 
" style="fill:none;stroke:#000000;stroke-width:1.5;"/>
    <path clip-path="url(#pf1e99c696a)" d="M 189.118216 133.537523 
L 189.118216 119.11538 
" style="fill:none;stroke:#000000;stroke-width:1.5;"/>
    <path clip-path="url(#pf1e99c696a)" d="M 192.193372 129.28893 
L 192.193372 114.866787 
" style="fill:none;stroke:#000000;stroke-width:1.5;"/>
    <path clip-path="url(#pf1e99c696a)" d="M 195.266894 125.07071 
L 195.266894 110.648567 
" style="fill:none;stroke:#000000;stroke-width:1.5;"/>
    <path clip-path="url(#pf1e99c696a)" d="M 198.34205 120.895383 
L 198.34205 106.47324 
" style="fill:none;stroke:#000000;stroke-width:1.5;"/>
    <path clip-path="url(#pf1e99c696a)" d="M 201.415572 116.785178 
L 201.415572 102.363035 
" style="fill:none;stroke:#000000;stroke-width:1.5;"/>
    <path clip-path="url(#pf1e99c696a)" d="M 204.490728 112.754207 
L 204.490728 98.332064 
" style="fill:none;stroke:#000000;stroke-width:1.5;"/>
    <path clip-path="url(#pf1e99c696a)" d="M 207.564249 108.825776 
L 207.564249 94.403633 
" style="fill:none;stroke:#000000;stroke-width:1.5;"/>
    <path clip-path="url(#pf1e99c696a)" d="M 210.639405 105.015139 
L 210.639405 90.592996 
" style="fill:none;stroke:#000000;stroke-width:1.5;"/>
    <path clip-path="url(#pf1e99c696a)" d="M 213.714561 101.344083 
L 213.714561 86.92194 
" style="fill:none;stroke:#000000;stroke-width:1.5;"/>
    <path clip-path="url(#pf1e99c696a)" d="M 216.788083 97.834143 
L 216.788083 83.412 
" style="fill:none;stroke:#000000;stroke-width:1.5;"/>
    <path clip-path="url(#pf1e99c696a)" d="M 219.863239 94.501142 
L 219.863239 80.078999 
" style="fill:none;stroke:#000000;stroke-width:1.5;"/>
    <path clip-path="url(#pf1e99c696a)" d="M 222.936761 91.367804 
L 222.936761 76.945661 
" style="fill:none;stroke:#000000;stroke-width:1.5;"/>
    <path clip-path="url(#pf1e99c696a)" d="M 226.011917 88.449417 
L 226.011917 74.027274 
" style="fill:none;stroke:#000000;stroke-width:1.5;"/>
    <path clip-path="url(#pf1e99c696a)" d="M 229.085439 85.766894 
L 229.085439 71.344751 
" style="fill:none;stroke:#000000;stroke-width:1.5;"/>
    <path clip-path="url(#pf1e99c696a)" d="M 232.160595 83.334197 
L 232.160595 68.912054 
" style="fill:none;stroke:#000000;stroke-width:1.5;"/>
    <path clip-path="url(#pf1e99c696a)" d="M 235.234117 81.169483 
L 235.234117 66.74734 
" style="fill:none;stroke:#000000;stroke-width:1.5;"/>
    <path clip-path="url(#pf1e99c696a)" d="M 238.309272 79.284606 
L 238.309272 64.862463 
" style="fill:none;stroke:#000000;stroke-width:1.5;"/>
    <path clip-path="url(#pf1e99c696a)" d="M 241.382794 77.694088 
L 241.382794 63.271945 
" style="fill:none;stroke:#000000;stroke-width:1.5;"/>
    <path clip-path="url(#pf1e99c696a)" d="M 244.45795 76.406971 
L 244.45795 61.984828 
" style="fill:none;stroke:#000000;stroke-width:1.5;"/>
    <path clip-path="url(#pf1e99c696a)" d="M 247.531472 75.433401 
L 247.531472 61.011258 
" style="fill:none;stroke:#000000;stroke-width:1.5;"/>
    <path clip-path="url(#pf1e99c696a)" d="M 250.606628 74.779052 
L 250.606628 60.356909 
" style="fill:none;stroke:#000000;stroke-width:1.5;"/>
    <path clip-path="url(#pf1e99c696a)" d="M 253.68015 74.449152 
L 253.68015 60.027009 
" style="fill:none;stroke:#000000;stroke-width:1.5;"/>
    <path clip-path="url(#pf1e99c696a)" d="M 256.755306 74.445648 
L 256.755306 60.023505 
" style="fill:none;stroke:#000000;stroke-width:1.5;"/>
    <path clip-path="url(#pf1e99c696a)" d="M 259.828828 74.768568 
L 259.828828 60.346425 
" style="fill:none;stroke:#000000;stroke-width:1.5;"/>
    <path clip-path="url(#pf1e99c696a)" d="M 262.903984 75.416007 
L 262.903984 60.993864 
" style="fill:none;stroke:#000000;stroke-width:1.5;"/>
    <path clip-path="url(#pf1e99c696a)" d="M 265.97914 76.383388 
L 265.97914 61.961245 
" style="fill:none;stroke:#000000;stroke-width:1.5;"/>
    <path clip-path="url(#pf1e99c696a)" d="M 269.052661 77.663283 
L 269.052661 63.24114 
" style="fill:none;stroke:#000000;stroke-width:1.5;"/>
    <path clip-path="url(#pf1e99c696a)" d="M 272.127817 79.24831 
L 272.127817 64.826167 
" style="fill:none;stroke:#000000;stroke-width:1.5;"/>
    <path clip-path="url(#pf1e99c696a)" d="M 275.201339 81.126101 
L 275.201339 66.703958 
" style="fill:none;stroke:#000000;stroke-width:1.5;"/>
    <path clip-path="url(#pf1e99c696a)" d="M 278.276495 83.286158 
L 278.276495 68.864015 
" style="fill:none;stroke:#000000;stroke-width:1.5;"/>
    <path clip-path="url(#pf1e99c696a)" d="M 281.350017 85.712075 
L 281.350017 71.289932 
" style="fill:none;stroke:#000000;stroke-width:1.5;"/>
    <path clip-path="url(#pf1e99c696a)" d="M 284.425173 88.390875 
L 284.425173 73.968732 
" style="fill:none;stroke:#000000;stroke-width:1.5;"/>
    <path clip-path="url(#pf1e99c696a)" d="M 287.498695 91.302934 
L 287.498695 76.880791 
" style="fill:none;stroke:#000000;stroke-width:1.5;"/>
    <path clip-path="url(#pf1e99c696a)" d="M 290.573851 94.433542 
L 290.573851 80.011399 
" style="fill:none;stroke:#000000;stroke-width:1.5;"/>
    <path clip-path="url(#pf1e99c696a)" d="M 293.647373 97.760781 
L 293.647373 83.338638 
" style="fill:none;stroke:#000000;stroke-width:1.5;"/>
    <path clip-path="url(#pf1e99c696a)" d="M 296.722529 101.269003 
L 296.722529 86.84686 
" style="fill:none;stroke:#000000;stroke-width:1.5;"/>
    <path clip-path="url(#pf1e99c696a)" d="M 299.796051 104.934944 
L 299.796051 90.512801 
" style="fill:none;stroke:#000000;stroke-width:1.5;"/>
    <path clip-path="url(#pf1e99c696a)" d="M 302.871206 108.742797 
L 302.871206 94.320654 
" style="fill:none;stroke:#000000;stroke-width:1.5;"/>
    <path clip-path="url(#pf1e99c696a)" d="M 305.944728 112.668865 
L 305.944728 98.246722 
" style="fill:none;stroke:#000000;stroke-width:1.5;"/>
    <path clip-path="url(#pf1e99c696a)" d="M 309.019884 116.697883 
L 309.019884 102.27574 
" style="fill:none;stroke:#000000;stroke-width:1.5;"/>
    <path clip-path="url(#pf1e99c696a)" d="M 312.09504 120.808743 
L 312.09504 106.3866 
" style="fill:none;stroke:#000000;stroke-width:1.5;"/>
    <path clip-path="url(#pf1e99c696a)" d="M 315.168562 124.980708 
L 315.168562 110.558565 
" style="fill:none;stroke:#000000;stroke-width:1.5;"/>
    <path clip-path="url(#pf1e99c696a)" d="M 318.243718 129.200394 
L 318.243718 114.778251 
" style="fill:none;stroke:#000000;stroke-width:1.5;"/>
    <path clip-path="url(#pf1e99c696a)" d="M 321.31724 133.446304 
L 321.31724 119.024161 
" style="fill:none;stroke:#000000;stroke-width:1.5;"/>
    <path clip-path="url(#pf1e99c696a)" d="M 324.392396 137.706817 
L 324.392396 123.284674 
" style="fill:none;stroke:#000000;stroke-width:1.5;"/>
    <path clip-path="url(#pf1e99c696a)" d="M 327.465918 141.962244 
L 327.465918 127.540101 
" style="fill:none;stroke:#000000;stroke-width:1.5;"/>
    <path clip-path="url(#pf1e99c696a)" d="M 330.541074 146.202957 
L 330.541074 131.780814 
" style="fill:none;stroke:#000000;stroke-width:1.5;"/>
    <path clip-path="url(#pf1e99c696a)" d="M 333.614595 150.41137 
L 333.614595 135.989227 
" style="fill:none;stroke:#000000;stroke-width:1.5;"/>
    <path clip-path="url(#pf1e99c696a)" d="M 336.689751 154.579955 
L 336.689751 140.157812 
" style="fill:none;stroke:#000000;stroke-width:1.5;"/>
    <path clip-path="url(#pf1e99c696a)" d="M 339.763273 158.69338 
L 339.763273 144.271237 
" style="fill:none;stroke:#000000;stroke-width:1.5;"/>
    <path clip-path="url(#pf1e99c696a)" d="M 342.838429 162.746199 
L 342.838429 148.324056 
" style="fill:none;stroke:#000000;stroke-width:1.5;"/>
    <path clip-path="url(#pf1e99c696a)" d="M 345.911951 166.725366 
L 345.911951 152.303223 
" style="fill:none;stroke:#000000;stroke-width:1.5;"/>
    <path clip-path="url(#pf1e99c696a)" d="M 348.987107 170.627414 
L 348.987107 156.205271 
" style="fill:none;stroke:#000000;stroke-width:1.5;"/>
    <path clip-path="url(#pf1e99c696a)" d="M 352.060629 174.441514 
L 352.060629 160.019371 
" style="fill:none;stroke:#000000;stroke-width:1.5;"/>
    <path clip-path="url(#pf1e99c696a)" d="M 355.135785 178.166004 
L 355.135785 163.743861 
" style="fill:none;stroke:#000000;stroke-width:1.5;"/>
    <path clip-path="url(#pf1e99c696a)" d="M 358.209307 181.792133 
L 358.209307 167.36999 
" style="fill:none;stroke:#000000;stroke-width:1.5;"/>
    <path clip-path="url(#pf1e99c696a)" d="M 361.284463 185.31983 
L 361.284463 170.897687 
" style="fill:none;stroke:#000000;stroke-width:1.5;"/>
    <path clip-path="url(#pf1e99c696a)" d="M 364.359618 188.744025 
L 364.359618 174.321882 
" style="fill:none;stroke:#000000;stroke-width:1.5;"/>
    <path clip-path="url(#pf1e99c696a)" d="M 367.43314 192.060627 
L 367.43314 177.638483 
" style="fill:none;stroke:#000000;stroke-width:1.5;"/>
    <path clip-path="url(#pf1e99c696a)" d="M 370.508296 195.2715 
L 370.508296 180.849357 
" style="fill:none;stroke:#000000;stroke-width:1.5;"/>
    <path clip-path="url(#pf1e99c696a)" d="M 373.581818 198.372214 
L 373.581818 183.950071 
" style="fill:none;stroke:#000000;stroke-width:1.5;"/>
   </g>
   <g id="line2d_15">
    <defs>
     <path d="M 0 3 
C 0.795609 3 1.55874 2.683901 2.12132 2.12132 
C 2.683901 1.55874 3 0.795609 3 0 
C 3 -0.795609 2.683901 -1.55874 2.12132 -2.12132 
C 1.55874 -2.683901 0.795609 -3 0 -3 
C -0.795609 -3 -1.55874 -2.683901 -2.12132 -2.12132 
C -2.683901 -1.55874 -3 -0.795609 -3 0 
C -3 0.795609 -2.683901 1.55874 -2.12132 2.12132 
C -1.55874 2.683901 -0.795609 3 0 3 
z
" id="mee8850e08c" style="stroke:#1f77b4;"/>
    </defs>
    <g clip-path="url(#pf1e99c696a)">
     <use style="fill:#1f77b4;stroke:#1f77b4;" x="69.218182" xlink:href="#mee8850e08c" y="225.011352"/>
     <use style="fill:#1f77b4;stroke:#1f77b4;" x="72.291704" xlink:href="#mee8850e08c" y="225.011352"/>
     <use style="fill:#1f77b4;stroke:#1f77b4;" x="75.36686" xlink:href="#mee8850e08c" y="225.011352"/>
     <use style="fill:#1f77b4;stroke:#1f77b4;" x="78.440382" xlink:href="#mee8850e08c" y="225.011352"/>
     <use style="fill:#1f77b4;stroke:#1f77b4;" x="81.515537" xlink:href="#mee8850e08c" y="225.011352"/>
     <use style="fill:#1f77b4;stroke:#1f77b4;" x="84.589059" xlink:href="#mee8850e08c" y="225.011352"/>
     <use style="fill:#1f77b4;stroke:#1f77b4;" x="87.664215" xlink:href="#mee8850e08c" y="225.011352"/>
     <use style="fill:#1f77b4;stroke:#1f77b4;" x="90.737737" xlink:href="#mee8850e08c" y="225.011352"/>
     <use style="fill:#1f77b4;stroke:#1f77b4;" x="93.812893" xlink:href="#mee8850e08c" y="225.011352"/>
     <use style="fill:#1f77b4;stroke:#1f77b4;" x="96.886415" xlink:href="#mee8850e08c" y="225.011352"/>
     <use style="fill:#1f77b4;stroke:#1f77b4;" x="99.961571" xlink:href="#mee8850e08c" y="225.011352"/>
     <use style="fill:#1f77b4;stroke:#1f77b4;" x="103.035093" xlink:href="#mee8850e08c" y="225.011352"/>
     <use style="fill:#1f77b4;stroke:#1f77b4;" x="106.110249" xlink:href="#mee8850e08c" y="225.011352"/>
     <use style="fill:#1f77b4;stroke:#1f77b4;" x="109.183771" xlink:href="#mee8850e08c" y="225.011352"/>
     <use style="fill:#1f77b4;stroke:#1f77b4;" x="112.258926" xlink:href="#mee8850e08c" y="225.011352"/>
     <use style="fill:#1f77b4;stroke:#1f77b4;" x="115.332448" xlink:href="#mee8850e08c" y="225.011352"/>
     <use style="fill:#1f77b4;stroke:#1f77b4;" x="118.407604" xlink:href="#mee8850e08c" y="225.011352"/>
     <use style="fill:#1f77b4;stroke:#1f77b4;" x="121.48276" xlink:href="#mee8850e08c" y="203.767998"/>
     <use style="fill:#1f77b4;stroke:#1f77b4;" x="124.556282" xlink:href="#mee8850e08c" y="203.767998"/>
     <use style="fill:#1f77b4;stroke:#1f77b4;" x="127.631438" xlink:href="#mee8850e08c" y="203.767998"/>
     <use style="fill:#1f77b4;stroke:#1f77b4;" x="130.70496" xlink:href="#mee8850e08c" y="214.389788"/>
     <use style="fill:#1f77b4;stroke:#1f77b4;" x="133.780116" xlink:href="#mee8850e08c" y="203.767998"/>
     <use style="fill:#1f77b4;stroke:#1f77b4;" x="136.853638" xlink:href="#mee8850e08c" y="203.767998"/>
     <use style="fill:#1f77b4;stroke:#1f77b4;" x="139.928794" xlink:href="#mee8850e08c" y="203.767998"/>
     <use style="fill:#1f77b4;stroke:#1f77b4;" x="143.002315" xlink:href="#mee8850e08c" y="203.767998"/>
     <use style="fill:#1f77b4;stroke:#1f77b4;" x="146.077471" xlink:href="#mee8850e08c" y="203.767998"/>
     <use style="fill:#1f77b4;stroke:#1f77b4;" x="149.150993" xlink:href="#mee8850e08c" y="182.52487"/>
     <use style="fill:#1f77b4;stroke:#1f77b4;" x="152.226149" xlink:href="#mee8850e08c" y="182.52487"/>
     <use style="fill:#1f77b4;stroke:#1f77b4;" x="155.299671" xlink:href="#mee8850e08c" y="182.52487"/>
     <use style="fill:#1f77b4;stroke:#1f77b4;" x="158.374827" xlink:href="#mee8850e08c" y="171.903306"/>
     <use style="fill:#1f77b4;stroke:#1f77b4;" x="161.448349" xlink:href="#mee8850e08c" y="161.281517"/>
     <use style="fill:#1f77b4;stroke:#1f77b4;" x="164.523505" xlink:href="#mee8850e08c" y="161.281517"/>
     <use style="fill:#1f77b4;stroke:#1f77b4;" x="167.598661" xlink:href="#mee8850e08c" y="161.281517"/>
     <use style="fill:#1f77b4;stroke:#1f77b4;" x="170.672183" xlink:href="#mee8850e08c" y="150.659953"/>
     <use style="fill:#1f77b4;stroke:#1f77b4;" x="173.747339" xlink:href="#mee8850e08c" y="140.038389"/>
     <use style="fill:#1f77b4;stroke:#1f77b4;" x="176.82086" xlink:href="#mee8850e08c" y="140.038389"/>
     <use style="fill:#1f77b4;stroke:#1f77b4;" x="179.896016" xlink:href="#mee8850e08c" y="140.038389"/>
     <use style="fill:#1f77b4;stroke:#1f77b4;" x="182.969538" xlink:href="#mee8850e08c" y="140.038389"/>
     <use style="fill:#1f77b4;stroke:#1f77b4;" x="186.044694" xlink:href="#mee8850e08c" y="129.416599"/>
     <use style="fill:#1f77b4;stroke:#1f77b4;" x="189.118216" xlink:href="#mee8850e08c" y="118.795035"/>
     <use style="fill:#1f77b4;stroke:#1f77b4;" x="192.193372" xlink:href="#mee8850e08c" y="118.795035"/>
     <use style="fill:#1f77b4;stroke:#1f77b4;" x="195.266894" xlink:href="#mee8850e08c" y="118.795035"/>
     <use style="fill:#1f77b4;stroke:#1f77b4;" x="198.34205" xlink:href="#mee8850e08c" y="118.795035"/>
     <use style="fill:#1f77b4;stroke:#1f77b4;" x="201.415572" xlink:href="#mee8850e08c" y="97.551682"/>
     <use style="fill:#1f77b4;stroke:#1f77b4;" x="204.490728" xlink:href="#mee8850e08c" y="97.551682"/>
     <use style="fill:#1f77b4;stroke:#1f77b4;" x="207.564249" xlink:href="#mee8850e08c" y="97.551682"/>
     <use style="fill:#1f77b4;stroke:#1f77b4;" x="210.639405" xlink:href="#mee8850e08c" y="86.930118"/>
     <use style="fill:#1f77b4;stroke:#1f77b4;" x="213.714561" xlink:href="#mee8850e08c" y="86.930118"/>
     <use style="fill:#1f77b4;stroke:#1f77b4;" x="216.788083" xlink:href="#mee8850e08c" y="76.308554"/>
     <use style="fill:#1f77b4;stroke:#1f77b4;" x="219.863239" xlink:href="#mee8850e08c" y="76.308554"/>
     <use style="fill:#1f77b4;stroke:#1f77b4;" x="222.936761" xlink:href="#mee8850e08c" y="76.308554"/>
     <use style="fill:#1f77b4;stroke:#1f77b4;" x="226.011917" xlink:href="#mee8850e08c" y="76.308554"/>
     <use style="fill:#1f77b4;stroke:#1f77b4;" x="229.085439" xlink:href="#mee8850e08c" y="65.68699"/>
     <use style="fill:#1f77b4;stroke:#1f77b4;" x="232.160595" xlink:href="#mee8850e08c" y="55.0652"/>
     <use style="fill:#1f77b4;stroke:#1f77b4;" x="235.234117" xlink:href="#mee8850e08c" y="44.443636"/>
     <use style="fill:#1f77b4;stroke:#1f77b4;" x="238.309272" xlink:href="#mee8850e08c" y="55.0652"/>
     <use style="fill:#1f77b4;stroke:#1f77b4;" x="241.382794" xlink:href="#mee8850e08c" y="55.0652"/>
     <use style="fill:#1f77b4;stroke:#1f77b4;" x="244.45795" xlink:href="#mee8850e08c" y="55.0652"/>
     <use style="fill:#1f77b4;stroke:#1f77b4;" x="247.531472" xlink:href="#mee8850e08c" y="55.0652"/>
     <use style="fill:#1f77b4;stroke:#1f77b4;" x="250.606628" xlink:href="#mee8850e08c" y="65.68699"/>
     <use style="fill:#1f77b4;stroke:#1f77b4;" x="253.68015" xlink:href="#mee8850e08c" y="76.308554"/>
     <use style="fill:#1f77b4;stroke:#1f77b4;" x="256.755306" xlink:href="#mee8850e08c" y="76.308554"/>
     <use style="fill:#1f77b4;stroke:#1f77b4;" x="259.828828" xlink:href="#mee8850e08c" y="76.308554"/>
     <use style="fill:#1f77b4;stroke:#1f77b4;" x="262.903984" xlink:href="#mee8850e08c" y="76.308554"/>
     <use style="fill:#1f77b4;stroke:#1f77b4;" x="265.97914" xlink:href="#mee8850e08c" y="76.308554"/>
     <use style="fill:#1f77b4;stroke:#1f77b4;" x="269.052661" xlink:href="#mee8850e08c" y="76.308554"/>
     <use style="fill:#1f77b4;stroke:#1f77b4;" x="272.127817" xlink:href="#mee8850e08c" y="76.308554"/>
     <use style="fill:#1f77b4;stroke:#1f77b4;" x="275.201339" xlink:href="#mee8850e08c" y="76.308554"/>
     <use style="fill:#1f77b4;stroke:#1f77b4;" x="278.276495" xlink:href="#mee8850e08c" y="86.930118"/>
     <use style="fill:#1f77b4;stroke:#1f77b4;" x="281.350017" xlink:href="#mee8850e08c" y="97.551682"/>
     <use style="fill:#1f77b4;stroke:#1f77b4;" x="284.425173" xlink:href="#mee8850e08c" y="97.551682"/>
     <use style="fill:#1f77b4;stroke:#1f77b4;" x="287.498695" xlink:href="#mee8850e08c" y="97.551682"/>
     <use style="fill:#1f77b4;stroke:#1f77b4;" x="290.573851" xlink:href="#mee8850e08c" y="97.551682"/>
     <use style="fill:#1f77b4;stroke:#1f77b4;" x="293.647373" xlink:href="#mee8850e08c" y="97.551682"/>
     <use style="fill:#1f77b4;stroke:#1f77b4;" x="296.722529" xlink:href="#mee8850e08c" y="118.795035"/>
     <use style="fill:#1f77b4;stroke:#1f77b4;" x="299.796051" xlink:href="#mee8850e08c" y="118.795035"/>
     <use style="fill:#1f77b4;stroke:#1f77b4;" x="302.871206" xlink:href="#mee8850e08c" y="118.795035"/>
     <use style="fill:#1f77b4;stroke:#1f77b4;" x="305.944728" xlink:href="#mee8850e08c" y="118.795035"/>
     <use style="fill:#1f77b4;stroke:#1f77b4;" x="309.019884" xlink:href="#mee8850e08c" y="118.795035"/>
     <use style="fill:#1f77b4;stroke:#1f77b4;" x="312.09504" xlink:href="#mee8850e08c" y="118.795035"/>
     <use style="fill:#1f77b4;stroke:#1f77b4;" x="315.168562" xlink:href="#mee8850e08c" y="118.795035"/>
     <use style="fill:#1f77b4;stroke:#1f77b4;" x="318.243718" xlink:href="#mee8850e08c" y="129.416599"/>
     <use style="fill:#1f77b4;stroke:#1f77b4;" x="321.31724" xlink:href="#mee8850e08c" y="140.038389"/>
     <use style="fill:#1f77b4;stroke:#1f77b4;" x="324.392396" xlink:href="#mee8850e08c" y="140.038389"/>
     <use style="fill:#1f77b4;stroke:#1f77b4;" x="327.465918" xlink:href="#mee8850e08c" y="140.038389"/>
     <use style="fill:#1f77b4;stroke:#1f77b4;" x="330.541074" xlink:href="#mee8850e08c" y="140.038389"/>
     <use style="fill:#1f77b4;stroke:#1f77b4;" x="333.614595" xlink:href="#mee8850e08c" y="140.038389"/>
     <use style="fill:#1f77b4;stroke:#1f77b4;" x="336.689751" xlink:href="#mee8850e08c" y="140.038389"/>
     <use style="fill:#1f77b4;stroke:#1f77b4;" x="339.763273" xlink:href="#mee8850e08c" y="140.038389"/>
     <use style="fill:#1f77b4;stroke:#1f77b4;" x="342.838429" xlink:href="#mee8850e08c" y="140.038389"/>
     <use style="fill:#1f77b4;stroke:#1f77b4;" x="345.911951" xlink:href="#mee8850e08c" y="140.038389"/>
     <use style="fill:#1f77b4;stroke:#1f77b4;" x="348.987107" xlink:href="#mee8850e08c" y="150.659953"/>
     <use style="fill:#1f77b4;stroke:#1f77b4;" x="352.060629" xlink:href="#mee8850e08c" y="161.281517"/>
     <use style="fill:#1f77b4;stroke:#1f77b4;" x="355.135785" xlink:href="#mee8850e08c" y="161.281517"/>
     <use style="fill:#1f77b4;stroke:#1f77b4;" x="358.209307" xlink:href="#mee8850e08c" y="161.281517"/>
     <use style="fill:#1f77b4;stroke:#1f77b4;" x="361.284463" xlink:href="#mee8850e08c" y="161.281517"/>
     <use style="fill:#1f77b4;stroke:#1f77b4;" x="364.359618" xlink:href="#mee8850e08c" y="161.281517"/>
     <use style="fill:#1f77b4;stroke:#1f77b4;" x="367.43314" xlink:href="#mee8850e08c" y="161.281517"/>
     <use style="fill:#1f77b4;stroke:#1f77b4;" x="370.508296" xlink:href="#mee8850e08c" y="161.281517"/>
     <use style="fill:#1f77b4;stroke:#1f77b4;" x="373.581818" xlink:href="#mee8850e08c" y="161.281517"/>
    </g>
   </g>
   <g id="line2d_16">
    <path clip-path="url(#pf1e99c696a)" d="M 69.218182 234.70221 
L 72.291704 233.562843 
L 75.36686 232.361849 
L 78.440382 231.097765 
L 81.515537 229.766448 
L 84.589059 228.366466 
L 87.664215 226.893438 
L 90.737737 225.34601 
L 93.812893 223.719596 
L 96.886415 222.012981 
L 99.961571 220.221419 
L 103.035093 218.343914 
L 106.110249 216.37562 
L 109.183771 214.315857 
L 112.258926 212.159761 
L 115.332448 209.907083 
L 118.407604 207.55305 
L 121.48276 205.096648 
L 124.556282 202.537319 
L 127.631438 199.870671 
L 130.70496 197.098189 
L 133.780116 194.215942 
L 136.853638 191.226426 
L 139.928794 188.126368 
L 143.002315 184.919488 
L 146.077471 181.603384 
L 149.150993 178.183225 
L 152.226149 174.657716 
L 155.299671 171.033699 
L 158.374827 167.311229 
L 161.448349 163.499035 
L 164.523505 159.598762 
L 167.598661 155.619081 
L 170.672183 151.569841 
L 173.747339 147.455461 
L 176.82086 143.290103 
L 179.896016 139.080222 
L 182.969538 134.842266 
L 186.044694 130.584795 
L 189.118216 126.326451 
L 192.193372 122.077859 
L 195.266894 117.859638 
L 198.34205 113.684312 
L 201.415572 109.574106 
L 204.490728 105.543136 
L 207.564249 101.614705 
L 210.639405 97.804068 
L 213.714561 94.133011 
L 216.788083 90.623072 
L 219.863239 87.290071 
L 222.936761 84.156733 
L 226.011917 81.238345 
L 229.085439 78.555823 
L 232.160595 76.123125 
L 235.234117 73.958412 
L 238.309272 72.073534 
L 241.382794 70.483016 
L 244.45795 69.1959 
L 247.531472 68.22233 
L 250.606628 67.567981 
L 253.68015 67.238081 
L 256.755306 67.234577 
L 259.828828 67.557497 
L 262.903984 68.204936 
L 265.97914 69.172317 
L 269.052661 70.452211 
L 272.127817 72.037238 
L 275.201339 73.915029 
L 278.276495 76.075086 
L 281.350017 78.501004 
L 284.425173 81.179803 
L 287.498695 84.091862 
L 290.573851 87.222471 
L 293.647373 90.549709 
L 296.722529 94.057931 
L 299.796051 97.723873 
L 302.871206 101.531726 
L 305.944728 105.457793 
L 309.019884 109.486812 
L 312.09504 113.597672 
L 315.168562 117.769636 
L 318.243718 121.989322 
L 321.31724 126.235233 
L 324.392396 130.495746 
L 327.465918 134.751172 
L 330.541074 138.991885 
L 333.614595 143.200299 
L 336.689751 147.368883 
L 339.763273 151.482308 
L 342.838429 155.535127 
L 345.911951 159.514295 
L 348.987107 163.416343 
L 352.060629 167.230443 
L 355.135785 170.954932 
L 358.209307 174.581061 
L 361.284463 178.108758 
L 364.359618 181.532954 
L 367.43314 184.849555 
L 370.508296 188.060428 
L 373.581818 191.161142 
" style="fill:none;stroke:#ff7f0e;stroke-linecap:square;stroke-width:1.5;"/>
   </g>
   <g id="line2d_17"/>
   <g id="line2d_18"/>
   <g id="line2d_19">
    <defs>
     <path d="M 2 0 
L -2 -0 
" id="me37bbda147" style="stroke:#000000;"/>
    </defs>
    <g clip-path="url(#pf1e99c696a)">
     <use style="stroke:#000000;" x="69.218182" xlink:href="#me37bbda147" y="242.116364"/>
     <use style="stroke:#000000;" x="72.291704" xlink:href="#me37bbda147" y="240.832089"/>
     <use style="stroke:#000000;" x="75.36686" xlink:href="#me37bbda147" y="239.589442"/>
     <use style="stroke:#000000;" x="78.440382" xlink:href="#me37bbda147" y="238.313521"/>
     <use style="stroke:#000000;" x="81.515537" xlink:href="#me37bbda147" y="236.978847"/>
     <use style="stroke:#000000;" x="84.589059" xlink:href="#me37bbda147" y="235.577913"/>
     <use style="stroke:#000000;" x="87.664215" xlink:href="#me37bbda147" y="234.104616"/>
     <use style="stroke:#000000;" x="90.737737" xlink:href="#me37bbda147" y="232.557112"/>
     <use style="stroke:#000000;" x="93.812893" xlink:href="#me37bbda147" y="230.930676"/>
     <use style="stroke:#000000;" x="96.886415" xlink:href="#me37bbda147" y="229.224055"/>
     <use style="stroke:#000000;" x="99.961571" xlink:href="#me37bbda147" y="227.432491"/>
     <use style="stroke:#000000;" x="103.035093" xlink:href="#me37bbda147" y="225.554986"/>
     <use style="stroke:#000000;" x="106.110249" xlink:href="#me37bbda147" y="223.586692"/>
     <use style="stroke:#000000;" x="109.183771" xlink:href="#me37bbda147" y="221.526928"/>
     <use style="stroke:#000000;" x="112.258926" xlink:href="#me37bbda147" y="219.370832"/>
     <use style="stroke:#000000;" x="115.332448" xlink:href="#me37bbda147" y="217.118155"/>
     <use style="stroke:#000000;" x="118.407604" xlink:href="#me37bbda147" y="214.764121"/>
     <use style="stroke:#000000;" x="121.48276" xlink:href="#me37bbda147" y="212.307719"/>
     <use style="stroke:#000000;" x="124.556282" xlink:href="#me37bbda147" y="209.748391"/>
     <use style="stroke:#000000;" x="127.631438" xlink:href="#me37bbda147" y="207.081743"/>
     <use style="stroke:#000000;" x="130.70496" xlink:href="#me37bbda147" y="204.309261"/>
     <use style="stroke:#000000;" x="133.780116" xlink:href="#me37bbda147" y="201.427013"/>
     <use style="stroke:#000000;" x="136.853638" xlink:href="#me37bbda147" y="198.437498"/>
     <use style="stroke:#000000;" x="139.928794" xlink:href="#me37bbda147" y="195.337439"/>
     <use style="stroke:#000000;" x="143.002315" xlink:href="#me37bbda147" y="192.130559"/>
     <use style="stroke:#000000;" x="146.077471" xlink:href="#me37bbda147" y="188.814455"/>
     <use style="stroke:#000000;" x="149.150993" xlink:href="#me37bbda147" y="185.394296"/>
     <use style="stroke:#000000;" x="152.226149" xlink:href="#me37bbda147" y="181.868787"/>
     <use style="stroke:#000000;" x="155.299671" xlink:href="#me37bbda147" y="178.24477"/>
     <use style="stroke:#000000;" x="158.374827" xlink:href="#me37bbda147" y="174.5223"/>
     <use style="stroke:#000000;" x="161.448349" xlink:href="#me37bbda147" y="170.710107"/>
     <use style="stroke:#000000;" x="164.523505" xlink:href="#me37bbda147" y="166.809834"/>
     <use style="stroke:#000000;" x="167.598661" xlink:href="#me37bbda147" y="162.830152"/>
     <use style="stroke:#000000;" x="170.672183" xlink:href="#me37bbda147" y="158.780913"/>
     <use style="stroke:#000000;" x="173.747339" xlink:href="#me37bbda147" y="154.666533"/>
     <use style="stroke:#000000;" x="176.82086" xlink:href="#me37bbda147" y="150.501174"/>
     <use style="stroke:#000000;" x="179.896016" xlink:href="#me37bbda147" y="146.291294"/>
     <use style="stroke:#000000;" x="182.969538" xlink:href="#me37bbda147" y="142.053338"/>
     <use style="stroke:#000000;" x="186.044694" xlink:href="#me37bbda147" y="137.795866"/>
     <use style="stroke:#000000;" x="189.118216" xlink:href="#me37bbda147" y="133.537523"/>
     <use style="stroke:#000000;" x="192.193372" xlink:href="#me37bbda147" y="129.28893"/>
     <use style="stroke:#000000;" x="195.266894" xlink:href="#me37bbda147" y="125.07071"/>
     <use style="stroke:#000000;" x="198.34205" xlink:href="#me37bbda147" y="120.895383"/>
     <use style="stroke:#000000;" x="201.415572" xlink:href="#me37bbda147" y="116.785178"/>
     <use style="stroke:#000000;" x="204.490728" xlink:href="#me37bbda147" y="112.754207"/>
     <use style="stroke:#000000;" x="207.564249" xlink:href="#me37bbda147" y="108.825776"/>
     <use style="stroke:#000000;" x="210.639405" xlink:href="#me37bbda147" y="105.015139"/>
     <use style="stroke:#000000;" x="213.714561" xlink:href="#me37bbda147" y="101.344083"/>
     <use style="stroke:#000000;" x="216.788083" xlink:href="#me37bbda147" y="97.834143"/>
     <use style="stroke:#000000;" x="219.863239" xlink:href="#me37bbda147" y="94.501142"/>
     <use style="stroke:#000000;" x="222.936761" xlink:href="#me37bbda147" y="91.367804"/>
     <use style="stroke:#000000;" x="226.011917" xlink:href="#me37bbda147" y="88.449417"/>
     <use style="stroke:#000000;" x="229.085439" xlink:href="#me37bbda147" y="85.766894"/>
     <use style="stroke:#000000;" x="232.160595" xlink:href="#me37bbda147" y="83.334197"/>
     <use style="stroke:#000000;" x="235.234117" xlink:href="#me37bbda147" y="81.169483"/>
     <use style="stroke:#000000;" x="238.309272" xlink:href="#me37bbda147" y="79.284606"/>
     <use style="stroke:#000000;" x="241.382794" xlink:href="#me37bbda147" y="77.694088"/>
     <use style="stroke:#000000;" x="244.45795" xlink:href="#me37bbda147" y="76.406971"/>
     <use style="stroke:#000000;" x="247.531472" xlink:href="#me37bbda147" y="75.433401"/>
     <use style="stroke:#000000;" x="250.606628" xlink:href="#me37bbda147" y="74.779052"/>
     <use style="stroke:#000000;" x="253.68015" xlink:href="#me37bbda147" y="74.449152"/>
     <use style="stroke:#000000;" x="256.755306" xlink:href="#me37bbda147" y="74.445648"/>
     <use style="stroke:#000000;" x="259.828828" xlink:href="#me37bbda147" y="74.768568"/>
     <use style="stroke:#000000;" x="262.903984" xlink:href="#me37bbda147" y="75.416007"/>
     <use style="stroke:#000000;" x="265.97914" xlink:href="#me37bbda147" y="76.383388"/>
     <use style="stroke:#000000;" x="269.052661" xlink:href="#me37bbda147" y="77.663283"/>
     <use style="stroke:#000000;" x="272.127817" xlink:href="#me37bbda147" y="79.24831"/>
     <use style="stroke:#000000;" x="275.201339" xlink:href="#me37bbda147" y="81.126101"/>
     <use style="stroke:#000000;" x="278.276495" xlink:href="#me37bbda147" y="83.286158"/>
     <use style="stroke:#000000;" x="281.350017" xlink:href="#me37bbda147" y="85.712075"/>
     <use style="stroke:#000000;" x="284.425173" xlink:href="#me37bbda147" y="88.390875"/>
     <use style="stroke:#000000;" x="287.498695" xlink:href="#me37bbda147" y="91.302934"/>
     <use style="stroke:#000000;" x="290.573851" xlink:href="#me37bbda147" y="94.433542"/>
     <use style="stroke:#000000;" x="293.647373" xlink:href="#me37bbda147" y="97.760781"/>
     <use style="stroke:#000000;" x="296.722529" xlink:href="#me37bbda147" y="101.269003"/>
     <use style="stroke:#000000;" x="299.796051" xlink:href="#me37bbda147" y="104.934944"/>
     <use style="stroke:#000000;" x="302.871206" xlink:href="#me37bbda147" y="108.742797"/>
     <use style="stroke:#000000;" x="305.944728" xlink:href="#me37bbda147" y="112.668865"/>
     <use style="stroke:#000000;" x="309.019884" xlink:href="#me37bbda147" y="116.697883"/>
     <use style="stroke:#000000;" x="312.09504" xlink:href="#me37bbda147" y="120.808743"/>
     <use style="stroke:#000000;" x="315.168562" xlink:href="#me37bbda147" y="124.980708"/>
     <use style="stroke:#000000;" x="318.243718" xlink:href="#me37bbda147" y="129.200394"/>
     <use style="stroke:#000000;" x="321.31724" xlink:href="#me37bbda147" y="133.446304"/>
     <use style="stroke:#000000;" x="324.392396" xlink:href="#me37bbda147" y="137.706817"/>
     <use style="stroke:#000000;" x="327.465918" xlink:href="#me37bbda147" y="141.962244"/>
     <use style="stroke:#000000;" x="330.541074" xlink:href="#me37bbda147" y="146.202957"/>
     <use style="stroke:#000000;" x="333.614595" xlink:href="#me37bbda147" y="150.41137"/>
     <use style="stroke:#000000;" x="336.689751" xlink:href="#me37bbda147" y="154.579955"/>
     <use style="stroke:#000000;" x="339.763273" xlink:href="#me37bbda147" y="158.69338"/>
     <use style="stroke:#000000;" x="342.838429" xlink:href="#me37bbda147" y="162.746199"/>
     <use style="stroke:#000000;" x="345.911951" xlink:href="#me37bbda147" y="166.725366"/>
     <use style="stroke:#000000;" x="348.987107" xlink:href="#me37bbda147" y="170.627414"/>
     <use style="stroke:#000000;" x="352.060629" xlink:href="#me37bbda147" y="174.441514"/>
     <use style="stroke:#000000;" x="355.135785" xlink:href="#me37bbda147" y="178.166004"/>
     <use style="stroke:#000000;" x="358.209307" xlink:href="#me37bbda147" y="181.792133"/>
     <use style="stroke:#000000;" x="361.284463" xlink:href="#me37bbda147" y="185.31983"/>
     <use style="stroke:#000000;" x="364.359618" xlink:href="#me37bbda147" y="188.744025"/>
     <use style="stroke:#000000;" x="367.43314" xlink:href="#me37bbda147" y="192.060627"/>
     <use style="stroke:#000000;" x="370.508296" xlink:href="#me37bbda147" y="195.2715"/>
     <use style="stroke:#000000;" x="373.581818" xlink:href="#me37bbda147" y="198.372214"/>
    </g>
   </g>
   <g id="line2d_20">
    <g clip-path="url(#pf1e99c696a)">
     <use style="stroke:#000000;" x="69.218182" xlink:href="#me37bbda147" y="227.288057"/>
     <use style="stroke:#000000;" x="72.291704" xlink:href="#me37bbda147" y="226.293598"/>
     <use style="stroke:#000000;" x="75.36686" xlink:href="#me37bbda147" y="225.134256"/>
     <use style="stroke:#000000;" x="78.440382" xlink:href="#me37bbda147" y="223.882009"/>
     <use style="stroke:#000000;" x="81.515537" xlink:href="#me37bbda147" y="222.55405"/>
     <use style="stroke:#000000;" x="84.589059" xlink:href="#me37bbda147" y="221.155018"/>
     <use style="stroke:#000000;" x="87.664215" xlink:href="#me37bbda147" y="219.68226"/>
     <use style="stroke:#000000;" x="90.737737" xlink:href="#me37bbda147" y="218.134908"/>
     <use style="stroke:#000000;" x="93.812893" xlink:href="#me37bbda147" y="216.508516"/>
     <use style="stroke:#000000;" x="96.886415" xlink:href="#me37bbda147" y="214.801907"/>
     <use style="stroke:#000000;" x="99.961571" xlink:href="#me37bbda147" y="213.010347"/>
     <use style="stroke:#000000;" x="103.035093" xlink:href="#me37bbda147" y="211.132843"/>
     <use style="stroke:#000000;" x="106.110249" xlink:href="#me37bbda147" y="209.164549"/>
     <use style="stroke:#000000;" x="109.183771" xlink:href="#me37bbda147" y="207.104785"/>
     <use style="stroke:#000000;" x="112.258926" xlink:href="#me37bbda147" y="204.948689"/>
     <use style="stroke:#000000;" x="115.332448" xlink:href="#me37bbda147" y="202.696012"/>
     <use style="stroke:#000000;" x="118.407604" xlink:href="#me37bbda147" y="200.341978"/>
     <use style="stroke:#000000;" x="121.48276" xlink:href="#me37bbda147" y="197.885576"/>
     <use style="stroke:#000000;" x="124.556282" xlink:href="#me37bbda147" y="195.326248"/>
     <use style="stroke:#000000;" x="127.631438" xlink:href="#me37bbda147" y="192.6596"/>
     <use style="stroke:#000000;" x="130.70496" xlink:href="#me37bbda147" y="189.887118"/>
     <use style="stroke:#000000;" x="133.780116" xlink:href="#me37bbda147" y="187.00487"/>
     <use style="stroke:#000000;" x="136.853638" xlink:href="#me37bbda147" y="184.015355"/>
     <use style="stroke:#000000;" x="139.928794" xlink:href="#me37bbda147" y="180.915296"/>
     <use style="stroke:#000000;" x="143.002315" xlink:href="#me37bbda147" y="177.708416"/>
     <use style="stroke:#000000;" x="146.077471" xlink:href="#me37bbda147" y="174.392312"/>
     <use style="stroke:#000000;" x="149.150993" xlink:href="#me37bbda147" y="170.972153"/>
     <use style="stroke:#000000;" x="152.226149" xlink:href="#me37bbda147" y="167.446644"/>
     <use style="stroke:#000000;" x="155.299671" xlink:href="#me37bbda147" y="163.822627"/>
     <use style="stroke:#000000;" x="158.374827" xlink:href="#me37bbda147" y="160.100157"/>
     <use style="stroke:#000000;" x="161.448349" xlink:href="#me37bbda147" y="156.287964"/>
     <use style="stroke:#000000;" x="164.523505" xlink:href="#me37bbda147" y="152.387691"/>
     <use style="stroke:#000000;" x="167.598661" xlink:href="#me37bbda147" y="148.408009"/>
     <use style="stroke:#000000;" x="170.672183" xlink:href="#me37bbda147" y="144.35877"/>
     <use style="stroke:#000000;" x="173.747339" xlink:href="#me37bbda147" y="140.24439"/>
     <use style="stroke:#000000;" x="176.82086" xlink:href="#me37bbda147" y="136.079031"/>
     <use style="stroke:#000000;" x="179.896016" xlink:href="#me37bbda147" y="131.869151"/>
     <use style="stroke:#000000;" x="182.969538" xlink:href="#me37bbda147" y="127.631195"/>
     <use style="stroke:#000000;" x="186.044694" xlink:href="#me37bbda147" y="123.373723"/>
     <use style="stroke:#000000;" x="189.118216" xlink:href="#me37bbda147" y="119.11538"/>
     <use style="stroke:#000000;" x="192.193372" xlink:href="#me37bbda147" y="114.866787"/>
     <use style="stroke:#000000;" x="195.266894" xlink:href="#me37bbda147" y="110.648567"/>
     <use style="stroke:#000000;" x="198.34205" xlink:href="#me37bbda147" y="106.47324"/>
     <use style="stroke:#000000;" x="201.415572" xlink:href="#me37bbda147" y="102.363035"/>
     <use style="stroke:#000000;" x="204.490728" xlink:href="#me37bbda147" y="98.332064"/>
     <use style="stroke:#000000;" x="207.564249" xlink:href="#me37bbda147" y="94.403633"/>
     <use style="stroke:#000000;" x="210.639405" xlink:href="#me37bbda147" y="90.592996"/>
     <use style="stroke:#000000;" x="213.714561" xlink:href="#me37bbda147" y="86.92194"/>
     <use style="stroke:#000000;" x="216.788083" xlink:href="#me37bbda147" y="83.412"/>
     <use style="stroke:#000000;" x="219.863239" xlink:href="#me37bbda147" y="80.078999"/>
     <use style="stroke:#000000;" x="222.936761" xlink:href="#me37bbda147" y="76.945661"/>
     <use style="stroke:#000000;" x="226.011917" xlink:href="#me37bbda147" y="74.027274"/>
     <use style="stroke:#000000;" x="229.085439" xlink:href="#me37bbda147" y="71.344751"/>
     <use style="stroke:#000000;" x="232.160595" xlink:href="#me37bbda147" y="68.912054"/>
     <use style="stroke:#000000;" x="235.234117" xlink:href="#me37bbda147" y="66.74734"/>
     <use style="stroke:#000000;" x="238.309272" xlink:href="#me37bbda147" y="64.862463"/>
     <use style="stroke:#000000;" x="241.382794" xlink:href="#me37bbda147" y="63.271945"/>
     <use style="stroke:#000000;" x="244.45795" xlink:href="#me37bbda147" y="61.984828"/>
     <use style="stroke:#000000;" x="247.531472" xlink:href="#me37bbda147" y="61.011258"/>
     <use style="stroke:#000000;" x="250.606628" xlink:href="#me37bbda147" y="60.356909"/>
     <use style="stroke:#000000;" x="253.68015" xlink:href="#me37bbda147" y="60.027009"/>
     <use style="stroke:#000000;" x="256.755306" xlink:href="#me37bbda147" y="60.023505"/>
     <use style="stroke:#000000;" x="259.828828" xlink:href="#me37bbda147" y="60.346425"/>
     <use style="stroke:#000000;" x="262.903984" xlink:href="#me37bbda147" y="60.993864"/>
     <use style="stroke:#000000;" x="265.97914" xlink:href="#me37bbda147" y="61.961245"/>
     <use style="stroke:#000000;" x="269.052661" xlink:href="#me37bbda147" y="63.24114"/>
     <use style="stroke:#000000;" x="272.127817" xlink:href="#me37bbda147" y="64.826167"/>
     <use style="stroke:#000000;" x="275.201339" xlink:href="#me37bbda147" y="66.703958"/>
     <use style="stroke:#000000;" x="278.276495" xlink:href="#me37bbda147" y="68.864015"/>
     <use style="stroke:#000000;" x="281.350017" xlink:href="#me37bbda147" y="71.289932"/>
     <use style="stroke:#000000;" x="284.425173" xlink:href="#me37bbda147" y="73.968732"/>
     <use style="stroke:#000000;" x="287.498695" xlink:href="#me37bbda147" y="76.880791"/>
     <use style="stroke:#000000;" x="290.573851" xlink:href="#me37bbda147" y="80.011399"/>
     <use style="stroke:#000000;" x="293.647373" xlink:href="#me37bbda147" y="83.338638"/>
     <use style="stroke:#000000;" x="296.722529" xlink:href="#me37bbda147" y="86.84686"/>
     <use style="stroke:#000000;" x="299.796051" xlink:href="#me37bbda147" y="90.512801"/>
     <use style="stroke:#000000;" x="302.871206" xlink:href="#me37bbda147" y="94.320654"/>
     <use style="stroke:#000000;" x="305.944728" xlink:href="#me37bbda147" y="98.246722"/>
     <use style="stroke:#000000;" x="309.019884" xlink:href="#me37bbda147" y="102.27574"/>
     <use style="stroke:#000000;" x="312.09504" xlink:href="#me37bbda147" y="106.3866"/>
     <use style="stroke:#000000;" x="315.168562" xlink:href="#me37bbda147" y="110.558565"/>
     <use style="stroke:#000000;" x="318.243718" xlink:href="#me37bbda147" y="114.778251"/>
     <use style="stroke:#000000;" x="321.31724" xlink:href="#me37bbda147" y="119.024161"/>
     <use style="stroke:#000000;" x="324.392396" xlink:href="#me37bbda147" y="123.284674"/>
     <use style="stroke:#000000;" x="327.465918" xlink:href="#me37bbda147" y="127.540101"/>
     <use style="stroke:#000000;" x="330.541074" xlink:href="#me37bbda147" y="131.780814"/>
     <use style="stroke:#000000;" x="333.614595" xlink:href="#me37bbda147" y="135.989227"/>
     <use style="stroke:#000000;" x="336.689751" xlink:href="#me37bbda147" y="140.157812"/>
     <use style="stroke:#000000;" x="339.763273" xlink:href="#me37bbda147" y="144.271237"/>
     <use style="stroke:#000000;" x="342.838429" xlink:href="#me37bbda147" y="148.324056"/>
     <use style="stroke:#000000;" x="345.911951" xlink:href="#me37bbda147" y="152.303223"/>
     <use style="stroke:#000000;" x="348.987107" xlink:href="#me37bbda147" y="156.205271"/>
     <use style="stroke:#000000;" x="352.060629" xlink:href="#me37bbda147" y="160.019371"/>
     <use style="stroke:#000000;" x="355.135785" xlink:href="#me37bbda147" y="163.743861"/>
     <use style="stroke:#000000;" x="358.209307" xlink:href="#me37bbda147" y="167.36999"/>
     <use style="stroke:#000000;" x="361.284463" xlink:href="#me37bbda147" y="170.897687"/>
     <use style="stroke:#000000;" x="364.359618" xlink:href="#me37bbda147" y="174.321882"/>
     <use style="stroke:#000000;" x="367.43314" xlink:href="#me37bbda147" y="177.638483"/>
     <use style="stroke:#000000;" x="370.508296" xlink:href="#me37bbda147" y="180.849357"/>
     <use style="stroke:#000000;" x="373.581818" xlink:href="#me37bbda147" y="183.950071"/>
    </g>
   </g>
   <g id="line2d_21">
    <path clip-path="url(#pf1e99c696a)" d="M 69.218182 234.70221 
L 72.291704 233.562843 
L 75.36686 232.361849 
L 78.440382 231.097765 
L 81.515537 229.766448 
L 84.589059 228.366466 
L 87.664215 226.893438 
L 90.737737 225.34601 
L 93.812893 223.719596 
L 96.886415 222.012981 
L 99.961571 220.221419 
L 103.035093 218.343914 
L 106.110249 216.37562 
L 109.183771 214.315857 
L 112.258926 212.159761 
L 115.332448 209.907083 
L 118.407604 207.55305 
L 121.48276 205.096648 
L 124.556282 202.537319 
L 127.631438 199.870671 
L 130.70496 197.098189 
L 133.780116 194.215942 
L 136.853638 191.226426 
L 139.928794 188.126368 
L 143.002315 184.919488 
L 146.077471 181.603384 
L 149.150993 178.183225 
L 152.226149 174.657716 
L 155.299671 171.033699 
L 158.374827 167.311229 
L 161.448349 163.499035 
L 164.523505 159.598762 
L 167.598661 155.619081 
L 170.672183 151.569841 
L 173.747339 147.455461 
L 176.82086 143.290103 
L 179.896016 139.080222 
L 182.969538 134.842266 
L 186.044694 130.584795 
L 189.118216 126.326451 
L 192.193372 122.077859 
L 195.266894 117.859638 
L 198.34205 113.684312 
L 201.415572 109.574106 
L 204.490728 105.543136 
L 207.564249 101.614705 
L 210.639405 97.804068 
L 213.714561 94.133011 
L 216.788083 90.623072 
L 219.863239 87.290071 
L 222.936761 84.156733 
L 226.011917 81.238345 
L 229.085439 78.555823 
L 232.160595 76.123125 
L 235.234117 73.958412 
L 238.309272 72.073534 
L 241.382794 70.483016 
L 244.45795 69.1959 
L 247.531472 68.22233 
L 250.606628 67.567981 
L 253.68015 67.238081 
L 256.755306 67.234577 
L 259.828828 67.557497 
L 262.903984 68.204936 
L 265.97914 69.172317 
L 269.052661 70.452211 
L 272.127817 72.037238 
L 275.201339 73.915029 
L 278.276495 76.075086 
L 281.350017 78.501004 
L 284.425173 81.179803 
L 287.498695 84.091862 
L 290.573851 87.222471 
L 293.647373 90.549709 
L 296.722529 94.057931 
L 299.796051 97.723873 
L 302.871206 101.531726 
L 305.944728 105.457793 
L 309.019884 109.486812 
L 312.09504 113.597672 
L 315.168562 117.769636 
L 318.243718 121.989322 
L 321.31724 126.235233 
L 324.392396 130.495746 
L 327.465918 134.751172 
L 330.541074 138.991885 
L 333.614595 143.200299 
L 336.689751 147.368883 
L 339.763273 151.482308 
L 342.838429 155.535127 
L 345.911951 159.514295 
L 348.987107 163.416343 
L 352.060629 167.230443 
L 355.135785 170.954932 
L 358.209307 174.581061 
L 361.284463 178.108758 
L 364.359618 181.532954 
L 367.43314 184.849555 
L 370.508296 188.060428 
L 373.581818 191.161142 
" style="fill:none;stroke:#1f77b4;stroke-linecap:square;stroke-width:1.5;"/>
   </g>
   <g id="patch_3">
    <path d="M 54 252 
L 54 34.56 
" style="fill:none;stroke:#000000;stroke-linecap:square;stroke-linejoin:miter;stroke-width:0.8;"/>
   </g>
   <g id="patch_4">
    <path d="M 388.8 252 
L 388.8 34.56 
" style="fill:none;stroke:#000000;stroke-linecap:square;stroke-linejoin:miter;stroke-width:0.8;"/>
   </g>
   <g id="patch_5">
    <path d="M 54 252 
L 388.8 252 
" style="fill:none;stroke:#000000;stroke-linecap:square;stroke-linejoin:miter;stroke-width:0.8;"/>
   </g>
   <g id="patch_6">
    <path d="M 54 34.56 
L 388.8 34.56 
" style="fill:none;stroke:#000000;stroke-linecap:square;stroke-linejoin:miter;stroke-width:0.8;"/>
   </g>
   <g id="legend_1">
    <g id="patch_7">
     <path d="M 59.831 102.358391 
L 151.7942 102.358391 
Q 153.4602 102.358391 153.4602 100.692391 
L 153.4602 40.391 
Q 153.4602 38.725 151.7942 38.725 
L 59.831 38.725 
Q 58.165 38.725 58.165 40.391 
L 58.165 100.692391 
Q 58.165 102.358391 59.831 102.358391 
z
" style="fill:#ffffff;opacity:0.8;stroke:#cccccc;stroke-linejoin:miter;"/>
    </g>
    <g id="line2d_22"/>
    <g id="line2d_23">
     <g>
      <use style="fill:#1f77b4;stroke:#1f77b4;" x="69.827" xlink:href="#mee8850e08c" y="45.470998"/>
     </g>
    </g>
    <g id="text_15">
     <!-- Collected Data -->
     <defs>
      <path d="M 64.40625 67.28125 
L 64.40625 56.890625 
Q 59.421875 61.53125 53.78125 63.8125 
Q 48.140625 66.109375 41.796875 66.109375 
Q 29.296875 66.109375 22.65625 58.46875 
Q 16.015625 50.828125 16.015625 36.375 
Q 16.015625 21.96875 22.65625 14.328125 
Q 29.296875 6.6875 41.796875 6.6875 
Q 48.140625 6.6875 53.78125 8.984375 
Q 59.421875 11.28125 64.40625 15.921875 
L 64.40625 5.609375 
Q 59.234375 2.09375 53.4375 0.328125 
Q 47.65625 -1.421875 41.21875 -1.421875 
Q 24.65625 -1.421875 15.125 8.703125 
Q 5.609375 18.84375 5.609375 36.375 
Q 5.609375 53.953125 15.125 64.078125 
Q 24.65625 74.21875 41.21875 74.21875 
Q 47.75 74.21875 53.53125 72.484375 
Q 59.328125 70.75 64.40625 67.28125 
z
" id="DejaVuSans-43"/>
      <path d="M 30.609375 48.390625 
Q 23.390625 48.390625 19.1875 42.75 
Q 14.984375 37.109375 14.984375 27.296875 
Q 14.984375 17.484375 19.15625 11.84375 
Q 23.34375 6.203125 30.609375 6.203125 
Q 37.796875 6.203125 41.984375 11.859375 
Q 46.1875 17.53125 46.1875 27.296875 
Q 46.1875 37.015625 41.984375 42.703125 
Q 37.796875 48.390625 30.609375 48.390625 
z
M 30.609375 56 
Q 42.328125 56 49.015625 48.375 
Q 55.71875 40.765625 55.71875 27.296875 
Q 55.71875 13.875 49.015625 6.21875 
Q 42.328125 -1.421875 30.609375 -1.421875 
Q 18.84375 -1.421875 12.171875 6.21875 
Q 5.515625 13.875 5.515625 27.296875 
Q 5.515625 40.765625 12.171875 48.375 
Q 18.84375 56 30.609375 56 
z
" id="DejaVuSans-6f"/>
      <path d="M 9.421875 75.984375 
L 18.40625 75.984375 
L 18.40625 0 
L 9.421875 0 
z
" id="DejaVuSans-6c"/>
      <path d="M 56.203125 29.59375 
L 56.203125 25.203125 
L 14.890625 25.203125 
Q 15.484375 15.921875 20.484375 11.0625 
Q 25.484375 6.203125 34.421875 6.203125 
Q 39.59375 6.203125 44.453125 7.46875 
Q 49.3125 8.734375 54.109375 11.28125 
L 54.109375 2.78125 
Q 49.265625 0.734375 44.1875 -0.34375 
Q 39.109375 -1.421875 33.890625 -1.421875 
Q 20.796875 -1.421875 13.15625 6.1875 
Q 5.515625 13.8125 5.515625 26.8125 
Q 5.515625 40.234375 12.765625 48.109375 
Q 20.015625 56 32.328125 56 
Q 43.359375 56 49.78125 48.890625 
Q 56.203125 41.796875 56.203125 29.59375 
z
M 47.21875 32.234375 
Q 47.125 39.59375 43.09375 43.984375 
Q 39.0625 48.390625 32.421875 48.390625 
Q 24.90625 48.390625 20.390625 44.140625 
Q 15.875 39.890625 15.1875 32.171875 
z
" id="DejaVuSans-65"/>
      <path d="M 48.78125 52.59375 
L 48.78125 44.1875 
Q 44.96875 46.296875 41.140625 47.34375 
Q 37.3125 48.390625 33.40625 48.390625 
Q 24.65625 48.390625 19.8125 42.84375 
Q 14.984375 37.3125 14.984375 27.296875 
Q 14.984375 17.28125 19.8125 11.734375 
Q 24.65625 6.203125 33.40625 6.203125 
Q 37.3125 6.203125 41.140625 7.25 
Q 44.96875 8.296875 48.78125 10.40625 
L 48.78125 2.09375 
Q 45.015625 0.34375 40.984375 -0.53125 
Q 36.96875 -1.421875 32.421875 -1.421875 
Q 20.0625 -1.421875 12.78125 6.34375 
Q 5.515625 14.109375 5.515625 27.296875 
Q 5.515625 40.671875 12.859375 48.328125 
Q 20.21875 56 33.015625 56 
Q 37.15625 56 41.109375 55.140625 
Q 45.0625 54.296875 48.78125 52.59375 
z
" id="DejaVuSans-63"/>
      <path d="M 18.3125 70.21875 
L 18.3125 54.6875 
L 36.8125 54.6875 
L 36.8125 47.703125 
L 18.3125 47.703125 
L 18.3125 18.015625 
Q 18.3125 11.328125 20.140625 9.421875 
Q 21.96875 7.515625 27.59375 7.515625 
L 36.8125 7.515625 
L 36.8125 0 
L 27.59375 0 
Q 17.1875 0 13.234375 3.875 
Q 9.28125 7.765625 9.28125 18.015625 
L 9.28125 47.703125 
L 2.6875 47.703125 
L 2.6875 54.6875 
L 9.28125 54.6875 
L 9.28125 70.21875 
z
" id="DejaVuSans-74"/>
      <path d="M 45.40625 46.390625 
L 45.40625 75.984375 
L 54.390625 75.984375 
L 54.390625 0 
L 45.40625 0 
L 45.40625 8.203125 
Q 42.578125 3.328125 38.25 0.953125 
Q 33.9375 -1.421875 27.875 -1.421875 
Q 17.96875 -1.421875 11.734375 6.484375 
Q 5.515625 14.40625 5.515625 27.296875 
Q 5.515625 40.1875 11.734375 48.09375 
Q 17.96875 56 27.875 56 
Q 33.9375 56 38.25 53.625 
Q 42.578125 51.265625 45.40625 46.390625 
z
M 14.796875 27.296875 
Q 14.796875 17.390625 18.875 11.75 
Q 22.953125 6.109375 30.078125 6.109375 
Q 37.203125 6.109375 41.296875 11.75 
Q 45.40625 17.390625 45.40625 27.296875 
Q 45.40625 37.203125 41.296875 42.84375 
Q 37.203125 48.484375 30.078125 48.484375 
Q 22.953125 48.484375 18.875 42.84375 
Q 14.796875 37.203125 14.796875 27.296875 
z
" id="DejaVuSans-64"/>
      <path id="DejaVuSans-20"/>
      <path d="M 19.671875 64.796875 
L 19.671875 8.109375 
L 31.59375 8.109375 
Q 46.6875 8.109375 53.6875 14.9375 
Q 60.6875 21.78125 60.6875 36.53125 
Q 60.6875 51.171875 53.6875 57.984375 
Q 46.6875 64.796875 31.59375 64.796875 
z
M 9.8125 72.90625 
L 30.078125 72.90625 
Q 51.265625 72.90625 61.171875 64.09375 
Q 71.09375 55.28125 71.09375 36.53125 
Q 71.09375 17.671875 61.125 8.828125 
Q 51.171875 0 30.078125 0 
L 9.8125 0 
z
" id="DejaVuSans-44"/>
      <path d="M 34.28125 27.484375 
Q 23.390625 27.484375 19.1875 25 
Q 14.984375 22.515625 14.984375 16.5 
Q 14.984375 11.71875 18.140625 8.90625 
Q 21.296875 6.109375 26.703125 6.109375 
Q 34.1875 6.109375 38.703125 11.40625 
Q 43.21875 16.703125 43.21875 25.484375 
L 43.21875 27.484375 
z
M 52.203125 31.203125 
L 52.203125 0 
L 43.21875 0 
L 43.21875 8.296875 
Q 40.140625 3.328125 35.546875 0.953125 
Q 30.953125 -1.421875 24.3125 -1.421875 
Q 15.921875 -1.421875 10.953125 3.296875 
Q 6 8.015625 6 15.921875 
Q 6 25.140625 12.171875 29.828125 
Q 18.359375 34.515625 30.609375 34.515625 
L 43.21875 34.515625 
L 43.21875 35.40625 
Q 43.21875 41.609375 39.140625 45 
Q 35.0625 48.390625 27.6875 48.390625 
Q 23 48.390625 18.546875 47.265625 
Q 14.109375 46.140625 10.015625 43.890625 
L 10.015625 52.203125 
Q 14.9375 54.109375 19.578125 55.046875 
Q 24.21875 56 28.609375 56 
Q 40.484375 56 46.34375 49.84375 
Q 52.203125 43.703125 52.203125 31.203125 
z
" id="DejaVuSans-61"/>
     </defs>
     <g transform="translate(84.821 48.386498)scale(0.0833 -0.0833)">
      <use xlink:href="#DejaVuSans-43"/>
      <use x="69.824219" xlink:href="#DejaVuSans-6f"/>
      <use x="131.005859" xlink:href="#DejaVuSans-6c"/>
      <use x="158.789062" xlink:href="#DejaVuSans-6c"/>
      <use x="186.572266" xlink:href="#DejaVuSans-65"/>
      <use x="248.095703" xlink:href="#DejaVuSans-63"/>
      <use x="303.076172" xlink:href="#DejaVuSans-74"/>
      <use x="342.285156" xlink:href="#DejaVuSans-65"/>
      <use x="403.808594" xlink:href="#DejaVuSans-64"/>
      <use x="467.285156" xlink:href="#DejaVuSans-20"/>
      <use x="499.072266" xlink:href="#DejaVuSans-44"/>
      <use x="576.074219" xlink:href="#DejaVuSans-61"/>
      <use x="637.353516" xlink:href="#DejaVuSans-74"/>
      <use x="676.5625" xlink:href="#DejaVuSans-61"/>
     </g>
    </g>
    <g id="line2d_24">
     <path d="M 61.497 57.697877 
L 78.157 57.697877 
" style="fill:none;stroke:#ff7f0e;stroke-linecap:square;stroke-width:1.5;"/>
    </g>
    <g id="line2d_25"/>
    <g id="text_16">
     <!--  Fitted Data -->
     <defs>
      <path d="M 9.8125 72.90625 
L 51.703125 72.90625 
L 51.703125 64.59375 
L 19.671875 64.59375 
L 19.671875 43.109375 
L 48.578125 43.109375 
L 48.578125 34.8125 
L 19.671875 34.8125 
L 19.671875 0 
L 9.8125 0 
z
" id="DejaVuSans-46"/>
      <path d="M 9.421875 54.6875 
L 18.40625 54.6875 
L 18.40625 0 
L 9.421875 0 
z
M 9.421875 75.984375 
L 18.40625 75.984375 
L 18.40625 64.59375 
L 9.421875 64.59375 
z
" id="DejaVuSans-69"/>
     </defs>
     <g transform="translate(84.821 60.613377)scale(0.0833 -0.0833)">
      <use xlink:href="#DejaVuSans-20"/>
      <use x="31.787109" xlink:href="#DejaVuSans-46"/>
      <use x="89.197266" xlink:href="#DejaVuSans-69"/>
      <use x="116.980469" xlink:href="#DejaVuSans-74"/>
      <use x="156.189453" xlink:href="#DejaVuSans-74"/>
      <use x="195.398438" xlink:href="#DejaVuSans-65"/>
      <use x="256.921875" xlink:href="#DejaVuSans-64"/>
      <use x="320.398438" xlink:href="#DejaVuSans-20"/>
      <use x="352.185547" xlink:href="#DejaVuSans-44"/>
      <use x="429.1875" xlink:href="#DejaVuSans-61"/>
      <use x="490.466797" xlink:href="#DejaVuSans-74"/>
      <use x="529.675781" xlink:href="#DejaVuSans-61"/>
     </g>
    </g>
    <g id="line2d_26"/>
    <g id="line2d_27"/>
    <g id="text_17">
     <!-- A = $0.83 \pm 0.03$ -->
     <defs>
      <path d="M 34.1875 63.1875 
L 20.796875 26.90625 
L 47.609375 26.90625 
z
M 28.609375 72.90625 
L 39.796875 72.90625 
L 67.578125 0 
L 57.328125 0 
L 50.6875 18.703125 
L 17.828125 18.703125 
L 11.1875 0 
L 0.78125 0 
z
" id="DejaVuSans-41"/>
      <path d="M 10.59375 45.40625 
L 73.1875 45.40625 
L 73.1875 37.203125 
L 10.59375 37.203125 
z
M 10.59375 25.484375 
L 73.1875 25.484375 
L 73.1875 17.1875 
L 10.59375 17.1875 
z
" id="DejaVuSans-3d"/>
      <path d="M 40.578125 39.3125 
Q 47.65625 37.796875 51.625 33 
Q 55.609375 28.21875 55.609375 21.1875 
Q 55.609375 10.40625 48.1875 4.484375 
Q 40.765625 -1.421875 27.09375 -1.421875 
Q 22.515625 -1.421875 17.65625 -0.515625 
Q 12.796875 0.390625 7.625 2.203125 
L 7.625 11.71875 
Q 11.71875 9.328125 16.59375 8.109375 
Q 21.484375 6.890625 26.8125 6.890625 
Q 36.078125 6.890625 40.9375 10.546875 
Q 45.796875 14.203125 45.796875 21.1875 
Q 45.796875 27.640625 41.28125 31.265625 
Q 36.765625 34.90625 28.71875 34.90625 
L 20.21875 34.90625 
L 20.21875 43.015625 
L 29.109375 43.015625 
Q 36.375 43.015625 40.234375 45.921875 
Q 44.09375 48.828125 44.09375 54.296875 
Q 44.09375 59.90625 40.109375 62.90625 
Q 36.140625 65.921875 28.71875 65.921875 
Q 24.65625 65.921875 20.015625 65.03125 
Q 15.375 64.15625 9.8125 62.3125 
L 9.8125 71.09375 
Q 15.4375 72.65625 20.34375 73.4375 
Q 25.25 74.21875 29.59375 74.21875 
Q 40.828125 74.21875 47.359375 69.109375 
Q 53.90625 64.015625 53.90625 55.328125 
Q 53.90625 49.265625 50.4375 45.09375 
Q 46.96875 40.921875 40.578125 39.3125 
z
" id="DejaVuSans-33"/>
      <path d="M 46 62.703125 
L 46 43.796875 
L 73.1875 43.796875 
L 73.1875 35.5 
L 46 35.5 
L 46 16.609375 
L 37.796875 16.609375 
L 37.796875 35.5 
L 10.59375 35.5 
L 10.59375 43.796875 
L 37.796875 43.796875 
L 37.796875 62.703125 
z
M 10.59375 8.296875 
L 73.1875 8.296875 
L 73.1875 0 
L 10.59375 0 
z
" id="DejaVuSans-b1"/>
     </defs>
     <g transform="translate(84.821 72.840255)scale(0.0833 -0.0833)">
      <use transform="translate(0 0.78125)" xlink:href="#DejaVuSans-41"/>
      <use transform="translate(68.408203 0.78125)" xlink:href="#DejaVuSans-20"/>
      <use transform="translate(100.195312 0.78125)" xlink:href="#DejaVuSans-3d"/>
      <use transform="translate(183.984375 0.78125)" xlink:href="#DejaVuSans-20"/>
      <use transform="translate(215.771484 0.78125)" xlink:href="#DejaVuSans-30"/>
      <use transform="translate(279.394531 0.78125)" xlink:href="#DejaVuSans-2e"/>
      <use transform="translate(311.150391 0.78125)" xlink:href="#DejaVuSans-38"/>
      <use transform="translate(374.773438 0.78125)" xlink:href="#DejaVuSans-33"/>
      <use transform="translate(457.878906 0.78125)" xlink:href="#DejaVuSans-b1"/>
      <use transform="translate(561.150391 0.78125)" xlink:href="#DejaVuSans-30"/>
      <use transform="translate(624.773438 0.78125)" xlink:href="#DejaVuSans-2e"/>
      <use transform="translate(656.560547 0.78125)" xlink:href="#DejaVuSans-30"/>
      <use transform="translate(720.183594 0.78125)" xlink:href="#DejaVuSans-33"/>
     </g>
    </g>
    <g id="line2d_28"/>
    <g id="line2d_29"/>
    <g id="text_18">
     <!--  = $6.37 \pm 0.30$ -->
     <defs>
      <path d="M 30.953125 67.4375 
L 56.203125 0 
L 46.6875 0 
L 31.34375 40.4375 
L 12.5 0 
L 2.984375 0 
L 26.953125 52.4375 
L 23.34375 62.109375 
Q 21.046875 68.265625 15.828125 68.265625 
L 11.140625 68.265625 
L 11.140625 75.984375 
L 16.84375 75.875 
Q 27.875 75.734375 30.953125 67.4375 
z
" id="DejaVuSans-3bb"/>
     </defs>
     <g transform="translate(84.821 85.067133)scale(0.0833 -0.0833)">
      <use transform="translate(0 0.015625)" xlink:href="#DejaVuSans-3bb"/>
      <use transform="translate(59.179688 0.015625)" xlink:href="#DejaVuSans-20"/>
      <use transform="translate(90.966797 0.015625)" xlink:href="#DejaVuSans-3d"/>
      <use transform="translate(174.755859 0.015625)" xlink:href="#DejaVuSans-20"/>
      <use transform="translate(206.542969 0.015625)" xlink:href="#DejaVuSans-36"/>
      <use transform="translate(270.166016 0.015625)" xlink:href="#DejaVuSans-2e"/>
      <use transform="translate(301.953125 0.015625)" xlink:href="#DejaVuSans-33"/>
      <use transform="translate(365.576172 0.015625)" xlink:href="#DejaVuSans-37"/>
      <use transform="translate(448.681641 0.015625)" xlink:href="#DejaVuSans-b1"/>
      <use transform="translate(551.953125 0.015625)" xlink:href="#DejaVuSans-30"/>
      <use transform="translate(615.576172 0.015625)" xlink:href="#DejaVuSans-2e"/>
      <use transform="translate(647.363281 0.015625)" xlink:href="#DejaVuSans-33"/>
      <use transform="translate(710.986328 0.015625)" xlink:href="#DejaVuSans-30"/>
     </g>
    </g>
    <g id="LineCollection_2">
     <path d="M 69.827 98.543511 
L 69.827 90.213511 
" style="fill:none;stroke:#000000;stroke-width:1.5;"/>
    </g>
    <g id="line2d_30">
     <g>
      <use style="stroke:#000000;" x="69.827" xlink:href="#me37bbda147" y="98.543511"/>
     </g>
    </g>
    <g id="line2d_31">
     <g>
      <use style="stroke:#000000;" x="69.827" xlink:href="#me37bbda147" y="90.213511"/>
     </g>
    </g>
    <g id="line2d_32">
     <path d="M 61.497 94.378511 
L 78.157 94.378511 
" style="fill:none;stroke:#1f77b4;stroke-linecap:square;stroke-width:1.5;"/>
    </g>
    <g id="line2d_33"/>
    <g id="text_19">
     <!-- error in fit -->
     <defs>
      <path d="M 41.109375 46.296875 
Q 39.59375 47.171875 37.8125 47.578125 
Q 36.03125 48 33.890625 48 
Q 26.265625 48 22.1875 43.046875 
Q 18.109375 38.09375 18.109375 28.8125 
L 18.109375 0 
L 9.078125 0 
L 9.078125 54.6875 
L 18.109375 54.6875 
L 18.109375 46.1875 
Q 20.953125 51.171875 25.484375 53.578125 
Q 30.03125 56 36.53125 56 
Q 37.453125 56 38.578125 55.875 
Q 39.703125 55.765625 41.0625 55.515625 
z
" id="DejaVuSans-72"/>
      <path d="M 54.890625 33.015625 
L 54.890625 0 
L 45.90625 0 
L 45.90625 32.71875 
Q 45.90625 40.484375 42.875 44.328125 
Q 39.84375 48.1875 33.796875 48.1875 
Q 26.515625 48.1875 22.3125 43.546875 
Q 18.109375 38.921875 18.109375 30.90625 
L 18.109375 0 
L 9.078125 0 
L 9.078125 54.6875 
L 18.109375 54.6875 
L 18.109375 46.1875 
Q 21.34375 51.125 25.703125 53.5625 
Q 30.078125 56 35.796875 56 
Q 45.21875 56 50.046875 50.171875 
Q 54.890625 44.34375 54.890625 33.015625 
z
" id="DejaVuSans-6e"/>
      <path d="M 37.109375 75.984375 
L 37.109375 68.5 
L 28.515625 68.5 
Q 23.6875 68.5 21.796875 66.546875 
Q 19.921875 64.59375 19.921875 59.515625 
L 19.921875 54.6875 
L 34.71875 54.6875 
L 34.71875 47.703125 
L 19.921875 47.703125 
L 19.921875 0 
L 10.890625 0 
L 10.890625 47.703125 
L 2.296875 47.703125 
L 2.296875 54.6875 
L 10.890625 54.6875 
L 10.890625 58.5 
Q 10.890625 67.625 15.140625 71.796875 
Q 19.390625 75.984375 28.609375 75.984375 
z
" id="DejaVuSans-66"/>
     </defs>
     <g transform="translate(84.821 97.294011)scale(0.0833 -0.0833)">
      <use xlink:href="#DejaVuSans-65"/>
      <use x="61.523438" xlink:href="#DejaVuSans-72"/>
      <use x="102.621094" xlink:href="#DejaVuSans-72"/>
      <use x="143.703125" xlink:href="#DejaVuSans-6f"/>
      <use x="204.884766" xlink:href="#DejaVuSans-72"/>
      <use x="245.998047" xlink:href="#DejaVuSans-20"/>
      <use x="277.785156" xlink:href="#DejaVuSans-69"/>
      <use x="305.568359" xlink:href="#DejaVuSans-6e"/>
      <use x="368.947266" xlink:href="#DejaVuSans-20"/>
      <use x="400.734375" xlink:href="#DejaVuSans-66"/>
      <use x="435.939453" xlink:href="#DejaVuSans-69"/>
      <use x="463.722656" xlink:href="#DejaVuSans-74"/>
     </g>
    </g>
   </g>
  </g>
  <g id="text_20">
   <!-- S35_350ml_small_wave Collected data and a fit of the data with errors -->
   <defs>
    <path d="M 53.515625 70.515625 
L 53.515625 60.890625 
Q 47.90625 63.578125 42.921875 64.890625 
Q 37.9375 66.21875 33.296875 66.21875 
Q 25.25 66.21875 20.875 63.09375 
Q 16.5 59.96875 16.5 54.203125 
Q 16.5 49.359375 19.40625 46.890625 
Q 22.3125 44.4375 30.421875 42.921875 
L 36.375 41.703125 
Q 47.40625 39.59375 52.65625 34.296875 
Q 57.90625 29 57.90625 20.125 
Q 57.90625 9.515625 50.796875 4.046875 
Q 43.703125 -1.421875 29.984375 -1.421875 
Q 24.8125 -1.421875 18.96875 -0.25 
Q 13.140625 0.921875 6.890625 3.21875 
L 6.890625 13.375 
Q 12.890625 10.015625 18.65625 8.296875 
Q 24.421875 6.59375 29.984375 6.59375 
Q 38.421875 6.59375 43.015625 9.90625 
Q 47.609375 13.234375 47.609375 19.390625 
Q 47.609375 24.75 44.3125 27.78125 
Q 41.015625 30.8125 33.5 32.328125 
L 27.484375 33.5 
Q 16.453125 35.6875 11.515625 40.375 
Q 6.59375 45.0625 6.59375 53.421875 
Q 6.59375 63.09375 13.40625 68.65625 
Q 20.21875 74.21875 32.171875 74.21875 
Q 37.3125 74.21875 42.625 73.28125 
Q 47.953125 72.359375 53.515625 70.515625 
z
" id="DejaVuSans-53"/>
    <path d="M 50.984375 -16.609375 
L 50.984375 -23.578125 
L -0.984375 -23.578125 
L -0.984375 -16.609375 
z
" id="DejaVuSans-5f"/>
    <path d="M 52 44.1875 
Q 55.375 50.25 60.0625 53.125 
Q 64.75 56 71.09375 56 
Q 79.640625 56 84.28125 50.015625 
Q 88.921875 44.046875 88.921875 33.015625 
L 88.921875 0 
L 79.890625 0 
L 79.890625 32.71875 
Q 79.890625 40.578125 77.09375 44.375 
Q 74.3125 48.1875 68.609375 48.1875 
Q 61.625 48.1875 57.5625 43.546875 
Q 53.515625 38.921875 53.515625 30.90625 
L 53.515625 0 
L 44.484375 0 
L 44.484375 32.71875 
Q 44.484375 40.625 41.703125 44.40625 
Q 38.921875 48.1875 33.109375 48.1875 
Q 26.21875 48.1875 22.15625 43.53125 
Q 18.109375 38.875 18.109375 30.90625 
L 18.109375 0 
L 9.078125 0 
L 9.078125 54.6875 
L 18.109375 54.6875 
L 18.109375 46.1875 
Q 21.1875 51.21875 25.484375 53.609375 
Q 29.78125 56 35.6875 56 
Q 41.65625 56 45.828125 52.96875 
Q 50 49.953125 52 44.1875 
z
" id="DejaVuSans-6d"/>
    <path d="M 44.28125 53.078125 
L 44.28125 44.578125 
Q 40.484375 46.53125 36.375 47.5 
Q 32.28125 48.484375 27.875 48.484375 
Q 21.1875 48.484375 17.84375 46.4375 
Q 14.5 44.390625 14.5 40.28125 
Q 14.5 37.15625 16.890625 35.375 
Q 19.28125 33.59375 26.515625 31.984375 
L 29.59375 31.296875 
Q 39.15625 29.25 43.1875 25.515625 
Q 47.21875 21.78125 47.21875 15.09375 
Q 47.21875 7.46875 41.1875 3.015625 
Q 35.15625 -1.421875 24.609375 -1.421875 
Q 20.21875 -1.421875 15.453125 -0.5625 
Q 10.6875 0.296875 5.421875 2 
L 5.421875 11.28125 
Q 10.40625 8.6875 15.234375 7.390625 
Q 20.0625 6.109375 24.8125 6.109375 
Q 31.15625 6.109375 34.5625 8.28125 
Q 37.984375 10.453125 37.984375 14.40625 
Q 37.984375 18.0625 35.515625 20.015625 
Q 33.0625 21.96875 24.703125 23.78125 
L 21.578125 24.515625 
Q 13.234375 26.265625 9.515625 29.90625 
Q 5.8125 33.546875 5.8125 39.890625 
Q 5.8125 47.609375 11.28125 51.796875 
Q 16.75 56 26.8125 56 
Q 31.78125 56 36.171875 55.265625 
Q 40.578125 54.546875 44.28125 53.078125 
z
" id="DejaVuSans-73"/>
    <path d="M 4.203125 54.6875 
L 13.1875 54.6875 
L 24.421875 12.015625 
L 35.59375 54.6875 
L 46.1875 54.6875 
L 57.421875 12.015625 
L 68.609375 54.6875 
L 77.59375 54.6875 
L 63.28125 0 
L 52.6875 0 
L 40.921875 44.828125 
L 29.109375 0 
L 18.5 0 
z
" id="DejaVuSans-77"/>
    <path d="M 2.984375 54.6875 
L 12.5 54.6875 
L 29.59375 8.796875 
L 46.6875 54.6875 
L 56.203125 54.6875 
L 35.6875 0 
L 23.484375 0 
z
" id="DejaVuSans-76"/>
    <path d="M 54.890625 33.015625 
L 54.890625 0 
L 45.90625 0 
L 45.90625 32.71875 
Q 45.90625 40.484375 42.875 44.328125 
Q 39.84375 48.1875 33.796875 48.1875 
Q 26.515625 48.1875 22.3125 43.546875 
Q 18.109375 38.921875 18.109375 30.90625 
L 18.109375 0 
L 9.078125 0 
L 9.078125 75.984375 
L 18.109375 75.984375 
L 18.109375 46.1875 
Q 21.34375 51.125 25.703125 53.5625 
Q 30.078125 56 35.796875 56 
Q 45.21875 56 50.046875 50.171875 
Q 54.890625 44.34375 54.890625 33.015625 
z
" id="DejaVuSans-68"/>
   </defs>
   <g transform="translate(3.306563 14.878125)scale(0.12 -0.12)">
    <use xlink:href="#DejaVuSans-53"/>
    <use x="63.476562" xlink:href="#DejaVuSans-33"/>
    <use x="127.099609" xlink:href="#DejaVuSans-35"/>
    <use x="190.722656" xlink:href="#DejaVuSans-5f"/>
    <use x="240.722656" xlink:href="#DejaVuSans-33"/>
    <use x="304.345703" xlink:href="#DejaVuSans-35"/>
    <use x="367.96875" xlink:href="#DejaVuSans-30"/>
    <use x="431.591797" xlink:href="#DejaVuSans-6d"/>
    <use x="529.003906" xlink:href="#DejaVuSans-6c"/>
    <use x="556.787109" xlink:href="#DejaVuSans-5f"/>
    <use x="606.787109" xlink:href="#DejaVuSans-73"/>
    <use x="658.886719" xlink:href="#DejaVuSans-6d"/>
    <use x="756.298828" xlink:href="#DejaVuSans-61"/>
    <use x="817.578125" xlink:href="#DejaVuSans-6c"/>
    <use x="845.361328" xlink:href="#DejaVuSans-6c"/>
    <use x="873.144531" xlink:href="#DejaVuSans-5f"/>
    <use x="923.144531" xlink:href="#DejaVuSans-77"/>
    <use x="1004.931641" xlink:href="#DejaVuSans-61"/>
    <use x="1066.210938" xlink:href="#DejaVuSans-76"/>
    <use x="1125.390625" xlink:href="#DejaVuSans-65"/>
    <use x="1186.914062" xlink:href="#DejaVuSans-20"/>
    <use x="1218.701172" xlink:href="#DejaVuSans-43"/>
    <use x="1288.525391" xlink:href="#DejaVuSans-6f"/>
    <use x="1349.707031" xlink:href="#DejaVuSans-6c"/>
    <use x="1377.490234" xlink:href="#DejaVuSans-6c"/>
    <use x="1405.273438" xlink:href="#DejaVuSans-65"/>
    <use x="1466.796875" xlink:href="#DejaVuSans-63"/>
    <use x="1521.777344" xlink:href="#DejaVuSans-74"/>
    <use x="1560.986328" xlink:href="#DejaVuSans-65"/>
    <use x="1622.509766" xlink:href="#DejaVuSans-64"/>
    <use x="1685.986328" xlink:href="#DejaVuSans-20"/>
    <use x="1717.773438" xlink:href="#DejaVuSans-64"/>
    <use x="1781.25" xlink:href="#DejaVuSans-61"/>
    <use x="1842.529297" xlink:href="#DejaVuSans-74"/>
    <use x="1881.738281" xlink:href="#DejaVuSans-61"/>
    <use x="1943.017578" xlink:href="#DejaVuSans-20"/>
    <use x="1974.804688" xlink:href="#DejaVuSans-61"/>
    <use x="2036.083984" xlink:href="#DejaVuSans-6e"/>
    <use x="2099.462891" xlink:href="#DejaVuSans-64"/>
    <use x="2162.939453" xlink:href="#DejaVuSans-20"/>
    <use x="2194.726562" xlink:href="#DejaVuSans-61"/>
    <use x="2256.005859" xlink:href="#DejaVuSans-20"/>
    <use x="2287.792969" xlink:href="#DejaVuSans-66"/>
    <use x="2322.998047" xlink:href="#DejaVuSans-69"/>
    <use x="2350.78125" xlink:href="#DejaVuSans-74"/>
    <use x="2389.990234" xlink:href="#DejaVuSans-20"/>
    <use x="2421.777344" xlink:href="#DejaVuSans-6f"/>
    <use x="2482.958984" xlink:href="#DejaVuSans-66"/>
    <use x="2518.164062" xlink:href="#DejaVuSans-20"/>
    <use x="2549.951172" xlink:href="#DejaVuSans-74"/>
    <use x="2589.160156" xlink:href="#DejaVuSans-68"/>
    <use x="2652.539062" xlink:href="#DejaVuSans-65"/>
    <use x="2714.0625" xlink:href="#DejaVuSans-20"/>
    <use x="2745.849609" xlink:href="#DejaVuSans-64"/>
    <use x="2809.326172" xlink:href="#DejaVuSans-61"/>
    <use x="2870.605469" xlink:href="#DejaVuSans-74"/>
    <use x="2909.814453" xlink:href="#DejaVuSans-61"/>
    <use x="2971.09375" xlink:href="#DejaVuSans-20"/>
    <use x="3002.880859" xlink:href="#DejaVuSans-77"/>
    <use x="3084.667969" xlink:href="#DejaVuSans-69"/>
    <use x="3112.451172" xlink:href="#DejaVuSans-74"/>
    <use x="3151.660156" xlink:href="#DejaVuSans-68"/>
    <use x="3215.039062" xlink:href="#DejaVuSans-20"/>
    <use x="3246.826172" xlink:href="#DejaVuSans-65"/>
    <use x="3308.349609" xlink:href="#DejaVuSans-72"/>
    <use x="3349.447266" xlink:href="#DejaVuSans-72"/>
    <use x="3390.529297" xlink:href="#DejaVuSans-6f"/>
    <use x="3451.710938" xlink:href="#DejaVuSans-72"/>
    <use x="3492.824219" xlink:href="#DejaVuSans-73"/>
   </g>
  </g>
 </g>
 <defs>
  <clipPath id="pf1e99c696a">
   <rect height="217.44" width="334.8" x="54" y="34.56"/>
  </clipPath>
 </defs>
</svg>
