<?xml version="1.0" encoding="utf-8" standalone="no"?>
<!DOCTYPE svg PUBLIC "-//W3C//DTD SVG 1.1//EN"
  "http://www.w3.org/Graphics/SVG/1.1/DTD/svg11.dtd">
<!-- Created with matplotlib (http://matplotlib.org/) -->
<svg height="288pt" version="1.1" viewBox="0 0 432 288" width="432pt" xmlns="http://www.w3.org/2000/svg" xmlns:xlink="http://www.w3.org/1999/xlink">
 <defs>
  <style type="text/css">
*{stroke-linecap:butt;stroke-linejoin:round;}
  </style>
 </defs>
 <g id="figure_1">
  <g id="patch_1">
   <path d="M 0 288 
L 432 288 
L 432 0 
L 0 0 
z
" style="fill:#ffffff;"/>
  </g>
  <g id="axes_1">
   <g id="patch_2">
    <path d="M 54 252 
L 388.8 252 
L 388.8 34.56 
L 54 34.56 
z
" style="fill:#ffffff;"/>
   </g>
   <g id="matplotlib.axis_1">
    <g id="xtick_1">
     <g id="line2d_1">
      <defs>
       <path d="M 0 0 
L 0 3.5 
" id="m1ac4acbff3" style="stroke:#000000;stroke-width:0.8;"/>
      </defs>
      <g>
       <use style="stroke:#000000;stroke-width:0.8;" x="69.456526" xlink:href="#m1ac4acbff3" y="252"/>
      </g>
     </g>
     <g id="text_1">
      <!-- 12.5 -->
      <defs>
       <path d="M 12.40625 8.296875 
L 28.515625 8.296875 
L 28.515625 63.921875 
L 10.984375 60.40625 
L 10.984375 69.390625 
L 28.421875 72.90625 
L 38.28125 72.90625 
L 38.28125 8.296875 
L 54.390625 8.296875 
L 54.390625 0 
L 12.40625 0 
z
" id="DejaVuSans-31"/>
       <path d="M 19.1875 8.296875 
L 53.609375 8.296875 
L 53.609375 0 
L 7.328125 0 
L 7.328125 8.296875 
Q 12.9375 14.109375 22.625 23.890625 
Q 32.328125 33.6875 34.8125 36.53125 
Q 39.546875 41.84375 41.421875 45.53125 
Q 43.3125 49.21875 43.3125 52.78125 
Q 43.3125 58.59375 39.234375 62.25 
Q 35.15625 65.921875 28.609375 65.921875 
Q 23.96875 65.921875 18.8125 64.3125 
Q 13.671875 62.703125 7.8125 59.421875 
L 7.8125 69.390625 
Q 13.765625 71.78125 18.9375 73 
Q 24.125 74.21875 28.421875 74.21875 
Q 39.75 74.21875 46.484375 68.546875 
Q 53.21875 62.890625 53.21875 53.421875 
Q 53.21875 48.921875 51.53125 44.890625 
Q 49.859375 40.875 45.40625 35.40625 
Q 44.1875 33.984375 37.640625 27.21875 
Q 31.109375 20.453125 19.1875 8.296875 
z
" id="DejaVuSans-32"/>
       <path d="M 10.6875 12.40625 
L 21 12.40625 
L 21 0 
L 10.6875 0 
z
" id="DejaVuSans-2e"/>
       <path d="M 10.796875 72.90625 
L 49.515625 72.90625 
L 49.515625 64.59375 
L 19.828125 64.59375 
L 19.828125 46.734375 
Q 21.96875 47.46875 24.109375 47.828125 
Q 26.265625 48.1875 28.421875 48.1875 
Q 40.625 48.1875 47.75 41.5 
Q 54.890625 34.8125 54.890625 23.390625 
Q 54.890625 11.625 47.5625 5.09375 
Q 40.234375 -1.421875 26.90625 -1.421875 
Q 22.3125 -1.421875 17.546875 -0.640625 
Q 12.796875 0.140625 7.71875 1.703125 
L 7.71875 11.625 
Q 12.109375 9.234375 16.796875 8.0625 
Q 21.484375 6.890625 26.703125 6.890625 
Q 35.15625 6.890625 40.078125 11.328125 
Q 45.015625 15.765625 45.015625 23.390625 
Q 45.015625 31 40.078125 35.4375 
Q 35.15625 39.890625 26.703125 39.890625 
Q 22.75 39.890625 18.8125 39.015625 
Q 14.890625 38.140625 10.796875 36.28125 
z
" id="DejaVuSans-35"/>
      </defs>
      <g transform="translate(58.323713 266.598437)scale(0.1 -0.1)">
       <use xlink:href="#DejaVuSans-31"/>
       <use x="63.623047" xlink:href="#DejaVuSans-32"/>
       <use x="127.246094" xlink:href="#DejaVuSans-2e"/>
       <use x="159.033203" xlink:href="#DejaVuSans-35"/>
      </g>
     </g>
    </g>
    <g id="xtick_2">
     <g id="line2d_2">
      <g>
       <use style="stroke:#000000;stroke-width:0.8;" x="108.657831" xlink:href="#m1ac4acbff3" y="252"/>
      </g>
     </g>
     <g id="text_2">
      <!-- 15.0 -->
      <defs>
       <path d="M 31.78125 66.40625 
Q 24.171875 66.40625 20.328125 58.90625 
Q 16.5 51.421875 16.5 36.375 
Q 16.5 21.390625 20.328125 13.890625 
Q 24.171875 6.390625 31.78125 6.390625 
Q 39.453125 6.390625 43.28125 13.890625 
Q 47.125 21.390625 47.125 36.375 
Q 47.125 51.421875 43.28125 58.90625 
Q 39.453125 66.40625 31.78125 66.40625 
z
M 31.78125 74.21875 
Q 44.046875 74.21875 50.515625 64.515625 
Q 56.984375 54.828125 56.984375 36.375 
Q 56.984375 17.96875 50.515625 8.265625 
Q 44.046875 -1.421875 31.78125 -1.421875 
Q 19.53125 -1.421875 13.0625 8.265625 
Q 6.59375 17.96875 6.59375 36.375 
Q 6.59375 54.828125 13.0625 64.515625 
Q 19.53125 74.21875 31.78125 74.21875 
z
" id="DejaVuSans-30"/>
      </defs>
      <g transform="translate(97.525018 266.598437)scale(0.1 -0.1)">
       <use xlink:href="#DejaVuSans-31"/>
       <use x="63.623047" xlink:href="#DejaVuSans-35"/>
       <use x="127.246094" xlink:href="#DejaVuSans-2e"/>
       <use x="159.033203" xlink:href="#DejaVuSans-30"/>
      </g>
     </g>
    </g>
    <g id="xtick_3">
     <g id="line2d_3">
      <g>
       <use style="stroke:#000000;stroke-width:0.8;" x="147.859136" xlink:href="#m1ac4acbff3" y="252"/>
      </g>
     </g>
     <g id="text_3">
      <!-- 17.5 -->
      <defs>
       <path d="M 8.203125 72.90625 
L 55.078125 72.90625 
L 55.078125 68.703125 
L 28.609375 0 
L 18.3125 0 
L 43.21875 64.59375 
L 8.203125 64.59375 
z
" id="DejaVuSans-37"/>
      </defs>
      <g transform="translate(136.726323 266.598437)scale(0.1 -0.1)">
       <use xlink:href="#DejaVuSans-31"/>
       <use x="63.623047" xlink:href="#DejaVuSans-37"/>
       <use x="127.246094" xlink:href="#DejaVuSans-2e"/>
       <use x="159.033203" xlink:href="#DejaVuSans-35"/>
      </g>
     </g>
    </g>
    <g id="xtick_4">
     <g id="line2d_4">
      <g>
       <use style="stroke:#000000;stroke-width:0.8;" x="187.060441" xlink:href="#m1ac4acbff3" y="252"/>
      </g>
     </g>
     <g id="text_4">
      <!-- 20.0 -->
      <g transform="translate(175.927628 266.598437)scale(0.1 -0.1)">
       <use xlink:href="#DejaVuSans-32"/>
       <use x="63.623047" xlink:href="#DejaVuSans-30"/>
       <use x="127.246094" xlink:href="#DejaVuSans-2e"/>
       <use x="159.033203" xlink:href="#DejaVuSans-30"/>
      </g>
     </g>
    </g>
    <g id="xtick_5">
     <g id="line2d_5">
      <g>
       <use style="stroke:#000000;stroke-width:0.8;" x="226.261746" xlink:href="#m1ac4acbff3" y="252"/>
      </g>
     </g>
     <g id="text_5">
      <!-- 22.5 -->
      <g transform="translate(215.128933 266.598437)scale(0.1 -0.1)">
       <use xlink:href="#DejaVuSans-32"/>
       <use x="63.623047" xlink:href="#DejaVuSans-32"/>
       <use x="127.246094" xlink:href="#DejaVuSans-2e"/>
       <use x="159.033203" xlink:href="#DejaVuSans-35"/>
      </g>
     </g>
    </g>
    <g id="xtick_6">
     <g id="line2d_6">
      <g>
       <use style="stroke:#000000;stroke-width:0.8;" x="265.463051" xlink:href="#m1ac4acbff3" y="252"/>
      </g>
     </g>
     <g id="text_6">
      <!-- 25.0 -->
      <g transform="translate(254.330238 266.598437)scale(0.1 -0.1)">
       <use xlink:href="#DejaVuSans-32"/>
       <use x="63.623047" xlink:href="#DejaVuSans-35"/>
       <use x="127.246094" xlink:href="#DejaVuSans-2e"/>
       <use x="159.033203" xlink:href="#DejaVuSans-30"/>
      </g>
     </g>
    </g>
    <g id="xtick_7">
     <g id="line2d_7">
      <g>
       <use style="stroke:#000000;stroke-width:0.8;" x="304.664356" xlink:href="#m1ac4acbff3" y="252"/>
      </g>
     </g>
     <g id="text_7">
      <!-- 27.5 -->
      <g transform="translate(293.531543 266.598437)scale(0.1 -0.1)">
       <use xlink:href="#DejaVuSans-32"/>
       <use x="63.623047" xlink:href="#DejaVuSans-37"/>
       <use x="127.246094" xlink:href="#DejaVuSans-2e"/>
       <use x="159.033203" xlink:href="#DejaVuSans-35"/>
      </g>
     </g>
    </g>
    <g id="xtick_8">
     <g id="line2d_8">
      <g>
       <use style="stroke:#000000;stroke-width:0.8;" x="343.865661" xlink:href="#m1ac4acbff3" y="252"/>
      </g>
     </g>
     <g id="text_8">
      <!-- 30.0 -->
      <defs>
       <path d="M 40.578125 39.3125 
Q 47.65625 37.796875 51.625 33 
Q 55.609375 28.21875 55.609375 21.1875 
Q 55.609375 10.40625 48.1875 4.484375 
Q 40.765625 -1.421875 27.09375 -1.421875 
Q 22.515625 -1.421875 17.65625 -0.515625 
Q 12.796875 0.390625 7.625 2.203125 
L 7.625 11.71875 
Q 11.71875 9.328125 16.59375 8.109375 
Q 21.484375 6.890625 26.8125 6.890625 
Q 36.078125 6.890625 40.9375 10.546875 
Q 45.796875 14.203125 45.796875 21.1875 
Q 45.796875 27.640625 41.28125 31.265625 
Q 36.765625 34.90625 28.71875 34.90625 
L 20.21875 34.90625 
L 20.21875 43.015625 
L 29.109375 43.015625 
Q 36.375 43.015625 40.234375 45.921875 
Q 44.09375 48.828125 44.09375 54.296875 
Q 44.09375 59.90625 40.109375 62.90625 
Q 36.140625 65.921875 28.71875 65.921875 
Q 24.65625 65.921875 20.015625 65.03125 
Q 15.375 64.15625 9.8125 62.3125 
L 9.8125 71.09375 
Q 15.4375 72.65625 20.34375 73.4375 
Q 25.25 74.21875 29.59375 74.21875 
Q 40.828125 74.21875 47.359375 69.109375 
Q 53.90625 64.015625 53.90625 55.328125 
Q 53.90625 49.265625 50.4375 45.09375 
Q 46.96875 40.921875 40.578125 39.3125 
z
" id="DejaVuSans-33"/>
      </defs>
      <g transform="translate(332.732848 266.598437)scale(0.1 -0.1)">
       <use xlink:href="#DejaVuSans-33"/>
       <use x="63.623047" xlink:href="#DejaVuSans-30"/>
       <use x="127.246094" xlink:href="#DejaVuSans-2e"/>
       <use x="159.033203" xlink:href="#DejaVuSans-30"/>
      </g>
     </g>
    </g>
    <g id="xtick_9">
     <g id="line2d_9">
      <g>
       <use style="stroke:#000000;stroke-width:0.8;" x="383.066966" xlink:href="#m1ac4acbff3" y="252"/>
      </g>
     </g>
     <g id="text_9">
      <!-- 32.5 -->
      <g transform="translate(371.934153 266.598437)scale(0.1 -0.1)">
       <use xlink:href="#DejaVuSans-33"/>
       <use x="63.623047" xlink:href="#DejaVuSans-32"/>
       <use x="127.246094" xlink:href="#DejaVuSans-2e"/>
       <use x="159.033203" xlink:href="#DejaVuSans-35"/>
      </g>
     </g>
    </g>
   </g>
   <g id="matplotlib.axis_2">
    <g id="ytick_1">
     <g id="line2d_10">
      <defs>
       <path d="M 0 0 
L -3.5 0 
" id="m7580dc827f" style="stroke:#000000;stroke-width:0.8;"/>
      </defs>
      <g>
       <use style="stroke:#000000;stroke-width:0.8;" x="54" xlink:href="#m7580dc827f" y="215.852054"/>
      </g>
     </g>
     <g id="text_10">
      <!-- 1.2 -->
      <g transform="translate(31.096875 219.651272)scale(0.1 -0.1)">
       <use xlink:href="#DejaVuSans-31"/>
       <use x="63.623047" xlink:href="#DejaVuSans-2e"/>
       <use x="95.410156" xlink:href="#DejaVuSans-32"/>
      </g>
     </g>
    </g>
    <g id="ytick_2">
     <g id="line2d_11">
      <g>
       <use style="stroke:#000000;stroke-width:0.8;" x="54" xlink:href="#m7580dc827f" y="170.7298"/>
      </g>
     </g>
     <g id="text_11">
      <!-- 1.4 -->
      <defs>
       <path d="M 37.796875 64.3125 
L 12.890625 25.390625 
L 37.796875 25.390625 
z
M 35.203125 72.90625 
L 47.609375 72.90625 
L 47.609375 25.390625 
L 58.015625 25.390625 
L 58.015625 17.1875 
L 47.609375 17.1875 
L 47.609375 0 
L 37.796875 0 
L 37.796875 17.1875 
L 4.890625 17.1875 
L 4.890625 26.703125 
z
" id="DejaVuSans-34"/>
      </defs>
      <g transform="translate(31.096875 174.529019)scale(0.1 -0.1)">
       <use xlink:href="#DejaVuSans-31"/>
       <use x="63.623047" xlink:href="#DejaVuSans-2e"/>
       <use x="95.410156" xlink:href="#DejaVuSans-34"/>
      </g>
     </g>
    </g>
    <g id="ytick_3">
     <g id="line2d_12">
      <g>
       <use style="stroke:#000000;stroke-width:0.8;" x="54" xlink:href="#m7580dc827f" y="125.607547"/>
      </g>
     </g>
     <g id="text_12">
      <!-- 1.6 -->
      <defs>
       <path d="M 33.015625 40.375 
Q 26.375 40.375 22.484375 35.828125 
Q 18.609375 31.296875 18.609375 23.390625 
Q 18.609375 15.53125 22.484375 10.953125 
Q 26.375 6.390625 33.015625 6.390625 
Q 39.65625 6.390625 43.53125 10.953125 
Q 47.40625 15.53125 47.40625 23.390625 
Q 47.40625 31.296875 43.53125 35.828125 
Q 39.65625 40.375 33.015625 40.375 
z
M 52.59375 71.296875 
L 52.59375 62.3125 
Q 48.875 64.0625 45.09375 64.984375 
Q 41.3125 65.921875 37.59375 65.921875 
Q 27.828125 65.921875 22.671875 59.328125 
Q 17.53125 52.734375 16.796875 39.40625 
Q 19.671875 43.65625 24.015625 45.921875 
Q 28.375 48.1875 33.59375 48.1875 
Q 44.578125 48.1875 50.953125 41.515625 
Q 57.328125 34.859375 57.328125 23.390625 
Q 57.328125 12.15625 50.6875 5.359375 
Q 44.046875 -1.421875 33.015625 -1.421875 
Q 20.359375 -1.421875 13.671875 8.265625 
Q 6.984375 17.96875 6.984375 36.375 
Q 6.984375 53.65625 15.1875 63.9375 
Q 23.390625 74.21875 37.203125 74.21875 
Q 40.921875 74.21875 44.703125 73.484375 
Q 48.484375 72.75 52.59375 71.296875 
z
" id="DejaVuSans-36"/>
      </defs>
      <g transform="translate(31.096875 129.406765)scale(0.1 -0.1)">
       <use xlink:href="#DejaVuSans-31"/>
       <use x="63.623047" xlink:href="#DejaVuSans-2e"/>
       <use x="95.410156" xlink:href="#DejaVuSans-36"/>
      </g>
     </g>
    </g>
    <g id="ytick_4">
     <g id="line2d_13">
      <g>
       <use style="stroke:#000000;stroke-width:0.8;" x="54" xlink:href="#m7580dc827f" y="80.485293"/>
      </g>
     </g>
     <g id="text_13">
      <!-- 1.8 -->
      <defs>
       <path d="M 31.78125 34.625 
Q 24.75 34.625 20.71875 30.859375 
Q 16.703125 27.09375 16.703125 20.515625 
Q 16.703125 13.921875 20.71875 10.15625 
Q 24.75 6.390625 31.78125 6.390625 
Q 38.8125 6.390625 42.859375 10.171875 
Q 46.921875 13.96875 46.921875 20.515625 
Q 46.921875 27.09375 42.890625 30.859375 
Q 38.875 34.625 31.78125 34.625 
z
M 21.921875 38.8125 
Q 15.578125 40.375 12.03125 44.71875 
Q 8.5 49.078125 8.5 55.328125 
Q 8.5 64.0625 14.71875 69.140625 
Q 20.953125 74.21875 31.78125 74.21875 
Q 42.671875 74.21875 48.875 69.140625 
Q 55.078125 64.0625 55.078125 55.328125 
Q 55.078125 49.078125 51.53125 44.71875 
Q 48 40.375 41.703125 38.8125 
Q 48.828125 37.15625 52.796875 32.3125 
Q 56.78125 27.484375 56.78125 20.515625 
Q 56.78125 9.90625 50.3125 4.234375 
Q 43.84375 -1.421875 31.78125 -1.421875 
Q 19.734375 -1.421875 13.25 4.234375 
Q 6.78125 9.90625 6.78125 20.515625 
Q 6.78125 27.484375 10.78125 32.3125 
Q 14.796875 37.15625 21.921875 38.8125 
z
M 18.3125 54.390625 
Q 18.3125 48.734375 21.84375 45.5625 
Q 25.390625 42.390625 31.78125 42.390625 
Q 38.140625 42.390625 41.71875 45.5625 
Q 45.3125 48.734375 45.3125 54.390625 
Q 45.3125 60.0625 41.71875 63.234375 
Q 38.140625 66.40625 31.78125 66.40625 
Q 25.390625 66.40625 21.84375 63.234375 
Q 18.3125 60.0625 18.3125 54.390625 
z
" id="DejaVuSans-38"/>
      </defs>
      <g transform="translate(31.096875 84.284512)scale(0.1 -0.1)">
       <use xlink:href="#DejaVuSans-31"/>
       <use x="63.623047" xlink:href="#DejaVuSans-2e"/>
       <use x="95.410156" xlink:href="#DejaVuSans-38"/>
      </g>
     </g>
    </g>
    <g id="ytick_5">
     <g id="line2d_14">
      <g>
       <use style="stroke:#000000;stroke-width:0.8;" x="54" xlink:href="#m7580dc827f" y="35.36304"/>
      </g>
     </g>
     <g id="text_14">
      <!-- 2.0 -->
      <g transform="translate(31.096875 39.162258)scale(0.1 -0.1)">
       <use xlink:href="#DejaVuSans-32"/>
       <use x="63.623047" xlink:href="#DejaVuSans-2e"/>
       <use x="95.410156" xlink:href="#DejaVuSans-30"/>
      </g>
     </g>
    </g>
   </g>
   <g id="LineCollection_1">
    <path clip-path="url(#pf51b8ecf82)" d="M 69.218182 229.775692 
L 69.218182 223.847944 
" style="fill:none;stroke:#000000;stroke-width:1.5;"/>
    <path clip-path="url(#pf51b8ecf82)" d="M 72.172392 229.703226 
L 72.172392 223.775479 
" style="fill:none;stroke:#000000;stroke-width:1.5;"/>
    <path clip-path="url(#pf51b8ecf82)" d="M 75.128171 229.61998 
L 75.128171 223.692232 
" style="fill:none;stroke:#000000;stroke-width:1.5;"/>
    <path clip-path="url(#pf51b8ecf82)" d="M 78.082381 229.524456 
L 78.082381 223.596709 
" style="fill:none;stroke:#000000;stroke-width:1.5;"/>
    <path clip-path="url(#pf51b8ecf82)" d="M 81.038159 229.414736 
L 81.038159 223.486988 
" style="fill:none;stroke:#000000;stroke-width:1.5;"/>
    <path clip-path="url(#pf51b8ecf82)" d="M 83.99237 229.288855 
L 83.99237 223.361107 
" style="fill:none;stroke:#000000;stroke-width:1.5;"/>
    <path clip-path="url(#pf51b8ecf82)" d="M 86.948148 229.144291 
L 86.948148 223.216543 
" style="fill:none;stroke:#000000;stroke-width:1.5;"/>
    <path clip-path="url(#pf51b8ecf82)" d="M 89.902358 228.978468 
L 89.902358 223.050721 
" style="fill:none;stroke:#000000;stroke-width:1.5;"/>
    <path clip-path="url(#pf51b8ecf82)" d="M 92.858137 228.788082 
L 92.858137 222.860334 
" style="fill:none;stroke:#000000;stroke-width:1.5;"/>
    <path clip-path="url(#pf51b8ecf82)" d="M 95.812347 228.569759 
L 95.812347 222.642011 
" style="fill:none;stroke:#000000;stroke-width:1.5;"/>
    <path clip-path="url(#pf51b8ecf82)" d="M 98.768126 228.319174 
L 98.768126 222.391426 
" style="fill:none;stroke:#000000;stroke-width:1.5;"/>
    <path clip-path="url(#pf51b8ecf82)" d="M 101.722336 228.031924 
L 101.722336 222.104176 
" style="fill:none;stroke:#000000;stroke-width:1.5;"/>
    <path clip-path="url(#pf51b8ecf82)" d="M 104.678114 227.702365 
L 104.678114 221.774618 
" style="fill:none;stroke:#000000;stroke-width:1.5;"/>
    <path clip-path="url(#pf51b8ecf82)" d="M 107.632325 227.324767 
L 107.632325 221.397019 
" style="fill:none;stroke:#000000;stroke-width:1.5;"/>
    <path clip-path="url(#pf51b8ecf82)" d="M 110.588103 226.891793 
L 110.588103 220.964045 
" style="fill:none;stroke:#000000;stroke-width:1.5;"/>
    <path clip-path="url(#pf51b8ecf82)" d="M 113.542313 226.396018 
L 113.542313 220.46827 
" style="fill:none;stroke:#000000;stroke-width:1.5;"/>
    <path clip-path="url(#pf51b8ecf82)" d="M 116.498092 225.82795 
L 116.498092 219.900202 
" style="fill:none;stroke:#000000;stroke-width:1.5;"/>
    <path clip-path="url(#pf51b8ecf82)" d="M 119.452302 225.178029 
L 119.452302 219.250281 
" style="fill:none;stroke:#000000;stroke-width:1.5;"/>
    <path clip-path="url(#pf51b8ecf82)" d="M 122.408081 224.434052 
L 122.408081 218.506304 
" style="fill:none;stroke:#000000;stroke-width:1.5;"/>
    <path clip-path="url(#pf51b8ecf82)" d="M 125.362291 223.583812 
L 125.362291 217.656064 
" style="fill:none;stroke:#000000;stroke-width:1.5;"/>
    <path clip-path="url(#pf51b8ecf82)" d="M 128.318069 222.611753 
L 128.318069 216.684005 
" style="fill:none;stroke:#000000;stroke-width:1.5;"/>
    <path clip-path="url(#pf51b8ecf82)" d="M 131.27228 221.502461 
L 131.27228 215.574713 
" style="fill:none;stroke:#000000;stroke-width:1.5;"/>
    <path clip-path="url(#pf51b8ecf82)" d="M 134.228058 220.23634 
L 134.228058 214.308593 
" style="fill:none;stroke:#000000;stroke-width:1.5;"/>
    <path clip-path="url(#pf51b8ecf82)" d="M 137.182268 218.794222 
L 137.182268 212.866475 
" style="fill:none;stroke:#000000;stroke-width:1.5;"/>
    <path clip-path="url(#pf51b8ecf82)" d="M 140.138047 217.151814 
L 140.138047 211.224066 
" style="fill:none;stroke:#000000;stroke-width:1.5;"/>
    <path clip-path="url(#pf51b8ecf82)" d="M 143.092257 215.285781 
L 143.092257 209.358033 
" style="fill:none;stroke:#000000;stroke-width:1.5;"/>
    <path clip-path="url(#pf51b8ecf82)" d="M 146.048036 213.166673 
L 146.048036 207.238925 
" style="fill:none;stroke:#000000;stroke-width:1.5;"/>
    <path clip-path="url(#pf51b8ecf82)" d="M 149.002246 210.766939 
L 149.002246 204.839192 
" style="fill:none;stroke:#000000;stroke-width:1.5;"/>
    <path clip-path="url(#pf51b8ecf82)" d="M 151.958024 208.051994 
L 151.958024 202.124246 
" style="fill:none;stroke:#000000;stroke-width:1.5;"/>
    <path clip-path="url(#pf51b8ecf82)" d="M 154.912235 204.990748 
L 154.912235 199.063 
" style="fill:none;stroke:#000000;stroke-width:1.5;"/>
    <path clip-path="url(#pf51b8ecf82)" d="M 157.868013 201.544447 
L 157.868013 195.6167 
" style="fill:none;stroke:#000000;stroke-width:1.5;"/>
    <path clip-path="url(#pf51b8ecf82)" d="M 160.822223 197.680434 
L 160.822223 191.752686 
" style="fill:none;stroke:#000000;stroke-width:1.5;"/>
    <path clip-path="url(#pf51b8ecf82)" d="M 163.778002 193.358381 
L 163.778002 187.430633 
" style="fill:none;stroke:#000000;stroke-width:1.5;"/>
    <path clip-path="url(#pf51b8ecf82)" d="M 166.732212 188.548086 
L 166.732212 182.620338 
" style="fill:none;stroke:#000000;stroke-width:1.5;"/>
    <path clip-path="url(#pf51b8ecf82)" d="M 169.68799 183.212735 
L 169.68799 177.284987 
" style="fill:none;stroke:#000000;stroke-width:1.5;"/>
    <path clip-path="url(#pf51b8ecf82)" d="M 172.642201 177.331543 
L 172.642201 171.403795 
" style="fill:none;stroke:#000000;stroke-width:1.5;"/>
    <path clip-path="url(#pf51b8ecf82)" d="M 175.597979 170.879664 
L 175.597979 164.951916 
" style="fill:none;stroke:#000000;stroke-width:1.5;"/>
    <path clip-path="url(#pf51b8ecf82)" d="M 178.55219 163.856302 
L 178.55219 157.928554 
" style="fill:none;stroke:#000000;stroke-width:1.5;"/>
    <path clip-path="url(#pf51b8ecf82)" d="M 181.507968 156.260831 
L 181.507968 150.333083 
" style="fill:none;stroke:#000000;stroke-width:1.5;"/>
    <path clip-path="url(#pf51b8ecf82)" d="M 184.462178 148.126434 
L 184.462178 142.198686 
" style="fill:none;stroke:#000000;stroke-width:1.5;"/>
    <path clip-path="url(#pf51b8ecf82)" d="M 187.417957 139.491871 
L 187.417957 133.564123 
" style="fill:none;stroke:#000000;stroke-width:1.5;"/>
    <path clip-path="url(#pf51b8ecf82)" d="M 190.372167 130.439646 
L 190.372167 124.511898 
" style="fill:none;stroke:#000000;stroke-width:1.5;"/>
    <path clip-path="url(#pf51b8ecf82)" d="M 193.327945 121.062673 
L 193.327945 115.134925 
" style="fill:none;stroke:#000000;stroke-width:1.5;"/>
    <path clip-path="url(#pf51b8ecf82)" d="M 196.282156 111.504466 
L 196.282156 105.576718 
" style="fill:none;stroke:#000000;stroke-width:1.5;"/>
    <path clip-path="url(#pf51b8ecf82)" d="M 199.237934 101.919997 
L 199.237934 95.992249 
" style="fill:none;stroke:#000000;stroke-width:1.5;"/>
    <path clip-path="url(#pf51b8ecf82)" d="M 202.192145 92.513919 
L 202.192145 86.586171 
" style="fill:none;stroke:#000000;stroke-width:1.5;"/>
    <path clip-path="url(#pf51b8ecf82)" d="M 205.147923 83.495702 
L 205.147923 77.567954 
" style="fill:none;stroke:#000000;stroke-width:1.5;"/>
    <path clip-path="url(#pf51b8ecf82)" d="M 208.102133 75.111365 
L 208.102133 69.183617 
" style="fill:none;stroke:#000000;stroke-width:1.5;"/>
    <path clip-path="url(#pf51b8ecf82)" d="M 211.057912 67.595212 
L 211.057912 61.667464 
" style="fill:none;stroke:#000000;stroke-width:1.5;"/>
    <path clip-path="url(#pf51b8ecf82)" d="M 214.012122 61.191848 
L 214.012122 55.2641 
" style="fill:none;stroke:#000000;stroke-width:1.5;"/>
    <path clip-path="url(#pf51b8ecf82)" d="M 216.9679 56.110403 
L 216.9679 50.182656 
" style="fill:none;stroke:#000000;stroke-width:1.5;"/>
    <path clip-path="url(#pf51b8ecf82)" d="M 219.922111 52.536612 
L 219.922111 46.608864 
" style="fill:none;stroke:#000000;stroke-width:1.5;"/>
    <path clip-path="url(#pf51b8ecf82)" d="M 222.877889 50.598551 
L 222.877889 44.670803 
" style="fill:none;stroke:#000000;stroke-width:1.5;"/>
    <path clip-path="url(#pf51b8ecf82)" d="M 225.8321 50.371384 
L 225.8321 44.443636 
" style="fill:none;stroke:#000000;stroke-width:1.5;"/>
    <path clip-path="url(#pf51b8ecf82)" d="M 228.787878 51.863529 
L 228.787878 45.935781 
" style="fill:none;stroke:#000000;stroke-width:1.5;"/>
    <path clip-path="url(#pf51b8ecf82)" d="M 231.742088 55.016902 
L 231.742088 49.089155 
" style="fill:none;stroke:#000000;stroke-width:1.5;"/>
    <path clip-path="url(#pf51b8ecf82)" d="M 234.697867 59.717616 
L 234.697867 53.789868 
" style="fill:none;stroke:#000000;stroke-width:1.5;"/>
    <path clip-path="url(#pf51b8ecf82)" d="M 237.652077 65.791951 
L 237.652077 59.864203 
" style="fill:none;stroke:#000000;stroke-width:1.5;"/>
    <path clip-path="url(#pf51b8ecf82)" d="M 240.607855 73.038377 
L 240.607855 67.110629 
" style="fill:none;stroke:#000000;stroke-width:1.5;"/>
    <path clip-path="url(#pf51b8ecf82)" d="M 243.562066 81.216635 
L 243.562066 75.288887 
" style="fill:none;stroke:#000000;stroke-width:1.5;"/>
    <path clip-path="url(#pf51b8ecf82)" d="M 246.517844 90.092548 
L 246.517844 84.1648 
" style="fill:none;stroke:#000000;stroke-width:1.5;"/>
    <path clip-path="url(#pf51b8ecf82)" d="M 249.472055 99.417377 
L 249.472055 93.489629 
" style="fill:none;stroke:#000000;stroke-width:1.5;"/>
    <path clip-path="url(#pf51b8ecf82)" d="M 252.427833 108.976183 
L 252.427833 103.048435 
" style="fill:none;stroke:#000000;stroke-width:1.5;"/>
    <path clip-path="url(#pf51b8ecf82)" d="M 255.382043 118.557232 
L 255.382043 112.629484 
" style="fill:none;stroke:#000000;stroke-width:1.5;"/>
    <path clip-path="url(#pf51b8ecf82)" d="M 258.337822 127.997514 
L 258.337822 122.069766 
" style="fill:none;stroke:#000000;stroke-width:1.5;"/>
    <path clip-path="url(#pf51b8ecf82)" d="M 261.292032 137.14512 
L 261.292032 131.217372 
" style="fill:none;stroke:#000000;stroke-width:1.5;"/>
    <path clip-path="url(#pf51b8ecf82)" d="M 264.24781 145.899174 
L 264.24781 139.971426 
" style="fill:none;stroke:#000000;stroke-width:1.5;"/>
    <path clip-path="url(#pf51b8ecf82)" d="M 267.202021 154.169649 
L 267.202021 148.241902 
" style="fill:none;stroke:#000000;stroke-width:1.5;"/>
    <path clip-path="url(#pf51b8ecf82)" d="M 270.157799 161.911432 
L 270.157799 155.983684 
" style="fill:none;stroke:#000000;stroke-width:1.5;"/>
    <path clip-path="url(#pf51b8ecf82)" d="M 273.11201 169.085707 
L 273.11201 163.157959 
" style="fill:none;stroke:#000000;stroke-width:1.5;"/>
    <path clip-path="url(#pf51b8ecf82)" d="M 276.067788 175.688821 
L 276.067788 169.761073 
" style="fill:none;stroke:#000000;stroke-width:1.5;"/>
    <path clip-path="url(#pf51b8ecf82)" d="M 279.021998 181.717957 
L 279.021998 175.790209 
" style="fill:none;stroke:#000000;stroke-width:1.5;"/>
    <path clip-path="url(#pf51b8ecf82)" d="M 281.977777 187.195552 
L 281.977777 181.267804 
" style="fill:none;stroke:#000000;stroke-width:1.5;"/>
    <path clip-path="url(#pf51b8ecf82)" d="M 284.931987 192.140446 
L 284.931987 186.212698 
" style="fill:none;stroke:#000000;stroke-width:1.5;"/>
    <path clip-path="url(#pf51b8ecf82)" d="M 287.887765 196.588441 
L 287.887765 190.660694 
" style="fill:none;stroke:#000000;stroke-width:1.5;"/>
    <path clip-path="url(#pf51b8ecf82)" d="M 290.841976 200.568972 
L 290.841976 194.641224 
" style="fill:none;stroke:#000000;stroke-width:1.5;"/>
    <path clip-path="url(#pf51b8ecf82)" d="M 293.797754 204.122256 
L 293.797754 198.194508 
" style="fill:none;stroke:#000000;stroke-width:1.5;"/>
    <path clip-path="url(#pf51b8ecf82)" d="M 296.751964 207.280915 
L 296.751964 201.353167 
" style="fill:none;stroke:#000000;stroke-width:1.5;"/>
    <path clip-path="url(#pf51b8ecf82)" d="M 299.707743 210.0841 
L 299.707743 204.156352 
" style="fill:none;stroke:#000000;stroke-width:1.5;"/>
    <path clip-path="url(#pf51b8ecf82)" d="M 302.661953 212.563257 
L 302.661953 206.635509 
" style="fill:none;stroke:#000000;stroke-width:1.5;"/>
    <path clip-path="url(#pf51b8ecf82)" d="M 305.617732 214.753603 
L 305.617732 208.825855 
" style="fill:none;stroke:#000000;stroke-width:1.5;"/>
    <path clip-path="url(#pf51b8ecf82)" d="M 308.571942 216.683213 
L 308.571942 210.755465 
" style="fill:none;stroke:#000000;stroke-width:1.5;"/>
    <path clip-path="url(#pf51b8ecf82)" d="M 311.52772 218.382232 
L 311.52772 212.454484 
" style="fill:none;stroke:#000000;stroke-width:1.5;"/>
    <path clip-path="url(#pf51b8ecf82)" d="M 314.481931 219.874556 
L 314.481931 213.946809 
" style="fill:none;stroke:#000000;stroke-width:1.5;"/>
    <path clip-path="url(#pf51b8ecf82)" d="M 317.437709 221.185139 
L 317.437709 215.257391 
" style="fill:none;stroke:#000000;stroke-width:1.5;"/>
    <path clip-path="url(#pf51b8ecf82)" d="M 320.391919 222.333677 
L 320.391919 216.405929 
" style="fill:none;stroke:#000000;stroke-width:1.5;"/>
    <path clip-path="url(#pf51b8ecf82)" d="M 323.347698 223.340351 
L 323.347698 217.412603 
" style="fill:none;stroke:#000000;stroke-width:1.5;"/>
    <path clip-path="url(#pf51b8ecf82)" d="M 326.301908 224.221038 
L 326.301908 218.293291 
" style="fill:none;stroke:#000000;stroke-width:1.5;"/>
    <path clip-path="url(#pf51b8ecf82)" d="M 329.257687 224.991787 
L 329.257687 219.06404 
" style="fill:none;stroke:#000000;stroke-width:1.5;"/>
    <path clip-path="url(#pf51b8ecf82)" d="M 332.211897 225.665194 
L 332.211897 219.737447 
" style="fill:none;stroke:#000000;stroke-width:1.5;"/>
    <path clip-path="url(#pf51b8ecf82)" d="M 335.167675 226.253866 
L 335.167675 220.326118 
" style="fill:none;stroke:#000000;stroke-width:1.5;"/>
    <path clip-path="url(#pf51b8ecf82)" d="M 338.121886 226.767681 
L 338.121886 220.839933 
" style="fill:none;stroke:#000000;stroke-width:1.5;"/>
    <path clip-path="url(#pf51b8ecf82)" d="M 341.077664 227.216452 
L 341.077664 221.288705 
" style="fill:none;stroke:#000000;stroke-width:1.5;"/>
    <path clip-path="url(#pf51b8ecf82)" d="M 344.031874 227.607862 
L 344.031874 221.680114 
" style="fill:none;stroke:#000000;stroke-width:1.5;"/>
    <path clip-path="url(#pf51b8ecf82)" d="M 346.987653 227.949499 
L 346.987653 222.021751 
" style="fill:none;stroke:#000000;stroke-width:1.5;"/>
    <path clip-path="url(#pf51b8ecf82)" d="M 349.941863 228.247296 
L 349.941863 222.319548 
" style="fill:none;stroke:#000000;stroke-width:1.5;"/>
    <path clip-path="url(#pf51b8ecf82)" d="M 352.897642 228.507096 
L 352.897642 222.579348 
" style="fill:none;stroke:#000000;stroke-width:1.5;"/>
    <path clip-path="url(#pf51b8ecf82)" d="M 355.851852 228.73346 
L 355.851852 222.805712 
" style="fill:none;stroke:#000000;stroke-width:1.5;"/>
    <path clip-path="url(#pf51b8ecf82)" d="M 358.80763 228.930865 
L 358.80763 223.003117 
" style="fill:none;stroke:#000000;stroke-width:1.5;"/>
    <path clip-path="url(#pf51b8ecf82)" d="M 361.761841 229.102808 
L 361.761841 223.17506 
" style="fill:none;stroke:#000000;stroke-width:1.5;"/>
    <path clip-path="url(#pf51b8ecf82)" d="M 364.717619 229.252712 
L 364.717619 223.324964 
" style="fill:none;stroke:#000000;stroke-width:1.5;"/>
    <path clip-path="url(#pf51b8ecf82)" d="M 367.671829 229.383248 
L 367.671829 223.4555 
" style="fill:none;stroke:#000000;stroke-width:1.5;"/>
    <path clip-path="url(#pf51b8ecf82)" d="M 370.627608 229.497027 
L 370.627608 223.569279 
" style="fill:none;stroke:#000000;stroke-width:1.5;"/>
    <path clip-path="url(#pf51b8ecf82)" d="M 373.581818 229.596087 
L 373.581818 223.668339 
" style="fill:none;stroke:#000000;stroke-width:1.5;"/>
   </g>
   <g id="line2d_15">
    <defs>
     <path d="M 0 3 
C 0.795609 3 1.55874 2.683901 2.12132 2.12132 
C 2.683901 1.55874 3 0.795609 3 0 
C 3 -0.795609 2.683901 -1.55874 2.12132 -2.12132 
C 1.55874 -2.683901 0.795609 -3 0 -3 
C -0.795609 -3 -1.55874 -2.683901 -2.12132 -2.12132 
C -2.683901 -1.55874 -3 -0.795609 -3 0 
C -3 0.795609 -2.683901 1.55874 -2.12132 2.12132 
C -1.55874 2.683901 -0.795609 3 0 3 
z
" id="m45632ebfe9" style="stroke:#1f77b4;"/>
    </defs>
    <g clip-path="url(#pf51b8ecf82)">
     <use style="fill:#1f77b4;stroke:#1f77b4;" x="69.218182" xlink:href="#m45632ebfe9" y="242.116364"/>
     <use style="fill:#1f77b4;stroke:#1f77b4;" x="72.172392" xlink:href="#m45632ebfe9" y="242.116364"/>
     <use style="fill:#1f77b4;stroke:#1f77b4;" x="75.128171" xlink:href="#m45632ebfe9" y="242.116364"/>
     <use style="fill:#1f77b4;stroke:#1f77b4;" x="78.082381" xlink:href="#m45632ebfe9" y="242.116364"/>
     <use style="fill:#1f77b4;stroke:#1f77b4;" x="81.038159" xlink:href="#m45632ebfe9" y="242.116364"/>
     <use style="fill:#1f77b4;stroke:#1f77b4;" x="83.99237" xlink:href="#m45632ebfe9" y="242.116364"/>
     <use style="fill:#1f77b4;stroke:#1f77b4;" x="86.948148" xlink:href="#m45632ebfe9" y="242.116364"/>
     <use style="fill:#1f77b4;stroke:#1f77b4;" x="89.902358" xlink:href="#m45632ebfe9" y="242.116364"/>
     <use style="fill:#1f77b4;stroke:#1f77b4;" x="92.858137" xlink:href="#m45632ebfe9" y="242.116364"/>
     <use style="fill:#1f77b4;stroke:#1f77b4;" x="95.812347" xlink:href="#m45632ebfe9" y="242.116364"/>
     <use style="fill:#1f77b4;stroke:#1f77b4;" x="98.768126" xlink:href="#m45632ebfe9" y="242.116364"/>
     <use style="fill:#1f77b4;stroke:#1f77b4;" x="101.722336" xlink:href="#m45632ebfe9" y="242.116364"/>
     <use style="fill:#1f77b4;stroke:#1f77b4;" x="104.678114" xlink:href="#m45632ebfe9" y="242.116364"/>
     <use style="fill:#1f77b4;stroke:#1f77b4;" x="107.632325" xlink:href="#m45632ebfe9" y="242.116364"/>
     <use style="fill:#1f77b4;stroke:#1f77b4;" x="110.588103" xlink:href="#m45632ebfe9" y="242.116364"/>
     <use style="fill:#1f77b4;stroke:#1f77b4;" x="113.542313" xlink:href="#m45632ebfe9" y="242.116364"/>
     <use style="fill:#1f77b4;stroke:#1f77b4;" x="116.498092" xlink:href="#m45632ebfe9" y="242.116364"/>
     <use style="fill:#1f77b4;stroke:#1f77b4;" x="119.452302" xlink:href="#m45632ebfe9" y="242.116364"/>
     <use style="fill:#1f77b4;stroke:#1f77b4;" x="122.408081" xlink:href="#m45632ebfe9" y="242.116364"/>
     <use style="fill:#1f77b4;stroke:#1f77b4;" x="125.362291" xlink:href="#m45632ebfe9" y="242.116364"/>
     <use style="fill:#1f77b4;stroke:#1f77b4;" x="128.318069" xlink:href="#m45632ebfe9" y="242.116364"/>
     <use style="fill:#1f77b4;stroke:#1f77b4;" x="131.27228" xlink:href="#m45632ebfe9" y="242.116364"/>
     <use style="fill:#1f77b4;stroke:#1f77b4;" x="134.228058" xlink:href="#m45632ebfe9" y="242.116364"/>
     <use style="fill:#1f77b4;stroke:#1f77b4;" x="137.182268" xlink:href="#m45632ebfe9" y="242.116364"/>
     <use style="fill:#1f77b4;stroke:#1f77b4;" x="140.138047" xlink:href="#m45632ebfe9" y="242.116364"/>
     <use style="fill:#1f77b4;stroke:#1f77b4;" x="143.092257" xlink:href="#m45632ebfe9" y="242.116364"/>
     <use style="fill:#1f77b4;stroke:#1f77b4;" x="146.048036" xlink:href="#m45632ebfe9" y="242.116364"/>
     <use style="fill:#1f77b4;stroke:#1f77b4;" x="149.002246" xlink:href="#m45632ebfe9" y="220.858142"/>
     <use style="fill:#1f77b4;stroke:#1f77b4;" x="151.958024" xlink:href="#m45632ebfe9" y="220.858142"/>
     <use style="fill:#1f77b4;stroke:#1f77b4;" x="154.912235" xlink:href="#m45632ebfe9" y="220.858142"/>
     <use style="fill:#1f77b4;stroke:#1f77b4;" x="157.868013" xlink:href="#m45632ebfe9" y="220.858142"/>
     <use style="fill:#1f77b4;stroke:#1f77b4;" x="160.822223" xlink:href="#m45632ebfe9" y="220.858142"/>
     <use style="fill:#1f77b4;stroke:#1f77b4;" x="163.778002" xlink:href="#m45632ebfe9" y="199.59992"/>
     <use style="fill:#1f77b4;stroke:#1f77b4;" x="166.732212" xlink:href="#m45632ebfe9" y="199.59992"/>
     <use style="fill:#1f77b4;stroke:#1f77b4;" x="169.68799" xlink:href="#m45632ebfe9" y="199.59992"/>
     <use style="fill:#1f77b4;stroke:#1f77b4;" x="172.642201" xlink:href="#m45632ebfe9" y="178.341699"/>
     <use style="fill:#1f77b4;stroke:#1f77b4;" x="175.597979" xlink:href="#m45632ebfe9" y="178.341699"/>
     <use style="fill:#1f77b4;stroke:#1f77b4;" x="178.55219" xlink:href="#m45632ebfe9" y="157.083477"/>
     <use style="fill:#1f77b4;stroke:#1f77b4;" x="181.507968" xlink:href="#m45632ebfe9" y="157.083477"/>
     <use style="fill:#1f77b4;stroke:#1f77b4;" x="184.462178" xlink:href="#m45632ebfe9" y="135.825255"/>
     <use style="fill:#1f77b4;stroke:#1f77b4;" x="187.417957" xlink:href="#m45632ebfe9" y="125.196257"/>
     <use style="fill:#1f77b4;stroke:#1f77b4;" x="190.372167" xlink:href="#m45632ebfe9" y="114.567259"/>
     <use style="fill:#1f77b4;stroke:#1f77b4;" x="193.327945" xlink:href="#m45632ebfe9" y="93.309037"/>
     <use style="fill:#1f77b4;stroke:#1f77b4;" x="196.282156" xlink:href="#m45632ebfe9" y="93.309037"/>
     <use style="fill:#1f77b4;stroke:#1f77b4;" x="199.237934" xlink:href="#m45632ebfe9" y="72.050816"/>
     <use style="fill:#1f77b4;stroke:#1f77b4;" x="202.192145" xlink:href="#m45632ebfe9" y="72.050816"/>
     <use style="fill:#1f77b4;stroke:#1f77b4;" x="205.147923" xlink:href="#m45632ebfe9" y="72.050816"/>
     <use style="fill:#1f77b4;stroke:#1f77b4;" x="208.102133" xlink:href="#m45632ebfe9" y="72.050816"/>
     <use style="fill:#1f77b4;stroke:#1f77b4;" x="211.057912" xlink:href="#m45632ebfe9" y="61.421592"/>
     <use style="fill:#1f77b4;stroke:#1f77b4;" x="214.012122" xlink:href="#m45632ebfe9" y="50.792594"/>
     <use style="fill:#1f77b4;stroke:#1f77b4;" x="216.9679" xlink:href="#m45632ebfe9" y="50.792594"/>
     <use style="fill:#1f77b4;stroke:#1f77b4;" x="219.922111" xlink:href="#m45632ebfe9" y="50.792594"/>
     <use style="fill:#1f77b4;stroke:#1f77b4;" x="222.877889" xlink:href="#m45632ebfe9" y="50.792594"/>
     <use style="fill:#1f77b4;stroke:#1f77b4;" x="225.8321" xlink:href="#m45632ebfe9" y="50.792594"/>
     <use style="fill:#1f77b4;stroke:#1f77b4;" x="228.787878" xlink:href="#m45632ebfe9" y="50.792594"/>
     <use style="fill:#1f77b4;stroke:#1f77b4;" x="231.742088" xlink:href="#m45632ebfe9" y="72.050816"/>
     <use style="fill:#1f77b4;stroke:#1f77b4;" x="234.697867" xlink:href="#m45632ebfe9" y="72.050816"/>
     <use style="fill:#1f77b4;stroke:#1f77b4;" x="237.652077" xlink:href="#m45632ebfe9" y="72.050816"/>
     <use style="fill:#1f77b4;stroke:#1f77b4;" x="240.607855" xlink:href="#m45632ebfe9" y="72.050816"/>
     <use style="fill:#1f77b4;stroke:#1f77b4;" x="243.562066" xlink:href="#m45632ebfe9" y="93.309037"/>
     <use style="fill:#1f77b4;stroke:#1f77b4;" x="246.517844" xlink:href="#m45632ebfe9" y="93.309037"/>
     <use style="fill:#1f77b4;stroke:#1f77b4;" x="249.472055" xlink:href="#m45632ebfe9" y="93.309037"/>
     <use style="fill:#1f77b4;stroke:#1f77b4;" x="252.427833" xlink:href="#m45632ebfe9" y="114.567259"/>
     <use style="fill:#1f77b4;stroke:#1f77b4;" x="255.382043" xlink:href="#m45632ebfe9" y="114.567259"/>
     <use style="fill:#1f77b4;stroke:#1f77b4;" x="258.337822" xlink:href="#m45632ebfe9" y="135.825255"/>
     <use style="fill:#1f77b4;stroke:#1f77b4;" x="261.292032" xlink:href="#m45632ebfe9" y="135.825255"/>
     <use style="fill:#1f77b4;stroke:#1f77b4;" x="264.24781" xlink:href="#m45632ebfe9" y="135.825255"/>
     <use style="fill:#1f77b4;stroke:#1f77b4;" x="267.202021" xlink:href="#m45632ebfe9" y="146.454479"/>
     <use style="fill:#1f77b4;stroke:#1f77b4;" x="270.157799" xlink:href="#m45632ebfe9" y="157.083477"/>
     <use style="fill:#1f77b4;stroke:#1f77b4;" x="273.11201" xlink:href="#m45632ebfe9" y="157.083477"/>
     <use style="fill:#1f77b4;stroke:#1f77b4;" x="276.067788" xlink:href="#m45632ebfe9" y="167.712701"/>
     <use style="fill:#1f77b4;stroke:#1f77b4;" x="279.021998" xlink:href="#m45632ebfe9" y="178.341699"/>
     <use style="fill:#1f77b4;stroke:#1f77b4;" x="281.977777" xlink:href="#m45632ebfe9" y="178.341699"/>
     <use style="fill:#1f77b4;stroke:#1f77b4;" x="284.931987" xlink:href="#m45632ebfe9" y="178.341699"/>
     <use style="fill:#1f77b4;stroke:#1f77b4;" x="287.887765" xlink:href="#m45632ebfe9" y="178.341699"/>
     <use style="fill:#1f77b4;stroke:#1f77b4;" x="290.841976" xlink:href="#m45632ebfe9" y="188.970922"/>
     <use style="fill:#1f77b4;stroke:#1f77b4;" x="293.797754" xlink:href="#m45632ebfe9" y="199.59992"/>
     <use style="fill:#1f77b4;stroke:#1f77b4;" x="296.751964" xlink:href="#m45632ebfe9" y="199.59992"/>
     <use style="fill:#1f77b4;stroke:#1f77b4;" x="299.707743" xlink:href="#m45632ebfe9" y="199.59992"/>
     <use style="fill:#1f77b4;stroke:#1f77b4;" x="302.661953" xlink:href="#m45632ebfe9" y="199.59992"/>
     <use style="fill:#1f77b4;stroke:#1f77b4;" x="305.617732" xlink:href="#m45632ebfe9" y="199.59992"/>
     <use style="fill:#1f77b4;stroke:#1f77b4;" x="308.571942" xlink:href="#m45632ebfe9" y="199.59992"/>
     <use style="fill:#1f77b4;stroke:#1f77b4;" x="311.52772" xlink:href="#m45632ebfe9" y="199.59992"/>
     <use style="fill:#1f77b4;stroke:#1f77b4;" x="314.481931" xlink:href="#m45632ebfe9" y="199.59992"/>
     <use style="fill:#1f77b4;stroke:#1f77b4;" x="317.437709" xlink:href="#m45632ebfe9" y="199.59992"/>
     <use style="fill:#1f77b4;stroke:#1f77b4;" x="320.391919" xlink:href="#m45632ebfe9" y="199.59992"/>
     <use style="fill:#1f77b4;stroke:#1f77b4;" x="323.347698" xlink:href="#m45632ebfe9" y="199.59992"/>
     <use style="fill:#1f77b4;stroke:#1f77b4;" x="326.301908" xlink:href="#m45632ebfe9" y="199.59992"/>
     <use style="fill:#1f77b4;stroke:#1f77b4;" x="329.257687" xlink:href="#m45632ebfe9" y="199.59992"/>
     <use style="fill:#1f77b4;stroke:#1f77b4;" x="332.211897" xlink:href="#m45632ebfe9" y="199.59992"/>
     <use style="fill:#1f77b4;stroke:#1f77b4;" x="335.167675" xlink:href="#m45632ebfe9" y="199.59992"/>
     <use style="fill:#1f77b4;stroke:#1f77b4;" x="338.121886" xlink:href="#m45632ebfe9" y="199.59992"/>
     <use style="fill:#1f77b4;stroke:#1f77b4;" x="341.077664" xlink:href="#m45632ebfe9" y="199.59992"/>
     <use style="fill:#1f77b4;stroke:#1f77b4;" x="344.031874" xlink:href="#m45632ebfe9" y="199.59992"/>
     <use style="fill:#1f77b4;stroke:#1f77b4;" x="346.987653" xlink:href="#m45632ebfe9" y="199.59992"/>
     <use style="fill:#1f77b4;stroke:#1f77b4;" x="349.941863" xlink:href="#m45632ebfe9" y="199.59992"/>
     <use style="fill:#1f77b4;stroke:#1f77b4;" x="352.897642" xlink:href="#m45632ebfe9" y="199.59992"/>
     <use style="fill:#1f77b4;stroke:#1f77b4;" x="355.851852" xlink:href="#m45632ebfe9" y="199.59992"/>
     <use style="fill:#1f77b4;stroke:#1f77b4;" x="358.80763" xlink:href="#m45632ebfe9" y="199.59992"/>
     <use style="fill:#1f77b4;stroke:#1f77b4;" x="361.761841" xlink:href="#m45632ebfe9" y="199.59992"/>
     <use style="fill:#1f77b4;stroke:#1f77b4;" x="364.717619" xlink:href="#m45632ebfe9" y="199.59992"/>
     <use style="fill:#1f77b4;stroke:#1f77b4;" x="367.671829" xlink:href="#m45632ebfe9" y="199.59992"/>
     <use style="fill:#1f77b4;stroke:#1f77b4;" x="370.627608" xlink:href="#m45632ebfe9" y="199.59992"/>
     <use style="fill:#1f77b4;stroke:#1f77b4;" x="373.581818" xlink:href="#m45632ebfe9" y="199.59992"/>
    </g>
   </g>
   <g id="line2d_16">
    <path clip-path="url(#pf51b8ecf82)" d="M 69.218182 226.811818 
L 72.172392 226.739352 
L 75.128171 226.656106 
L 78.082381 226.560582 
L 81.038159 226.450862 
L 83.99237 226.324981 
L 86.948148 226.180417 
L 89.902358 226.014594 
L 92.858137 225.824208 
L 95.812347 225.605885 
L 98.768126 225.3553 
L 101.722336 225.06805 
L 104.678114 224.738491 
L 107.632325 224.360893 
L 110.588103 223.927919 
L 113.542313 223.432144 
L 116.498092 222.864076 
L 119.452302 222.214155 
L 122.408081 221.470178 
L 125.362291 220.619938 
L 128.318069 219.647879 
L 131.27228 218.538587 
L 134.228058 217.272467 
L 137.182268 215.830348 
L 140.138047 214.18794 
L 143.092257 212.321907 
L 146.048036 210.202799 
L 149.002246 207.803066 
L 151.958024 205.08812 
L 154.912235 202.026874 
L 157.868013 198.580574 
L 160.822223 194.71656 
L 163.778002 190.394507 
L 166.732212 185.584212 
L 169.68799 180.248861 
L 172.642201 174.367669 
L 175.597979 167.91579 
L 178.55219 160.892428 
L 181.507968 153.296957 
L 184.462178 145.16256 
L 187.417957 136.527997 
L 190.372167 127.475772 
L 193.327945 118.098799 
L 196.282156 108.540592 
L 199.237934 98.956123 
L 202.192145 89.550045 
L 205.147923 80.531828 
L 208.102133 72.147491 
L 211.057912 64.631338 
L 214.012122 58.227974 
L 216.9679 53.146529 
L 219.922111 49.572738 
L 222.877889 47.634677 
L 225.8321 47.40751 
L 228.787878 48.899655 
L 231.742088 52.053028 
L 234.697867 56.753742 
L 237.652077 62.828077 
L 240.607855 70.074503 
L 243.562066 78.252761 
L 246.517844 87.128674 
L 249.472055 96.453503 
L 252.427833 106.012309 
L 255.382043 115.593358 
L 258.337822 125.03364 
L 261.292032 134.181246 
L 264.24781 142.9353 
L 267.202021 151.205775 
L 270.157799 158.947558 
L 273.11201 166.121833 
L 276.067788 172.724947 
L 279.021998 178.754083 
L 281.977777 184.231678 
L 284.931987 189.176572 
L 287.887765 193.624568 
L 290.841976 197.605098 
L 293.797754 201.158382 
L 296.751964 204.317041 
L 299.707743 207.120226 
L 302.661953 209.599383 
L 305.617732 211.789729 
L 308.571942 213.719339 
L 311.52772 215.418358 
L 314.481931 216.910683 
L 317.437709 218.221265 
L 320.391919 219.369803 
L 323.347698 220.376477 
L 326.301908 221.257164 
L 329.257687 222.027913 
L 332.211897 222.70132 
L 335.167675 223.289992 
L 338.121886 223.803807 
L 341.077664 224.252579 
L 344.031874 224.643988 
L 346.987653 224.985625 
L 349.941863 225.283422 
L 352.897642 225.543222 
L 355.851852 225.769586 
L 358.80763 225.966991 
L 361.761841 226.138934 
L 364.717619 226.288838 
L 367.671829 226.419374 
L 370.627608 226.533153 
L 373.581818 226.632213 
" style="fill:none;stroke:#ff7f0e;stroke-linecap:square;stroke-width:1.5;"/>
   </g>
   <g id="line2d_17"/>
   <g id="line2d_18"/>
   <g id="line2d_19">
    <defs>
     <path d="M 2 0 
L -2 -0 
" id="m5259d54f92" style="stroke:#000000;"/>
    </defs>
    <g clip-path="url(#pf51b8ecf82)">
     <use style="stroke:#000000;" x="69.218182" xlink:href="#m5259d54f92" y="229.775692"/>
     <use style="stroke:#000000;" x="72.172392" xlink:href="#m5259d54f92" y="229.703226"/>
     <use style="stroke:#000000;" x="75.128171" xlink:href="#m5259d54f92" y="229.61998"/>
     <use style="stroke:#000000;" x="78.082381" xlink:href="#m5259d54f92" y="229.524456"/>
     <use style="stroke:#000000;" x="81.038159" xlink:href="#m5259d54f92" y="229.414736"/>
     <use style="stroke:#000000;" x="83.99237" xlink:href="#m5259d54f92" y="229.288855"/>
     <use style="stroke:#000000;" x="86.948148" xlink:href="#m5259d54f92" y="229.144291"/>
     <use style="stroke:#000000;" x="89.902358" xlink:href="#m5259d54f92" y="228.978468"/>
     <use style="stroke:#000000;" x="92.858137" xlink:href="#m5259d54f92" y="228.788082"/>
     <use style="stroke:#000000;" x="95.812347" xlink:href="#m5259d54f92" y="228.569759"/>
     <use style="stroke:#000000;" x="98.768126" xlink:href="#m5259d54f92" y="228.319174"/>
     <use style="stroke:#000000;" x="101.722336" xlink:href="#m5259d54f92" y="228.031924"/>
     <use style="stroke:#000000;" x="104.678114" xlink:href="#m5259d54f92" y="227.702365"/>
     <use style="stroke:#000000;" x="107.632325" xlink:href="#m5259d54f92" y="227.324767"/>
     <use style="stroke:#000000;" x="110.588103" xlink:href="#m5259d54f92" y="226.891793"/>
     <use style="stroke:#000000;" x="113.542313" xlink:href="#m5259d54f92" y="226.396018"/>
     <use style="stroke:#000000;" x="116.498092" xlink:href="#m5259d54f92" y="225.82795"/>
     <use style="stroke:#000000;" x="119.452302" xlink:href="#m5259d54f92" y="225.178029"/>
     <use style="stroke:#000000;" x="122.408081" xlink:href="#m5259d54f92" y="224.434052"/>
     <use style="stroke:#000000;" x="125.362291" xlink:href="#m5259d54f92" y="223.583812"/>
     <use style="stroke:#000000;" x="128.318069" xlink:href="#m5259d54f92" y="222.611753"/>
     <use style="stroke:#000000;" x="131.27228" xlink:href="#m5259d54f92" y="221.502461"/>
     <use style="stroke:#000000;" x="134.228058" xlink:href="#m5259d54f92" y="220.23634"/>
     <use style="stroke:#000000;" x="137.182268" xlink:href="#m5259d54f92" y="218.794222"/>
     <use style="stroke:#000000;" x="140.138047" xlink:href="#m5259d54f92" y="217.151814"/>
     <use style="stroke:#000000;" x="143.092257" xlink:href="#m5259d54f92" y="215.285781"/>
     <use style="stroke:#000000;" x="146.048036" xlink:href="#m5259d54f92" y="213.166673"/>
     <use style="stroke:#000000;" x="149.002246" xlink:href="#m5259d54f92" y="210.766939"/>
     <use style="stroke:#000000;" x="151.958024" xlink:href="#m5259d54f92" y="208.051994"/>
     <use style="stroke:#000000;" x="154.912235" xlink:href="#m5259d54f92" y="204.990748"/>
     <use style="stroke:#000000;" x="157.868013" xlink:href="#m5259d54f92" y="201.544447"/>
     <use style="stroke:#000000;" x="160.822223" xlink:href="#m5259d54f92" y="197.680434"/>
     <use style="stroke:#000000;" x="163.778002" xlink:href="#m5259d54f92" y="193.358381"/>
     <use style="stroke:#000000;" x="166.732212" xlink:href="#m5259d54f92" y="188.548086"/>
     <use style="stroke:#000000;" x="169.68799" xlink:href="#m5259d54f92" y="183.212735"/>
     <use style="stroke:#000000;" x="172.642201" xlink:href="#m5259d54f92" y="177.331543"/>
     <use style="stroke:#000000;" x="175.597979" xlink:href="#m5259d54f92" y="170.879664"/>
     <use style="stroke:#000000;" x="178.55219" xlink:href="#m5259d54f92" y="163.856302"/>
     <use style="stroke:#000000;" x="181.507968" xlink:href="#m5259d54f92" y="156.260831"/>
     <use style="stroke:#000000;" x="184.462178" xlink:href="#m5259d54f92" y="148.126434"/>
     <use style="stroke:#000000;" x="187.417957" xlink:href="#m5259d54f92" y="139.491871"/>
     <use style="stroke:#000000;" x="190.372167" xlink:href="#m5259d54f92" y="130.439646"/>
     <use style="stroke:#000000;" x="193.327945" xlink:href="#m5259d54f92" y="121.062673"/>
     <use style="stroke:#000000;" x="196.282156" xlink:href="#m5259d54f92" y="111.504466"/>
     <use style="stroke:#000000;" x="199.237934" xlink:href="#m5259d54f92" y="101.919997"/>
     <use style="stroke:#000000;" x="202.192145" xlink:href="#m5259d54f92" y="92.513919"/>
     <use style="stroke:#000000;" x="205.147923" xlink:href="#m5259d54f92" y="83.495702"/>
     <use style="stroke:#000000;" x="208.102133" xlink:href="#m5259d54f92" y="75.111365"/>
     <use style="stroke:#000000;" x="211.057912" xlink:href="#m5259d54f92" y="67.595212"/>
     <use style="stroke:#000000;" x="214.012122" xlink:href="#m5259d54f92" y="61.191848"/>
     <use style="stroke:#000000;" x="216.9679" xlink:href="#m5259d54f92" y="56.110403"/>
     <use style="stroke:#000000;" x="219.922111" xlink:href="#m5259d54f92" y="52.536612"/>
     <use style="stroke:#000000;" x="222.877889" xlink:href="#m5259d54f92" y="50.598551"/>
     <use style="stroke:#000000;" x="225.8321" xlink:href="#m5259d54f92" y="50.371384"/>
     <use style="stroke:#000000;" x="228.787878" xlink:href="#m5259d54f92" y="51.863529"/>
     <use style="stroke:#000000;" x="231.742088" xlink:href="#m5259d54f92" y="55.016902"/>
     <use style="stroke:#000000;" x="234.697867" xlink:href="#m5259d54f92" y="59.717616"/>
     <use style="stroke:#000000;" x="237.652077" xlink:href="#m5259d54f92" y="65.791951"/>
     <use style="stroke:#000000;" x="240.607855" xlink:href="#m5259d54f92" y="73.038377"/>
     <use style="stroke:#000000;" x="243.562066" xlink:href="#m5259d54f92" y="81.216635"/>
     <use style="stroke:#000000;" x="246.517844" xlink:href="#m5259d54f92" y="90.092548"/>
     <use style="stroke:#000000;" x="249.472055" xlink:href="#m5259d54f92" y="99.417377"/>
     <use style="stroke:#000000;" x="252.427833" xlink:href="#m5259d54f92" y="108.976183"/>
     <use style="stroke:#000000;" x="255.382043" xlink:href="#m5259d54f92" y="118.557232"/>
     <use style="stroke:#000000;" x="258.337822" xlink:href="#m5259d54f92" y="127.997514"/>
     <use style="stroke:#000000;" x="261.292032" xlink:href="#m5259d54f92" y="137.14512"/>
     <use style="stroke:#000000;" x="264.24781" xlink:href="#m5259d54f92" y="145.899174"/>
     <use style="stroke:#000000;" x="267.202021" xlink:href="#m5259d54f92" y="154.169649"/>
     <use style="stroke:#000000;" x="270.157799" xlink:href="#m5259d54f92" y="161.911432"/>
     <use style="stroke:#000000;" x="273.11201" xlink:href="#m5259d54f92" y="169.085707"/>
     <use style="stroke:#000000;" x="276.067788" xlink:href="#m5259d54f92" y="175.688821"/>
     <use style="stroke:#000000;" x="279.021998" xlink:href="#m5259d54f92" y="181.717957"/>
     <use style="stroke:#000000;" x="281.977777" xlink:href="#m5259d54f92" y="187.195552"/>
     <use style="stroke:#000000;" x="284.931987" xlink:href="#m5259d54f92" y="192.140446"/>
     <use style="stroke:#000000;" x="287.887765" xlink:href="#m5259d54f92" y="196.588441"/>
     <use style="stroke:#000000;" x="290.841976" xlink:href="#m5259d54f92" y="200.568972"/>
     <use style="stroke:#000000;" x="293.797754" xlink:href="#m5259d54f92" y="204.122256"/>
     <use style="stroke:#000000;" x="296.751964" xlink:href="#m5259d54f92" y="207.280915"/>
     <use style="stroke:#000000;" x="299.707743" xlink:href="#m5259d54f92" y="210.0841"/>
     <use style="stroke:#000000;" x="302.661953" xlink:href="#m5259d54f92" y="212.563257"/>
     <use style="stroke:#000000;" x="305.617732" xlink:href="#m5259d54f92" y="214.753603"/>
     <use style="stroke:#000000;" x="308.571942" xlink:href="#m5259d54f92" y="216.683213"/>
     <use style="stroke:#000000;" x="311.52772" xlink:href="#m5259d54f92" y="218.382232"/>
     <use style="stroke:#000000;" x="314.481931" xlink:href="#m5259d54f92" y="219.874556"/>
     <use style="stroke:#000000;" x="317.437709" xlink:href="#m5259d54f92" y="221.185139"/>
     <use style="stroke:#000000;" x="320.391919" xlink:href="#m5259d54f92" y="222.333677"/>
     <use style="stroke:#000000;" x="323.347698" xlink:href="#m5259d54f92" y="223.340351"/>
     <use style="stroke:#000000;" x="326.301908" xlink:href="#m5259d54f92" y="224.221038"/>
     <use style="stroke:#000000;" x="329.257687" xlink:href="#m5259d54f92" y="224.991787"/>
     <use style="stroke:#000000;" x="332.211897" xlink:href="#m5259d54f92" y="225.665194"/>
     <use style="stroke:#000000;" x="335.167675" xlink:href="#m5259d54f92" y="226.253866"/>
     <use style="stroke:#000000;" x="338.121886" xlink:href="#m5259d54f92" y="226.767681"/>
     <use style="stroke:#000000;" x="341.077664" xlink:href="#m5259d54f92" y="227.216452"/>
     <use style="stroke:#000000;" x="344.031874" xlink:href="#m5259d54f92" y="227.607862"/>
     <use style="stroke:#000000;" x="346.987653" xlink:href="#m5259d54f92" y="227.949499"/>
     <use style="stroke:#000000;" x="349.941863" xlink:href="#m5259d54f92" y="228.247296"/>
     <use style="stroke:#000000;" x="352.897642" xlink:href="#m5259d54f92" y="228.507096"/>
     <use style="stroke:#000000;" x="355.851852" xlink:href="#m5259d54f92" y="228.73346"/>
     <use style="stroke:#000000;" x="358.80763" xlink:href="#m5259d54f92" y="228.930865"/>
     <use style="stroke:#000000;" x="361.761841" xlink:href="#m5259d54f92" y="229.102808"/>
     <use style="stroke:#000000;" x="364.717619" xlink:href="#m5259d54f92" y="229.252712"/>
     <use style="stroke:#000000;" x="367.671829" xlink:href="#m5259d54f92" y="229.383248"/>
     <use style="stroke:#000000;" x="370.627608" xlink:href="#m5259d54f92" y="229.497027"/>
     <use style="stroke:#000000;" x="373.581818" xlink:href="#m5259d54f92" y="229.596087"/>
    </g>
   </g>
   <g id="line2d_20">
    <g clip-path="url(#pf51b8ecf82)">
     <use style="stroke:#000000;" x="69.218182" xlink:href="#m5259d54f92" y="223.847944"/>
     <use style="stroke:#000000;" x="72.172392" xlink:href="#m5259d54f92" y="223.775479"/>
     <use style="stroke:#000000;" x="75.128171" xlink:href="#m5259d54f92" y="223.692232"/>
     <use style="stroke:#000000;" x="78.082381" xlink:href="#m5259d54f92" y="223.596709"/>
     <use style="stroke:#000000;" x="81.038159" xlink:href="#m5259d54f92" y="223.486988"/>
     <use style="stroke:#000000;" x="83.99237" xlink:href="#m5259d54f92" y="223.361107"/>
     <use style="stroke:#000000;" x="86.948148" xlink:href="#m5259d54f92" y="223.216543"/>
     <use style="stroke:#000000;" x="89.902358" xlink:href="#m5259d54f92" y="223.050721"/>
     <use style="stroke:#000000;" x="92.858137" xlink:href="#m5259d54f92" y="222.860334"/>
     <use style="stroke:#000000;" x="95.812347" xlink:href="#m5259d54f92" y="222.642011"/>
     <use style="stroke:#000000;" x="98.768126" xlink:href="#m5259d54f92" y="222.391426"/>
     <use style="stroke:#000000;" x="101.722336" xlink:href="#m5259d54f92" y="222.104176"/>
     <use style="stroke:#000000;" x="104.678114" xlink:href="#m5259d54f92" y="221.774618"/>
     <use style="stroke:#000000;" x="107.632325" xlink:href="#m5259d54f92" y="221.397019"/>
     <use style="stroke:#000000;" x="110.588103" xlink:href="#m5259d54f92" y="220.964045"/>
     <use style="stroke:#000000;" x="113.542313" xlink:href="#m5259d54f92" y="220.46827"/>
     <use style="stroke:#000000;" x="116.498092" xlink:href="#m5259d54f92" y="219.900202"/>
     <use style="stroke:#000000;" x="119.452302" xlink:href="#m5259d54f92" y="219.250281"/>
     <use style="stroke:#000000;" x="122.408081" xlink:href="#m5259d54f92" y="218.506304"/>
     <use style="stroke:#000000;" x="125.362291" xlink:href="#m5259d54f92" y="217.656064"/>
     <use style="stroke:#000000;" x="128.318069" xlink:href="#m5259d54f92" y="216.684005"/>
     <use style="stroke:#000000;" x="131.27228" xlink:href="#m5259d54f92" y="215.574713"/>
     <use style="stroke:#000000;" x="134.228058" xlink:href="#m5259d54f92" y="214.308593"/>
     <use style="stroke:#000000;" x="137.182268" xlink:href="#m5259d54f92" y="212.866475"/>
     <use style="stroke:#000000;" x="140.138047" xlink:href="#m5259d54f92" y="211.224066"/>
     <use style="stroke:#000000;" x="143.092257" xlink:href="#m5259d54f92" y="209.358033"/>
     <use style="stroke:#000000;" x="146.048036" xlink:href="#m5259d54f92" y="207.238925"/>
     <use style="stroke:#000000;" x="149.002246" xlink:href="#m5259d54f92" y="204.839192"/>
     <use style="stroke:#000000;" x="151.958024" xlink:href="#m5259d54f92" y="202.124246"/>
     <use style="stroke:#000000;" x="154.912235" xlink:href="#m5259d54f92" y="199.063"/>
     <use style="stroke:#000000;" x="157.868013" xlink:href="#m5259d54f92" y="195.6167"/>
     <use style="stroke:#000000;" x="160.822223" xlink:href="#m5259d54f92" y="191.752686"/>
     <use style="stroke:#000000;" x="163.778002" xlink:href="#m5259d54f92" y="187.430633"/>
     <use style="stroke:#000000;" x="166.732212" xlink:href="#m5259d54f92" y="182.620338"/>
     <use style="stroke:#000000;" x="169.68799" xlink:href="#m5259d54f92" y="177.284987"/>
     <use style="stroke:#000000;" x="172.642201" xlink:href="#m5259d54f92" y="171.403795"/>
     <use style="stroke:#000000;" x="175.597979" xlink:href="#m5259d54f92" y="164.951916"/>
     <use style="stroke:#000000;" x="178.55219" xlink:href="#m5259d54f92" y="157.928554"/>
     <use style="stroke:#000000;" x="181.507968" xlink:href="#m5259d54f92" y="150.333083"/>
     <use style="stroke:#000000;" x="184.462178" xlink:href="#m5259d54f92" y="142.198686"/>
     <use style="stroke:#000000;" x="187.417957" xlink:href="#m5259d54f92" y="133.564123"/>
     <use style="stroke:#000000;" x="190.372167" xlink:href="#m5259d54f92" y="124.511898"/>
     <use style="stroke:#000000;" x="193.327945" xlink:href="#m5259d54f92" y="115.134925"/>
     <use style="stroke:#000000;" x="196.282156" xlink:href="#m5259d54f92" y="105.576718"/>
     <use style="stroke:#000000;" x="199.237934" xlink:href="#m5259d54f92" y="95.992249"/>
     <use style="stroke:#000000;" x="202.192145" xlink:href="#m5259d54f92" y="86.586171"/>
     <use style="stroke:#000000;" x="205.147923" xlink:href="#m5259d54f92" y="77.567954"/>
     <use style="stroke:#000000;" x="208.102133" xlink:href="#m5259d54f92" y="69.183617"/>
     <use style="stroke:#000000;" x="211.057912" xlink:href="#m5259d54f92" y="61.667464"/>
     <use style="stroke:#000000;" x="214.012122" xlink:href="#m5259d54f92" y="55.2641"/>
     <use style="stroke:#000000;" x="216.9679" xlink:href="#m5259d54f92" y="50.182656"/>
     <use style="stroke:#000000;" x="219.922111" xlink:href="#m5259d54f92" y="46.608864"/>
     <use style="stroke:#000000;" x="222.877889" xlink:href="#m5259d54f92" y="44.670803"/>
     <use style="stroke:#000000;" x="225.8321" xlink:href="#m5259d54f92" y="44.443636"/>
     <use style="stroke:#000000;" x="228.787878" xlink:href="#m5259d54f92" y="45.935781"/>
     <use style="stroke:#000000;" x="231.742088" xlink:href="#m5259d54f92" y="49.089155"/>
     <use style="stroke:#000000;" x="234.697867" xlink:href="#m5259d54f92" y="53.789868"/>
     <use style="stroke:#000000;" x="237.652077" xlink:href="#m5259d54f92" y="59.864203"/>
     <use style="stroke:#000000;" x="240.607855" xlink:href="#m5259d54f92" y="67.110629"/>
     <use style="stroke:#000000;" x="243.562066" xlink:href="#m5259d54f92" y="75.288887"/>
     <use style="stroke:#000000;" x="246.517844" xlink:href="#m5259d54f92" y="84.1648"/>
     <use style="stroke:#000000;" x="249.472055" xlink:href="#m5259d54f92" y="93.489629"/>
     <use style="stroke:#000000;" x="252.427833" xlink:href="#m5259d54f92" y="103.048435"/>
     <use style="stroke:#000000;" x="255.382043" xlink:href="#m5259d54f92" y="112.629484"/>
     <use style="stroke:#000000;" x="258.337822" xlink:href="#m5259d54f92" y="122.069766"/>
     <use style="stroke:#000000;" x="261.292032" xlink:href="#m5259d54f92" y="131.217372"/>
     <use style="stroke:#000000;" x="264.24781" xlink:href="#m5259d54f92" y="139.971426"/>
     <use style="stroke:#000000;" x="267.202021" xlink:href="#m5259d54f92" y="148.241902"/>
     <use style="stroke:#000000;" x="270.157799" xlink:href="#m5259d54f92" y="155.983684"/>
     <use style="stroke:#000000;" x="273.11201" xlink:href="#m5259d54f92" y="163.157959"/>
     <use style="stroke:#000000;" x="276.067788" xlink:href="#m5259d54f92" y="169.761073"/>
     <use style="stroke:#000000;" x="279.021998" xlink:href="#m5259d54f92" y="175.790209"/>
     <use style="stroke:#000000;" x="281.977777" xlink:href="#m5259d54f92" y="181.267804"/>
     <use style="stroke:#000000;" x="284.931987" xlink:href="#m5259d54f92" y="186.212698"/>
     <use style="stroke:#000000;" x="287.887765" xlink:href="#m5259d54f92" y="190.660694"/>
     <use style="stroke:#000000;" x="290.841976" xlink:href="#m5259d54f92" y="194.641224"/>
     <use style="stroke:#000000;" x="293.797754" xlink:href="#m5259d54f92" y="198.194508"/>
     <use style="stroke:#000000;" x="296.751964" xlink:href="#m5259d54f92" y="201.353167"/>
     <use style="stroke:#000000;" x="299.707743" xlink:href="#m5259d54f92" y="204.156352"/>
     <use style="stroke:#000000;" x="302.661953" xlink:href="#m5259d54f92" y="206.635509"/>
     <use style="stroke:#000000;" x="305.617732" xlink:href="#m5259d54f92" y="208.825855"/>
     <use style="stroke:#000000;" x="308.571942" xlink:href="#m5259d54f92" y="210.755465"/>
     <use style="stroke:#000000;" x="311.52772" xlink:href="#m5259d54f92" y="212.454484"/>
     <use style="stroke:#000000;" x="314.481931" xlink:href="#m5259d54f92" y="213.946809"/>
     <use style="stroke:#000000;" x="317.437709" xlink:href="#m5259d54f92" y="215.257391"/>
     <use style="stroke:#000000;" x="320.391919" xlink:href="#m5259d54f92" y="216.405929"/>
     <use style="stroke:#000000;" x="323.347698" xlink:href="#m5259d54f92" y="217.412603"/>
     <use style="stroke:#000000;" x="326.301908" xlink:href="#m5259d54f92" y="218.293291"/>
     <use style="stroke:#000000;" x="329.257687" xlink:href="#m5259d54f92" y="219.06404"/>
     <use style="stroke:#000000;" x="332.211897" xlink:href="#m5259d54f92" y="219.737447"/>
     <use style="stroke:#000000;" x="335.167675" xlink:href="#m5259d54f92" y="220.326118"/>
     <use style="stroke:#000000;" x="338.121886" xlink:href="#m5259d54f92" y="220.839933"/>
     <use style="stroke:#000000;" x="341.077664" xlink:href="#m5259d54f92" y="221.288705"/>
     <use style="stroke:#000000;" x="344.031874" xlink:href="#m5259d54f92" y="221.680114"/>
     <use style="stroke:#000000;" x="346.987653" xlink:href="#m5259d54f92" y="222.021751"/>
     <use style="stroke:#000000;" x="349.941863" xlink:href="#m5259d54f92" y="222.319548"/>
     <use style="stroke:#000000;" x="352.897642" xlink:href="#m5259d54f92" y="222.579348"/>
     <use style="stroke:#000000;" x="355.851852" xlink:href="#m5259d54f92" y="222.805712"/>
     <use style="stroke:#000000;" x="358.80763" xlink:href="#m5259d54f92" y="223.003117"/>
     <use style="stroke:#000000;" x="361.761841" xlink:href="#m5259d54f92" y="223.17506"/>
     <use style="stroke:#000000;" x="364.717619" xlink:href="#m5259d54f92" y="223.324964"/>
     <use style="stroke:#000000;" x="367.671829" xlink:href="#m5259d54f92" y="223.4555"/>
     <use style="stroke:#000000;" x="370.627608" xlink:href="#m5259d54f92" y="223.569279"/>
     <use style="stroke:#000000;" x="373.581818" xlink:href="#m5259d54f92" y="223.668339"/>
    </g>
   </g>
   <g id="line2d_21">
    <path clip-path="url(#pf51b8ecf82)" d="M 69.218182 226.811818 
L 72.172392 226.739352 
L 75.128171 226.656106 
L 78.082381 226.560582 
L 81.038159 226.450862 
L 83.99237 226.324981 
L 86.948148 226.180417 
L 89.902358 226.014594 
L 92.858137 225.824208 
L 95.812347 225.605885 
L 98.768126 225.3553 
L 101.722336 225.06805 
L 104.678114 224.738491 
L 107.632325 224.360893 
L 110.588103 223.927919 
L 113.542313 223.432144 
L 116.498092 222.864076 
L 119.452302 222.214155 
L 122.408081 221.470178 
L 125.362291 220.619938 
L 128.318069 219.647879 
L 131.27228 218.538587 
L 134.228058 217.272467 
L 137.182268 215.830348 
L 140.138047 214.18794 
L 143.092257 212.321907 
L 146.048036 210.202799 
L 149.002246 207.803066 
L 151.958024 205.08812 
L 154.912235 202.026874 
L 157.868013 198.580574 
L 160.822223 194.71656 
L 163.778002 190.394507 
L 166.732212 185.584212 
L 169.68799 180.248861 
L 172.642201 174.367669 
L 175.597979 167.91579 
L 178.55219 160.892428 
L 181.507968 153.296957 
L 184.462178 145.16256 
L 187.417957 136.527997 
L 190.372167 127.475772 
L 193.327945 118.098799 
L 196.282156 108.540592 
L 199.237934 98.956123 
L 202.192145 89.550045 
L 205.147923 80.531828 
L 208.102133 72.147491 
L 211.057912 64.631338 
L 214.012122 58.227974 
L 216.9679 53.146529 
L 219.922111 49.572738 
L 222.877889 47.634677 
L 225.8321 47.40751 
L 228.787878 48.899655 
L 231.742088 52.053028 
L 234.697867 56.753742 
L 237.652077 62.828077 
L 240.607855 70.074503 
L 243.562066 78.252761 
L 246.517844 87.128674 
L 249.472055 96.453503 
L 252.427833 106.012309 
L 255.382043 115.593358 
L 258.337822 125.03364 
L 261.292032 134.181246 
L 264.24781 142.9353 
L 267.202021 151.205775 
L 270.157799 158.947558 
L 273.11201 166.121833 
L 276.067788 172.724947 
L 279.021998 178.754083 
L 281.977777 184.231678 
L 284.931987 189.176572 
L 287.887765 193.624568 
L 290.841976 197.605098 
L 293.797754 201.158382 
L 296.751964 204.317041 
L 299.707743 207.120226 
L 302.661953 209.599383 
L 305.617732 211.789729 
L 308.571942 213.719339 
L 311.52772 215.418358 
L 314.481931 216.910683 
L 317.437709 218.221265 
L 320.391919 219.369803 
L 323.347698 220.376477 
L 326.301908 221.257164 
L 329.257687 222.027913 
L 332.211897 222.70132 
L 335.167675 223.289992 
L 338.121886 223.803807 
L 341.077664 224.252579 
L 344.031874 224.643988 
L 346.987653 224.985625 
L 349.941863 225.283422 
L 352.897642 225.543222 
L 355.851852 225.769586 
L 358.80763 225.966991 
L 361.761841 226.138934 
L 364.717619 226.288838 
L 367.671829 226.419374 
L 370.627608 226.533153 
L 373.581818 226.632213 
" style="fill:none;stroke:#1f77b4;stroke-linecap:square;stroke-width:1.5;"/>
   </g>
   <g id="patch_3">
    <path d="M 54 252 
L 54 34.56 
" style="fill:none;stroke:#000000;stroke-linecap:square;stroke-linejoin:miter;stroke-width:0.8;"/>
   </g>
   <g id="patch_4">
    <path d="M 388.8 252 
L 388.8 34.56 
" style="fill:none;stroke:#000000;stroke-linecap:square;stroke-linejoin:miter;stroke-width:0.8;"/>
   </g>
   <g id="patch_5">
    <path d="M 54 252 
L 388.8 252 
" style="fill:none;stroke:#000000;stroke-linecap:square;stroke-linejoin:miter;stroke-width:0.8;"/>
   </g>
   <g id="patch_6">
    <path d="M 54 34.56 
L 388.8 34.56 
" style="fill:none;stroke:#000000;stroke-linecap:square;stroke-linejoin:miter;stroke-width:0.8;"/>
   </g>
   <g id="legend_1">
    <g id="patch_7">
     <path d="M 291.0058 102.358391 
L 382.969 102.358391 
Q 384.635 102.358391 384.635 100.692391 
L 384.635 40.391 
Q 384.635 38.725 382.969 38.725 
L 291.0058 38.725 
Q 289.3398 38.725 289.3398 40.391 
L 289.3398 100.692391 
Q 289.3398 102.358391 291.0058 102.358391 
z
" style="fill:#ffffff;opacity:0.8;stroke:#cccccc;stroke-linejoin:miter;"/>
    </g>
    <g id="line2d_22"/>
    <g id="line2d_23">
     <g>
      <use style="fill:#1f77b4;stroke:#1f77b4;" x="301.0018" xlink:href="#m45632ebfe9" y="45.470998"/>
     </g>
    </g>
    <g id="text_15">
     <!-- Collected Data -->
     <defs>
      <path d="M 64.40625 67.28125 
L 64.40625 56.890625 
Q 59.421875 61.53125 53.78125 63.8125 
Q 48.140625 66.109375 41.796875 66.109375 
Q 29.296875 66.109375 22.65625 58.46875 
Q 16.015625 50.828125 16.015625 36.375 
Q 16.015625 21.96875 22.65625 14.328125 
Q 29.296875 6.6875 41.796875 6.6875 
Q 48.140625 6.6875 53.78125 8.984375 
Q 59.421875 11.28125 64.40625 15.921875 
L 64.40625 5.609375 
Q 59.234375 2.09375 53.4375 0.328125 
Q 47.65625 -1.421875 41.21875 -1.421875 
Q 24.65625 -1.421875 15.125 8.703125 
Q 5.609375 18.84375 5.609375 36.375 
Q 5.609375 53.953125 15.125 64.078125 
Q 24.65625 74.21875 41.21875 74.21875 
Q 47.75 74.21875 53.53125 72.484375 
Q 59.328125 70.75 64.40625 67.28125 
z
" id="DejaVuSans-43"/>
      <path d="M 30.609375 48.390625 
Q 23.390625 48.390625 19.1875 42.75 
Q 14.984375 37.109375 14.984375 27.296875 
Q 14.984375 17.484375 19.15625 11.84375 
Q 23.34375 6.203125 30.609375 6.203125 
Q 37.796875 6.203125 41.984375 11.859375 
Q 46.1875 17.53125 46.1875 27.296875 
Q 46.1875 37.015625 41.984375 42.703125 
Q 37.796875 48.390625 30.609375 48.390625 
z
M 30.609375 56 
Q 42.328125 56 49.015625 48.375 
Q 55.71875 40.765625 55.71875 27.296875 
Q 55.71875 13.875 49.015625 6.21875 
Q 42.328125 -1.421875 30.609375 -1.421875 
Q 18.84375 -1.421875 12.171875 6.21875 
Q 5.515625 13.875 5.515625 27.296875 
Q 5.515625 40.765625 12.171875 48.375 
Q 18.84375 56 30.609375 56 
z
" id="DejaVuSans-6f"/>
      <path d="M 9.421875 75.984375 
L 18.40625 75.984375 
L 18.40625 0 
L 9.421875 0 
z
" id="DejaVuSans-6c"/>
      <path d="M 56.203125 29.59375 
L 56.203125 25.203125 
L 14.890625 25.203125 
Q 15.484375 15.921875 20.484375 11.0625 
Q 25.484375 6.203125 34.421875 6.203125 
Q 39.59375 6.203125 44.453125 7.46875 
Q 49.3125 8.734375 54.109375 11.28125 
L 54.109375 2.78125 
Q 49.265625 0.734375 44.1875 -0.34375 
Q 39.109375 -1.421875 33.890625 -1.421875 
Q 20.796875 -1.421875 13.15625 6.1875 
Q 5.515625 13.8125 5.515625 26.8125 
Q 5.515625 40.234375 12.765625 48.109375 
Q 20.015625 56 32.328125 56 
Q 43.359375 56 49.78125 48.890625 
Q 56.203125 41.796875 56.203125 29.59375 
z
M 47.21875 32.234375 
Q 47.125 39.59375 43.09375 43.984375 
Q 39.0625 48.390625 32.421875 48.390625 
Q 24.90625 48.390625 20.390625 44.140625 
Q 15.875 39.890625 15.1875 32.171875 
z
" id="DejaVuSans-65"/>
      <path d="M 48.78125 52.59375 
L 48.78125 44.1875 
Q 44.96875 46.296875 41.140625 47.34375 
Q 37.3125 48.390625 33.40625 48.390625 
Q 24.65625 48.390625 19.8125 42.84375 
Q 14.984375 37.3125 14.984375 27.296875 
Q 14.984375 17.28125 19.8125 11.734375 
Q 24.65625 6.203125 33.40625 6.203125 
Q 37.3125 6.203125 41.140625 7.25 
Q 44.96875 8.296875 48.78125 10.40625 
L 48.78125 2.09375 
Q 45.015625 0.34375 40.984375 -0.53125 
Q 36.96875 -1.421875 32.421875 -1.421875 
Q 20.0625 -1.421875 12.78125 6.34375 
Q 5.515625 14.109375 5.515625 27.296875 
Q 5.515625 40.671875 12.859375 48.328125 
Q 20.21875 56 33.015625 56 
Q 37.15625 56 41.109375 55.140625 
Q 45.0625 54.296875 48.78125 52.59375 
z
" id="DejaVuSans-63"/>
      <path d="M 18.3125 70.21875 
L 18.3125 54.6875 
L 36.8125 54.6875 
L 36.8125 47.703125 
L 18.3125 47.703125 
L 18.3125 18.015625 
Q 18.3125 11.328125 20.140625 9.421875 
Q 21.96875 7.515625 27.59375 7.515625 
L 36.8125 7.515625 
L 36.8125 0 
L 27.59375 0 
Q 17.1875 0 13.234375 3.875 
Q 9.28125 7.765625 9.28125 18.015625 
L 9.28125 47.703125 
L 2.6875 47.703125 
L 2.6875 54.6875 
L 9.28125 54.6875 
L 9.28125 70.21875 
z
" id="DejaVuSans-74"/>
      <path d="M 45.40625 46.390625 
L 45.40625 75.984375 
L 54.390625 75.984375 
L 54.390625 0 
L 45.40625 0 
L 45.40625 8.203125 
Q 42.578125 3.328125 38.25 0.953125 
Q 33.9375 -1.421875 27.875 -1.421875 
Q 17.96875 -1.421875 11.734375 6.484375 
Q 5.515625 14.40625 5.515625 27.296875 
Q 5.515625 40.1875 11.734375 48.09375 
Q 17.96875 56 27.875 56 
Q 33.9375 56 38.25 53.625 
Q 42.578125 51.265625 45.40625 46.390625 
z
M 14.796875 27.296875 
Q 14.796875 17.390625 18.875 11.75 
Q 22.953125 6.109375 30.078125 6.109375 
Q 37.203125 6.109375 41.296875 11.75 
Q 45.40625 17.390625 45.40625 27.296875 
Q 45.40625 37.203125 41.296875 42.84375 
Q 37.203125 48.484375 30.078125 48.484375 
Q 22.953125 48.484375 18.875 42.84375 
Q 14.796875 37.203125 14.796875 27.296875 
z
" id="DejaVuSans-64"/>
      <path id="DejaVuSans-20"/>
      <path d="M 19.671875 64.796875 
L 19.671875 8.109375 
L 31.59375 8.109375 
Q 46.6875 8.109375 53.6875 14.9375 
Q 60.6875 21.78125 60.6875 36.53125 
Q 60.6875 51.171875 53.6875 57.984375 
Q 46.6875 64.796875 31.59375 64.796875 
z
M 9.8125 72.90625 
L 30.078125 72.90625 
Q 51.265625 72.90625 61.171875 64.09375 
Q 71.09375 55.28125 71.09375 36.53125 
Q 71.09375 17.671875 61.125 8.828125 
Q 51.171875 0 30.078125 0 
L 9.8125 0 
z
" id="DejaVuSans-44"/>
      <path d="M 34.28125 27.484375 
Q 23.390625 27.484375 19.1875 25 
Q 14.984375 22.515625 14.984375 16.5 
Q 14.984375 11.71875 18.140625 8.90625 
Q 21.296875 6.109375 26.703125 6.109375 
Q 34.1875 6.109375 38.703125 11.40625 
Q 43.21875 16.703125 43.21875 25.484375 
L 43.21875 27.484375 
z
M 52.203125 31.203125 
L 52.203125 0 
L 43.21875 0 
L 43.21875 8.296875 
Q 40.140625 3.328125 35.546875 0.953125 
Q 30.953125 -1.421875 24.3125 -1.421875 
Q 15.921875 -1.421875 10.953125 3.296875 
Q 6 8.015625 6 15.921875 
Q 6 25.140625 12.171875 29.828125 
Q 18.359375 34.515625 30.609375 34.515625 
L 43.21875 34.515625 
L 43.21875 35.40625 
Q 43.21875 41.609375 39.140625 45 
Q 35.0625 48.390625 27.6875 48.390625 
Q 23 48.390625 18.546875 47.265625 
Q 14.109375 46.140625 10.015625 43.890625 
L 10.015625 52.203125 
Q 14.9375 54.109375 19.578125 55.046875 
Q 24.21875 56 28.609375 56 
Q 40.484375 56 46.34375 49.84375 
Q 52.203125 43.703125 52.203125 31.203125 
z
" id="DejaVuSans-61"/>
     </defs>
     <g transform="translate(315.9958 48.386498)scale(0.0833 -0.0833)">
      <use xlink:href="#DejaVuSans-43"/>
      <use x="69.824219" xlink:href="#DejaVuSans-6f"/>
      <use x="131.005859" xlink:href="#DejaVuSans-6c"/>
      <use x="158.789062" xlink:href="#DejaVuSans-6c"/>
      <use x="186.572266" xlink:href="#DejaVuSans-65"/>
      <use x="248.095703" xlink:href="#DejaVuSans-63"/>
      <use x="303.076172" xlink:href="#DejaVuSans-74"/>
      <use x="342.285156" xlink:href="#DejaVuSans-65"/>
      <use x="403.808594" xlink:href="#DejaVuSans-64"/>
      <use x="467.285156" xlink:href="#DejaVuSans-20"/>
      <use x="499.072266" xlink:href="#DejaVuSans-44"/>
      <use x="576.074219" xlink:href="#DejaVuSans-61"/>
      <use x="637.353516" xlink:href="#DejaVuSans-74"/>
      <use x="676.5625" xlink:href="#DejaVuSans-61"/>
     </g>
    </g>
    <g id="line2d_24">
     <path d="M 292.6718 57.697877 
L 309.3318 57.697877 
" style="fill:none;stroke:#ff7f0e;stroke-linecap:square;stroke-width:1.5;"/>
    </g>
    <g id="line2d_25"/>
    <g id="text_16">
     <!--  Fitted Data -->
     <defs>
      <path d="M 9.8125 72.90625 
L 51.703125 72.90625 
L 51.703125 64.59375 
L 19.671875 64.59375 
L 19.671875 43.109375 
L 48.578125 43.109375 
L 48.578125 34.8125 
L 19.671875 34.8125 
L 19.671875 0 
L 9.8125 0 
z
" id="DejaVuSans-46"/>
      <path d="M 9.421875 54.6875 
L 18.40625 54.6875 
L 18.40625 0 
L 9.421875 0 
z
M 9.421875 75.984375 
L 18.40625 75.984375 
L 18.40625 64.59375 
L 9.421875 64.59375 
z
" id="DejaVuSans-69"/>
     </defs>
     <g transform="translate(315.9958 60.613377)scale(0.0833 -0.0833)">
      <use xlink:href="#DejaVuSans-20"/>
      <use x="31.787109" xlink:href="#DejaVuSans-46"/>
      <use x="89.197266" xlink:href="#DejaVuSans-69"/>
      <use x="116.980469" xlink:href="#DejaVuSans-74"/>
      <use x="156.189453" xlink:href="#DejaVuSans-74"/>
      <use x="195.398438" xlink:href="#DejaVuSans-65"/>
      <use x="256.921875" xlink:href="#DejaVuSans-64"/>
      <use x="320.398438" xlink:href="#DejaVuSans-20"/>
      <use x="352.185547" xlink:href="#DejaVuSans-44"/>
      <use x="429.1875" xlink:href="#DejaVuSans-61"/>
      <use x="490.466797" xlink:href="#DejaVuSans-74"/>
      <use x="529.675781" xlink:href="#DejaVuSans-61"/>
     </g>
    </g>
    <g id="line2d_26"/>
    <g id="line2d_27"/>
    <g id="text_17">
     <!-- A = $0.80 \pm 0.02$ -->
     <defs>
      <path d="M 34.1875 63.1875 
L 20.796875 26.90625 
L 47.609375 26.90625 
z
M 28.609375 72.90625 
L 39.796875 72.90625 
L 67.578125 0 
L 57.328125 0 
L 50.6875 18.703125 
L 17.828125 18.703125 
L 11.1875 0 
L 0.78125 0 
z
" id="DejaVuSans-41"/>
      <path d="M 10.59375 45.40625 
L 73.1875 45.40625 
L 73.1875 37.203125 
L 10.59375 37.203125 
z
M 10.59375 25.484375 
L 73.1875 25.484375 
L 73.1875 17.1875 
L 10.59375 17.1875 
z
" id="DejaVuSans-3d"/>
      <path d="M 46 62.703125 
L 46 43.796875 
L 73.1875 43.796875 
L 73.1875 35.5 
L 46 35.5 
L 46 16.609375 
L 37.796875 16.609375 
L 37.796875 35.5 
L 10.59375 35.5 
L 10.59375 43.796875 
L 37.796875 43.796875 
L 37.796875 62.703125 
z
M 10.59375 8.296875 
L 73.1875 8.296875 
L 73.1875 0 
L 10.59375 0 
z
" id="DejaVuSans-b1"/>
     </defs>
     <g transform="translate(315.9958 72.840255)scale(0.0833 -0.0833)">
      <use transform="translate(0 0.78125)" xlink:href="#DejaVuSans-41"/>
      <use transform="translate(68.408203 0.78125)" xlink:href="#DejaVuSans-20"/>
      <use transform="translate(100.195312 0.78125)" xlink:href="#DejaVuSans-3d"/>
      <use transform="translate(183.984375 0.78125)" xlink:href="#DejaVuSans-20"/>
      <use transform="translate(215.771484 0.78125)" xlink:href="#DejaVuSans-30"/>
      <use transform="translate(279.394531 0.78125)" xlink:href="#DejaVuSans-2e"/>
      <use transform="translate(311.150391 0.78125)" xlink:href="#DejaVuSans-38"/>
      <use transform="translate(374.773438 0.78125)" xlink:href="#DejaVuSans-30"/>
      <use transform="translate(457.878906 0.78125)" xlink:href="#DejaVuSans-b1"/>
      <use transform="translate(561.150391 0.78125)" xlink:href="#DejaVuSans-30"/>
      <use transform="translate(624.773438 0.78125)" xlink:href="#DejaVuSans-2e"/>
      <use transform="translate(656.560547 0.78125)" xlink:href="#DejaVuSans-30"/>
      <use transform="translate(720.183594 0.78125)" xlink:href="#DejaVuSans-32"/>
     </g>
    </g>
    <g id="line2d_28"/>
    <g id="line2d_29"/>
    <g id="text_18">
     <!--  = $2.72 \pm 0.12$ -->
     <defs>
      <path d="M 30.953125 67.4375 
L 56.203125 0 
L 46.6875 0 
L 31.34375 40.4375 
L 12.5 0 
L 2.984375 0 
L 26.953125 52.4375 
L 23.34375 62.109375 
Q 21.046875 68.265625 15.828125 68.265625 
L 11.140625 68.265625 
L 11.140625 75.984375 
L 16.84375 75.875 
Q 27.875 75.734375 30.953125 67.4375 
z
" id="DejaVuSans-3bb"/>
     </defs>
     <g transform="translate(315.9958 85.067133)scale(0.0833 -0.0833)">
      <use transform="translate(0 0.015625)" xlink:href="#DejaVuSans-3bb"/>
      <use transform="translate(59.179688 0.015625)" xlink:href="#DejaVuSans-20"/>
      <use transform="translate(90.966797 0.015625)" xlink:href="#DejaVuSans-3d"/>
      <use transform="translate(174.755859 0.015625)" xlink:href="#DejaVuSans-20"/>
      <use transform="translate(206.542969 0.015625)" xlink:href="#DejaVuSans-32"/>
      <use transform="translate(270.166016 0.015625)" xlink:href="#DejaVuSans-2e"/>
      <use transform="translate(301.84375 0.015625)" xlink:href="#DejaVuSans-37"/>
      <use transform="translate(365.466797 0.015625)" xlink:href="#DejaVuSans-32"/>
      <use transform="translate(448.572266 0.015625)" xlink:href="#DejaVuSans-b1"/>
      <use transform="translate(551.84375 0.015625)" xlink:href="#DejaVuSans-30"/>
      <use transform="translate(615.466797 0.015625)" xlink:href="#DejaVuSans-2e"/>
      <use transform="translate(647.253906 0.015625)" xlink:href="#DejaVuSans-31"/>
      <use transform="translate(710.876953 0.015625)" xlink:href="#DejaVuSans-32"/>
     </g>
    </g>
    <g id="LineCollection_2">
     <path d="M 301.0018 98.543511 
L 301.0018 90.213511 
" style="fill:none;stroke:#000000;stroke-width:1.5;"/>
    </g>
    <g id="line2d_30">
     <g>
      <use style="stroke:#000000;" x="301.0018" xlink:href="#m5259d54f92" y="98.543511"/>
     </g>
    </g>
    <g id="line2d_31">
     <g>
      <use style="stroke:#000000;" x="301.0018" xlink:href="#m5259d54f92" y="90.213511"/>
     </g>
    </g>
    <g id="line2d_32">
     <path d="M 292.6718 94.378511 
L 309.3318 94.378511 
" style="fill:none;stroke:#1f77b4;stroke-linecap:square;stroke-width:1.5;"/>
    </g>
    <g id="line2d_33"/>
    <g id="text_19">
     <!-- error in fit -->
     <defs>
      <path d="M 41.109375 46.296875 
Q 39.59375 47.171875 37.8125 47.578125 
Q 36.03125 48 33.890625 48 
Q 26.265625 48 22.1875 43.046875 
Q 18.109375 38.09375 18.109375 28.8125 
L 18.109375 0 
L 9.078125 0 
L 9.078125 54.6875 
L 18.109375 54.6875 
L 18.109375 46.1875 
Q 20.953125 51.171875 25.484375 53.578125 
Q 30.03125 56 36.53125 56 
Q 37.453125 56 38.578125 55.875 
Q 39.703125 55.765625 41.0625 55.515625 
z
" id="DejaVuSans-72"/>
      <path d="M 54.890625 33.015625 
L 54.890625 0 
L 45.90625 0 
L 45.90625 32.71875 
Q 45.90625 40.484375 42.875 44.328125 
Q 39.84375 48.1875 33.796875 48.1875 
Q 26.515625 48.1875 22.3125 43.546875 
Q 18.109375 38.921875 18.109375 30.90625 
L 18.109375 0 
L 9.078125 0 
L 9.078125 54.6875 
L 18.109375 54.6875 
L 18.109375 46.1875 
Q 21.34375 51.125 25.703125 53.5625 
Q 30.078125 56 35.796875 56 
Q 45.21875 56 50.046875 50.171875 
Q 54.890625 44.34375 54.890625 33.015625 
z
" id="DejaVuSans-6e"/>
      <path d="M 37.109375 75.984375 
L 37.109375 68.5 
L 28.515625 68.5 
Q 23.6875 68.5 21.796875 66.546875 
Q 19.921875 64.59375 19.921875 59.515625 
L 19.921875 54.6875 
L 34.71875 54.6875 
L 34.71875 47.703125 
L 19.921875 47.703125 
L 19.921875 0 
L 10.890625 0 
L 10.890625 47.703125 
L 2.296875 47.703125 
L 2.296875 54.6875 
L 10.890625 54.6875 
L 10.890625 58.5 
Q 10.890625 67.625 15.140625 71.796875 
Q 19.390625 75.984375 28.609375 75.984375 
z
" id="DejaVuSans-66"/>
     </defs>
     <g transform="translate(315.9958 97.294011)scale(0.0833 -0.0833)">
      <use xlink:href="#DejaVuSans-65"/>
      <use x="61.523438" xlink:href="#DejaVuSans-72"/>
      <use x="102.621094" xlink:href="#DejaVuSans-72"/>
      <use x="143.703125" xlink:href="#DejaVuSans-6f"/>
      <use x="204.884766" xlink:href="#DejaVuSans-72"/>
      <use x="245.998047" xlink:href="#DejaVuSans-20"/>
      <use x="277.785156" xlink:href="#DejaVuSans-69"/>
      <use x="305.568359" xlink:href="#DejaVuSans-6e"/>
      <use x="368.947266" xlink:href="#DejaVuSans-20"/>
      <use x="400.734375" xlink:href="#DejaVuSans-66"/>
      <use x="435.939453" xlink:href="#DejaVuSans-69"/>
      <use x="463.722656" xlink:href="#DejaVuSans-74"/>
     </g>
    </g>
   </g>
  </g>
  <g id="text_20">
   <!-- S35_150ml_big_wave Collected data and a fit of the data with errors -->
   <defs>
    <path d="M 53.515625 70.515625 
L 53.515625 60.890625 
Q 47.90625 63.578125 42.921875 64.890625 
Q 37.9375 66.21875 33.296875 66.21875 
Q 25.25 66.21875 20.875 63.09375 
Q 16.5 59.96875 16.5 54.203125 
Q 16.5 49.359375 19.40625 46.890625 
Q 22.3125 44.4375 30.421875 42.921875 
L 36.375 41.703125 
Q 47.40625 39.59375 52.65625 34.296875 
Q 57.90625 29 57.90625 20.125 
Q 57.90625 9.515625 50.796875 4.046875 
Q 43.703125 -1.421875 29.984375 -1.421875 
Q 24.8125 -1.421875 18.96875 -0.25 
Q 13.140625 0.921875 6.890625 3.21875 
L 6.890625 13.375 
Q 12.890625 10.015625 18.65625 8.296875 
Q 24.421875 6.59375 29.984375 6.59375 
Q 38.421875 6.59375 43.015625 9.90625 
Q 47.609375 13.234375 47.609375 19.390625 
Q 47.609375 24.75 44.3125 27.78125 
Q 41.015625 30.8125 33.5 32.328125 
L 27.484375 33.5 
Q 16.453125 35.6875 11.515625 40.375 
Q 6.59375 45.0625 6.59375 53.421875 
Q 6.59375 63.09375 13.40625 68.65625 
Q 20.21875 74.21875 32.171875 74.21875 
Q 37.3125 74.21875 42.625 73.28125 
Q 47.953125 72.359375 53.515625 70.515625 
z
" id="DejaVuSans-53"/>
    <path d="M 50.984375 -16.609375 
L 50.984375 -23.578125 
L -0.984375 -23.578125 
L -0.984375 -16.609375 
z
" id="DejaVuSans-5f"/>
    <path d="M 52 44.1875 
Q 55.375 50.25 60.0625 53.125 
Q 64.75 56 71.09375 56 
Q 79.640625 56 84.28125 50.015625 
Q 88.921875 44.046875 88.921875 33.015625 
L 88.921875 0 
L 79.890625 0 
L 79.890625 32.71875 
Q 79.890625 40.578125 77.09375 44.375 
Q 74.3125 48.1875 68.609375 48.1875 
Q 61.625 48.1875 57.5625 43.546875 
Q 53.515625 38.921875 53.515625 30.90625 
L 53.515625 0 
L 44.484375 0 
L 44.484375 32.71875 
Q 44.484375 40.625 41.703125 44.40625 
Q 38.921875 48.1875 33.109375 48.1875 
Q 26.21875 48.1875 22.15625 43.53125 
Q 18.109375 38.875 18.109375 30.90625 
L 18.109375 0 
L 9.078125 0 
L 9.078125 54.6875 
L 18.109375 54.6875 
L 18.109375 46.1875 
Q 21.1875 51.21875 25.484375 53.609375 
Q 29.78125 56 35.6875 56 
Q 41.65625 56 45.828125 52.96875 
Q 50 49.953125 52 44.1875 
z
" id="DejaVuSans-6d"/>
    <path d="M 48.6875 27.296875 
Q 48.6875 37.203125 44.609375 42.84375 
Q 40.53125 48.484375 33.40625 48.484375 
Q 26.265625 48.484375 22.1875 42.84375 
Q 18.109375 37.203125 18.109375 27.296875 
Q 18.109375 17.390625 22.1875 11.75 
Q 26.265625 6.109375 33.40625 6.109375 
Q 40.53125 6.109375 44.609375 11.75 
Q 48.6875 17.390625 48.6875 27.296875 
z
M 18.109375 46.390625 
Q 20.953125 51.265625 25.265625 53.625 
Q 29.59375 56 35.59375 56 
Q 45.5625 56 51.78125 48.09375 
Q 58.015625 40.1875 58.015625 27.296875 
Q 58.015625 14.40625 51.78125 6.484375 
Q 45.5625 -1.421875 35.59375 -1.421875 
Q 29.59375 -1.421875 25.265625 0.953125 
Q 20.953125 3.328125 18.109375 8.203125 
L 18.109375 0 
L 9.078125 0 
L 9.078125 75.984375 
L 18.109375 75.984375 
z
" id="DejaVuSans-62"/>
    <path d="M 45.40625 27.984375 
Q 45.40625 37.75 41.375 43.109375 
Q 37.359375 48.484375 30.078125 48.484375 
Q 22.859375 48.484375 18.828125 43.109375 
Q 14.796875 37.75 14.796875 27.984375 
Q 14.796875 18.265625 18.828125 12.890625 
Q 22.859375 7.515625 30.078125 7.515625 
Q 37.359375 7.515625 41.375 12.890625 
Q 45.40625 18.265625 45.40625 27.984375 
z
M 54.390625 6.78125 
Q 54.390625 -7.171875 48.1875 -13.984375 
Q 42 -20.796875 29.203125 -20.796875 
Q 24.46875 -20.796875 20.265625 -20.09375 
Q 16.0625 -19.390625 12.109375 -17.921875 
L 12.109375 -9.1875 
Q 16.0625 -11.328125 19.921875 -12.34375 
Q 23.78125 -13.375 27.78125 -13.375 
Q 36.625 -13.375 41.015625 -8.765625 
Q 45.40625 -4.15625 45.40625 5.171875 
L 45.40625 9.625 
Q 42.625 4.78125 38.28125 2.390625 
Q 33.9375 0 27.875 0 
Q 17.828125 0 11.671875 7.65625 
Q 5.515625 15.328125 5.515625 27.984375 
Q 5.515625 40.671875 11.671875 48.328125 
Q 17.828125 56 27.875 56 
Q 33.9375 56 38.28125 53.609375 
Q 42.625 51.21875 45.40625 46.390625 
L 45.40625 54.6875 
L 54.390625 54.6875 
z
" id="DejaVuSans-67"/>
    <path d="M 4.203125 54.6875 
L 13.1875 54.6875 
L 24.421875 12.015625 
L 35.59375 54.6875 
L 46.1875 54.6875 
L 57.421875 12.015625 
L 68.609375 54.6875 
L 77.59375 54.6875 
L 63.28125 0 
L 52.6875 0 
L 40.921875 44.828125 
L 29.109375 0 
L 18.5 0 
z
" id="DejaVuSans-77"/>
    <path d="M 2.984375 54.6875 
L 12.5 54.6875 
L 29.59375 8.796875 
L 46.6875 54.6875 
L 56.203125 54.6875 
L 35.6875 0 
L 23.484375 0 
z
" id="DejaVuSans-76"/>
    <path d="M 54.890625 33.015625 
L 54.890625 0 
L 45.90625 0 
L 45.90625 32.71875 
Q 45.90625 40.484375 42.875 44.328125 
Q 39.84375 48.1875 33.796875 48.1875 
Q 26.515625 48.1875 22.3125 43.546875 
Q 18.109375 38.921875 18.109375 30.90625 
L 18.109375 0 
L 9.078125 0 
L 9.078125 75.984375 
L 18.109375 75.984375 
L 18.109375 46.1875 
Q 21.34375 51.125 25.703125 53.5625 
Q 30.078125 56 35.796875 56 
Q 45.21875 56 50.046875 50.171875 
Q 54.890625 44.34375 54.890625 33.015625 
z
" id="DejaVuSans-68"/>
    <path d="M 44.28125 53.078125 
L 44.28125 44.578125 
Q 40.484375 46.53125 36.375 47.5 
Q 32.28125 48.484375 27.875 48.484375 
Q 21.1875 48.484375 17.84375 46.4375 
Q 14.5 44.390625 14.5 40.28125 
Q 14.5 37.15625 16.890625 35.375 
Q 19.28125 33.59375 26.515625 31.984375 
L 29.59375 31.296875 
Q 39.15625 29.25 43.1875 25.515625 
Q 47.21875 21.78125 47.21875 15.09375 
Q 47.21875 7.46875 41.1875 3.015625 
Q 35.15625 -1.421875 24.609375 -1.421875 
Q 20.21875 -1.421875 15.453125 -0.5625 
Q 10.6875 0.296875 5.421875 2 
L 5.421875 11.28125 
Q 10.40625 8.6875 15.234375 7.390625 
Q 20.0625 6.109375 24.8125 6.109375 
Q 31.15625 6.109375 34.5625 8.28125 
Q 37.984375 10.453125 37.984375 14.40625 
Q 37.984375 18.0625 35.515625 20.015625 
Q 33.0625 21.96875 24.703125 23.78125 
L 21.578125 24.515625 
Q 13.234375 26.265625 9.515625 29.90625 
Q 5.8125 33.546875 5.8125 39.890625 
Q 5.8125 47.609375 11.28125 51.796875 
Q 16.75 56 26.8125 56 
Q 31.78125 56 36.171875 55.265625 
Q 40.578125 54.546875 44.28125 53.078125 
z
" id="DejaVuSans-73"/>
   </defs>
   <g transform="translate(10.002188 14.878125)scale(0.12 -0.12)">
    <use xlink:href="#DejaVuSans-53"/>
    <use x="63.476562" xlink:href="#DejaVuSans-33"/>
    <use x="127.099609" xlink:href="#DejaVuSans-35"/>
    <use x="190.722656" xlink:href="#DejaVuSans-5f"/>
    <use x="240.722656" xlink:href="#DejaVuSans-31"/>
    <use x="304.345703" xlink:href="#DejaVuSans-35"/>
    <use x="367.96875" xlink:href="#DejaVuSans-30"/>
    <use x="431.591797" xlink:href="#DejaVuSans-6d"/>
    <use x="529.003906" xlink:href="#DejaVuSans-6c"/>
    <use x="556.787109" xlink:href="#DejaVuSans-5f"/>
    <use x="606.787109" xlink:href="#DejaVuSans-62"/>
    <use x="670.263672" xlink:href="#DejaVuSans-69"/>
    <use x="698.046875" xlink:href="#DejaVuSans-67"/>
    <use x="761.523438" xlink:href="#DejaVuSans-5f"/>
    <use x="811.523438" xlink:href="#DejaVuSans-77"/>
    <use x="893.310547" xlink:href="#DejaVuSans-61"/>
    <use x="954.589844" xlink:href="#DejaVuSans-76"/>
    <use x="1013.769531" xlink:href="#DejaVuSans-65"/>
    <use x="1075.292969" xlink:href="#DejaVuSans-20"/>
    <use x="1107.080078" xlink:href="#DejaVuSans-43"/>
    <use x="1176.904297" xlink:href="#DejaVuSans-6f"/>
    <use x="1238.085938" xlink:href="#DejaVuSans-6c"/>
    <use x="1265.869141" xlink:href="#DejaVuSans-6c"/>
    <use x="1293.652344" xlink:href="#DejaVuSans-65"/>
    <use x="1355.175781" xlink:href="#DejaVuSans-63"/>
    <use x="1410.15625" xlink:href="#DejaVuSans-74"/>
    <use x="1449.365234" xlink:href="#DejaVuSans-65"/>
    <use x="1510.888672" xlink:href="#DejaVuSans-64"/>
    <use x="1574.365234" xlink:href="#DejaVuSans-20"/>
    <use x="1606.152344" xlink:href="#DejaVuSans-64"/>
    <use x="1669.628906" xlink:href="#DejaVuSans-61"/>
    <use x="1730.908203" xlink:href="#DejaVuSans-74"/>
    <use x="1770.117188" xlink:href="#DejaVuSans-61"/>
    <use x="1831.396484" xlink:href="#DejaVuSans-20"/>
    <use x="1863.183594" xlink:href="#DejaVuSans-61"/>
    <use x="1924.462891" xlink:href="#DejaVuSans-6e"/>
    <use x="1987.841797" xlink:href="#DejaVuSans-64"/>
    <use x="2051.318359" xlink:href="#DejaVuSans-20"/>
    <use x="2083.105469" xlink:href="#DejaVuSans-61"/>
    <use x="2144.384766" xlink:href="#DejaVuSans-20"/>
    <use x="2176.171875" xlink:href="#DejaVuSans-66"/>
    <use x="2211.376953" xlink:href="#DejaVuSans-69"/>
    <use x="2239.160156" xlink:href="#DejaVuSans-74"/>
    <use x="2278.369141" xlink:href="#DejaVuSans-20"/>
    <use x="2310.15625" xlink:href="#DejaVuSans-6f"/>
    <use x="2371.337891" xlink:href="#DejaVuSans-66"/>
    <use x="2406.542969" xlink:href="#DejaVuSans-20"/>
    <use x="2438.330078" xlink:href="#DejaVuSans-74"/>
    <use x="2477.539062" xlink:href="#DejaVuSans-68"/>
    <use x="2540.917969" xlink:href="#DejaVuSans-65"/>
    <use x="2602.441406" xlink:href="#DejaVuSans-20"/>
    <use x="2634.228516" xlink:href="#DejaVuSans-64"/>
    <use x="2697.705078" xlink:href="#DejaVuSans-61"/>
    <use x="2758.984375" xlink:href="#DejaVuSans-74"/>
    <use x="2798.193359" xlink:href="#DejaVuSans-61"/>
    <use x="2859.472656" xlink:href="#DejaVuSans-20"/>
    <use x="2891.259766" xlink:href="#DejaVuSans-77"/>
    <use x="2973.046875" xlink:href="#DejaVuSans-69"/>
    <use x="3000.830078" xlink:href="#DejaVuSans-74"/>
    <use x="3040.039062" xlink:href="#DejaVuSans-68"/>
    <use x="3103.417969" xlink:href="#DejaVuSans-20"/>
    <use x="3135.205078" xlink:href="#DejaVuSans-65"/>
    <use x="3196.728516" xlink:href="#DejaVuSans-72"/>
    <use x="3237.826172" xlink:href="#DejaVuSans-72"/>
    <use x="3278.908203" xlink:href="#DejaVuSans-6f"/>
    <use x="3340.089844" xlink:href="#DejaVuSans-72"/>
    <use x="3381.203125" xlink:href="#DejaVuSans-73"/>
   </g>
  </g>
 </g>
 <defs>
  <clipPath id="pf51b8ecf82">
   <rect height="217.44" width="334.8" x="54" y="34.56"/>
  </clipPath>
 </defs>
</svg>
