<?xml version="1.0" encoding="utf-8" standalone="no"?>
<!DOCTYPE svg PUBLIC "-//W3C//DTD SVG 1.1//EN"
  "http://www.w3.org/Graphics/SVG/1.1/DTD/svg11.dtd">
<!-- Created with matplotlib (http://matplotlib.org/) -->
<svg height="288pt" version="1.1" viewBox="0 0 432 288" width="432pt" xmlns="http://www.w3.org/2000/svg" xmlns:xlink="http://www.w3.org/1999/xlink">
 <defs>
  <style type="text/css">
*{stroke-linecap:butt;stroke-linejoin:round;}
  </style>
 </defs>
 <g id="figure_1">
  <g id="patch_1">
   <path d="M 0 288 
L 432 288 
L 432 0 
L 0 0 
z
" style="fill:#ffffff;"/>
  </g>
  <g id="axes_1">
   <g id="patch_2">
    <path d="M 54 252 
L 388.8 252 
L 388.8 34.56 
L 54 34.56 
z
" style="fill:#ffffff;"/>
   </g>
   <g id="matplotlib.axis_1">
    <g id="xtick_1">
     <g id="line2d_1">
      <defs>
       <path d="M 0 0 
L 0 3.5 
" id="mb260c70cd6" style="stroke:#000000;stroke-width:0.8;"/>
      </defs>
      <g>
       <use style="stroke:#000000;stroke-width:0.8;" x="94.047079" xlink:href="#mb260c70cd6" y="252"/>
      </g>
     </g>
     <g id="text_1">
      <!-- 2 -->
      <defs>
       <path d="M 19.1875 8.296875 
L 53.609375 8.296875 
L 53.609375 0 
L 7.328125 0 
L 7.328125 8.296875 
Q 12.9375 14.109375 22.625 23.890625 
Q 32.328125 33.6875 34.8125 36.53125 
Q 39.546875 41.84375 41.421875 45.53125 
Q 43.3125 49.21875 43.3125 52.78125 
Q 43.3125 58.59375 39.234375 62.25 
Q 35.15625 65.921875 28.609375 65.921875 
Q 23.96875 65.921875 18.8125 64.3125 
Q 13.671875 62.703125 7.8125 59.421875 
L 7.8125 69.390625 
Q 13.765625 71.78125 18.9375 73 
Q 24.125 74.21875 28.421875 74.21875 
Q 39.75 74.21875 46.484375 68.546875 
Q 53.21875 62.890625 53.21875 53.421875 
Q 53.21875 48.921875 51.53125 44.890625 
Q 49.859375 40.875 45.40625 35.40625 
Q 44.1875 33.984375 37.640625 27.21875 
Q 31.109375 20.453125 19.1875 8.296875 
z
" id="DejaVuSans-32"/>
      </defs>
      <g transform="translate(90.865829 266.598437)scale(0.1 -0.1)">
       <use xlink:href="#DejaVuSans-32"/>
      </g>
     </g>
    </g>
    <g id="xtick_2">
     <g id="line2d_2">
      <g>
       <use style="stroke:#000000;stroke-width:0.8;" x="135.459633" xlink:href="#mb260c70cd6" y="252"/>
      </g>
     </g>
     <g id="text_2">
      <!-- 4 -->
      <defs>
       <path d="M 37.796875 64.3125 
L 12.890625 25.390625 
L 37.796875 25.390625 
z
M 35.203125 72.90625 
L 47.609375 72.90625 
L 47.609375 25.390625 
L 58.015625 25.390625 
L 58.015625 17.1875 
L 47.609375 17.1875 
L 47.609375 0 
L 37.796875 0 
L 37.796875 17.1875 
L 4.890625 17.1875 
L 4.890625 26.703125 
z
" id="DejaVuSans-34"/>
      </defs>
      <g transform="translate(132.278383 266.598437)scale(0.1 -0.1)">
       <use xlink:href="#DejaVuSans-34"/>
      </g>
     </g>
    </g>
    <g id="xtick_3">
     <g id="line2d_3">
      <g>
       <use style="stroke:#000000;stroke-width:0.8;" x="176.872187" xlink:href="#mb260c70cd6" y="252"/>
      </g>
     </g>
     <g id="text_3">
      <!-- 6 -->
      <defs>
       <path d="M 33.015625 40.375 
Q 26.375 40.375 22.484375 35.828125 
Q 18.609375 31.296875 18.609375 23.390625 
Q 18.609375 15.53125 22.484375 10.953125 
Q 26.375 6.390625 33.015625 6.390625 
Q 39.65625 6.390625 43.53125 10.953125 
Q 47.40625 15.53125 47.40625 23.390625 
Q 47.40625 31.296875 43.53125 35.828125 
Q 39.65625 40.375 33.015625 40.375 
z
M 52.59375 71.296875 
L 52.59375 62.3125 
Q 48.875 64.0625 45.09375 64.984375 
Q 41.3125 65.921875 37.59375 65.921875 
Q 27.828125 65.921875 22.671875 59.328125 
Q 17.53125 52.734375 16.796875 39.40625 
Q 19.671875 43.65625 24.015625 45.921875 
Q 28.375 48.1875 33.59375 48.1875 
Q 44.578125 48.1875 50.953125 41.515625 
Q 57.328125 34.859375 57.328125 23.390625 
Q 57.328125 12.15625 50.6875 5.359375 
Q 44.046875 -1.421875 33.015625 -1.421875 
Q 20.359375 -1.421875 13.671875 8.265625 
Q 6.984375 17.96875 6.984375 36.375 
Q 6.984375 53.65625 15.1875 63.9375 
Q 23.390625 74.21875 37.203125 74.21875 
Q 40.921875 74.21875 44.703125 73.484375 
Q 48.484375 72.75 52.59375 71.296875 
z
" id="DejaVuSans-36"/>
      </defs>
      <g transform="translate(173.690937 266.598437)scale(0.1 -0.1)">
       <use xlink:href="#DejaVuSans-36"/>
      </g>
     </g>
    </g>
    <g id="xtick_4">
     <g id="line2d_4">
      <g>
       <use style="stroke:#000000;stroke-width:0.8;" x="218.284741" xlink:href="#mb260c70cd6" y="252"/>
      </g>
     </g>
     <g id="text_4">
      <!-- 8 -->
      <defs>
       <path d="M 31.78125 34.625 
Q 24.75 34.625 20.71875 30.859375 
Q 16.703125 27.09375 16.703125 20.515625 
Q 16.703125 13.921875 20.71875 10.15625 
Q 24.75 6.390625 31.78125 6.390625 
Q 38.8125 6.390625 42.859375 10.171875 
Q 46.921875 13.96875 46.921875 20.515625 
Q 46.921875 27.09375 42.890625 30.859375 
Q 38.875 34.625 31.78125 34.625 
z
M 21.921875 38.8125 
Q 15.578125 40.375 12.03125 44.71875 
Q 8.5 49.078125 8.5 55.328125 
Q 8.5 64.0625 14.71875 69.140625 
Q 20.953125 74.21875 31.78125 74.21875 
Q 42.671875 74.21875 48.875 69.140625 
Q 55.078125 64.0625 55.078125 55.328125 
Q 55.078125 49.078125 51.53125 44.71875 
Q 48 40.375 41.703125 38.8125 
Q 48.828125 37.15625 52.796875 32.3125 
Q 56.78125 27.484375 56.78125 20.515625 
Q 56.78125 9.90625 50.3125 4.234375 
Q 43.84375 -1.421875 31.78125 -1.421875 
Q 19.734375 -1.421875 13.25 4.234375 
Q 6.78125 9.90625 6.78125 20.515625 
Q 6.78125 27.484375 10.78125 32.3125 
Q 14.796875 37.15625 21.921875 38.8125 
z
M 18.3125 54.390625 
Q 18.3125 48.734375 21.84375 45.5625 
Q 25.390625 42.390625 31.78125 42.390625 
Q 38.140625 42.390625 41.71875 45.5625 
Q 45.3125 48.734375 45.3125 54.390625 
Q 45.3125 60.0625 41.71875 63.234375 
Q 38.140625 66.40625 31.78125 66.40625 
Q 25.390625 66.40625 21.84375 63.234375 
Q 18.3125 60.0625 18.3125 54.390625 
z
" id="DejaVuSans-38"/>
      </defs>
      <g transform="translate(215.103491 266.598437)scale(0.1 -0.1)">
       <use xlink:href="#DejaVuSans-38"/>
      </g>
     </g>
    </g>
    <g id="xtick_5">
     <g id="line2d_5">
      <g>
       <use style="stroke:#000000;stroke-width:0.8;" x="259.697295" xlink:href="#mb260c70cd6" y="252"/>
      </g>
     </g>
     <g id="text_5">
      <!-- 10 -->
      <defs>
       <path d="M 12.40625 8.296875 
L 28.515625 8.296875 
L 28.515625 63.921875 
L 10.984375 60.40625 
L 10.984375 69.390625 
L 28.421875 72.90625 
L 38.28125 72.90625 
L 38.28125 8.296875 
L 54.390625 8.296875 
L 54.390625 0 
L 12.40625 0 
z
" id="DejaVuSans-31"/>
       <path d="M 31.78125 66.40625 
Q 24.171875 66.40625 20.328125 58.90625 
Q 16.5 51.421875 16.5 36.375 
Q 16.5 21.390625 20.328125 13.890625 
Q 24.171875 6.390625 31.78125 6.390625 
Q 39.453125 6.390625 43.28125 13.890625 
Q 47.125 21.390625 47.125 36.375 
Q 47.125 51.421875 43.28125 58.90625 
Q 39.453125 66.40625 31.78125 66.40625 
z
M 31.78125 74.21875 
Q 44.046875 74.21875 50.515625 64.515625 
Q 56.984375 54.828125 56.984375 36.375 
Q 56.984375 17.96875 50.515625 8.265625 
Q 44.046875 -1.421875 31.78125 -1.421875 
Q 19.53125 -1.421875 13.0625 8.265625 
Q 6.59375 17.96875 6.59375 36.375 
Q 6.59375 54.828125 13.0625 64.515625 
Q 19.53125 74.21875 31.78125 74.21875 
z
" id="DejaVuSans-30"/>
      </defs>
      <g transform="translate(253.334795 266.598437)scale(0.1 -0.1)">
       <use xlink:href="#DejaVuSans-31"/>
       <use x="63.623047" xlink:href="#DejaVuSans-30"/>
      </g>
     </g>
    </g>
    <g id="xtick_6">
     <g id="line2d_6">
      <g>
       <use style="stroke:#000000;stroke-width:0.8;" x="301.109849" xlink:href="#mb260c70cd6" y="252"/>
      </g>
     </g>
     <g id="text_6">
      <!-- 12 -->
      <g transform="translate(294.747349 266.598437)scale(0.1 -0.1)">
       <use xlink:href="#DejaVuSans-31"/>
       <use x="63.623047" xlink:href="#DejaVuSans-32"/>
      </g>
     </g>
    </g>
    <g id="xtick_7">
     <g id="line2d_7">
      <g>
       <use style="stroke:#000000;stroke-width:0.8;" x="342.522403" xlink:href="#mb260c70cd6" y="252"/>
      </g>
     </g>
     <g id="text_7">
      <!-- 14 -->
      <g transform="translate(336.159903 266.598437)scale(0.1 -0.1)">
       <use xlink:href="#DejaVuSans-31"/>
       <use x="63.623047" xlink:href="#DejaVuSans-34"/>
      </g>
     </g>
    </g>
    <g id="xtick_8">
     <g id="line2d_8">
      <g>
       <use style="stroke:#000000;stroke-width:0.8;" x="383.934957" xlink:href="#mb260c70cd6" y="252"/>
      </g>
     </g>
     <g id="text_8">
      <!-- 16 -->
      <g transform="translate(377.572457 266.598437)scale(0.1 -0.1)">
       <use xlink:href="#DejaVuSans-31"/>
       <use x="63.623047" xlink:href="#DejaVuSans-36"/>
      </g>
     </g>
    </g>
   </g>
   <g id="matplotlib.axis_2">
    <g id="ytick_1">
     <g id="line2d_9">
      <defs>
       <path d="M 0 0 
L -3.5 0 
" id="me5c3e02400" style="stroke:#000000;stroke-width:0.8;"/>
      </defs>
      <g>
       <use style="stroke:#000000;stroke-width:0.8;" x="54" xlink:href="#me5c3e02400" y="250.817419"/>
      </g>
     </g>
     <g id="text_9">
      <!-- 0.9 -->
      <defs>
       <path d="M 10.6875 12.40625 
L 21 12.40625 
L 21 0 
L 10.6875 0 
z
" id="DejaVuSans-2e"/>
       <path d="M 10.984375 1.515625 
L 10.984375 10.5 
Q 14.703125 8.734375 18.5 7.8125 
Q 22.3125 6.890625 25.984375 6.890625 
Q 35.75 6.890625 40.890625 13.453125 
Q 46.046875 20.015625 46.78125 33.40625 
Q 43.953125 29.203125 39.59375 26.953125 
Q 35.25 24.703125 29.984375 24.703125 
Q 19.046875 24.703125 12.671875 31.3125 
Q 6.296875 37.9375 6.296875 49.421875 
Q 6.296875 60.640625 12.9375 67.421875 
Q 19.578125 74.21875 30.609375 74.21875 
Q 43.265625 74.21875 49.921875 64.515625 
Q 56.59375 54.828125 56.59375 36.375 
Q 56.59375 19.140625 48.40625 8.859375 
Q 40.234375 -1.421875 26.421875 -1.421875 
Q 22.703125 -1.421875 18.890625 -0.6875 
Q 15.09375 0.046875 10.984375 1.515625 
z
M 30.609375 32.421875 
Q 37.25 32.421875 41.125 36.953125 
Q 45.015625 41.5 45.015625 49.421875 
Q 45.015625 57.28125 41.125 61.84375 
Q 37.25 66.40625 30.609375 66.40625 
Q 23.96875 66.40625 20.09375 61.84375 
Q 16.21875 57.28125 16.21875 49.421875 
Q 16.21875 41.5 20.09375 36.953125 
Q 23.96875 32.421875 30.609375 32.421875 
z
" id="DejaVuSans-39"/>
      </defs>
      <g transform="translate(31.096875 254.616637)scale(0.1 -0.1)">
       <use xlink:href="#DejaVuSans-30"/>
       <use x="63.623047" xlink:href="#DejaVuSans-2e"/>
       <use x="95.410156" xlink:href="#DejaVuSans-39"/>
      </g>
     </g>
    </g>
    <g id="ytick_2">
     <g id="line2d_10">
      <g>
       <use style="stroke:#000000;stroke-width:0.8;" x="54" xlink:href="#me5c3e02400" y="204.161736"/>
      </g>
     </g>
     <g id="text_10">
      <!-- 1.0 -->
      <g transform="translate(31.096875 207.960954)scale(0.1 -0.1)">
       <use xlink:href="#DejaVuSans-31"/>
       <use x="63.623047" xlink:href="#DejaVuSans-2e"/>
       <use x="95.410156" xlink:href="#DejaVuSans-30"/>
      </g>
     </g>
    </g>
    <g id="ytick_3">
     <g id="line2d_11">
      <g>
       <use style="stroke:#000000;stroke-width:0.8;" x="54" xlink:href="#me5c3e02400" y="157.506052"/>
      </g>
     </g>
     <g id="text_11">
      <!-- 1.1 -->
      <g transform="translate(31.096875 161.305271)scale(0.1 -0.1)">
       <use xlink:href="#DejaVuSans-31"/>
       <use x="63.623047" xlink:href="#DejaVuSans-2e"/>
       <use x="95.410156" xlink:href="#DejaVuSans-31"/>
      </g>
     </g>
    </g>
    <g id="ytick_4">
     <g id="line2d_12">
      <g>
       <use style="stroke:#000000;stroke-width:0.8;" x="54" xlink:href="#me5c3e02400" y="110.850369"/>
      </g>
     </g>
     <g id="text_12">
      <!-- 1.2 -->
      <g transform="translate(31.096875 114.649588)scale(0.1 -0.1)">
       <use xlink:href="#DejaVuSans-31"/>
       <use x="63.623047" xlink:href="#DejaVuSans-2e"/>
       <use x="95.410156" xlink:href="#DejaVuSans-32"/>
      </g>
     </g>
    </g>
    <g id="ytick_5">
     <g id="line2d_13">
      <g>
       <use style="stroke:#000000;stroke-width:0.8;" x="54" xlink:href="#me5c3e02400" y="64.194686"/>
      </g>
     </g>
     <g id="text_13">
      <!-- 1.3 -->
      <defs>
       <path d="M 40.578125 39.3125 
Q 47.65625 37.796875 51.625 33 
Q 55.609375 28.21875 55.609375 21.1875 
Q 55.609375 10.40625 48.1875 4.484375 
Q 40.765625 -1.421875 27.09375 -1.421875 
Q 22.515625 -1.421875 17.65625 -0.515625 
Q 12.796875 0.390625 7.625 2.203125 
L 7.625 11.71875 
Q 11.71875 9.328125 16.59375 8.109375 
Q 21.484375 6.890625 26.8125 6.890625 
Q 36.078125 6.890625 40.9375 10.546875 
Q 45.796875 14.203125 45.796875 21.1875 
Q 45.796875 27.640625 41.28125 31.265625 
Q 36.765625 34.90625 28.71875 34.90625 
L 20.21875 34.90625 
L 20.21875 43.015625 
L 29.109375 43.015625 
Q 36.375 43.015625 40.234375 45.921875 
Q 44.09375 48.828125 44.09375 54.296875 
Q 44.09375 59.90625 40.109375 62.90625 
Q 36.140625 65.921875 28.71875 65.921875 
Q 24.65625 65.921875 20.015625 65.03125 
Q 15.375 64.15625 9.8125 62.3125 
L 9.8125 71.09375 
Q 15.4375 72.65625 20.34375 73.4375 
Q 25.25 74.21875 29.59375 74.21875 
Q 40.828125 74.21875 47.359375 69.109375 
Q 53.90625 64.015625 53.90625 55.328125 
Q 53.90625 49.265625 50.4375 45.09375 
Q 46.96875 40.921875 40.578125 39.3125 
z
" id="DejaVuSans-33"/>
      </defs>
      <g transform="translate(31.096875 67.993905)scale(0.1 -0.1)">
       <use xlink:href="#DejaVuSans-31"/>
       <use x="63.623047" xlink:href="#DejaVuSans-2e"/>
       <use x="95.410156" xlink:href="#DejaVuSans-33"/>
      </g>
     </g>
    </g>
   </g>
   <g id="LineCollection_1">
    <path clip-path="url(#p1d269798c8)" d="M 69.218182 242.116364 
L 69.218182 130.516408 
" style="fill:none;stroke:#000000;stroke-width:1.5;"/>
    <path clip-path="url(#p1d269798c8)" d="M 73.121315 236.232362 
L 73.121315 131.880763 
" style="fill:none;stroke:#000000;stroke-width:1.5;"/>
    <path clip-path="url(#p1d269798c8)" d="M 77.022378 230.351133 
L 77.022378 133.108912 
" style="fill:none;stroke:#000000;stroke-width:1.5;"/>
    <path clip-path="url(#p1d269798c8)" d="M 80.925511 224.714513 
L 80.925511 133.95479 
" style="fill:none;stroke:#000000;stroke-width:1.5;"/>
    <path clip-path="url(#p1d269798c8)" d="M 84.826573 219.457316 
L 84.826573 134.289909 
" style="fill:none;stroke:#000000;stroke-width:1.5;"/>
    <path clip-path="url(#p1d269798c8)" d="M 88.729707 214.609981 
L 88.729707 134.080427 
" style="fill:none;stroke:#000000;stroke-width:1.5;"/>
    <path clip-path="url(#p1d269798c8)" d="M 92.630769 210.154314 
L 92.630769 133.352348 
" style="fill:none;stroke:#000000;stroke-width:1.5;"/>
    <path clip-path="url(#p1d269798c8)" d="M 96.533902 206.031771 
L 96.533902 132.161825 
" style="fill:none;stroke:#000000;stroke-width:1.5;"/>
    <path clip-path="url(#p1d269798c8)" d="M 100.434965 202.182709 
L 100.434965 130.577957 
" style="fill:none;stroke:#000000;stroke-width:1.5;"/>
    <path clip-path="url(#p1d269798c8)" d="M 104.338098 198.540717 
L 104.338098 128.665963 
" style="fill:none;stroke:#000000;stroke-width:1.5;"/>
    <path clip-path="url(#p1d269798c8)" d="M 108.239161 195.055039 
L 108.239161 126.487857 
" style="fill:none;stroke:#000000;stroke-width:1.5;"/>
    <path clip-path="url(#p1d269798c8)" d="M 112.142294 191.677079 
L 112.142294 124.092421 
" style="fill:none;stroke:#000000;stroke-width:1.5;"/>
    <path clip-path="url(#p1d269798c8)" d="M 116.043357 188.375308 
L 116.043357 121.524371 
" style="fill:none;stroke:#000000;stroke-width:1.5;"/>
    <path clip-path="url(#p1d269798c8)" d="M 119.94649 185.119836 
L 119.94649 118.815333 
" style="fill:none;stroke:#000000;stroke-width:1.5;"/>
    <path clip-path="url(#p1d269798c8)" d="M 123.847552 181.895152 
L 123.847552 115.996032 
" style="fill:none;stroke:#000000;stroke-width:1.5;"/>
    <path clip-path="url(#p1d269798c8)" d="M 127.750686 178.684914 
L 127.750686 113.086236 
" style="fill:none;stroke:#000000;stroke-width:1.5;"/>
    <path clip-path="url(#p1d269798c8)" d="M 131.651748 175.484473 
L 131.651748 110.107885 
" style="fill:none;stroke:#000000;stroke-width:1.5;"/>
    <path clip-path="url(#p1d269798c8)" d="M 135.554881 172.286226 
L 135.554881 107.073802 
" style="fill:none;stroke:#000000;stroke-width:1.5;"/>
    <path clip-path="url(#p1d269798c8)" d="M 139.455944 169.092413 
L 139.455944 104.001105 
" style="fill:none;stroke:#000000;stroke-width:1.5;"/>
    <path clip-path="url(#p1d269798c8)" d="M 143.359077 165.900905 
L 143.359077 100.898994 
" style="fill:none;stroke:#000000;stroke-width:1.5;"/>
    <path clip-path="url(#p1d269798c8)" d="M 147.26014 162.718266 
L 147.26014 97.78224 
" style="fill:none;stroke:#000000;stroke-width:1.5;"/>
    <path clip-path="url(#p1d269798c8)" d="M 151.163273 159.545842 
L 151.163273 94.658409 
" style="fill:none;stroke:#000000;stroke-width:1.5;"/>
    <path clip-path="url(#p1d269798c8)" d="M 155.064336 156.392961 
L 155.064336 91.541319 
" style="fill:none;stroke:#000000;stroke-width:1.5;"/>
    <path clip-path="url(#p1d269798c8)" d="M 158.967469 153.263254 
L 158.967469 88.437999 
" style="fill:none;stroke:#000000;stroke-width:1.5;"/>
    <path clip-path="url(#p1d269798c8)" d="M 162.868531 150.167842 
L 162.868531 85.362017 
" style="fill:none;stroke:#000000;stroke-width:1.5;"/>
    <path clip-path="url(#p1d269798c8)" d="M 166.771665 147.111921 
L 166.771665 82.320417 
" style="fill:none;stroke:#000000;stroke-width:1.5;"/>
    <path clip-path="url(#p1d269798c8)" d="M 170.672727 144.107756 
L 170.672727 79.326794 
" style="fill:none;stroke:#000000;stroke-width:1.5;"/>
    <path clip-path="url(#p1d269798c8)" d="M 174.57586 141.161622 
L 174.57586 76.38843 
" style="fill:none;stroke:#000000;stroke-width:1.5;"/>
    <path clip-path="url(#p1d269798c8)" d="M 178.476923 138.286437 
L 178.476923 73.518964 
" style="fill:none;stroke:#000000;stroke-width:1.5;"/>
    <path clip-path="url(#p1d269798c8)" d="M 182.380056 135.489186 
L 182.380056 70.725929 
" style="fill:none;stroke:#000000;stroke-width:1.5;"/>
    <path clip-path="url(#p1d269798c8)" d="M 186.281119 132.783019 
L 186.281119 68.022864 
" style="fill:none;stroke:#000000;stroke-width:1.5;"/>
    <path clip-path="url(#p1d269798c8)" d="M 190.184252 130.175308 
L 190.184252 65.417439 
" style="fill:none;stroke:#000000;stroke-width:1.5;"/>
    <path clip-path="url(#p1d269798c8)" d="M 194.085315 127.679029 
L 194.085315 62.922844 
" style="fill:none;stroke:#000000;stroke-width:1.5;"/>
    <path clip-path="url(#p1d269798c8)" d="M 197.988448 125.301633 
L 197.988448 60.546688 
" style="fill:none;stroke:#000000;stroke-width:1.5;"/>
    <path clip-path="url(#p1d269798c8)" d="M 201.88951 123.05553 
L 201.88951 58.301498 
" style="fill:none;stroke:#000000;stroke-width:1.5;"/>
    <path clip-path="url(#p1d269798c8)" d="M 205.792644 120.947937 
L 205.792644 56.194577 
" style="fill:none;stroke:#000000;stroke-width:1.5;"/>
    <path clip-path="url(#p1d269798c8)" d="M 209.693706 118.990306 
L 209.693706 54.237441 
" style="fill:none;stroke:#000000;stroke-width:1.5;"/>
    <path clip-path="url(#p1d269798c8)" d="M 213.59684 117.189315 
L 213.59684 52.436815 
" style="fill:none;stroke:#000000;stroke-width:1.5;"/>
    <path clip-path="url(#p1d269798c8)" d="M 217.497902 115.555082 
L 217.497902 50.80285 
" style="fill:none;stroke:#000000;stroke-width:1.5;"/>
    <path clip-path="url(#p1d269798c8)" d="M 221.401035 114.093455 
L 221.401035 49.341421 
" style="fill:none;stroke:#000000;stroke-width:1.5;"/>
    <path clip-path="url(#p1d269798c8)" d="M 225.302098 112.812867 
L 225.302098 48.060978 
" style="fill:none;stroke:#000000;stroke-width:1.5;"/>
    <path clip-path="url(#p1d269798c8)" d="M 229.205231 111.718073 
L 229.205231 46.966292 
" style="fill:none;stroke:#000000;stroke-width:1.5;"/>
    <path clip-path="url(#p1d269798c8)" d="M 233.106294 110.815519 
L 233.106294 46.063817 
" style="fill:none;stroke:#000000;stroke-width:1.5;"/>
    <path clip-path="url(#p1d269798c8)" d="M 237.009427 110.108648 
L 237.009427 45.357004 
" style="fill:none;stroke:#000000;stroke-width:1.5;"/>
    <path clip-path="url(#p1d269798c8)" d="M 240.91049 109.601679 
L 240.91049 44.850078 
" style="fill:none;stroke:#000000;stroke-width:1.5;"/>
    <path clip-path="url(#p1d269798c8)" d="M 244.811552 109.296687 
L 244.811552 44.545117 
" style="fill:none;stroke:#000000;stroke-width:1.5;"/>
    <path clip-path="url(#p1d269798c8)" d="M 248.714685 109.195182 
L 248.714685 44.443636 
" style="fill:none;stroke:#000000;stroke-width:1.5;"/>
    <path clip-path="url(#p1d269798c8)" d="M 252.615748 109.297777 
L 252.615748 44.546248 
" style="fill:none;stroke:#000000;stroke-width:1.5;"/>
    <path clip-path="url(#p1d269798c8)" d="M 256.518881 109.604068 
L 256.518881 44.852551 
" style="fill:none;stroke:#000000;stroke-width:1.5;"/>
    <path clip-path="url(#p1d269798c8)" d="M 260.419944 110.112211 
L 260.419944 45.360704 
" style="fill:none;stroke:#000000;stroke-width:1.5;"/>
    <path clip-path="url(#p1d269798c8)" d="M 264.323077 110.820232 
L 264.323077 46.068732 
" style="fill:none;stroke:#000000;stroke-width:1.5;"/>
    <path clip-path="url(#p1d269798c8)" d="M 268.22414 111.723903 
L 268.22414 46.972408 
" style="fill:none;stroke:#000000;stroke-width:1.5;"/>
    <path clip-path="url(#p1d269798c8)" d="M 272.127273 112.819772 
L 272.127273 48.06828 
" style="fill:none;stroke:#000000;stroke-width:1.5;"/>
    <path clip-path="url(#p1d269798c8)" d="M 276.028335 114.101382 
L 276.028335 49.349893 
" style="fill:none;stroke:#000000;stroke-width:1.5;"/>
    <path clip-path="url(#p1d269798c8)" d="M 279.931469 115.563966 
L 279.931469 50.812479 
" style="fill:none;stroke:#000000;stroke-width:1.5;"/>
    <path clip-path="url(#p1d269798c8)" d="M 283.832531 117.199077 
L 283.832531 52.447592 
" style="fill:none;stroke:#000000;stroke-width:1.5;"/>
    <path clip-path="url(#p1d269798c8)" d="M 287.735664 119.000851 
L 287.735664 54.249367 
" style="fill:none;stroke:#000000;stroke-width:1.5;"/>
    <path clip-path="url(#p1d269798c8)" d="M 291.636727 120.95915 
L 291.636727 56.207667 
" style="fill:none;stroke:#000000;stroke-width:1.5;"/>
    <path clip-path="url(#p1d269798c8)" d="M 295.53986 123.067268 
L 295.53986 58.315786 
" style="fill:none;stroke:#000000;stroke-width:1.5;"/>
    <path clip-path="url(#p1d269798c8)" d="M 299.440923 125.313719 
L 299.440923 60.562237 
" style="fill:none;stroke:#000000;stroke-width:1.5;"/>
    <path clip-path="url(#p1d269798c8)" d="M 303.344056 127.691241 
L 303.344056 62.939759 
" style="fill:none;stroke:#000000;stroke-width:1.5;"/>
    <path clip-path="url(#p1d269798c8)" d="M 307.245119 130.187364 
L 307.245119 65.435883 
" style="fill:none;stroke:#000000;stroke-width:1.5;"/>
    <path clip-path="url(#p1d269798c8)" d="M 311.148252 132.794557 
L 311.148252 68.043076 
" style="fill:none;stroke:#000000;stroke-width:1.5;"/>
    <path clip-path="url(#p1d269798c8)" d="M 315.049314 135.499736 
L 315.049314 70.748255 
" style="fill:none;stroke:#000000;stroke-width:1.5;"/>
    <path clip-path="url(#p1d269798c8)" d="M 318.952448 138.29538 
L 318.952448 73.543899 
" style="fill:none;stroke:#000000;stroke-width:1.5;"/>
    <path clip-path="url(#p1d269798c8)" d="M 322.85351 141.168144 
L 322.85351 76.416663 
" style="fill:none;stroke:#000000;stroke-width:1.5;"/>
    <path clip-path="url(#p1d269798c8)" d="M 326.756643 144.110771 
L 326.756643 79.35929 
" style="fill:none;stroke:#000000;stroke-width:1.5;"/>
    <path clip-path="url(#p1d269798c8)" d="M 330.657706 147.109982 
L 330.657706 82.358501 
" style="fill:none;stroke:#000000;stroke-width:1.5;"/>
    <path clip-path="url(#p1d269798c8)" d="M 334.560839 150.159002 
L 334.560839 85.407521 
" style="fill:none;stroke:#000000;stroke-width:1.5;"/>
    <path clip-path="url(#p1d269798c8)" d="M 338.461902 153.2449 
L 338.461902 88.493419 
" style="fill:none;stroke:#000000;stroke-width:1.5;"/>
    <path clip-path="url(#p1d269798c8)" d="M 342.365035 156.361561 
L 342.365035 91.61008 
" style="fill:none;stroke:#000000;stroke-width:1.5;"/>
    <path clip-path="url(#p1d269798c8)" d="M 346.266098 159.49664 
L 346.266098 94.745159 
" style="fill:none;stroke:#000000;stroke-width:1.5;"/>
    <path clip-path="url(#p1d269798c8)" d="M 350.169231 162.644811 
L 350.169231 97.89333 
" style="fill:none;stroke:#000000;stroke-width:1.5;"/>
    <path clip-path="url(#p1d269798c8)" d="M 354.070293 165.794503 
L 354.070293 101.043022 
" style="fill:none;stroke:#000000;stroke-width:1.5;"/>
    <path clip-path="url(#p1d269798c8)" d="M 357.973427 168.941263 
L 357.973427 104.189782 
" style="fill:none;stroke:#000000;stroke-width:1.5;"/>
    <path clip-path="url(#p1d269798c8)" d="M 361.874489 172.074426 
L 361.874489 107.322945 
" style="fill:none;stroke:#000000;stroke-width:1.5;"/>
    <path clip-path="url(#p1d269798c8)" d="M 365.777622 175.190459 
L 365.777622 110.438978 
" style="fill:none;stroke:#000000;stroke-width:1.5;"/>
    <path clip-path="url(#p1d269798c8)" d="M 369.678685 178.279687 
L 369.678685 113.528206 
" style="fill:none;stroke:#000000;stroke-width:1.5;"/>
    <path clip-path="url(#p1d269798c8)" d="M 373.581818 181.339502 
L 373.581818 116.588021 
" style="fill:none;stroke:#000000;stroke-width:1.5;"/>
   </g>
   <g id="line2d_14">
    <defs>
     <path d="M 0 3 
C 0.795609 3 1.55874 2.683901 2.12132 2.12132 
C 2.683901 1.55874 3 0.795609 3 0 
C 3 -0.795609 2.683901 -1.55874 2.12132 -2.12132 
C 1.55874 -2.683901 0.795609 -3 0 -3 
C -0.795609 -3 -1.55874 -2.683901 -2.12132 -2.12132 
C -2.683901 -1.55874 -3 -0.795609 -3 0 
C -3 0.795609 -2.683901 1.55874 -2.12132 2.12132 
C -1.55874 2.683901 -0.795609 3 0 3 
z
" id="m6a97aecf67" style="stroke:#1f77b4;"/>
    </defs>
    <g clip-path="url(#p1d269798c8)">
     <use style="fill:#1f77b4;stroke:#1f77b4;" x="69.218182" xlink:href="#m6a97aecf67" y="209.125434"/>
     <use style="fill:#1f77b4;stroke:#1f77b4;" x="73.121315" xlink:href="#m6a97aecf67" y="209.125434"/>
     <use style="fill:#1f77b4;stroke:#1f77b4;" x="77.022378" xlink:href="#m6a97aecf67" y="165.164116"/>
     <use style="fill:#1f77b4;stroke:#1f77b4;" x="80.925511" xlink:href="#m6a97aecf67" y="165.164116"/>
     <use style="fill:#1f77b4;stroke:#1f77b4;" x="84.826573" xlink:href="#m6a97aecf67" y="165.164116"/>
     <use style="fill:#1f77b4;stroke:#1f77b4;" x="88.729707" xlink:href="#m6a97aecf67" y="165.164116"/>
     <use style="fill:#1f77b4;stroke:#1f77b4;" x="92.630769" xlink:href="#m6a97aecf67" y="165.164116"/>
     <use style="fill:#1f77b4;stroke:#1f77b4;" x="96.533902" xlink:href="#m6a97aecf67" y="165.164116"/>
     <use style="fill:#1f77b4;stroke:#1f77b4;" x="100.434965" xlink:href="#m6a97aecf67" y="165.164116"/>
     <use style="fill:#1f77b4;stroke:#1f77b4;" x="104.338098" xlink:href="#m6a97aecf67" y="165.164116"/>
     <use style="fill:#1f77b4;stroke:#1f77b4;" x="108.239161" xlink:href="#m6a97aecf67" y="165.164116"/>
     <use style="fill:#1f77b4;stroke:#1f77b4;" x="112.142294" xlink:href="#m6a97aecf67" y="165.164116"/>
     <use style="fill:#1f77b4;stroke:#1f77b4;" x="116.043357" xlink:href="#m6a97aecf67" y="165.164116"/>
     <use style="fill:#1f77b4;stroke:#1f77b4;" x="119.94649" xlink:href="#m6a97aecf67" y="165.164116"/>
     <use style="fill:#1f77b4;stroke:#1f77b4;" x="123.847552" xlink:href="#m6a97aecf67" y="165.164116"/>
     <use style="fill:#1f77b4;stroke:#1f77b4;" x="127.750686" xlink:href="#m6a97aecf67" y="165.164116"/>
     <use style="fill:#1f77b4;stroke:#1f77b4;" x="131.651748" xlink:href="#m6a97aecf67" y="165.164116"/>
     <use style="fill:#1f77b4;stroke:#1f77b4;" x="135.554881" xlink:href="#m6a97aecf67" y="165.164116"/>
     <use style="fill:#1f77b4;stroke:#1f77b4;" x="139.455944" xlink:href="#m6a97aecf67" y="143.183224"/>
     <use style="fill:#1f77b4;stroke:#1f77b4;" x="143.359077" xlink:href="#m6a97aecf67" y="121.202799"/>
     <use style="fill:#1f77b4;stroke:#1f77b4;" x="147.26014" xlink:href="#m6a97aecf67" y="121.202799"/>
     <use style="fill:#1f77b4;stroke:#1f77b4;" x="151.163273" xlink:href="#m6a97aecf67" y="121.202799"/>
     <use style="fill:#1f77b4;stroke:#1f77b4;" x="155.064336" xlink:href="#m6a97aecf67" y="121.202799"/>
     <use style="fill:#1f77b4;stroke:#1f77b4;" x="158.967469" xlink:href="#m6a97aecf67" y="121.202799"/>
     <use style="fill:#1f77b4;stroke:#1f77b4;" x="162.868531" xlink:href="#m6a97aecf67" y="121.202799"/>
     <use style="fill:#1f77b4;stroke:#1f77b4;" x="166.771665" xlink:href="#m6a97aecf67" y="121.202799"/>
     <use style="fill:#1f77b4;stroke:#1f77b4;" x="170.672727" xlink:href="#m6a97aecf67" y="121.202799"/>
     <use style="fill:#1f77b4;stroke:#1f77b4;" x="174.57586" xlink:href="#m6a97aecf67" y="121.202799"/>
     <use style="fill:#1f77b4;stroke:#1f77b4;" x="178.476923" xlink:href="#m6a97aecf67" y="121.202799"/>
     <use style="fill:#1f77b4;stroke:#1f77b4;" x="182.380056" xlink:href="#m6a97aecf67" y="77.241481"/>
     <use style="fill:#1f77b4;stroke:#1f77b4;" x="186.281119" xlink:href="#m6a97aecf67" y="77.241481"/>
     <use style="fill:#1f77b4;stroke:#1f77b4;" x="190.184252" xlink:href="#m6a97aecf67" y="77.241481"/>
     <use style="fill:#1f77b4;stroke:#1f77b4;" x="194.085315" xlink:href="#m6a97aecf67" y="77.241481"/>
     <use style="fill:#1f77b4;stroke:#1f77b4;" x="197.988448" xlink:href="#m6a97aecf67" y="77.241481"/>
     <use style="fill:#1f77b4;stroke:#1f77b4;" x="201.88951" xlink:href="#m6a97aecf67" y="77.241481"/>
     <use style="fill:#1f77b4;stroke:#1f77b4;" x="205.792644" xlink:href="#m6a97aecf67" y="77.241481"/>
     <use style="fill:#1f77b4;stroke:#1f77b4;" x="209.693706" xlink:href="#m6a97aecf67" y="77.241481"/>
     <use style="fill:#1f77b4;stroke:#1f77b4;" x="213.59684" xlink:href="#m6a97aecf67" y="77.241481"/>
     <use style="fill:#1f77b4;stroke:#1f77b4;" x="217.497902" xlink:href="#m6a97aecf67" y="77.241481"/>
     <use style="fill:#1f77b4;stroke:#1f77b4;" x="221.401035" xlink:href="#m6a97aecf67" y="77.241481"/>
     <use style="fill:#1f77b4;stroke:#1f77b4;" x="225.302098" xlink:href="#m6a97aecf67" y="77.241481"/>
     <use style="fill:#1f77b4;stroke:#1f77b4;" x="229.205231" xlink:href="#m6a97aecf67" y="77.241481"/>
     <use style="fill:#1f77b4;stroke:#1f77b4;" x="233.106294" xlink:href="#m6a97aecf67" y="77.241481"/>
     <use style="fill:#1f77b4;stroke:#1f77b4;" x="237.009427" xlink:href="#m6a97aecf67" y="77.241481"/>
     <use style="fill:#1f77b4;stroke:#1f77b4;" x="240.91049" xlink:href="#m6a97aecf67" y="77.241481"/>
     <use style="fill:#1f77b4;stroke:#1f77b4;" x="244.811552" xlink:href="#m6a97aecf67" y="77.241481"/>
     <use style="fill:#1f77b4;stroke:#1f77b4;" x="248.714685" xlink:href="#m6a97aecf67" y="77.241481"/>
     <use style="fill:#1f77b4;stroke:#1f77b4;" x="252.615748" xlink:href="#m6a97aecf67" y="77.241481"/>
     <use style="fill:#1f77b4;stroke:#1f77b4;" x="256.518881" xlink:href="#m6a97aecf67" y="77.241481"/>
     <use style="fill:#1f77b4;stroke:#1f77b4;" x="260.419944" xlink:href="#m6a97aecf67" y="77.241481"/>
     <use style="fill:#1f77b4;stroke:#1f77b4;" x="264.323077" xlink:href="#m6a97aecf67" y="77.241481"/>
     <use style="fill:#1f77b4;stroke:#1f77b4;" x="268.22414" xlink:href="#m6a97aecf67" y="77.241481"/>
     <use style="fill:#1f77b4;stroke:#1f77b4;" x="272.127273" xlink:href="#m6a97aecf67" y="77.241481"/>
     <use style="fill:#1f77b4;stroke:#1f77b4;" x="276.028335" xlink:href="#m6a97aecf67" y="99.222373"/>
     <use style="fill:#1f77b4;stroke:#1f77b4;" x="279.931469" xlink:href="#m6a97aecf67" y="77.241481"/>
     <use style="fill:#1f77b4;stroke:#1f77b4;" x="283.832531" xlink:href="#m6a97aecf67" y="77.241481"/>
     <use style="fill:#1f77b4;stroke:#1f77b4;" x="287.735664" xlink:href="#m6a97aecf67" y="121.202799"/>
     <use style="fill:#1f77b4;stroke:#1f77b4;" x="291.636727" xlink:href="#m6a97aecf67" y="77.241481"/>
     <use style="fill:#1f77b4;stroke:#1f77b4;" x="295.53986" xlink:href="#m6a97aecf67" y="77.241481"/>
     <use style="fill:#1f77b4;stroke:#1f77b4;" x="299.440923" xlink:href="#m6a97aecf67" y="121.202799"/>
     <use style="fill:#1f77b4;stroke:#1f77b4;" x="303.344056" xlink:href="#m6a97aecf67" y="121.202799"/>
     <use style="fill:#1f77b4;stroke:#1f77b4;" x="307.245119" xlink:href="#m6a97aecf67" y="121.202799"/>
     <use style="fill:#1f77b4;stroke:#1f77b4;" x="311.148252" xlink:href="#m6a97aecf67" y="121.202799"/>
     <use style="fill:#1f77b4;stroke:#1f77b4;" x="315.049314" xlink:href="#m6a97aecf67" y="121.202799"/>
     <use style="fill:#1f77b4;stroke:#1f77b4;" x="318.952448" xlink:href="#m6a97aecf67" y="121.202799"/>
     <use style="fill:#1f77b4;stroke:#1f77b4;" x="322.85351" xlink:href="#m6a97aecf67" y="121.202799"/>
     <use style="fill:#1f77b4;stroke:#1f77b4;" x="326.756643" xlink:href="#m6a97aecf67" y="121.202799"/>
     <use style="fill:#1f77b4;stroke:#1f77b4;" x="330.657706" xlink:href="#m6a97aecf67" y="121.202799"/>
     <use style="fill:#1f77b4;stroke:#1f77b4;" x="334.560839" xlink:href="#m6a97aecf67" y="121.202799"/>
     <use style="fill:#1f77b4;stroke:#1f77b4;" x="338.461902" xlink:href="#m6a97aecf67" y="121.202799"/>
     <use style="fill:#1f77b4;stroke:#1f77b4;" x="342.365035" xlink:href="#m6a97aecf67" y="121.202799"/>
     <use style="fill:#1f77b4;stroke:#1f77b4;" x="346.266098" xlink:href="#m6a97aecf67" y="121.202799"/>
     <use style="fill:#1f77b4;stroke:#1f77b4;" x="350.169231" xlink:href="#m6a97aecf67" y="121.202799"/>
     <use style="fill:#1f77b4;stroke:#1f77b4;" x="354.070293" xlink:href="#m6a97aecf67" y="121.202799"/>
     <use style="fill:#1f77b4;stroke:#1f77b4;" x="357.973427" xlink:href="#m6a97aecf67" y="121.202799"/>
     <use style="fill:#1f77b4;stroke:#1f77b4;" x="361.874489" xlink:href="#m6a97aecf67" y="121.202799"/>
     <use style="fill:#1f77b4;stroke:#1f77b4;" x="365.777622" xlink:href="#m6a97aecf67" y="121.202799"/>
     <use style="fill:#1f77b4;stroke:#1f77b4;" x="369.678685" xlink:href="#m6a97aecf67" y="121.202799"/>
     <use style="fill:#1f77b4;stroke:#1f77b4;" x="373.581818" xlink:href="#m6a97aecf67" y="121.202799"/>
    </g>
   </g>
   <g id="line2d_15">
    <path clip-path="url(#p1d269798c8)" d="M 69.218182 186.316386 
L 73.121315 184.056562 
L 77.022378 181.730023 
L 80.925511 179.334652 
L 84.826573 176.873612 
L 88.729707 174.345204 
L 92.630769 171.753331 
L 96.533902 169.096798 
L 100.434965 166.380333 
L 104.338098 163.60334 
L 108.239161 160.771448 
L 112.142294 157.88475 
L 116.043357 154.94984 
L 119.94649 151.967585 
L 123.847552 148.945592 
L 127.750686 145.885575 
L 131.651748 142.796179 
L 135.554881 139.680014 
L 139.455944 136.546759 
L 143.359077 133.399949 
L 147.26014 130.250253 
L 151.163273 127.102125 
L 155.064336 123.96714 
L 158.967469 120.850626 
L 162.868531 117.764929 
L 166.771665 114.716169 
L 170.672727 111.717275 
L 174.57586 108.775026 
L 178.476923 105.902701 
L 182.380056 103.107558 
L 186.281119 100.402941 
L 190.184252 97.796373 
L 194.085315 95.300936 
L 197.988448 92.924161 
L 201.88951 90.678514 
L 205.792644 88.571257 
L 209.693706 86.613873 
L 213.59684 84.813065 
L 217.497902 83.178966 
L 221.401035 81.717438 
L 225.302098 80.436922 
L 229.205231 79.342183 
L 233.106294 78.439668 
L 237.009427 77.732826 
L 240.91049 77.225878 
L 244.811552 76.920902 
L 248.714685 76.819409 
L 252.615748 76.922012 
L 256.518881 77.228309 
L 260.419944 77.736457 
L 264.323077 78.444482 
L 268.22414 79.348156 
L 272.127273 80.444026 
L 276.028335 81.725637 
L 279.931469 83.188222 
L 283.832531 84.823335 
L 287.735664 86.625109 
L 291.636727 88.583408 
L 295.53986 90.691527 
L 299.440923 92.937978 
L 303.344056 95.3155 
L 307.245119 97.811623 
L 311.148252 100.418817 
L 315.049314 103.123995 
L 318.952448 105.919639 
L 322.85351 108.792404 
L 326.756643 111.735031 
L 330.657706 114.734242 
L 334.560839 117.783261 
L 338.461902 120.86916 
L 342.365035 123.98582 
L 346.266098 127.1209 
L 350.169231 130.269071 
L 354.070293 133.418762 
L 357.973427 136.565523 
L 361.874489 139.698685 
L 365.777622 142.814719 
L 369.678685 145.903946 
L 373.581818 148.963762 
" style="fill:none;stroke:#ff7f0e;stroke-linecap:square;stroke-width:1.5;"/>
   </g>
   <g id="line2d_16"/>
   <g id="line2d_17"/>
   <g id="line2d_18">
    <defs>
     <path d="M 2 0 
L -2 -0 
" id="m70565d09b8" style="stroke:#000000;"/>
    </defs>
    <g clip-path="url(#p1d269798c8)">
     <use style="stroke:#000000;" x="69.218182" xlink:href="#m70565d09b8" y="242.116364"/>
     <use style="stroke:#000000;" x="73.121315" xlink:href="#m70565d09b8" y="236.232362"/>
     <use style="stroke:#000000;" x="77.022378" xlink:href="#m70565d09b8" y="230.351133"/>
     <use style="stroke:#000000;" x="80.925511" xlink:href="#m70565d09b8" y="224.714513"/>
     <use style="stroke:#000000;" x="84.826573" xlink:href="#m70565d09b8" y="219.457316"/>
     <use style="stroke:#000000;" x="88.729707" xlink:href="#m70565d09b8" y="214.609981"/>
     <use style="stroke:#000000;" x="92.630769" xlink:href="#m70565d09b8" y="210.154314"/>
     <use style="stroke:#000000;" x="96.533902" xlink:href="#m70565d09b8" y="206.031771"/>
     <use style="stroke:#000000;" x="100.434965" xlink:href="#m70565d09b8" y="202.182709"/>
     <use style="stroke:#000000;" x="104.338098" xlink:href="#m70565d09b8" y="198.540717"/>
     <use style="stroke:#000000;" x="108.239161" xlink:href="#m70565d09b8" y="195.055039"/>
     <use style="stroke:#000000;" x="112.142294" xlink:href="#m70565d09b8" y="191.677079"/>
     <use style="stroke:#000000;" x="116.043357" xlink:href="#m70565d09b8" y="188.375308"/>
     <use style="stroke:#000000;" x="119.94649" xlink:href="#m70565d09b8" y="185.119836"/>
     <use style="stroke:#000000;" x="123.847552" xlink:href="#m70565d09b8" y="181.895152"/>
     <use style="stroke:#000000;" x="127.750686" xlink:href="#m70565d09b8" y="178.684914"/>
     <use style="stroke:#000000;" x="131.651748" xlink:href="#m70565d09b8" y="175.484473"/>
     <use style="stroke:#000000;" x="135.554881" xlink:href="#m70565d09b8" y="172.286226"/>
     <use style="stroke:#000000;" x="139.455944" xlink:href="#m70565d09b8" y="169.092413"/>
     <use style="stroke:#000000;" x="143.359077" xlink:href="#m70565d09b8" y="165.900905"/>
     <use style="stroke:#000000;" x="147.26014" xlink:href="#m70565d09b8" y="162.718266"/>
     <use style="stroke:#000000;" x="151.163273" xlink:href="#m70565d09b8" y="159.545842"/>
     <use style="stroke:#000000;" x="155.064336" xlink:href="#m70565d09b8" y="156.392961"/>
     <use style="stroke:#000000;" x="158.967469" xlink:href="#m70565d09b8" y="153.263254"/>
     <use style="stroke:#000000;" x="162.868531" xlink:href="#m70565d09b8" y="150.167842"/>
     <use style="stroke:#000000;" x="166.771665" xlink:href="#m70565d09b8" y="147.111921"/>
     <use style="stroke:#000000;" x="170.672727" xlink:href="#m70565d09b8" y="144.107756"/>
     <use style="stroke:#000000;" x="174.57586" xlink:href="#m70565d09b8" y="141.161622"/>
     <use style="stroke:#000000;" x="178.476923" xlink:href="#m70565d09b8" y="138.286437"/>
     <use style="stroke:#000000;" x="182.380056" xlink:href="#m70565d09b8" y="135.489186"/>
     <use style="stroke:#000000;" x="186.281119" xlink:href="#m70565d09b8" y="132.783019"/>
     <use style="stroke:#000000;" x="190.184252" xlink:href="#m70565d09b8" y="130.175308"/>
     <use style="stroke:#000000;" x="194.085315" xlink:href="#m70565d09b8" y="127.679029"/>
     <use style="stroke:#000000;" x="197.988448" xlink:href="#m70565d09b8" y="125.301633"/>
     <use style="stroke:#000000;" x="201.88951" xlink:href="#m70565d09b8" y="123.05553"/>
     <use style="stroke:#000000;" x="205.792644" xlink:href="#m70565d09b8" y="120.947937"/>
     <use style="stroke:#000000;" x="209.693706" xlink:href="#m70565d09b8" y="118.990306"/>
     <use style="stroke:#000000;" x="213.59684" xlink:href="#m70565d09b8" y="117.189315"/>
     <use style="stroke:#000000;" x="217.497902" xlink:href="#m70565d09b8" y="115.555082"/>
     <use style="stroke:#000000;" x="221.401035" xlink:href="#m70565d09b8" y="114.093455"/>
     <use style="stroke:#000000;" x="225.302098" xlink:href="#m70565d09b8" y="112.812867"/>
     <use style="stroke:#000000;" x="229.205231" xlink:href="#m70565d09b8" y="111.718073"/>
     <use style="stroke:#000000;" x="233.106294" xlink:href="#m70565d09b8" y="110.815519"/>
     <use style="stroke:#000000;" x="237.009427" xlink:href="#m70565d09b8" y="110.108648"/>
     <use style="stroke:#000000;" x="240.91049" xlink:href="#m70565d09b8" y="109.601679"/>
     <use style="stroke:#000000;" x="244.811552" xlink:href="#m70565d09b8" y="109.296687"/>
     <use style="stroke:#000000;" x="248.714685" xlink:href="#m70565d09b8" y="109.195182"/>
     <use style="stroke:#000000;" x="252.615748" xlink:href="#m70565d09b8" y="109.297777"/>
     <use style="stroke:#000000;" x="256.518881" xlink:href="#m70565d09b8" y="109.604068"/>
     <use style="stroke:#000000;" x="260.419944" xlink:href="#m70565d09b8" y="110.112211"/>
     <use style="stroke:#000000;" x="264.323077" xlink:href="#m70565d09b8" y="110.820232"/>
     <use style="stroke:#000000;" x="268.22414" xlink:href="#m70565d09b8" y="111.723903"/>
     <use style="stroke:#000000;" x="272.127273" xlink:href="#m70565d09b8" y="112.819772"/>
     <use style="stroke:#000000;" x="276.028335" xlink:href="#m70565d09b8" y="114.101382"/>
     <use style="stroke:#000000;" x="279.931469" xlink:href="#m70565d09b8" y="115.563966"/>
     <use style="stroke:#000000;" x="283.832531" xlink:href="#m70565d09b8" y="117.199077"/>
     <use style="stroke:#000000;" x="287.735664" xlink:href="#m70565d09b8" y="119.000851"/>
     <use style="stroke:#000000;" x="291.636727" xlink:href="#m70565d09b8" y="120.95915"/>
     <use style="stroke:#000000;" x="295.53986" xlink:href="#m70565d09b8" y="123.067268"/>
     <use style="stroke:#000000;" x="299.440923" xlink:href="#m70565d09b8" y="125.313719"/>
     <use style="stroke:#000000;" x="303.344056" xlink:href="#m70565d09b8" y="127.691241"/>
     <use style="stroke:#000000;" x="307.245119" xlink:href="#m70565d09b8" y="130.187364"/>
     <use style="stroke:#000000;" x="311.148252" xlink:href="#m70565d09b8" y="132.794557"/>
     <use style="stroke:#000000;" x="315.049314" xlink:href="#m70565d09b8" y="135.499736"/>
     <use style="stroke:#000000;" x="318.952448" xlink:href="#m70565d09b8" y="138.29538"/>
     <use style="stroke:#000000;" x="322.85351" xlink:href="#m70565d09b8" y="141.168144"/>
     <use style="stroke:#000000;" x="326.756643" xlink:href="#m70565d09b8" y="144.110771"/>
     <use style="stroke:#000000;" x="330.657706" xlink:href="#m70565d09b8" y="147.109982"/>
     <use style="stroke:#000000;" x="334.560839" xlink:href="#m70565d09b8" y="150.159002"/>
     <use style="stroke:#000000;" x="338.461902" xlink:href="#m70565d09b8" y="153.2449"/>
     <use style="stroke:#000000;" x="342.365035" xlink:href="#m70565d09b8" y="156.361561"/>
     <use style="stroke:#000000;" x="346.266098" xlink:href="#m70565d09b8" y="159.49664"/>
     <use style="stroke:#000000;" x="350.169231" xlink:href="#m70565d09b8" y="162.644811"/>
     <use style="stroke:#000000;" x="354.070293" xlink:href="#m70565d09b8" y="165.794503"/>
     <use style="stroke:#000000;" x="357.973427" xlink:href="#m70565d09b8" y="168.941263"/>
     <use style="stroke:#000000;" x="361.874489" xlink:href="#m70565d09b8" y="172.074426"/>
     <use style="stroke:#000000;" x="365.777622" xlink:href="#m70565d09b8" y="175.190459"/>
     <use style="stroke:#000000;" x="369.678685" xlink:href="#m70565d09b8" y="178.279687"/>
     <use style="stroke:#000000;" x="373.581818" xlink:href="#m70565d09b8" y="181.339502"/>
    </g>
   </g>
   <g id="line2d_19">
    <g clip-path="url(#p1d269798c8)">
     <use style="stroke:#000000;" x="69.218182" xlink:href="#m70565d09b8" y="130.516408"/>
     <use style="stroke:#000000;" x="73.121315" xlink:href="#m70565d09b8" y="131.880763"/>
     <use style="stroke:#000000;" x="77.022378" xlink:href="#m70565d09b8" y="133.108912"/>
     <use style="stroke:#000000;" x="80.925511" xlink:href="#m70565d09b8" y="133.95479"/>
     <use style="stroke:#000000;" x="84.826573" xlink:href="#m70565d09b8" y="134.289909"/>
     <use style="stroke:#000000;" x="88.729707" xlink:href="#m70565d09b8" y="134.080427"/>
     <use style="stroke:#000000;" x="92.630769" xlink:href="#m70565d09b8" y="133.352348"/>
     <use style="stroke:#000000;" x="96.533902" xlink:href="#m70565d09b8" y="132.161825"/>
     <use style="stroke:#000000;" x="100.434965" xlink:href="#m70565d09b8" y="130.577957"/>
     <use style="stroke:#000000;" x="104.338098" xlink:href="#m70565d09b8" y="128.665963"/>
     <use style="stroke:#000000;" x="108.239161" xlink:href="#m70565d09b8" y="126.487857"/>
     <use style="stroke:#000000;" x="112.142294" xlink:href="#m70565d09b8" y="124.092421"/>
     <use style="stroke:#000000;" x="116.043357" xlink:href="#m70565d09b8" y="121.524371"/>
     <use style="stroke:#000000;" x="119.94649" xlink:href="#m70565d09b8" y="118.815333"/>
     <use style="stroke:#000000;" x="123.847552" xlink:href="#m70565d09b8" y="115.996032"/>
     <use style="stroke:#000000;" x="127.750686" xlink:href="#m70565d09b8" y="113.086236"/>
     <use style="stroke:#000000;" x="131.651748" xlink:href="#m70565d09b8" y="110.107885"/>
     <use style="stroke:#000000;" x="135.554881" xlink:href="#m70565d09b8" y="107.073802"/>
     <use style="stroke:#000000;" x="139.455944" xlink:href="#m70565d09b8" y="104.001105"/>
     <use style="stroke:#000000;" x="143.359077" xlink:href="#m70565d09b8" y="100.898994"/>
     <use style="stroke:#000000;" x="147.26014" xlink:href="#m70565d09b8" y="97.78224"/>
     <use style="stroke:#000000;" x="151.163273" xlink:href="#m70565d09b8" y="94.658409"/>
     <use style="stroke:#000000;" x="155.064336" xlink:href="#m70565d09b8" y="91.541319"/>
     <use style="stroke:#000000;" x="158.967469" xlink:href="#m70565d09b8" y="88.437999"/>
     <use style="stroke:#000000;" x="162.868531" xlink:href="#m70565d09b8" y="85.362017"/>
     <use style="stroke:#000000;" x="166.771665" xlink:href="#m70565d09b8" y="82.320417"/>
     <use style="stroke:#000000;" x="170.672727" xlink:href="#m70565d09b8" y="79.326794"/>
     <use style="stroke:#000000;" x="174.57586" xlink:href="#m70565d09b8" y="76.38843"/>
     <use style="stroke:#000000;" x="178.476923" xlink:href="#m70565d09b8" y="73.518964"/>
     <use style="stroke:#000000;" x="182.380056" xlink:href="#m70565d09b8" y="70.725929"/>
     <use style="stroke:#000000;" x="186.281119" xlink:href="#m70565d09b8" y="68.022864"/>
     <use style="stroke:#000000;" x="190.184252" xlink:href="#m70565d09b8" y="65.417439"/>
     <use style="stroke:#000000;" x="194.085315" xlink:href="#m70565d09b8" y="62.922844"/>
     <use style="stroke:#000000;" x="197.988448" xlink:href="#m70565d09b8" y="60.546688"/>
     <use style="stroke:#000000;" x="201.88951" xlink:href="#m70565d09b8" y="58.301498"/>
     <use style="stroke:#000000;" x="205.792644" xlink:href="#m70565d09b8" y="56.194577"/>
     <use style="stroke:#000000;" x="209.693706" xlink:href="#m70565d09b8" y="54.237441"/>
     <use style="stroke:#000000;" x="213.59684" xlink:href="#m70565d09b8" y="52.436815"/>
     <use style="stroke:#000000;" x="217.497902" xlink:href="#m70565d09b8" y="50.80285"/>
     <use style="stroke:#000000;" x="221.401035" xlink:href="#m70565d09b8" y="49.341421"/>
     <use style="stroke:#000000;" x="225.302098" xlink:href="#m70565d09b8" y="48.060978"/>
     <use style="stroke:#000000;" x="229.205231" xlink:href="#m70565d09b8" y="46.966292"/>
     <use style="stroke:#000000;" x="233.106294" xlink:href="#m70565d09b8" y="46.063817"/>
     <use style="stroke:#000000;" x="237.009427" xlink:href="#m70565d09b8" y="45.357004"/>
     <use style="stroke:#000000;" x="240.91049" xlink:href="#m70565d09b8" y="44.850078"/>
     <use style="stroke:#000000;" x="244.811552" xlink:href="#m70565d09b8" y="44.545117"/>
     <use style="stroke:#000000;" x="248.714685" xlink:href="#m70565d09b8" y="44.443636"/>
     <use style="stroke:#000000;" x="252.615748" xlink:href="#m70565d09b8" y="44.546248"/>
     <use style="stroke:#000000;" x="256.518881" xlink:href="#m70565d09b8" y="44.852551"/>
     <use style="stroke:#000000;" x="260.419944" xlink:href="#m70565d09b8" y="45.360704"/>
     <use style="stroke:#000000;" x="264.323077" xlink:href="#m70565d09b8" y="46.068732"/>
     <use style="stroke:#000000;" x="268.22414" xlink:href="#m70565d09b8" y="46.972408"/>
     <use style="stroke:#000000;" x="272.127273" xlink:href="#m70565d09b8" y="48.06828"/>
     <use style="stroke:#000000;" x="276.028335" xlink:href="#m70565d09b8" y="49.349893"/>
     <use style="stroke:#000000;" x="279.931469" xlink:href="#m70565d09b8" y="50.812479"/>
     <use style="stroke:#000000;" x="283.832531" xlink:href="#m70565d09b8" y="52.447592"/>
     <use style="stroke:#000000;" x="287.735664" xlink:href="#m70565d09b8" y="54.249367"/>
     <use style="stroke:#000000;" x="291.636727" xlink:href="#m70565d09b8" y="56.207667"/>
     <use style="stroke:#000000;" x="295.53986" xlink:href="#m70565d09b8" y="58.315786"/>
     <use style="stroke:#000000;" x="299.440923" xlink:href="#m70565d09b8" y="60.562237"/>
     <use style="stroke:#000000;" x="303.344056" xlink:href="#m70565d09b8" y="62.939759"/>
     <use style="stroke:#000000;" x="307.245119" xlink:href="#m70565d09b8" y="65.435883"/>
     <use style="stroke:#000000;" x="311.148252" xlink:href="#m70565d09b8" y="68.043076"/>
     <use style="stroke:#000000;" x="315.049314" xlink:href="#m70565d09b8" y="70.748255"/>
     <use style="stroke:#000000;" x="318.952448" xlink:href="#m70565d09b8" y="73.543899"/>
     <use style="stroke:#000000;" x="322.85351" xlink:href="#m70565d09b8" y="76.416663"/>
     <use style="stroke:#000000;" x="326.756643" xlink:href="#m70565d09b8" y="79.35929"/>
     <use style="stroke:#000000;" x="330.657706" xlink:href="#m70565d09b8" y="82.358501"/>
     <use style="stroke:#000000;" x="334.560839" xlink:href="#m70565d09b8" y="85.407521"/>
     <use style="stroke:#000000;" x="338.461902" xlink:href="#m70565d09b8" y="88.493419"/>
     <use style="stroke:#000000;" x="342.365035" xlink:href="#m70565d09b8" y="91.61008"/>
     <use style="stroke:#000000;" x="346.266098" xlink:href="#m70565d09b8" y="94.745159"/>
     <use style="stroke:#000000;" x="350.169231" xlink:href="#m70565d09b8" y="97.89333"/>
     <use style="stroke:#000000;" x="354.070293" xlink:href="#m70565d09b8" y="101.043022"/>
     <use style="stroke:#000000;" x="357.973427" xlink:href="#m70565d09b8" y="104.189782"/>
     <use style="stroke:#000000;" x="361.874489" xlink:href="#m70565d09b8" y="107.322945"/>
     <use style="stroke:#000000;" x="365.777622" xlink:href="#m70565d09b8" y="110.438978"/>
     <use style="stroke:#000000;" x="369.678685" xlink:href="#m70565d09b8" y="113.528206"/>
     <use style="stroke:#000000;" x="373.581818" xlink:href="#m70565d09b8" y="116.588021"/>
    </g>
   </g>
   <g id="line2d_20">
    <path clip-path="url(#p1d269798c8)" d="M 69.218182 186.316386 
L 73.121315 184.056562 
L 77.022378 181.730023 
L 80.925511 179.334652 
L 84.826573 176.873612 
L 88.729707 174.345204 
L 92.630769 171.753331 
L 96.533902 169.096798 
L 100.434965 166.380333 
L 104.338098 163.60334 
L 108.239161 160.771448 
L 112.142294 157.88475 
L 116.043357 154.94984 
L 119.94649 151.967585 
L 123.847552 148.945592 
L 127.750686 145.885575 
L 131.651748 142.796179 
L 135.554881 139.680014 
L 139.455944 136.546759 
L 143.359077 133.399949 
L 147.26014 130.250253 
L 151.163273 127.102125 
L 155.064336 123.96714 
L 158.967469 120.850626 
L 162.868531 117.764929 
L 166.771665 114.716169 
L 170.672727 111.717275 
L 174.57586 108.775026 
L 178.476923 105.902701 
L 182.380056 103.107558 
L 186.281119 100.402941 
L 190.184252 97.796373 
L 194.085315 95.300936 
L 197.988448 92.924161 
L 201.88951 90.678514 
L 205.792644 88.571257 
L 209.693706 86.613873 
L 213.59684 84.813065 
L 217.497902 83.178966 
L 221.401035 81.717438 
L 225.302098 80.436922 
L 229.205231 79.342183 
L 233.106294 78.439668 
L 237.009427 77.732826 
L 240.91049 77.225878 
L 244.811552 76.920902 
L 248.714685 76.819409 
L 252.615748 76.922012 
L 256.518881 77.228309 
L 260.419944 77.736457 
L 264.323077 78.444482 
L 268.22414 79.348156 
L 272.127273 80.444026 
L 276.028335 81.725637 
L 279.931469 83.188222 
L 283.832531 84.823335 
L 287.735664 86.625109 
L 291.636727 88.583408 
L 295.53986 90.691527 
L 299.440923 92.937978 
L 303.344056 95.3155 
L 307.245119 97.811623 
L 311.148252 100.418817 
L 315.049314 103.123995 
L 318.952448 105.919639 
L 322.85351 108.792404 
L 326.756643 111.735031 
L 330.657706 114.734242 
L 334.560839 117.783261 
L 338.461902 120.86916 
L 342.365035 123.98582 
L 346.266098 127.1209 
L 350.169231 130.269071 
L 354.070293 133.418762 
L 357.973427 136.565523 
L 361.874489 139.698685 
L 365.777622 142.814719 
L 369.678685 145.903946 
L 373.581818 148.963762 
" style="fill:none;stroke:#1f77b4;stroke-linecap:square;stroke-width:1.5;"/>
   </g>
   <g id="patch_3">
    <path d="M 54 252 
L 54 34.56 
" style="fill:none;stroke:#000000;stroke-linecap:square;stroke-linejoin:miter;stroke-width:0.8;"/>
   </g>
   <g id="patch_4">
    <path d="M 388.8 252 
L 388.8 34.56 
" style="fill:none;stroke:#000000;stroke-linecap:square;stroke-linejoin:miter;stroke-width:0.8;"/>
   </g>
   <g id="patch_5">
    <path d="M 54 252 
L 388.8 252 
" style="fill:none;stroke:#000000;stroke-linecap:square;stroke-linejoin:miter;stroke-width:0.8;"/>
   </g>
   <g id="patch_6">
    <path d="M 54 34.56 
L 388.8 34.56 
" style="fill:none;stroke:#000000;stroke-linecap:square;stroke-linejoin:miter;stroke-width:0.8;"/>
   </g>
   <g id="legend_1">
    <g id="patch_7">
     <path d="M 291.0058 247.835 
L 382.969 247.835 
Q 384.635 247.835 384.635 246.169 
L 384.635 185.867609 
Q 384.635 184.201609 382.969 184.201609 
L 291.0058 184.201609 
Q 289.3398 184.201609 289.3398 185.867609 
L 289.3398 246.169 
Q 289.3398 247.835 291.0058 247.835 
z
" style="fill:#ffffff;opacity:0.8;stroke:#cccccc;stroke-linejoin:miter;"/>
    </g>
    <g id="line2d_21"/>
    <g id="line2d_22">
     <g>
      <use style="fill:#1f77b4;stroke:#1f77b4;" x="301.0018" xlink:href="#m6a97aecf67" y="190.947608"/>
     </g>
    </g>
    <g id="text_14">
     <!-- Collected Data -->
     <defs>
      <path d="M 64.40625 67.28125 
L 64.40625 56.890625 
Q 59.421875 61.53125 53.78125 63.8125 
Q 48.140625 66.109375 41.796875 66.109375 
Q 29.296875 66.109375 22.65625 58.46875 
Q 16.015625 50.828125 16.015625 36.375 
Q 16.015625 21.96875 22.65625 14.328125 
Q 29.296875 6.6875 41.796875 6.6875 
Q 48.140625 6.6875 53.78125 8.984375 
Q 59.421875 11.28125 64.40625 15.921875 
L 64.40625 5.609375 
Q 59.234375 2.09375 53.4375 0.328125 
Q 47.65625 -1.421875 41.21875 -1.421875 
Q 24.65625 -1.421875 15.125 8.703125 
Q 5.609375 18.84375 5.609375 36.375 
Q 5.609375 53.953125 15.125 64.078125 
Q 24.65625 74.21875 41.21875 74.21875 
Q 47.75 74.21875 53.53125 72.484375 
Q 59.328125 70.75 64.40625 67.28125 
z
" id="DejaVuSans-43"/>
      <path d="M 30.609375 48.390625 
Q 23.390625 48.390625 19.1875 42.75 
Q 14.984375 37.109375 14.984375 27.296875 
Q 14.984375 17.484375 19.15625 11.84375 
Q 23.34375 6.203125 30.609375 6.203125 
Q 37.796875 6.203125 41.984375 11.859375 
Q 46.1875 17.53125 46.1875 27.296875 
Q 46.1875 37.015625 41.984375 42.703125 
Q 37.796875 48.390625 30.609375 48.390625 
z
M 30.609375 56 
Q 42.328125 56 49.015625 48.375 
Q 55.71875 40.765625 55.71875 27.296875 
Q 55.71875 13.875 49.015625 6.21875 
Q 42.328125 -1.421875 30.609375 -1.421875 
Q 18.84375 -1.421875 12.171875 6.21875 
Q 5.515625 13.875 5.515625 27.296875 
Q 5.515625 40.765625 12.171875 48.375 
Q 18.84375 56 30.609375 56 
z
" id="DejaVuSans-6f"/>
      <path d="M 9.421875 75.984375 
L 18.40625 75.984375 
L 18.40625 0 
L 9.421875 0 
z
" id="DejaVuSans-6c"/>
      <path d="M 56.203125 29.59375 
L 56.203125 25.203125 
L 14.890625 25.203125 
Q 15.484375 15.921875 20.484375 11.0625 
Q 25.484375 6.203125 34.421875 6.203125 
Q 39.59375 6.203125 44.453125 7.46875 
Q 49.3125 8.734375 54.109375 11.28125 
L 54.109375 2.78125 
Q 49.265625 0.734375 44.1875 -0.34375 
Q 39.109375 -1.421875 33.890625 -1.421875 
Q 20.796875 -1.421875 13.15625 6.1875 
Q 5.515625 13.8125 5.515625 26.8125 
Q 5.515625 40.234375 12.765625 48.109375 
Q 20.015625 56 32.328125 56 
Q 43.359375 56 49.78125 48.890625 
Q 56.203125 41.796875 56.203125 29.59375 
z
M 47.21875 32.234375 
Q 47.125 39.59375 43.09375 43.984375 
Q 39.0625 48.390625 32.421875 48.390625 
Q 24.90625 48.390625 20.390625 44.140625 
Q 15.875 39.890625 15.1875 32.171875 
z
" id="DejaVuSans-65"/>
      <path d="M 48.78125 52.59375 
L 48.78125 44.1875 
Q 44.96875 46.296875 41.140625 47.34375 
Q 37.3125 48.390625 33.40625 48.390625 
Q 24.65625 48.390625 19.8125 42.84375 
Q 14.984375 37.3125 14.984375 27.296875 
Q 14.984375 17.28125 19.8125 11.734375 
Q 24.65625 6.203125 33.40625 6.203125 
Q 37.3125 6.203125 41.140625 7.25 
Q 44.96875 8.296875 48.78125 10.40625 
L 48.78125 2.09375 
Q 45.015625 0.34375 40.984375 -0.53125 
Q 36.96875 -1.421875 32.421875 -1.421875 
Q 20.0625 -1.421875 12.78125 6.34375 
Q 5.515625 14.109375 5.515625 27.296875 
Q 5.515625 40.671875 12.859375 48.328125 
Q 20.21875 56 33.015625 56 
Q 37.15625 56 41.109375 55.140625 
Q 45.0625 54.296875 48.78125 52.59375 
z
" id="DejaVuSans-63"/>
      <path d="M 18.3125 70.21875 
L 18.3125 54.6875 
L 36.8125 54.6875 
L 36.8125 47.703125 
L 18.3125 47.703125 
L 18.3125 18.015625 
Q 18.3125 11.328125 20.140625 9.421875 
Q 21.96875 7.515625 27.59375 7.515625 
L 36.8125 7.515625 
L 36.8125 0 
L 27.59375 0 
Q 17.1875 0 13.234375 3.875 
Q 9.28125 7.765625 9.28125 18.015625 
L 9.28125 47.703125 
L 2.6875 47.703125 
L 2.6875 54.6875 
L 9.28125 54.6875 
L 9.28125 70.21875 
z
" id="DejaVuSans-74"/>
      <path d="M 45.40625 46.390625 
L 45.40625 75.984375 
L 54.390625 75.984375 
L 54.390625 0 
L 45.40625 0 
L 45.40625 8.203125 
Q 42.578125 3.328125 38.25 0.953125 
Q 33.9375 -1.421875 27.875 -1.421875 
Q 17.96875 -1.421875 11.734375 6.484375 
Q 5.515625 14.40625 5.515625 27.296875 
Q 5.515625 40.1875 11.734375 48.09375 
Q 17.96875 56 27.875 56 
Q 33.9375 56 38.25 53.625 
Q 42.578125 51.265625 45.40625 46.390625 
z
M 14.796875 27.296875 
Q 14.796875 17.390625 18.875 11.75 
Q 22.953125 6.109375 30.078125 6.109375 
Q 37.203125 6.109375 41.296875 11.75 
Q 45.40625 17.390625 45.40625 27.296875 
Q 45.40625 37.203125 41.296875 42.84375 
Q 37.203125 48.484375 30.078125 48.484375 
Q 22.953125 48.484375 18.875 42.84375 
Q 14.796875 37.203125 14.796875 27.296875 
z
" id="DejaVuSans-64"/>
      <path id="DejaVuSans-20"/>
      <path d="M 19.671875 64.796875 
L 19.671875 8.109375 
L 31.59375 8.109375 
Q 46.6875 8.109375 53.6875 14.9375 
Q 60.6875 21.78125 60.6875 36.53125 
Q 60.6875 51.171875 53.6875 57.984375 
Q 46.6875 64.796875 31.59375 64.796875 
z
M 9.8125 72.90625 
L 30.078125 72.90625 
Q 51.265625 72.90625 61.171875 64.09375 
Q 71.09375 55.28125 71.09375 36.53125 
Q 71.09375 17.671875 61.125 8.828125 
Q 51.171875 0 30.078125 0 
L 9.8125 0 
z
" id="DejaVuSans-44"/>
      <path d="M 34.28125 27.484375 
Q 23.390625 27.484375 19.1875 25 
Q 14.984375 22.515625 14.984375 16.5 
Q 14.984375 11.71875 18.140625 8.90625 
Q 21.296875 6.109375 26.703125 6.109375 
Q 34.1875 6.109375 38.703125 11.40625 
Q 43.21875 16.703125 43.21875 25.484375 
L 43.21875 27.484375 
z
M 52.203125 31.203125 
L 52.203125 0 
L 43.21875 0 
L 43.21875 8.296875 
Q 40.140625 3.328125 35.546875 0.953125 
Q 30.953125 -1.421875 24.3125 -1.421875 
Q 15.921875 -1.421875 10.953125 3.296875 
Q 6 8.015625 6 15.921875 
Q 6 25.140625 12.171875 29.828125 
Q 18.359375 34.515625 30.609375 34.515625 
L 43.21875 34.515625 
L 43.21875 35.40625 
Q 43.21875 41.609375 39.140625 45 
Q 35.0625 48.390625 27.6875 48.390625 
Q 23 48.390625 18.546875 47.265625 
Q 14.109375 46.140625 10.015625 43.890625 
L 10.015625 52.203125 
Q 14.9375 54.109375 19.578125 55.046875 
Q 24.21875 56 28.609375 56 
Q 40.484375 56 46.34375 49.84375 
Q 52.203125 43.703125 52.203125 31.203125 
z
" id="DejaVuSans-61"/>
     </defs>
     <g transform="translate(315.9958 193.863108)scale(0.0833 -0.0833)">
      <use xlink:href="#DejaVuSans-43"/>
      <use x="69.824219" xlink:href="#DejaVuSans-6f"/>
      <use x="131.005859" xlink:href="#DejaVuSans-6c"/>
      <use x="158.789062" xlink:href="#DejaVuSans-6c"/>
      <use x="186.572266" xlink:href="#DejaVuSans-65"/>
      <use x="248.095703" xlink:href="#DejaVuSans-63"/>
      <use x="303.076172" xlink:href="#DejaVuSans-74"/>
      <use x="342.285156" xlink:href="#DejaVuSans-65"/>
      <use x="403.808594" xlink:href="#DejaVuSans-64"/>
      <use x="467.285156" xlink:href="#DejaVuSans-20"/>
      <use x="499.072266" xlink:href="#DejaVuSans-44"/>
      <use x="576.074219" xlink:href="#DejaVuSans-61"/>
      <use x="637.353516" xlink:href="#DejaVuSans-74"/>
      <use x="676.5625" xlink:href="#DejaVuSans-61"/>
     </g>
    </g>
    <g id="line2d_23">
     <path d="M 292.6718 203.174486 
L 309.3318 203.174486 
" style="fill:none;stroke:#ff7f0e;stroke-linecap:square;stroke-width:1.5;"/>
    </g>
    <g id="line2d_24"/>
    <g id="text_15">
     <!--  Fitted Data -->
     <defs>
      <path d="M 9.8125 72.90625 
L 51.703125 72.90625 
L 51.703125 64.59375 
L 19.671875 64.59375 
L 19.671875 43.109375 
L 48.578125 43.109375 
L 48.578125 34.8125 
L 19.671875 34.8125 
L 19.671875 0 
L 9.8125 0 
z
" id="DejaVuSans-46"/>
      <path d="M 9.421875 54.6875 
L 18.40625 54.6875 
L 18.40625 0 
L 9.421875 0 
z
M 9.421875 75.984375 
L 18.40625 75.984375 
L 18.40625 64.59375 
L 9.421875 64.59375 
z
" id="DejaVuSans-69"/>
     </defs>
     <g transform="translate(315.9958 206.089986)scale(0.0833 -0.0833)">
      <use xlink:href="#DejaVuSans-20"/>
      <use x="31.787109" xlink:href="#DejaVuSans-46"/>
      <use x="89.197266" xlink:href="#DejaVuSans-69"/>
      <use x="116.980469" xlink:href="#DejaVuSans-74"/>
      <use x="156.189453" xlink:href="#DejaVuSans-74"/>
      <use x="195.398438" xlink:href="#DejaVuSans-65"/>
      <use x="256.921875" xlink:href="#DejaVuSans-64"/>
      <use x="320.398438" xlink:href="#DejaVuSans-20"/>
      <use x="352.185547" xlink:href="#DejaVuSans-44"/>
      <use x="429.1875" xlink:href="#DejaVuSans-61"/>
      <use x="490.466797" xlink:href="#DejaVuSans-74"/>
      <use x="529.675781" xlink:href="#DejaVuSans-61"/>
     </g>
    </g>
    <g id="line2d_25"/>
    <g id="line2d_26"/>
    <g id="text_16">
     <!-- A = $0.35 \pm 0.07$ -->
     <defs>
      <path d="M 34.1875 63.1875 
L 20.796875 26.90625 
L 47.609375 26.90625 
z
M 28.609375 72.90625 
L 39.796875 72.90625 
L 67.578125 0 
L 57.328125 0 
L 50.6875 18.703125 
L 17.828125 18.703125 
L 11.1875 0 
L 0.78125 0 
z
" id="DejaVuSans-41"/>
      <path d="M 10.59375 45.40625 
L 73.1875 45.40625 
L 73.1875 37.203125 
L 10.59375 37.203125 
z
M 10.59375 25.484375 
L 73.1875 25.484375 
L 73.1875 17.1875 
L 10.59375 17.1875 
z
" id="DejaVuSans-3d"/>
      <path d="M 10.796875 72.90625 
L 49.515625 72.90625 
L 49.515625 64.59375 
L 19.828125 64.59375 
L 19.828125 46.734375 
Q 21.96875 47.46875 24.109375 47.828125 
Q 26.265625 48.1875 28.421875 48.1875 
Q 40.625 48.1875 47.75 41.5 
Q 54.890625 34.8125 54.890625 23.390625 
Q 54.890625 11.625 47.5625 5.09375 
Q 40.234375 -1.421875 26.90625 -1.421875 
Q 22.3125 -1.421875 17.546875 -0.640625 
Q 12.796875 0.140625 7.71875 1.703125 
L 7.71875 11.625 
Q 12.109375 9.234375 16.796875 8.0625 
Q 21.484375 6.890625 26.703125 6.890625 
Q 35.15625 6.890625 40.078125 11.328125 
Q 45.015625 15.765625 45.015625 23.390625 
Q 45.015625 31 40.078125 35.4375 
Q 35.15625 39.890625 26.703125 39.890625 
Q 22.75 39.890625 18.8125 39.015625 
Q 14.890625 38.140625 10.796875 36.28125 
z
" id="DejaVuSans-35"/>
      <path d="M 46 62.703125 
L 46 43.796875 
L 73.1875 43.796875 
L 73.1875 35.5 
L 46 35.5 
L 46 16.609375 
L 37.796875 16.609375 
L 37.796875 35.5 
L 10.59375 35.5 
L 10.59375 43.796875 
L 37.796875 43.796875 
L 37.796875 62.703125 
z
M 10.59375 8.296875 
L 73.1875 8.296875 
L 73.1875 0 
L 10.59375 0 
z
" id="DejaVuSans-b1"/>
      <path d="M 8.203125 72.90625 
L 55.078125 72.90625 
L 55.078125 68.703125 
L 28.609375 0 
L 18.3125 0 
L 43.21875 64.59375 
L 8.203125 64.59375 
z
" id="DejaVuSans-37"/>
     </defs>
     <g transform="translate(315.9958 218.316864)scale(0.0833 -0.0833)">
      <use transform="translate(0 0.78125)" xlink:href="#DejaVuSans-41"/>
      <use transform="translate(68.408203 0.78125)" xlink:href="#DejaVuSans-20"/>
      <use transform="translate(100.195312 0.78125)" xlink:href="#DejaVuSans-3d"/>
      <use transform="translate(183.984375 0.78125)" xlink:href="#DejaVuSans-20"/>
      <use transform="translate(215.771484 0.78125)" xlink:href="#DejaVuSans-30"/>
      <use transform="translate(279.394531 0.78125)" xlink:href="#DejaVuSans-2e"/>
      <use transform="translate(311.181641 0.78125)" xlink:href="#DejaVuSans-33"/>
      <use transform="translate(374.804688 0.78125)" xlink:href="#DejaVuSans-35"/>
      <use transform="translate(457.910156 0.78125)" xlink:href="#DejaVuSans-b1"/>
      <use transform="translate(561.181641 0.78125)" xlink:href="#DejaVuSans-30"/>
      <use transform="translate(624.804688 0.78125)" xlink:href="#DejaVuSans-2e"/>
      <use transform="translate(656.591797 0.78125)" xlink:href="#DejaVuSans-30"/>
      <use transform="translate(720.214844 0.78125)" xlink:href="#DejaVuSans-37"/>
     </g>
    </g>
    <g id="line2d_27"/>
    <g id="line2d_28"/>
    <g id="text_17">
     <!--  = $7.56 \pm 1.23$ -->
     <defs>
      <path d="M 30.953125 67.4375 
L 56.203125 0 
L 46.6875 0 
L 31.34375 40.4375 
L 12.5 0 
L 2.984375 0 
L 26.953125 52.4375 
L 23.34375 62.109375 
Q 21.046875 68.265625 15.828125 68.265625 
L 11.140625 68.265625 
L 11.140625 75.984375 
L 16.84375 75.875 
Q 27.875 75.734375 30.953125 67.4375 
z
" id="DejaVuSans-3bb"/>
     </defs>
     <g transform="translate(315.9958 230.543742)scale(0.0833 -0.0833)">
      <use transform="translate(0 0.015625)" xlink:href="#DejaVuSans-3bb"/>
      <use transform="translate(59.179688 0.015625)" xlink:href="#DejaVuSans-20"/>
      <use transform="translate(90.966797 0.015625)" xlink:href="#DejaVuSans-3d"/>
      <use transform="translate(174.755859 0.015625)" xlink:href="#DejaVuSans-20"/>
      <use transform="translate(206.542969 0.015625)" xlink:href="#DejaVuSans-37"/>
      <use transform="translate(270.166016 0.015625)" xlink:href="#DejaVuSans-2e"/>
      <use transform="translate(301.953125 0.015625)" xlink:href="#DejaVuSans-35"/>
      <use transform="translate(365.576172 0.015625)" xlink:href="#DejaVuSans-36"/>
      <use transform="translate(448.681641 0.015625)" xlink:href="#DejaVuSans-b1"/>
      <use transform="translate(551.953125 0.015625)" xlink:href="#DejaVuSans-31"/>
      <use transform="translate(615.576172 0.015625)" xlink:href="#DejaVuSans-2e"/>
      <use transform="translate(647.285156 0.015625)" xlink:href="#DejaVuSans-32"/>
      <use transform="translate(710.908203 0.015625)" xlink:href="#DejaVuSans-33"/>
     </g>
    </g>
    <g id="LineCollection_2">
     <path d="M 301.0018 244.02012 
L 301.0018 235.69012 
" style="fill:none;stroke:#000000;stroke-width:1.5;"/>
    </g>
    <g id="line2d_29">
     <g>
      <use style="stroke:#000000;" x="301.0018" xlink:href="#m70565d09b8" y="244.02012"/>
     </g>
    </g>
    <g id="line2d_30">
     <g>
      <use style="stroke:#000000;" x="301.0018" xlink:href="#m70565d09b8" y="235.69012"/>
     </g>
    </g>
    <g id="line2d_31">
     <path d="M 292.6718 239.85512 
L 309.3318 239.85512 
" style="fill:none;stroke:#1f77b4;stroke-linecap:square;stroke-width:1.5;"/>
    </g>
    <g id="line2d_32"/>
    <g id="text_18">
     <!-- error in fit -->
     <defs>
      <path d="M 41.109375 46.296875 
Q 39.59375 47.171875 37.8125 47.578125 
Q 36.03125 48 33.890625 48 
Q 26.265625 48 22.1875 43.046875 
Q 18.109375 38.09375 18.109375 28.8125 
L 18.109375 0 
L 9.078125 0 
L 9.078125 54.6875 
L 18.109375 54.6875 
L 18.109375 46.1875 
Q 20.953125 51.171875 25.484375 53.578125 
Q 30.03125 56 36.53125 56 
Q 37.453125 56 38.578125 55.875 
Q 39.703125 55.765625 41.0625 55.515625 
z
" id="DejaVuSans-72"/>
      <path d="M 54.890625 33.015625 
L 54.890625 0 
L 45.90625 0 
L 45.90625 32.71875 
Q 45.90625 40.484375 42.875 44.328125 
Q 39.84375 48.1875 33.796875 48.1875 
Q 26.515625 48.1875 22.3125 43.546875 
Q 18.109375 38.921875 18.109375 30.90625 
L 18.109375 0 
L 9.078125 0 
L 9.078125 54.6875 
L 18.109375 54.6875 
L 18.109375 46.1875 
Q 21.34375 51.125 25.703125 53.5625 
Q 30.078125 56 35.796875 56 
Q 45.21875 56 50.046875 50.171875 
Q 54.890625 44.34375 54.890625 33.015625 
z
" id="DejaVuSans-6e"/>
      <path d="M 37.109375 75.984375 
L 37.109375 68.5 
L 28.515625 68.5 
Q 23.6875 68.5 21.796875 66.546875 
Q 19.921875 64.59375 19.921875 59.515625 
L 19.921875 54.6875 
L 34.71875 54.6875 
L 34.71875 47.703125 
L 19.921875 47.703125 
L 19.921875 0 
L 10.890625 0 
L 10.890625 47.703125 
L 2.296875 47.703125 
L 2.296875 54.6875 
L 10.890625 54.6875 
L 10.890625 58.5 
Q 10.890625 67.625 15.140625 71.796875 
Q 19.390625 75.984375 28.609375 75.984375 
z
" id="DejaVuSans-66"/>
     </defs>
     <g transform="translate(315.9958 242.77062)scale(0.0833 -0.0833)">
      <use xlink:href="#DejaVuSans-65"/>
      <use x="61.523438" xlink:href="#DejaVuSans-72"/>
      <use x="102.621094" xlink:href="#DejaVuSans-72"/>
      <use x="143.703125" xlink:href="#DejaVuSans-6f"/>
      <use x="204.884766" xlink:href="#DejaVuSans-72"/>
      <use x="245.998047" xlink:href="#DejaVuSans-20"/>
      <use x="277.785156" xlink:href="#DejaVuSans-69"/>
      <use x="305.568359" xlink:href="#DejaVuSans-6e"/>
      <use x="368.947266" xlink:href="#DejaVuSans-20"/>
      <use x="400.734375" xlink:href="#DejaVuSans-66"/>
      <use x="435.939453" xlink:href="#DejaVuSans-69"/>
      <use x="463.722656" xlink:href="#DejaVuSans-74"/>
     </g>
    </g>
   </g>
  </g>
  <g id="text_19">
   <!-- S35_150ml_small_wave Collected data and a fit of the data with errors -->
   <defs>
    <path d="M 53.515625 70.515625 
L 53.515625 60.890625 
Q 47.90625 63.578125 42.921875 64.890625 
Q 37.9375 66.21875 33.296875 66.21875 
Q 25.25 66.21875 20.875 63.09375 
Q 16.5 59.96875 16.5 54.203125 
Q 16.5 49.359375 19.40625 46.890625 
Q 22.3125 44.4375 30.421875 42.921875 
L 36.375 41.703125 
Q 47.40625 39.59375 52.65625 34.296875 
Q 57.90625 29 57.90625 20.125 
Q 57.90625 9.515625 50.796875 4.046875 
Q 43.703125 -1.421875 29.984375 -1.421875 
Q 24.8125 -1.421875 18.96875 -0.25 
Q 13.140625 0.921875 6.890625 3.21875 
L 6.890625 13.375 
Q 12.890625 10.015625 18.65625 8.296875 
Q 24.421875 6.59375 29.984375 6.59375 
Q 38.421875 6.59375 43.015625 9.90625 
Q 47.609375 13.234375 47.609375 19.390625 
Q 47.609375 24.75 44.3125 27.78125 
Q 41.015625 30.8125 33.5 32.328125 
L 27.484375 33.5 
Q 16.453125 35.6875 11.515625 40.375 
Q 6.59375 45.0625 6.59375 53.421875 
Q 6.59375 63.09375 13.40625 68.65625 
Q 20.21875 74.21875 32.171875 74.21875 
Q 37.3125 74.21875 42.625 73.28125 
Q 47.953125 72.359375 53.515625 70.515625 
z
" id="DejaVuSans-53"/>
    <path d="M 50.984375 -16.609375 
L 50.984375 -23.578125 
L -0.984375 -23.578125 
L -0.984375 -16.609375 
z
" id="DejaVuSans-5f"/>
    <path d="M 52 44.1875 
Q 55.375 50.25 60.0625 53.125 
Q 64.75 56 71.09375 56 
Q 79.640625 56 84.28125 50.015625 
Q 88.921875 44.046875 88.921875 33.015625 
L 88.921875 0 
L 79.890625 0 
L 79.890625 32.71875 
Q 79.890625 40.578125 77.09375 44.375 
Q 74.3125 48.1875 68.609375 48.1875 
Q 61.625 48.1875 57.5625 43.546875 
Q 53.515625 38.921875 53.515625 30.90625 
L 53.515625 0 
L 44.484375 0 
L 44.484375 32.71875 
Q 44.484375 40.625 41.703125 44.40625 
Q 38.921875 48.1875 33.109375 48.1875 
Q 26.21875 48.1875 22.15625 43.53125 
Q 18.109375 38.875 18.109375 30.90625 
L 18.109375 0 
L 9.078125 0 
L 9.078125 54.6875 
L 18.109375 54.6875 
L 18.109375 46.1875 
Q 21.1875 51.21875 25.484375 53.609375 
Q 29.78125 56 35.6875 56 
Q 41.65625 56 45.828125 52.96875 
Q 50 49.953125 52 44.1875 
z
" id="DejaVuSans-6d"/>
    <path d="M 44.28125 53.078125 
L 44.28125 44.578125 
Q 40.484375 46.53125 36.375 47.5 
Q 32.28125 48.484375 27.875 48.484375 
Q 21.1875 48.484375 17.84375 46.4375 
Q 14.5 44.390625 14.5 40.28125 
Q 14.5 37.15625 16.890625 35.375 
Q 19.28125 33.59375 26.515625 31.984375 
L 29.59375 31.296875 
Q 39.15625 29.25 43.1875 25.515625 
Q 47.21875 21.78125 47.21875 15.09375 
Q 47.21875 7.46875 41.1875 3.015625 
Q 35.15625 -1.421875 24.609375 -1.421875 
Q 20.21875 -1.421875 15.453125 -0.5625 
Q 10.6875 0.296875 5.421875 2 
L 5.421875 11.28125 
Q 10.40625 8.6875 15.234375 7.390625 
Q 20.0625 6.109375 24.8125 6.109375 
Q 31.15625 6.109375 34.5625 8.28125 
Q 37.984375 10.453125 37.984375 14.40625 
Q 37.984375 18.0625 35.515625 20.015625 
Q 33.0625 21.96875 24.703125 23.78125 
L 21.578125 24.515625 
Q 13.234375 26.265625 9.515625 29.90625 
Q 5.8125 33.546875 5.8125 39.890625 
Q 5.8125 47.609375 11.28125 51.796875 
Q 16.75 56 26.8125 56 
Q 31.78125 56 36.171875 55.265625 
Q 40.578125 54.546875 44.28125 53.078125 
z
" id="DejaVuSans-73"/>
    <path d="M 4.203125 54.6875 
L 13.1875 54.6875 
L 24.421875 12.015625 
L 35.59375 54.6875 
L 46.1875 54.6875 
L 57.421875 12.015625 
L 68.609375 54.6875 
L 77.59375 54.6875 
L 63.28125 0 
L 52.6875 0 
L 40.921875 44.828125 
L 29.109375 0 
L 18.5 0 
z
" id="DejaVuSans-77"/>
    <path d="M 2.984375 54.6875 
L 12.5 54.6875 
L 29.59375 8.796875 
L 46.6875 54.6875 
L 56.203125 54.6875 
L 35.6875 0 
L 23.484375 0 
z
" id="DejaVuSans-76"/>
    <path d="M 54.890625 33.015625 
L 54.890625 0 
L 45.90625 0 
L 45.90625 32.71875 
Q 45.90625 40.484375 42.875 44.328125 
Q 39.84375 48.1875 33.796875 48.1875 
Q 26.515625 48.1875 22.3125 43.546875 
Q 18.109375 38.921875 18.109375 30.90625 
L 18.109375 0 
L 9.078125 0 
L 9.078125 75.984375 
L 18.109375 75.984375 
L 18.109375 46.1875 
Q 21.34375 51.125 25.703125 53.5625 
Q 30.078125 56 35.796875 56 
Q 45.21875 56 50.046875 50.171875 
Q 54.890625 44.34375 54.890625 33.015625 
z
" id="DejaVuSans-68"/>
   </defs>
   <g transform="translate(3.306563 14.878125)scale(0.12 -0.12)">
    <use xlink:href="#DejaVuSans-53"/>
    <use x="63.476562" xlink:href="#DejaVuSans-33"/>
    <use x="127.099609" xlink:href="#DejaVuSans-35"/>
    <use x="190.722656" xlink:href="#DejaVuSans-5f"/>
    <use x="240.722656" xlink:href="#DejaVuSans-31"/>
    <use x="304.345703" xlink:href="#DejaVuSans-35"/>
    <use x="367.96875" xlink:href="#DejaVuSans-30"/>
    <use x="431.591797" xlink:href="#DejaVuSans-6d"/>
    <use x="529.003906" xlink:href="#DejaVuSans-6c"/>
    <use x="556.787109" xlink:href="#DejaVuSans-5f"/>
    <use x="606.787109" xlink:href="#DejaVuSans-73"/>
    <use x="658.886719" xlink:href="#DejaVuSans-6d"/>
    <use x="756.298828" xlink:href="#DejaVuSans-61"/>
    <use x="817.578125" xlink:href="#DejaVuSans-6c"/>
    <use x="845.361328" xlink:href="#DejaVuSans-6c"/>
    <use x="873.144531" xlink:href="#DejaVuSans-5f"/>
    <use x="923.144531" xlink:href="#DejaVuSans-77"/>
    <use x="1004.931641" xlink:href="#DejaVuSans-61"/>
    <use x="1066.210938" xlink:href="#DejaVuSans-76"/>
    <use x="1125.390625" xlink:href="#DejaVuSans-65"/>
    <use x="1186.914062" xlink:href="#DejaVuSans-20"/>
    <use x="1218.701172" xlink:href="#DejaVuSans-43"/>
    <use x="1288.525391" xlink:href="#DejaVuSans-6f"/>
    <use x="1349.707031" xlink:href="#DejaVuSans-6c"/>
    <use x="1377.490234" xlink:href="#DejaVuSans-6c"/>
    <use x="1405.273438" xlink:href="#DejaVuSans-65"/>
    <use x="1466.796875" xlink:href="#DejaVuSans-63"/>
    <use x="1521.777344" xlink:href="#DejaVuSans-74"/>
    <use x="1560.986328" xlink:href="#DejaVuSans-65"/>
    <use x="1622.509766" xlink:href="#DejaVuSans-64"/>
    <use x="1685.986328" xlink:href="#DejaVuSans-20"/>
    <use x="1717.773438" xlink:href="#DejaVuSans-64"/>
    <use x="1781.25" xlink:href="#DejaVuSans-61"/>
    <use x="1842.529297" xlink:href="#DejaVuSans-74"/>
    <use x="1881.738281" xlink:href="#DejaVuSans-61"/>
    <use x="1943.017578" xlink:href="#DejaVuSans-20"/>
    <use x="1974.804688" xlink:href="#DejaVuSans-61"/>
    <use x="2036.083984" xlink:href="#DejaVuSans-6e"/>
    <use x="2099.462891" xlink:href="#DejaVuSans-64"/>
    <use x="2162.939453" xlink:href="#DejaVuSans-20"/>
    <use x="2194.726562" xlink:href="#DejaVuSans-61"/>
    <use x="2256.005859" xlink:href="#DejaVuSans-20"/>
    <use x="2287.792969" xlink:href="#DejaVuSans-66"/>
    <use x="2322.998047" xlink:href="#DejaVuSans-69"/>
    <use x="2350.78125" xlink:href="#DejaVuSans-74"/>
    <use x="2389.990234" xlink:href="#DejaVuSans-20"/>
    <use x="2421.777344" xlink:href="#DejaVuSans-6f"/>
    <use x="2482.958984" xlink:href="#DejaVuSans-66"/>
    <use x="2518.164062" xlink:href="#DejaVuSans-20"/>
    <use x="2549.951172" xlink:href="#DejaVuSans-74"/>
    <use x="2589.160156" xlink:href="#DejaVuSans-68"/>
    <use x="2652.539062" xlink:href="#DejaVuSans-65"/>
    <use x="2714.0625" xlink:href="#DejaVuSans-20"/>
    <use x="2745.849609" xlink:href="#DejaVuSans-64"/>
    <use x="2809.326172" xlink:href="#DejaVuSans-61"/>
    <use x="2870.605469" xlink:href="#DejaVuSans-74"/>
    <use x="2909.814453" xlink:href="#DejaVuSans-61"/>
    <use x="2971.09375" xlink:href="#DejaVuSans-20"/>
    <use x="3002.880859" xlink:href="#DejaVuSans-77"/>
    <use x="3084.667969" xlink:href="#DejaVuSans-69"/>
    <use x="3112.451172" xlink:href="#DejaVuSans-74"/>
    <use x="3151.660156" xlink:href="#DejaVuSans-68"/>
    <use x="3215.039062" xlink:href="#DejaVuSans-20"/>
    <use x="3246.826172" xlink:href="#DejaVuSans-65"/>
    <use x="3308.349609" xlink:href="#DejaVuSans-72"/>
    <use x="3349.447266" xlink:href="#DejaVuSans-72"/>
    <use x="3390.529297" xlink:href="#DejaVuSans-6f"/>
    <use x="3451.710938" xlink:href="#DejaVuSans-72"/>
    <use x="3492.824219" xlink:href="#DejaVuSans-73"/>
   </g>
  </g>
 </g>
 <defs>
  <clipPath id="p1d269798c8">
   <rect height="217.44" width="334.8" x="54" y="34.56"/>
  </clipPath>
 </defs>
</svg>
