<?xml version="1.0" encoding="utf-8" standalone="no"?>
<!DOCTYPE svg PUBLIC "-//W3C//DTD SVG 1.1//EN"
  "http://www.w3.org/Graphics/SVG/1.1/DTD/svg11.dtd">
<!-- Created with matplotlib (http://matplotlib.org/) -->
<svg height="288pt" version="1.1" viewBox="0 0 432 288" width="432pt" xmlns="http://www.w3.org/2000/svg" xmlns:xlink="http://www.w3.org/1999/xlink">
 <defs>
  <style type="text/css">
*{stroke-linecap:butt;stroke-linejoin:round;}
  </style>
 </defs>
 <g id="figure_1">
  <g id="patch_1">
   <path d="M 0 288 
L 432 288 
L 432 0 
L 0 0 
z
" style="fill:#ffffff;"/>
  </g>
  <g id="axes_1">
   <g id="patch_2">
    <path d="M 54 252 
L 388.8 252 
L 388.8 34.56 
L 54 34.56 
z
" style="fill:#ffffff;"/>
   </g>
   <g id="matplotlib.axis_1">
    <g id="xtick_1">
     <g id="line2d_1">
      <defs>
       <path d="M 0 0 
L 0 3.5 
" id="mb4c23ff1f9" style="stroke:#000000;stroke-width:0.8;"/>
      </defs>
      <g>
       <use style="stroke:#000000;stroke-width:0.8;" x="60.549403" xlink:href="#mb4c23ff1f9" y="252"/>
      </g>
     </g>
     <g id="text_1">
      <!-- 0 -->
      <defs>
       <path d="M 31.78125 66.40625 
Q 24.171875 66.40625 20.328125 58.90625 
Q 16.5 51.421875 16.5 36.375 
Q 16.5 21.390625 20.328125 13.890625 
Q 24.171875 6.390625 31.78125 6.390625 
Q 39.453125 6.390625 43.28125 13.890625 
Q 47.125 21.390625 47.125 36.375 
Q 47.125 51.421875 43.28125 58.90625 
Q 39.453125 66.40625 31.78125 66.40625 
z
M 31.78125 74.21875 
Q 44.046875 74.21875 50.515625 64.515625 
Q 56.984375 54.828125 56.984375 36.375 
Q 56.984375 17.96875 50.515625 8.265625 
Q 44.046875 -1.421875 31.78125 -1.421875 
Q 19.53125 -1.421875 13.0625 8.265625 
Q 6.59375 17.96875 6.59375 36.375 
Q 6.59375 54.828125 13.0625 64.515625 
Q 19.53125 74.21875 31.78125 74.21875 
z
" id="DejaVuSans-30"/>
      </defs>
      <g transform="translate(57.368153 266.598437)scale(0.1 -0.1)">
       <use xlink:href="#DejaVuSans-30"/>
      </g>
     </g>
    </g>
    <g id="xtick_2">
     <g id="line2d_2">
      <g>
       <use style="stroke:#000000;stroke-width:0.8;" x="101.507489" xlink:href="#mb4c23ff1f9" y="252"/>
      </g>
     </g>
     <g id="text_2">
      <!-- 2 -->
      <defs>
       <path d="M 19.1875 8.296875 
L 53.609375 8.296875 
L 53.609375 0 
L 7.328125 0 
L 7.328125 8.296875 
Q 12.9375 14.109375 22.625 23.890625 
Q 32.328125 33.6875 34.8125 36.53125 
Q 39.546875 41.84375 41.421875 45.53125 
Q 43.3125 49.21875 43.3125 52.78125 
Q 43.3125 58.59375 39.234375 62.25 
Q 35.15625 65.921875 28.609375 65.921875 
Q 23.96875 65.921875 18.8125 64.3125 
Q 13.671875 62.703125 7.8125 59.421875 
L 7.8125 69.390625 
Q 13.765625 71.78125 18.9375 73 
Q 24.125 74.21875 28.421875 74.21875 
Q 39.75 74.21875 46.484375 68.546875 
Q 53.21875 62.890625 53.21875 53.421875 
Q 53.21875 48.921875 51.53125 44.890625 
Q 49.859375 40.875 45.40625 35.40625 
Q 44.1875 33.984375 37.640625 27.21875 
Q 31.109375 20.453125 19.1875 8.296875 
z
" id="DejaVuSans-32"/>
      </defs>
      <g transform="translate(98.326239 266.598437)scale(0.1 -0.1)">
       <use xlink:href="#DejaVuSans-32"/>
      </g>
     </g>
    </g>
    <g id="xtick_3">
     <g id="line2d_3">
      <g>
       <use style="stroke:#000000;stroke-width:0.8;" x="142.465576" xlink:href="#mb4c23ff1f9" y="252"/>
      </g>
     </g>
     <g id="text_3">
      <!-- 4 -->
      <defs>
       <path d="M 37.796875 64.3125 
L 12.890625 25.390625 
L 37.796875 25.390625 
z
M 35.203125 72.90625 
L 47.609375 72.90625 
L 47.609375 25.390625 
L 58.015625 25.390625 
L 58.015625 17.1875 
L 47.609375 17.1875 
L 47.609375 0 
L 37.796875 0 
L 37.796875 17.1875 
L 4.890625 17.1875 
L 4.890625 26.703125 
z
" id="DejaVuSans-34"/>
      </defs>
      <g transform="translate(139.284326 266.598437)scale(0.1 -0.1)">
       <use xlink:href="#DejaVuSans-34"/>
      </g>
     </g>
    </g>
    <g id="xtick_4">
     <g id="line2d_4">
      <g>
       <use style="stroke:#000000;stroke-width:0.8;" x="183.423662" xlink:href="#mb4c23ff1f9" y="252"/>
      </g>
     </g>
     <g id="text_4">
      <!-- 6 -->
      <defs>
       <path d="M 33.015625 40.375 
Q 26.375 40.375 22.484375 35.828125 
Q 18.609375 31.296875 18.609375 23.390625 
Q 18.609375 15.53125 22.484375 10.953125 
Q 26.375 6.390625 33.015625 6.390625 
Q 39.65625 6.390625 43.53125 10.953125 
Q 47.40625 15.53125 47.40625 23.390625 
Q 47.40625 31.296875 43.53125 35.828125 
Q 39.65625 40.375 33.015625 40.375 
z
M 52.59375 71.296875 
L 52.59375 62.3125 
Q 48.875 64.0625 45.09375 64.984375 
Q 41.3125 65.921875 37.59375 65.921875 
Q 27.828125 65.921875 22.671875 59.328125 
Q 17.53125 52.734375 16.796875 39.40625 
Q 19.671875 43.65625 24.015625 45.921875 
Q 28.375 48.1875 33.59375 48.1875 
Q 44.578125 48.1875 50.953125 41.515625 
Q 57.328125 34.859375 57.328125 23.390625 
Q 57.328125 12.15625 50.6875 5.359375 
Q 44.046875 -1.421875 33.015625 -1.421875 
Q 20.359375 -1.421875 13.671875 8.265625 
Q 6.984375 17.96875 6.984375 36.375 
Q 6.984375 53.65625 15.1875 63.9375 
Q 23.390625 74.21875 37.203125 74.21875 
Q 40.921875 74.21875 44.703125 73.484375 
Q 48.484375 72.75 52.59375 71.296875 
z
" id="DejaVuSans-36"/>
      </defs>
      <g transform="translate(180.242412 266.598437)scale(0.1 -0.1)">
       <use xlink:href="#DejaVuSans-36"/>
      </g>
     </g>
    </g>
    <g id="xtick_5">
     <g id="line2d_5">
      <g>
       <use style="stroke:#000000;stroke-width:0.8;" x="224.381749" xlink:href="#mb4c23ff1f9" y="252"/>
      </g>
     </g>
     <g id="text_5">
      <!-- 8 -->
      <defs>
       <path d="M 31.78125 34.625 
Q 24.75 34.625 20.71875 30.859375 
Q 16.703125 27.09375 16.703125 20.515625 
Q 16.703125 13.921875 20.71875 10.15625 
Q 24.75 6.390625 31.78125 6.390625 
Q 38.8125 6.390625 42.859375 10.171875 
Q 46.921875 13.96875 46.921875 20.515625 
Q 46.921875 27.09375 42.890625 30.859375 
Q 38.875 34.625 31.78125 34.625 
z
M 21.921875 38.8125 
Q 15.578125 40.375 12.03125 44.71875 
Q 8.5 49.078125 8.5 55.328125 
Q 8.5 64.0625 14.71875 69.140625 
Q 20.953125 74.21875 31.78125 74.21875 
Q 42.671875 74.21875 48.875 69.140625 
Q 55.078125 64.0625 55.078125 55.328125 
Q 55.078125 49.078125 51.53125 44.71875 
Q 48 40.375 41.703125 38.8125 
Q 48.828125 37.15625 52.796875 32.3125 
Q 56.78125 27.484375 56.78125 20.515625 
Q 56.78125 9.90625 50.3125 4.234375 
Q 43.84375 -1.421875 31.78125 -1.421875 
Q 19.734375 -1.421875 13.25 4.234375 
Q 6.78125 9.90625 6.78125 20.515625 
Q 6.78125 27.484375 10.78125 32.3125 
Q 14.796875 37.15625 21.921875 38.8125 
z
M 18.3125 54.390625 
Q 18.3125 48.734375 21.84375 45.5625 
Q 25.390625 42.390625 31.78125 42.390625 
Q 38.140625 42.390625 41.71875 45.5625 
Q 45.3125 48.734375 45.3125 54.390625 
Q 45.3125 60.0625 41.71875 63.234375 
Q 38.140625 66.40625 31.78125 66.40625 
Q 25.390625 66.40625 21.84375 63.234375 
Q 18.3125 60.0625 18.3125 54.390625 
z
" id="DejaVuSans-38"/>
      </defs>
      <g transform="translate(221.200499 266.598437)scale(0.1 -0.1)">
       <use xlink:href="#DejaVuSans-38"/>
      </g>
     </g>
    </g>
    <g id="xtick_6">
     <g id="line2d_6">
      <g>
       <use style="stroke:#000000;stroke-width:0.8;" x="265.339835" xlink:href="#mb4c23ff1f9" y="252"/>
      </g>
     </g>
     <g id="text_6">
      <!-- 10 -->
      <defs>
       <path d="M 12.40625 8.296875 
L 28.515625 8.296875 
L 28.515625 63.921875 
L 10.984375 60.40625 
L 10.984375 69.390625 
L 28.421875 72.90625 
L 38.28125 72.90625 
L 38.28125 8.296875 
L 54.390625 8.296875 
L 54.390625 0 
L 12.40625 0 
z
" id="DejaVuSans-31"/>
      </defs>
      <g transform="translate(258.977335 266.598437)scale(0.1 -0.1)">
       <use xlink:href="#DejaVuSans-31"/>
       <use x="63.623047" xlink:href="#DejaVuSans-30"/>
      </g>
     </g>
    </g>
    <g id="xtick_7">
     <g id="line2d_7">
      <g>
       <use style="stroke:#000000;stroke-width:0.8;" x="306.297922" xlink:href="#mb4c23ff1f9" y="252"/>
      </g>
     </g>
     <g id="text_7">
      <!-- 12 -->
      <g transform="translate(299.935422 266.598437)scale(0.1 -0.1)">
       <use xlink:href="#DejaVuSans-31"/>
       <use x="63.623047" xlink:href="#DejaVuSans-32"/>
      </g>
     </g>
    </g>
    <g id="xtick_8">
     <g id="line2d_8">
      <g>
       <use style="stroke:#000000;stroke-width:0.8;" x="347.256008" xlink:href="#mb4c23ff1f9" y="252"/>
      </g>
     </g>
     <g id="text_8">
      <!-- 14 -->
      <g transform="translate(340.893508 266.598437)scale(0.1 -0.1)">
       <use xlink:href="#DejaVuSans-31"/>
       <use x="63.623047" xlink:href="#DejaVuSans-34"/>
      </g>
     </g>
    </g>
    <g id="xtick_9">
     <g id="line2d_9">
      <g>
       <use style="stroke:#000000;stroke-width:0.8;" x="388.214095" xlink:href="#mb4c23ff1f9" y="252"/>
      </g>
     </g>
     <g id="text_9">
      <!-- 16 -->
      <g transform="translate(381.851595 266.598437)scale(0.1 -0.1)">
       <use xlink:href="#DejaVuSans-31"/>
       <use x="63.623047" xlink:href="#DejaVuSans-36"/>
      </g>
     </g>
    </g>
   </g>
   <g id="matplotlib.axis_2">
    <g id="ytick_1">
     <g id="line2d_10">
      <defs>
       <path d="M 0 0 
L -3.5 0 
" id="mf119f932cb" style="stroke:#000000;stroke-width:0.8;"/>
      </defs>
      <g>
       <use style="stroke:#000000;stroke-width:0.8;" x="54" xlink:href="#mf119f932cb" y="230.710366"/>
      </g>
     </g>
     <g id="text_10">
      <!-- 1.0 -->
      <defs>
       <path d="M 10.6875 12.40625 
L 21 12.40625 
L 21 0 
L 10.6875 0 
z
" id="DejaVuSans-2e"/>
      </defs>
      <g transform="translate(31.096875 234.509585)scale(0.1 -0.1)">
       <use xlink:href="#DejaVuSans-31"/>
       <use x="63.623047" xlink:href="#DejaVuSans-2e"/>
       <use x="95.410156" xlink:href="#DejaVuSans-30"/>
      </g>
     </g>
    </g>
    <g id="ytick_2">
     <g id="line2d_11">
      <g>
       <use style="stroke:#000000;stroke-width:0.8;" x="54" xlink:href="#mf119f932cb" y="192.66402"/>
      </g>
     </g>
     <g id="text_11">
      <!-- 1.1 -->
      <g transform="translate(31.096875 196.463239)scale(0.1 -0.1)">
       <use xlink:href="#DejaVuSans-31"/>
       <use x="63.623047" xlink:href="#DejaVuSans-2e"/>
       <use x="95.410156" xlink:href="#DejaVuSans-31"/>
      </g>
     </g>
    </g>
    <g id="ytick_3">
     <g id="line2d_12">
      <g>
       <use style="stroke:#000000;stroke-width:0.8;" x="54" xlink:href="#mf119f932cb" y="154.617675"/>
      </g>
     </g>
     <g id="text_12">
      <!-- 1.2 -->
      <g transform="translate(31.096875 158.416893)scale(0.1 -0.1)">
       <use xlink:href="#DejaVuSans-31"/>
       <use x="63.623047" xlink:href="#DejaVuSans-2e"/>
       <use x="95.410156" xlink:href="#DejaVuSans-32"/>
      </g>
     </g>
    </g>
    <g id="ytick_4">
     <g id="line2d_13">
      <g>
       <use style="stroke:#000000;stroke-width:0.8;" x="54" xlink:href="#mf119f932cb" y="116.571329"/>
      </g>
     </g>
     <g id="text_13">
      <!-- 1.3 -->
      <defs>
       <path d="M 40.578125 39.3125 
Q 47.65625 37.796875 51.625 33 
Q 55.609375 28.21875 55.609375 21.1875 
Q 55.609375 10.40625 48.1875 4.484375 
Q 40.765625 -1.421875 27.09375 -1.421875 
Q 22.515625 -1.421875 17.65625 -0.515625 
Q 12.796875 0.390625 7.625 2.203125 
L 7.625 11.71875 
Q 11.71875 9.328125 16.59375 8.109375 
Q 21.484375 6.890625 26.8125 6.890625 
Q 36.078125 6.890625 40.9375 10.546875 
Q 45.796875 14.203125 45.796875 21.1875 
Q 45.796875 27.640625 41.28125 31.265625 
Q 36.765625 34.90625 28.71875 34.90625 
L 20.21875 34.90625 
L 20.21875 43.015625 
L 29.109375 43.015625 
Q 36.375 43.015625 40.234375 45.921875 
Q 44.09375 48.828125 44.09375 54.296875 
Q 44.09375 59.90625 40.109375 62.90625 
Q 36.140625 65.921875 28.71875 65.921875 
Q 24.65625 65.921875 20.015625 65.03125 
Q 15.375 64.15625 9.8125 62.3125 
L 9.8125 71.09375 
Q 15.4375 72.65625 20.34375 73.4375 
Q 25.25 74.21875 29.59375 74.21875 
Q 40.828125 74.21875 47.359375 69.109375 
Q 53.90625 64.015625 53.90625 55.328125 
Q 53.90625 49.265625 50.4375 45.09375 
Q 46.96875 40.921875 40.578125 39.3125 
z
" id="DejaVuSans-33"/>
      </defs>
      <g transform="translate(31.096875 120.370548)scale(0.1 -0.1)">
       <use xlink:href="#DejaVuSans-31"/>
       <use x="63.623047" xlink:href="#DejaVuSans-2e"/>
       <use x="95.410156" xlink:href="#DejaVuSans-33"/>
      </g>
     </g>
    </g>
    <g id="ytick_5">
     <g id="line2d_14">
      <g>
       <use style="stroke:#000000;stroke-width:0.8;" x="54" xlink:href="#mf119f932cb" y="78.524983"/>
      </g>
     </g>
     <g id="text_14">
      <!-- 1.4 -->
      <g transform="translate(31.096875 82.324202)scale(0.1 -0.1)">
       <use xlink:href="#DejaVuSans-31"/>
       <use x="63.623047" xlink:href="#DejaVuSans-2e"/>
       <use x="95.410156" xlink:href="#DejaVuSans-34"/>
      </g>
     </g>
    </g>
    <g id="ytick_6">
     <g id="line2d_15">
      <g>
       <use style="stroke:#000000;stroke-width:0.8;" x="54" xlink:href="#mf119f932cb" y="40.478637"/>
      </g>
     </g>
     <g id="text_15">
      <!-- 1.5 -->
      <defs>
       <path d="M 10.796875 72.90625 
L 49.515625 72.90625 
L 49.515625 64.59375 
L 19.828125 64.59375 
L 19.828125 46.734375 
Q 21.96875 47.46875 24.109375 47.828125 
Q 26.265625 48.1875 28.421875 48.1875 
Q 40.625 48.1875 47.75 41.5 
Q 54.890625 34.8125 54.890625 23.390625 
Q 54.890625 11.625 47.5625 5.09375 
Q 40.234375 -1.421875 26.90625 -1.421875 
Q 22.3125 -1.421875 17.546875 -0.640625 
Q 12.796875 0.140625 7.71875 1.703125 
L 7.71875 11.625 
Q 12.109375 9.234375 16.796875 8.0625 
Q 21.484375 6.890625 26.703125 6.890625 
Q 35.15625 6.890625 40.078125 11.328125 
Q 45.015625 15.765625 45.015625 23.390625 
Q 45.015625 31 40.078125 35.4375 
Q 35.15625 39.890625 26.703125 39.890625 
Q 22.75 39.890625 18.8125 39.015625 
Q 14.890625 38.140625 10.796875 36.28125 
z
" id="DejaVuSans-35"/>
      </defs>
      <g transform="translate(31.096875 44.277856)scale(0.1 -0.1)">
       <use xlink:href="#DejaVuSans-31"/>
       <use x="63.623047" xlink:href="#DejaVuSans-2e"/>
       <use x="95.410156" xlink:href="#DejaVuSans-35"/>
      </g>
     </g>
    </g>
   </g>
   <g id="LineCollection_1">
    <path clip-path="url(#p0fd199d534)" d="M 69.218182 242.116364 
L 69.218182 225.720801 
" style="fill:none;stroke:#000000;stroke-width:1.5;"/>
    <path clip-path="url(#p0fd199d534)" d="M 73.07029 239.757238 
L 73.07029 224.619716 
" style="fill:none;stroke:#000000;stroke-width:1.5;"/>
    <path clip-path="url(#p0fd199d534)" d="M 76.924446 237.779982 
L 76.924446 222.867755 
" style="fill:none;stroke:#000000;stroke-width:1.5;"/>
    <path clip-path="url(#p0fd199d534)" d="M 80.776554 235.755047 
L 80.776554 220.881236 
" style="fill:none;stroke:#000000;stroke-width:1.5;"/>
    <path clip-path="url(#p0fd199d534)" d="M 84.628662 233.595153 
L 84.628662 218.727847 
" style="fill:none;stroke:#000000;stroke-width:1.5;"/>
    <path clip-path="url(#p0fd199d534)" d="M 88.48077 231.278011 
L 88.48077 216.411805 
" style="fill:none;stroke:#000000;stroke-width:1.5;"/>
    <path clip-path="url(#p0fd199d534)" d="M 92.334926 228.790845 
L 92.334926 213.924825 
" style="fill:none;stroke:#000000;stroke-width:1.5;"/>
    <path clip-path="url(#p0fd199d534)" d="M 96.187034 226.126707 
L 96.187034 211.260718 
" style="fill:none;stroke:#000000;stroke-width:1.5;"/>
    <path clip-path="url(#p0fd199d534)" d="M 100.039142 223.27511 
L 100.039142 208.409126 
" style="fill:none;stroke:#000000;stroke-width:1.5;"/>
    <path clip-path="url(#p0fd199d534)" d="M 103.893298 220.225401 
L 103.893298 205.359418 
" style="fill:none;stroke:#000000;stroke-width:1.5;"/>
    <path clip-path="url(#p0fd199d534)" d="M 107.745406 216.972171 
L 107.745406 202.106189 
" style="fill:none;stroke:#000000;stroke-width:1.5;"/>
    <path clip-path="url(#p0fd199d534)" d="M 111.597514 213.505703 
L 111.597514 198.639721 
" style="fill:none;stroke:#000000;stroke-width:1.5;"/>
    <path clip-path="url(#p0fd199d534)" d="M 115.449622 209.818531 
L 115.449622 194.952548 
" style="fill:none;stroke:#000000;stroke-width:1.5;"/>
    <path clip-path="url(#p0fd199d534)" d="M 119.303778 205.901952 
L 119.303778 191.035969 
" style="fill:none;stroke:#000000;stroke-width:1.5;"/>
    <path clip-path="url(#p0fd199d534)" d="M 123.155886 201.754721 
L 123.155886 186.888739 
" style="fill:none;stroke:#000000;stroke-width:1.5;"/>
    <path clip-path="url(#p0fd199d534)" d="M 127.007994 197.370842 
L 127.007994 182.504859 
" style="fill:none;stroke:#000000;stroke-width:1.5;"/>
    <path clip-path="url(#p0fd199d534)" d="M 130.86215 192.745547 
L 130.86215 177.879564 
" style="fill:none;stroke:#000000;stroke-width:1.5;"/>
    <path clip-path="url(#p0fd199d534)" d="M 134.714258 187.883562 
L 134.714258 173.017579 
" style="fill:none;stroke:#000000;stroke-width:1.5;"/>
    <path clip-path="url(#p0fd199d534)" d="M 138.566366 182.784707 
L 138.566366 167.918725 
" style="fill:none;stroke:#000000;stroke-width:1.5;"/>
    <path clip-path="url(#p0fd199d534)" d="M 142.420522 177.451067 
L 142.420522 162.585085 
" style="fill:none;stroke:#000000;stroke-width:1.5;"/>
    <path clip-path="url(#p0fd199d534)" d="M 146.27263 171.896427 
L 146.27263 157.030444 
" style="fill:none;stroke:#000000;stroke-width:1.5;"/>
    <path clip-path="url(#p0fd199d534)" d="M 150.124738 166.129629 
L 150.124738 151.263646 
" style="fill:none;stroke:#000000;stroke-width:1.5;"/>
    <path clip-path="url(#p0fd199d534)" d="M 153.976846 160.166145 
L 153.976846 145.300163 
" style="fill:none;stroke:#000000;stroke-width:1.5;"/>
    <path clip-path="url(#p0fd199d534)" d="M 157.831002 154.022323 
L 157.831002 139.156341 
" style="fill:none;stroke:#000000;stroke-width:1.5;"/>
    <path clip-path="url(#p0fd199d534)" d="M 161.68311 147.728826 
L 161.68311 132.862843 
" style="fill:none;stroke:#000000;stroke-width:1.5;"/>
    <path clip-path="url(#p0fd199d534)" d="M 165.535218 141.311244 
L 165.535218 126.445262 
" style="fill:none;stroke:#000000;stroke-width:1.5;"/>
    <path clip-path="url(#p0fd199d534)" d="M 169.389374 134.799741 
L 169.389374 119.933758 
" style="fill:none;stroke:#000000;stroke-width:1.5;"/>
    <path clip-path="url(#p0fd199d534)" d="M 173.241482 128.239756 
L 173.241482 113.373774 
" style="fill:none;stroke:#000000;stroke-width:1.5;"/>
    <path clip-path="url(#p0fd199d534)" d="M 177.09359 121.671139 
L 177.09359 106.805156 
" style="fill:none;stroke:#000000;stroke-width:1.5;"/>
    <path clip-path="url(#p0fd199d534)" d="M 180.947746 115.13828 
L 180.947746 100.272297 
" style="fill:none;stroke:#000000;stroke-width:1.5;"/>
    <path clip-path="url(#p0fd199d534)" d="M 184.799854 108.700163 
L 184.799854 93.83418 
" style="fill:none;stroke:#000000;stroke-width:1.5;"/>
    <path clip-path="url(#p0fd199d534)" d="M 188.651962 102.408947 
L 188.651962 87.542965 
" style="fill:none;stroke:#000000;stroke-width:1.5;"/>
    <path clip-path="url(#p0fd199d534)" d="M 192.50407 96.323184 
L 192.50407 81.457201 
" style="fill:none;stroke:#000000;stroke-width:1.5;"/>
    <path clip-path="url(#p0fd199d534)" d="M 196.358226 90.500422 
L 196.358226 75.634439 
" style="fill:none;stroke:#000000;stroke-width:1.5;"/>
    <path clip-path="url(#p0fd199d534)" d="M 200.210334 85.008403 
L 200.210334 70.14242 
" style="fill:none;stroke:#000000;stroke-width:1.5;"/>
    <path clip-path="url(#p0fd199d534)" d="M 204.062442 79.905254 
L 204.062442 65.039271 
" style="fill:none;stroke:#000000;stroke-width:1.5;"/>
    <path clip-path="url(#p0fd199d534)" d="M 207.916598 75.248404 
L 207.916598 60.382422 
" style="fill:none;stroke:#000000;stroke-width:1.5;"/>
    <path clip-path="url(#p0fd199d534)" d="M 211.768706 71.099708 
L 211.768706 56.233726 
" style="fill:none;stroke:#000000;stroke-width:1.5;"/>
    <path clip-path="url(#p0fd199d534)" d="M 215.620814 67.509171 
L 215.620814 52.643188 
" style="fill:none;stroke:#000000;stroke-width:1.5;"/>
    <path clip-path="url(#p0fd199d534)" d="M 219.47497 64.522345 
L 219.47497 49.656362 
" style="fill:none;stroke:#000000;stroke-width:1.5;"/>
    <path clip-path="url(#p0fd199d534)" d="M 223.327078 62.182497 
L 223.327078 47.316515 
" style="fill:none;stroke:#000000;stroke-width:1.5;"/>
    <path clip-path="url(#p0fd199d534)" d="M 227.179186 60.519935 
L 227.179186 45.653952 
" style="fill:none;stroke:#000000;stroke-width:1.5;"/>
    <path clip-path="url(#p0fd199d534)" d="M 231.031294 59.557784 
L 231.031294 44.691802 
" style="fill:none;stroke:#000000;stroke-width:1.5;"/>
    <path clip-path="url(#p0fd199d534)" d="M 234.88545 59.309619 
L 234.88545 44.443636 
" style="fill:none;stroke:#000000;stroke-width:1.5;"/>
    <path clip-path="url(#p0fd199d534)" d="M 238.737558 59.779203 
L 238.737558 44.913221 
" style="fill:none;stroke:#000000;stroke-width:1.5;"/>
    <path clip-path="url(#p0fd199d534)" d="M 242.589666 60.959595 
L 242.589666 46.093612 
" style="fill:none;stroke:#000000;stroke-width:1.5;"/>
    <path clip-path="url(#p0fd199d534)" d="M 246.443822 62.835432 
L 246.443822 47.969449 
" style="fill:none;stroke:#000000;stroke-width:1.5;"/>
    <path clip-path="url(#p0fd199d534)" d="M 250.29593 65.378737 
L 250.29593 50.512754 
" style="fill:none;stroke:#000000;stroke-width:1.5;"/>
    <path clip-path="url(#p0fd199d534)" d="M 254.148038 68.555677 
L 254.148038 53.689694 
" style="fill:none;stroke:#000000;stroke-width:1.5;"/>
    <path clip-path="url(#p0fd199d534)" d="M 258.002194 72.32607 
L 258.002194 57.460088 
" style="fill:none;stroke:#000000;stroke-width:1.5;"/>
    <path clip-path="url(#p0fd199d534)" d="M 261.854302 76.637036 
L 261.854302 61.771053 
" style="fill:none;stroke:#000000;stroke-width:1.5;"/>
    <path clip-path="url(#p0fd199d534)" d="M 265.70641 81.436349 
L 265.70641 66.570367 
" style="fill:none;stroke:#000000;stroke-width:1.5;"/>
    <path clip-path="url(#p0fd199d534)" d="M 269.558518 86.666088 
L 269.558518 71.800106 
" style="fill:none;stroke:#000000;stroke-width:1.5;"/>
    <path clip-path="url(#p0fd199d534)" d="M 273.412674 92.268929 
L 273.412674 77.402947 
" style="fill:none;stroke:#000000;stroke-width:1.5;"/>
    <path clip-path="url(#p0fd199d534)" d="M 277.264782 98.177389 
L 277.264782 83.311406 
" style="fill:none;stroke:#000000;stroke-width:1.5;"/>
    <path clip-path="url(#p0fd199d534)" d="M 281.11689 104.333002 
L 281.11689 89.467019 
" style="fill:none;stroke:#000000;stroke-width:1.5;"/>
    <path clip-path="url(#p0fd199d534)" d="M 284.971046 110.679133 
L 284.971046 95.813151 
" style="fill:none;stroke:#000000;stroke-width:1.5;"/>
    <path clip-path="url(#p0fd199d534)" d="M 288.823154 117.151274 
L 288.823154 102.285291 
" style="fill:none;stroke:#000000;stroke-width:1.5;"/>
    <path clip-path="url(#p0fd199d534)" d="M 292.675262 123.698159 
L 292.675262 108.832177 
" style="fill:none;stroke:#000000;stroke-width:1.5;"/>
    <path clip-path="url(#p0fd199d534)" d="M 296.52737 130.26901 
L 296.52737 115.403028 
" style="fill:none;stroke:#000000;stroke-width:1.5;"/>
    <path clip-path="url(#p0fd199d534)" d="M 300.381526 136.820827 
L 300.381526 121.954844 
" style="fill:none;stroke:#000000;stroke-width:1.5;"/>
    <path clip-path="url(#p0fd199d534)" d="M 304.233634 143.3048 
L 304.233634 128.438818 
" style="fill:none;stroke:#000000;stroke-width:1.5;"/>
    <path clip-path="url(#p0fd199d534)" d="M 308.085742 149.687419 
L 308.085742 134.821437 
" style="fill:none;stroke:#000000;stroke-width:1.5;"/>
    <path clip-path="url(#p0fd199d534)" d="M 311.939898 155.939826 
L 311.939898 141.073844 
" style="fill:none;stroke:#000000;stroke-width:1.5;"/>
    <path clip-path="url(#p0fd199d534)" d="M 315.792006 162.028021 
L 315.792006 147.162039 
" style="fill:none;stroke:#000000;stroke-width:1.5;"/>
    <path clip-path="url(#p0fd199d534)" d="M 319.644114 167.932651 
L 319.644114 153.066668 
" style="fill:none;stroke:#000000;stroke-width:1.5;"/>
    <path clip-path="url(#p0fd199d534)" d="M 323.49827 173.638358 
L 323.49827 158.772376 
" style="fill:none;stroke:#000000;stroke-width:1.5;"/>
    <path clip-path="url(#p0fd199d534)" d="M 327.350378 179.124832 
L 327.350378 164.25885 
" style="fill:none;stroke:#000000;stroke-width:1.5;"/>
    <path clip-path="url(#p0fd199d534)" d="M 331.202486 184.384665 
L 331.202486 169.518682 
" style="fill:none;stroke:#000000;stroke-width:1.5;"/>
    <path clip-path="url(#p0fd199d534)" d="M 335.054594 189.410751 
L 335.054594 174.544769 
" style="fill:none;stroke:#000000;stroke-width:1.5;"/>
    <path clip-path="url(#p0fd199d534)" d="M 338.90875 194.201488 
L 338.90875 179.335506 
" style="fill:none;stroke:#000000;stroke-width:1.5;"/>
    <path clip-path="url(#p0fd199d534)" d="M 342.760858 198.75035 
L 342.760858 183.884368 
" style="fill:none;stroke:#000000;stroke-width:1.5;"/>
    <path clip-path="url(#p0fd199d534)" d="M 346.612966 203.060808 
L 346.612966 188.194825 
" style="fill:none;stroke:#000000;stroke-width:1.5;"/>
    <path clip-path="url(#p0fd199d534)" d="M 350.467122 207.13778 
L 350.467122 192.271797 
" style="fill:none;stroke:#000000;stroke-width:1.5;"/>
    <path clip-path="url(#p0fd199d534)" d="M 354.31923 210.981383 
L 354.31923 196.115401 
" style="fill:none;stroke:#000000;stroke-width:1.5;"/>
    <path clip-path="url(#p0fd199d534)" d="M 358.171338 214.599639 
L 358.171338 199.733656 
" style="fill:none;stroke:#000000;stroke-width:1.5;"/>
    <path clip-path="url(#p0fd199d534)" d="M 362.025494 218.00116 
L 362.025494 203.135178 
" style="fill:none;stroke:#000000;stroke-width:1.5;"/>
    <path clip-path="url(#p0fd199d534)" d="M 365.877602 221.190036 
L 365.877602 206.324054 
" style="fill:none;stroke:#000000;stroke-width:1.5;"/>
    <path clip-path="url(#p0fd199d534)" d="M 369.72971 224.176455 
L 369.72971 209.310472 
" style="fill:none;stroke:#000000;stroke-width:1.5;"/>
    <path clip-path="url(#p0fd199d534)" d="M 373.581818 226.969175 
L 373.581818 212.103193 
" style="fill:none;stroke:#000000;stroke-width:1.5;"/>
   </g>
   <g id="line2d_16">
    <defs>
     <path d="M 0 3 
C 0.795609 3 1.55874 2.683901 2.12132 2.12132 
C 2.683901 1.55874 3 0.795609 3 0 
C 3 -0.795609 2.683901 -1.55874 2.12132 -2.12132 
C 1.55874 -2.683901 0.795609 -3 0 -3 
C -0.795609 -3 -1.55874 -2.683901 -2.12132 -2.12132 
C -2.683901 -1.55874 -3 -0.795609 -3 0 
C -3 0.795609 -2.683901 1.55874 -2.12132 2.12132 
C -1.55874 2.683901 -0.795609 3 0 3 
z
" id="md29ecb5d7c" style="stroke:#1f77b4;"/>
    </defs>
    <g clip-path="url(#p0fd199d534)">
     <use style="fill:#1f77b4;stroke:#1f77b4;" x="69.218182" xlink:href="#md29ecb5d7c" y="235.397295"/>
     <use style="fill:#1f77b4;stroke:#1f77b4;" x="73.07029" xlink:href="#md29ecb5d7c" y="235.397295"/>
     <use style="fill:#1f77b4;stroke:#1f77b4;" x="76.924446" xlink:href="#md29ecb5d7c" y="235.397295"/>
     <use style="fill:#1f77b4;stroke:#1f77b4;" x="80.776554" xlink:href="#md29ecb5d7c" y="235.397295"/>
     <use style="fill:#1f77b4;stroke:#1f77b4;" x="84.628662" xlink:href="#md29ecb5d7c" y="235.397295"/>
     <use style="fill:#1f77b4;stroke:#1f77b4;" x="88.48077" xlink:href="#md29ecb5d7c" y="235.397295"/>
     <use style="fill:#1f77b4;stroke:#1f77b4;" x="92.334926" xlink:href="#md29ecb5d7c" y="235.397295"/>
     <use style="fill:#1f77b4;stroke:#1f77b4;" x="96.187034" xlink:href="#md29ecb5d7c" y="235.397295"/>
     <use style="fill:#1f77b4;stroke:#1f77b4;" x="100.039142" xlink:href="#md29ecb5d7c" y="235.397295"/>
     <use style="fill:#1f77b4;stroke:#1f77b4;" x="103.893298" xlink:href="#md29ecb5d7c" y="235.397295"/>
     <use style="fill:#1f77b4;stroke:#1f77b4;" x="107.745406" xlink:href="#md29ecb5d7c" y="217.502958"/>
     <use style="fill:#1f77b4;stroke:#1f77b4;" x="111.597514" xlink:href="#md29ecb5d7c" y="199.609"/>
     <use style="fill:#1f77b4;stroke:#1f77b4;" x="115.449622" xlink:href="#md29ecb5d7c" y="199.609"/>
     <use style="fill:#1f77b4;stroke:#1f77b4;" x="119.303778" xlink:href="#md29ecb5d7c" y="199.609"/>
     <use style="fill:#1f77b4;stroke:#1f77b4;" x="123.155886" xlink:href="#md29ecb5d7c" y="199.609"/>
     <use style="fill:#1f77b4;stroke:#1f77b4;" x="127.007994" xlink:href="#md29ecb5d7c" y="199.609"/>
     <use style="fill:#1f77b4;stroke:#1f77b4;" x="130.86215" xlink:href="#md29ecb5d7c" y="163.820705"/>
     <use style="fill:#1f77b4;stroke:#1f77b4;" x="134.714258" xlink:href="#md29ecb5d7c" y="163.820705"/>
     <use style="fill:#1f77b4;stroke:#1f77b4;" x="138.566366" xlink:href="#md29ecb5d7c" y="181.714662"/>
     <use style="fill:#1f77b4;stroke:#1f77b4;" x="142.420522" xlink:href="#md29ecb5d7c" y="163.820705"/>
     <use style="fill:#1f77b4;stroke:#1f77b4;" x="146.27263" xlink:href="#md29ecb5d7c" y="163.820705"/>
     <use style="fill:#1f77b4;stroke:#1f77b4;" x="150.124738" xlink:href="#md29ecb5d7c" y="163.820705"/>
     <use style="fill:#1f77b4;stroke:#1f77b4;" x="153.976846" xlink:href="#md29ecb5d7c" y="163.820705"/>
     <use style="fill:#1f77b4;stroke:#1f77b4;" x="157.831002" xlink:href="#md29ecb5d7c" y="163.820705"/>
     <use style="fill:#1f77b4;stroke:#1f77b4;" x="161.68311" xlink:href="#md29ecb5d7c" y="145.926367"/>
     <use style="fill:#1f77b4;stroke:#1f77b4;" x="165.535218" xlink:href="#md29ecb5d7c" y="128.03241"/>
     <use style="fill:#1f77b4;stroke:#1f77b4;" x="169.389374" xlink:href="#md29ecb5d7c" y="128.03241"/>
     <use style="fill:#1f77b4;stroke:#1f77b4;" x="173.241482" xlink:href="#md29ecb5d7c" y="128.03241"/>
     <use style="fill:#1f77b4;stroke:#1f77b4;" x="177.09359" xlink:href="#md29ecb5d7c" y="110.138453"/>
     <use style="fill:#1f77b4;stroke:#1f77b4;" x="180.947746" xlink:href="#md29ecb5d7c" y="92.244115"/>
     <use style="fill:#1f77b4;stroke:#1f77b4;" x="184.799854" xlink:href="#md29ecb5d7c" y="92.244115"/>
     <use style="fill:#1f77b4;stroke:#1f77b4;" x="188.651962" xlink:href="#md29ecb5d7c" y="92.244115"/>
     <use style="fill:#1f77b4;stroke:#1f77b4;" x="192.50407" xlink:href="#md29ecb5d7c" y="92.244115"/>
     <use style="fill:#1f77b4;stroke:#1f77b4;" x="196.358226" xlink:href="#md29ecb5d7c" y="92.244115"/>
     <use style="fill:#1f77b4;stroke:#1f77b4;" x="200.210334" xlink:href="#md29ecb5d7c" y="56.45582"/>
     <use style="fill:#1f77b4;stroke:#1f77b4;" x="204.062442" xlink:href="#md29ecb5d7c" y="56.45582"/>
     <use style="fill:#1f77b4;stroke:#1f77b4;" x="207.916598" xlink:href="#md29ecb5d7c" y="56.45582"/>
     <use style="fill:#1f77b4;stroke:#1f77b4;" x="211.768706" xlink:href="#md29ecb5d7c" y="56.45582"/>
     <use style="fill:#1f77b4;stroke:#1f77b4;" x="215.620814" xlink:href="#md29ecb5d7c" y="56.45582"/>
     <use style="fill:#1f77b4;stroke:#1f77b4;" x="219.47497" xlink:href="#md29ecb5d7c" y="56.45582"/>
     <use style="fill:#1f77b4;stroke:#1f77b4;" x="223.327078" xlink:href="#md29ecb5d7c" y="56.45582"/>
     <use style="fill:#1f77b4;stroke:#1f77b4;" x="227.179186" xlink:href="#md29ecb5d7c" y="56.45582"/>
     <use style="fill:#1f77b4;stroke:#1f77b4;" x="231.031294" xlink:href="#md29ecb5d7c" y="56.45582"/>
     <use style="fill:#1f77b4;stroke:#1f77b4;" x="234.88545" xlink:href="#md29ecb5d7c" y="56.45582"/>
     <use style="fill:#1f77b4;stroke:#1f77b4;" x="238.737558" xlink:href="#md29ecb5d7c" y="56.45582"/>
     <use style="fill:#1f77b4;stroke:#1f77b4;" x="242.589666" xlink:href="#md29ecb5d7c" y="56.45582"/>
     <use style="fill:#1f77b4;stroke:#1f77b4;" x="246.443822" xlink:href="#md29ecb5d7c" y="56.45582"/>
     <use style="fill:#1f77b4;stroke:#1f77b4;" x="250.29593" xlink:href="#md29ecb5d7c" y="56.45582"/>
     <use style="fill:#1f77b4;stroke:#1f77b4;" x="254.148038" xlink:href="#md29ecb5d7c" y="56.45582"/>
     <use style="fill:#1f77b4;stroke:#1f77b4;" x="258.002194" xlink:href="#md29ecb5d7c" y="56.45582"/>
     <use style="fill:#1f77b4;stroke:#1f77b4;" x="261.854302" xlink:href="#md29ecb5d7c" y="56.45582"/>
     <use style="fill:#1f77b4;stroke:#1f77b4;" x="265.70641" xlink:href="#md29ecb5d7c" y="74.350158"/>
     <use style="fill:#1f77b4;stroke:#1f77b4;" x="269.558518" xlink:href="#md29ecb5d7c" y="92.244115"/>
     <use style="fill:#1f77b4;stroke:#1f77b4;" x="273.412674" xlink:href="#md29ecb5d7c" y="92.244115"/>
     <use style="fill:#1f77b4;stroke:#1f77b4;" x="277.264782" xlink:href="#md29ecb5d7c" y="92.244115"/>
     <use style="fill:#1f77b4;stroke:#1f77b4;" x="281.11689" xlink:href="#md29ecb5d7c" y="92.244115"/>
     <use style="fill:#1f77b4;stroke:#1f77b4;" x="284.971046" xlink:href="#md29ecb5d7c" y="128.03241"/>
     <use style="fill:#1f77b4;stroke:#1f77b4;" x="288.823154" xlink:href="#md29ecb5d7c" y="128.03241"/>
     <use style="fill:#1f77b4;stroke:#1f77b4;" x="292.675262" xlink:href="#md29ecb5d7c" y="128.03241"/>
     <use style="fill:#1f77b4;stroke:#1f77b4;" x="296.52737" xlink:href="#md29ecb5d7c" y="128.03241"/>
     <use style="fill:#1f77b4;stroke:#1f77b4;" x="300.381526" xlink:href="#md29ecb5d7c" y="128.03241"/>
     <use style="fill:#1f77b4;stroke:#1f77b4;" x="304.233634" xlink:href="#md29ecb5d7c" y="145.926367"/>
     <use style="fill:#1f77b4;stroke:#1f77b4;" x="308.085742" xlink:href="#md29ecb5d7c" y="163.820705"/>
     <use style="fill:#1f77b4;stroke:#1f77b4;" x="311.939898" xlink:href="#md29ecb5d7c" y="163.820705"/>
     <use style="fill:#1f77b4;stroke:#1f77b4;" x="315.792006" xlink:href="#md29ecb5d7c" y="163.820705"/>
     <use style="fill:#1f77b4;stroke:#1f77b4;" x="319.644114" xlink:href="#md29ecb5d7c" y="163.820705"/>
     <use style="fill:#1f77b4;stroke:#1f77b4;" x="323.49827" xlink:href="#md29ecb5d7c" y="163.820705"/>
     <use style="fill:#1f77b4;stroke:#1f77b4;" x="327.350378" xlink:href="#md29ecb5d7c" y="163.820705"/>
     <use style="fill:#1f77b4;stroke:#1f77b4;" x="331.202486" xlink:href="#md29ecb5d7c" y="163.820705"/>
     <use style="fill:#1f77b4;stroke:#1f77b4;" x="335.054594" xlink:href="#md29ecb5d7c" y="163.820705"/>
     <use style="fill:#1f77b4;stroke:#1f77b4;" x="338.90875" xlink:href="#md29ecb5d7c" y="163.820705"/>
     <use style="fill:#1f77b4;stroke:#1f77b4;" x="342.760858" xlink:href="#md29ecb5d7c" y="163.820705"/>
     <use style="fill:#1f77b4;stroke:#1f77b4;" x="346.612966" xlink:href="#md29ecb5d7c" y="181.714662"/>
     <use style="fill:#1f77b4;stroke:#1f77b4;" x="350.467122" xlink:href="#md29ecb5d7c" y="199.609"/>
     <use style="fill:#1f77b4;stroke:#1f77b4;" x="354.31923" xlink:href="#md29ecb5d7c" y="199.609"/>
     <use style="fill:#1f77b4;stroke:#1f77b4;" x="358.171338" xlink:href="#md29ecb5d7c" y="199.609"/>
     <use style="fill:#1f77b4;stroke:#1f77b4;" x="362.025494" xlink:href="#md29ecb5d7c" y="199.609"/>
     <use style="fill:#1f77b4;stroke:#1f77b4;" x="365.877602" xlink:href="#md29ecb5d7c" y="199.609"/>
     <use style="fill:#1f77b4;stroke:#1f77b4;" x="369.72971" xlink:href="#md29ecb5d7c" y="199.609"/>
     <use style="fill:#1f77b4;stroke:#1f77b4;" x="373.581818" xlink:href="#md29ecb5d7c" y="199.609"/>
    </g>
   </g>
   <g id="line2d_17">
    <path clip-path="url(#p0fd199d534)" d="M 69.218182 233.918582 
L 73.07029 232.188477 
L 76.924446 230.323868 
L 80.776554 228.318141 
L 84.628662 226.1615 
L 88.48077 223.844908 
L 92.334926 221.357835 
L 96.187034 218.693713 
L 100.039142 215.842118 
L 103.893298 212.792409 
L 107.745406 209.53918 
L 111.597514 206.072712 
L 115.449622 202.385539 
L 119.303778 198.468961 
L 123.155886 194.32173 
L 127.007994 189.93785 
L 130.86215 185.312555 
L 134.714258 180.45057 
L 138.566366 175.351716 
L 142.420522 170.018076 
L 146.27263 164.463436 
L 150.124738 158.696638 
L 153.976846 152.733154 
L 157.831002 146.589332 
L 161.68311 140.295835 
L 165.535218 133.878253 
L 169.389374 127.366749 
L 173.241482 120.806765 
L 177.09359 114.238147 
L 180.947746 107.705288 
L 184.799854 101.267172 
L 188.651962 94.975956 
L 192.50407 88.890192 
L 196.358226 83.06743 
L 200.210334 77.575411 
L 204.062442 72.472263 
L 207.916598 67.815413 
L 211.768706 63.666717 
L 215.620814 60.07618 
L 219.47497 57.089354 
L 223.327078 54.749506 
L 227.179186 53.086944 
L 231.031294 52.124793 
L 234.88545 51.876628 
L 238.737558 52.346212 
L 242.589666 53.526604 
L 246.443822 55.402441 
L 250.29593 57.945746 
L 254.148038 61.122686 
L 258.002194 64.893079 
L 261.854302 69.204044 
L 265.70641 74.003358 
L 269.558518 79.233097 
L 273.412674 84.835938 
L 277.264782 90.744398 
L 281.11689 96.900011 
L 284.971046 103.246142 
L 288.823154 109.718283 
L 292.675262 116.265168 
L 296.52737 122.836019 
L 300.381526 129.387835 
L 304.233634 135.871809 
L 308.085742 142.254428 
L 311.939898 148.506835 
L 315.792006 154.59503 
L 319.644114 160.499659 
L 323.49827 166.205367 
L 327.350378 171.691841 
L 331.202486 176.951673 
L 335.054594 181.97776 
L 338.90875 186.768497 
L 342.760858 191.317359 
L 346.612966 195.627817 
L 350.467122 199.704788 
L 354.31923 203.548392 
L 358.171338 207.166647 
L 362.025494 210.568169 
L 365.877602 213.757045 
L 369.72971 216.743463 
L 373.581818 219.536184 
" style="fill:none;stroke:#ff7f0e;stroke-linecap:square;stroke-width:1.5;"/>
   </g>
   <g id="line2d_18"/>
   <g id="line2d_19"/>
   <g id="line2d_20">
    <defs>
     <path d="M 2 0 
L -2 -0 
" id="m599ff14a36" style="stroke:#000000;"/>
    </defs>
    <g clip-path="url(#p0fd199d534)">
     <use style="stroke:#000000;" x="69.218182" xlink:href="#m599ff14a36" y="242.116364"/>
     <use style="stroke:#000000;" x="73.07029" xlink:href="#m599ff14a36" y="239.757238"/>
     <use style="stroke:#000000;" x="76.924446" xlink:href="#m599ff14a36" y="237.779982"/>
     <use style="stroke:#000000;" x="80.776554" xlink:href="#m599ff14a36" y="235.755047"/>
     <use style="stroke:#000000;" x="84.628662" xlink:href="#m599ff14a36" y="233.595153"/>
     <use style="stroke:#000000;" x="88.48077" xlink:href="#m599ff14a36" y="231.278011"/>
     <use style="stroke:#000000;" x="92.334926" xlink:href="#m599ff14a36" y="228.790845"/>
     <use style="stroke:#000000;" x="96.187034" xlink:href="#m599ff14a36" y="226.126707"/>
     <use style="stroke:#000000;" x="100.039142" xlink:href="#m599ff14a36" y="223.27511"/>
     <use style="stroke:#000000;" x="103.893298" xlink:href="#m599ff14a36" y="220.225401"/>
     <use style="stroke:#000000;" x="107.745406" xlink:href="#m599ff14a36" y="216.972171"/>
     <use style="stroke:#000000;" x="111.597514" xlink:href="#m599ff14a36" y="213.505703"/>
     <use style="stroke:#000000;" x="115.449622" xlink:href="#m599ff14a36" y="209.818531"/>
     <use style="stroke:#000000;" x="119.303778" xlink:href="#m599ff14a36" y="205.901952"/>
     <use style="stroke:#000000;" x="123.155886" xlink:href="#m599ff14a36" y="201.754721"/>
     <use style="stroke:#000000;" x="127.007994" xlink:href="#m599ff14a36" y="197.370842"/>
     <use style="stroke:#000000;" x="130.86215" xlink:href="#m599ff14a36" y="192.745547"/>
     <use style="stroke:#000000;" x="134.714258" xlink:href="#m599ff14a36" y="187.883562"/>
     <use style="stroke:#000000;" x="138.566366" xlink:href="#m599ff14a36" y="182.784707"/>
     <use style="stroke:#000000;" x="142.420522" xlink:href="#m599ff14a36" y="177.451067"/>
     <use style="stroke:#000000;" x="146.27263" xlink:href="#m599ff14a36" y="171.896427"/>
     <use style="stroke:#000000;" x="150.124738" xlink:href="#m599ff14a36" y="166.129629"/>
     <use style="stroke:#000000;" x="153.976846" xlink:href="#m599ff14a36" y="160.166145"/>
     <use style="stroke:#000000;" x="157.831002" xlink:href="#m599ff14a36" y="154.022323"/>
     <use style="stroke:#000000;" x="161.68311" xlink:href="#m599ff14a36" y="147.728826"/>
     <use style="stroke:#000000;" x="165.535218" xlink:href="#m599ff14a36" y="141.311244"/>
     <use style="stroke:#000000;" x="169.389374" xlink:href="#m599ff14a36" y="134.799741"/>
     <use style="stroke:#000000;" x="173.241482" xlink:href="#m599ff14a36" y="128.239756"/>
     <use style="stroke:#000000;" x="177.09359" xlink:href="#m599ff14a36" y="121.671139"/>
     <use style="stroke:#000000;" x="180.947746" xlink:href="#m599ff14a36" y="115.13828"/>
     <use style="stroke:#000000;" x="184.799854" xlink:href="#m599ff14a36" y="108.700163"/>
     <use style="stroke:#000000;" x="188.651962" xlink:href="#m599ff14a36" y="102.408947"/>
     <use style="stroke:#000000;" x="192.50407" xlink:href="#m599ff14a36" y="96.323184"/>
     <use style="stroke:#000000;" x="196.358226" xlink:href="#m599ff14a36" y="90.500422"/>
     <use style="stroke:#000000;" x="200.210334" xlink:href="#m599ff14a36" y="85.008403"/>
     <use style="stroke:#000000;" x="204.062442" xlink:href="#m599ff14a36" y="79.905254"/>
     <use style="stroke:#000000;" x="207.916598" xlink:href="#m599ff14a36" y="75.248404"/>
     <use style="stroke:#000000;" x="211.768706" xlink:href="#m599ff14a36" y="71.099708"/>
     <use style="stroke:#000000;" x="215.620814" xlink:href="#m599ff14a36" y="67.509171"/>
     <use style="stroke:#000000;" x="219.47497" xlink:href="#m599ff14a36" y="64.522345"/>
     <use style="stroke:#000000;" x="223.327078" xlink:href="#m599ff14a36" y="62.182497"/>
     <use style="stroke:#000000;" x="227.179186" xlink:href="#m599ff14a36" y="60.519935"/>
     <use style="stroke:#000000;" x="231.031294" xlink:href="#m599ff14a36" y="59.557784"/>
     <use style="stroke:#000000;" x="234.88545" xlink:href="#m599ff14a36" y="59.309619"/>
     <use style="stroke:#000000;" x="238.737558" xlink:href="#m599ff14a36" y="59.779203"/>
     <use style="stroke:#000000;" x="242.589666" xlink:href="#m599ff14a36" y="60.959595"/>
     <use style="stroke:#000000;" x="246.443822" xlink:href="#m599ff14a36" y="62.835432"/>
     <use style="stroke:#000000;" x="250.29593" xlink:href="#m599ff14a36" y="65.378737"/>
     <use style="stroke:#000000;" x="254.148038" xlink:href="#m599ff14a36" y="68.555677"/>
     <use style="stroke:#000000;" x="258.002194" xlink:href="#m599ff14a36" y="72.32607"/>
     <use style="stroke:#000000;" x="261.854302" xlink:href="#m599ff14a36" y="76.637036"/>
     <use style="stroke:#000000;" x="265.70641" xlink:href="#m599ff14a36" y="81.436349"/>
     <use style="stroke:#000000;" x="269.558518" xlink:href="#m599ff14a36" y="86.666088"/>
     <use style="stroke:#000000;" x="273.412674" xlink:href="#m599ff14a36" y="92.268929"/>
     <use style="stroke:#000000;" x="277.264782" xlink:href="#m599ff14a36" y="98.177389"/>
     <use style="stroke:#000000;" x="281.11689" xlink:href="#m599ff14a36" y="104.333002"/>
     <use style="stroke:#000000;" x="284.971046" xlink:href="#m599ff14a36" y="110.679133"/>
     <use style="stroke:#000000;" x="288.823154" xlink:href="#m599ff14a36" y="117.151274"/>
     <use style="stroke:#000000;" x="292.675262" xlink:href="#m599ff14a36" y="123.698159"/>
     <use style="stroke:#000000;" x="296.52737" xlink:href="#m599ff14a36" y="130.26901"/>
     <use style="stroke:#000000;" x="300.381526" xlink:href="#m599ff14a36" y="136.820827"/>
     <use style="stroke:#000000;" x="304.233634" xlink:href="#m599ff14a36" y="143.3048"/>
     <use style="stroke:#000000;" x="308.085742" xlink:href="#m599ff14a36" y="149.687419"/>
     <use style="stroke:#000000;" x="311.939898" xlink:href="#m599ff14a36" y="155.939826"/>
     <use style="stroke:#000000;" x="315.792006" xlink:href="#m599ff14a36" y="162.028021"/>
     <use style="stroke:#000000;" x="319.644114" xlink:href="#m599ff14a36" y="167.932651"/>
     <use style="stroke:#000000;" x="323.49827" xlink:href="#m599ff14a36" y="173.638358"/>
     <use style="stroke:#000000;" x="327.350378" xlink:href="#m599ff14a36" y="179.124832"/>
     <use style="stroke:#000000;" x="331.202486" xlink:href="#m599ff14a36" y="184.384665"/>
     <use style="stroke:#000000;" x="335.054594" xlink:href="#m599ff14a36" y="189.410751"/>
     <use style="stroke:#000000;" x="338.90875" xlink:href="#m599ff14a36" y="194.201488"/>
     <use style="stroke:#000000;" x="342.760858" xlink:href="#m599ff14a36" y="198.75035"/>
     <use style="stroke:#000000;" x="346.612966" xlink:href="#m599ff14a36" y="203.060808"/>
     <use style="stroke:#000000;" x="350.467122" xlink:href="#m599ff14a36" y="207.13778"/>
     <use style="stroke:#000000;" x="354.31923" xlink:href="#m599ff14a36" y="210.981383"/>
     <use style="stroke:#000000;" x="358.171338" xlink:href="#m599ff14a36" y="214.599639"/>
     <use style="stroke:#000000;" x="362.025494" xlink:href="#m599ff14a36" y="218.00116"/>
     <use style="stroke:#000000;" x="365.877602" xlink:href="#m599ff14a36" y="221.190036"/>
     <use style="stroke:#000000;" x="369.72971" xlink:href="#m599ff14a36" y="224.176455"/>
     <use style="stroke:#000000;" x="373.581818" xlink:href="#m599ff14a36" y="226.969175"/>
    </g>
   </g>
   <g id="line2d_21">
    <g clip-path="url(#p0fd199d534)">
     <use style="stroke:#000000;" x="69.218182" xlink:href="#m599ff14a36" y="225.720801"/>
     <use style="stroke:#000000;" x="73.07029" xlink:href="#m599ff14a36" y="224.619716"/>
     <use style="stroke:#000000;" x="76.924446" xlink:href="#m599ff14a36" y="222.867755"/>
     <use style="stroke:#000000;" x="80.776554" xlink:href="#m599ff14a36" y="220.881236"/>
     <use style="stroke:#000000;" x="84.628662" xlink:href="#m599ff14a36" y="218.727847"/>
     <use style="stroke:#000000;" x="88.48077" xlink:href="#m599ff14a36" y="216.411805"/>
     <use style="stroke:#000000;" x="92.334926" xlink:href="#m599ff14a36" y="213.924825"/>
     <use style="stroke:#000000;" x="96.187034" xlink:href="#m599ff14a36" y="211.260718"/>
     <use style="stroke:#000000;" x="100.039142" xlink:href="#m599ff14a36" y="208.409126"/>
     <use style="stroke:#000000;" x="103.893298" xlink:href="#m599ff14a36" y="205.359418"/>
     <use style="stroke:#000000;" x="107.745406" xlink:href="#m599ff14a36" y="202.106189"/>
     <use style="stroke:#000000;" x="111.597514" xlink:href="#m599ff14a36" y="198.639721"/>
     <use style="stroke:#000000;" x="115.449622" xlink:href="#m599ff14a36" y="194.952548"/>
     <use style="stroke:#000000;" x="119.303778" xlink:href="#m599ff14a36" y="191.035969"/>
     <use style="stroke:#000000;" x="123.155886" xlink:href="#m599ff14a36" y="186.888739"/>
     <use style="stroke:#000000;" x="127.007994" xlink:href="#m599ff14a36" y="182.504859"/>
     <use style="stroke:#000000;" x="130.86215" xlink:href="#m599ff14a36" y="177.879564"/>
     <use style="stroke:#000000;" x="134.714258" xlink:href="#m599ff14a36" y="173.017579"/>
     <use style="stroke:#000000;" x="138.566366" xlink:href="#m599ff14a36" y="167.918725"/>
     <use style="stroke:#000000;" x="142.420522" xlink:href="#m599ff14a36" y="162.585085"/>
     <use style="stroke:#000000;" x="146.27263" xlink:href="#m599ff14a36" y="157.030444"/>
     <use style="stroke:#000000;" x="150.124738" xlink:href="#m599ff14a36" y="151.263646"/>
     <use style="stroke:#000000;" x="153.976846" xlink:href="#m599ff14a36" y="145.300163"/>
     <use style="stroke:#000000;" x="157.831002" xlink:href="#m599ff14a36" y="139.156341"/>
     <use style="stroke:#000000;" x="161.68311" xlink:href="#m599ff14a36" y="132.862843"/>
     <use style="stroke:#000000;" x="165.535218" xlink:href="#m599ff14a36" y="126.445262"/>
     <use style="stroke:#000000;" x="169.389374" xlink:href="#m599ff14a36" y="119.933758"/>
     <use style="stroke:#000000;" x="173.241482" xlink:href="#m599ff14a36" y="113.373774"/>
     <use style="stroke:#000000;" x="177.09359" xlink:href="#m599ff14a36" y="106.805156"/>
     <use style="stroke:#000000;" x="180.947746" xlink:href="#m599ff14a36" y="100.272297"/>
     <use style="stroke:#000000;" x="184.799854" xlink:href="#m599ff14a36" y="93.83418"/>
     <use style="stroke:#000000;" x="188.651962" xlink:href="#m599ff14a36" y="87.542965"/>
     <use style="stroke:#000000;" x="192.50407" xlink:href="#m599ff14a36" y="81.457201"/>
     <use style="stroke:#000000;" x="196.358226" xlink:href="#m599ff14a36" y="75.634439"/>
     <use style="stroke:#000000;" x="200.210334" xlink:href="#m599ff14a36" y="70.14242"/>
     <use style="stroke:#000000;" x="204.062442" xlink:href="#m599ff14a36" y="65.039271"/>
     <use style="stroke:#000000;" x="207.916598" xlink:href="#m599ff14a36" y="60.382422"/>
     <use style="stroke:#000000;" x="211.768706" xlink:href="#m599ff14a36" y="56.233726"/>
     <use style="stroke:#000000;" x="215.620814" xlink:href="#m599ff14a36" y="52.643188"/>
     <use style="stroke:#000000;" x="219.47497" xlink:href="#m599ff14a36" y="49.656362"/>
     <use style="stroke:#000000;" x="223.327078" xlink:href="#m599ff14a36" y="47.316515"/>
     <use style="stroke:#000000;" x="227.179186" xlink:href="#m599ff14a36" y="45.653952"/>
     <use style="stroke:#000000;" x="231.031294" xlink:href="#m599ff14a36" y="44.691802"/>
     <use style="stroke:#000000;" x="234.88545" xlink:href="#m599ff14a36" y="44.443636"/>
     <use style="stroke:#000000;" x="238.737558" xlink:href="#m599ff14a36" y="44.913221"/>
     <use style="stroke:#000000;" x="242.589666" xlink:href="#m599ff14a36" y="46.093612"/>
     <use style="stroke:#000000;" x="246.443822" xlink:href="#m599ff14a36" y="47.969449"/>
     <use style="stroke:#000000;" x="250.29593" xlink:href="#m599ff14a36" y="50.512754"/>
     <use style="stroke:#000000;" x="254.148038" xlink:href="#m599ff14a36" y="53.689694"/>
     <use style="stroke:#000000;" x="258.002194" xlink:href="#m599ff14a36" y="57.460088"/>
     <use style="stroke:#000000;" x="261.854302" xlink:href="#m599ff14a36" y="61.771053"/>
     <use style="stroke:#000000;" x="265.70641" xlink:href="#m599ff14a36" y="66.570367"/>
     <use style="stroke:#000000;" x="269.558518" xlink:href="#m599ff14a36" y="71.800106"/>
     <use style="stroke:#000000;" x="273.412674" xlink:href="#m599ff14a36" y="77.402947"/>
     <use style="stroke:#000000;" x="277.264782" xlink:href="#m599ff14a36" y="83.311406"/>
     <use style="stroke:#000000;" x="281.11689" xlink:href="#m599ff14a36" y="89.467019"/>
     <use style="stroke:#000000;" x="284.971046" xlink:href="#m599ff14a36" y="95.813151"/>
     <use style="stroke:#000000;" x="288.823154" xlink:href="#m599ff14a36" y="102.285291"/>
     <use style="stroke:#000000;" x="292.675262" xlink:href="#m599ff14a36" y="108.832177"/>
     <use style="stroke:#000000;" x="296.52737" xlink:href="#m599ff14a36" y="115.403028"/>
     <use style="stroke:#000000;" x="300.381526" xlink:href="#m599ff14a36" y="121.954844"/>
     <use style="stroke:#000000;" x="304.233634" xlink:href="#m599ff14a36" y="128.438818"/>
     <use style="stroke:#000000;" x="308.085742" xlink:href="#m599ff14a36" y="134.821437"/>
     <use style="stroke:#000000;" x="311.939898" xlink:href="#m599ff14a36" y="141.073844"/>
     <use style="stroke:#000000;" x="315.792006" xlink:href="#m599ff14a36" y="147.162039"/>
     <use style="stroke:#000000;" x="319.644114" xlink:href="#m599ff14a36" y="153.066668"/>
     <use style="stroke:#000000;" x="323.49827" xlink:href="#m599ff14a36" y="158.772376"/>
     <use style="stroke:#000000;" x="327.350378" xlink:href="#m599ff14a36" y="164.25885"/>
     <use style="stroke:#000000;" x="331.202486" xlink:href="#m599ff14a36" y="169.518682"/>
     <use style="stroke:#000000;" x="335.054594" xlink:href="#m599ff14a36" y="174.544769"/>
     <use style="stroke:#000000;" x="338.90875" xlink:href="#m599ff14a36" y="179.335506"/>
     <use style="stroke:#000000;" x="342.760858" xlink:href="#m599ff14a36" y="183.884368"/>
     <use style="stroke:#000000;" x="346.612966" xlink:href="#m599ff14a36" y="188.194825"/>
     <use style="stroke:#000000;" x="350.467122" xlink:href="#m599ff14a36" y="192.271797"/>
     <use style="stroke:#000000;" x="354.31923" xlink:href="#m599ff14a36" y="196.115401"/>
     <use style="stroke:#000000;" x="358.171338" xlink:href="#m599ff14a36" y="199.733656"/>
     <use style="stroke:#000000;" x="362.025494" xlink:href="#m599ff14a36" y="203.135178"/>
     <use style="stroke:#000000;" x="365.877602" xlink:href="#m599ff14a36" y="206.324054"/>
     <use style="stroke:#000000;" x="369.72971" xlink:href="#m599ff14a36" y="209.310472"/>
     <use style="stroke:#000000;" x="373.581818" xlink:href="#m599ff14a36" y="212.103193"/>
    </g>
   </g>
   <g id="line2d_22">
    <path clip-path="url(#p0fd199d534)" d="M 69.218182 233.918582 
L 73.07029 232.188477 
L 76.924446 230.323868 
L 80.776554 228.318141 
L 84.628662 226.1615 
L 88.48077 223.844908 
L 92.334926 221.357835 
L 96.187034 218.693713 
L 100.039142 215.842118 
L 103.893298 212.792409 
L 107.745406 209.53918 
L 111.597514 206.072712 
L 115.449622 202.385539 
L 119.303778 198.468961 
L 123.155886 194.32173 
L 127.007994 189.93785 
L 130.86215 185.312555 
L 134.714258 180.45057 
L 138.566366 175.351716 
L 142.420522 170.018076 
L 146.27263 164.463436 
L 150.124738 158.696638 
L 153.976846 152.733154 
L 157.831002 146.589332 
L 161.68311 140.295835 
L 165.535218 133.878253 
L 169.389374 127.366749 
L 173.241482 120.806765 
L 177.09359 114.238147 
L 180.947746 107.705288 
L 184.799854 101.267172 
L 188.651962 94.975956 
L 192.50407 88.890192 
L 196.358226 83.06743 
L 200.210334 77.575411 
L 204.062442 72.472263 
L 207.916598 67.815413 
L 211.768706 63.666717 
L 215.620814 60.07618 
L 219.47497 57.089354 
L 223.327078 54.749506 
L 227.179186 53.086944 
L 231.031294 52.124793 
L 234.88545 51.876628 
L 238.737558 52.346212 
L 242.589666 53.526604 
L 246.443822 55.402441 
L 250.29593 57.945746 
L 254.148038 61.122686 
L 258.002194 64.893079 
L 261.854302 69.204044 
L 265.70641 74.003358 
L 269.558518 79.233097 
L 273.412674 84.835938 
L 277.264782 90.744398 
L 281.11689 96.900011 
L 284.971046 103.246142 
L 288.823154 109.718283 
L 292.675262 116.265168 
L 296.52737 122.836019 
L 300.381526 129.387835 
L 304.233634 135.871809 
L 308.085742 142.254428 
L 311.939898 148.506835 
L 315.792006 154.59503 
L 319.644114 160.499659 
L 323.49827 166.205367 
L 327.350378 171.691841 
L 331.202486 176.951673 
L 335.054594 181.97776 
L 338.90875 186.768497 
L 342.760858 191.317359 
L 346.612966 195.627817 
L 350.467122 199.704788 
L 354.31923 203.548392 
L 358.171338 207.166647 
L 362.025494 210.568169 
L 365.877602 213.757045 
L 369.72971 216.743463 
L 373.581818 219.536184 
" style="fill:none;stroke:#1f77b4;stroke-linecap:square;stroke-width:1.5;"/>
   </g>
   <g id="patch_3">
    <path d="M 54 252 
L 54 34.56 
" style="fill:none;stroke:#000000;stroke-linecap:square;stroke-linejoin:miter;stroke-width:0.8;"/>
   </g>
   <g id="patch_4">
    <path d="M 388.8 252 
L 388.8 34.56 
" style="fill:none;stroke:#000000;stroke-linecap:square;stroke-linejoin:miter;stroke-width:0.8;"/>
   </g>
   <g id="patch_5">
    <path d="M 54 252 
L 388.8 252 
" style="fill:none;stroke:#000000;stroke-linecap:square;stroke-linejoin:miter;stroke-width:0.8;"/>
   </g>
   <g id="patch_6">
    <path d="M 54 34.56 
L 388.8 34.56 
" style="fill:none;stroke:#000000;stroke-linecap:square;stroke-linejoin:miter;stroke-width:0.8;"/>
   </g>
   <g id="legend_1">
    <g id="patch_7">
     <path d="M 291.0058 102.358391 
L 382.969 102.358391 
Q 384.635 102.358391 384.635 100.692391 
L 384.635 40.391 
Q 384.635 38.725 382.969 38.725 
L 291.0058 38.725 
Q 289.3398 38.725 289.3398 40.391 
L 289.3398 100.692391 
Q 289.3398 102.358391 291.0058 102.358391 
z
" style="fill:#ffffff;opacity:0.8;stroke:#cccccc;stroke-linejoin:miter;"/>
    </g>
    <g id="line2d_23"/>
    <g id="line2d_24">
     <g>
      <use style="fill:#1f77b4;stroke:#1f77b4;" x="301.0018" xlink:href="#md29ecb5d7c" y="45.470998"/>
     </g>
    </g>
    <g id="text_16">
     <!-- Collected Data -->
     <defs>
      <path d="M 64.40625 67.28125 
L 64.40625 56.890625 
Q 59.421875 61.53125 53.78125 63.8125 
Q 48.140625 66.109375 41.796875 66.109375 
Q 29.296875 66.109375 22.65625 58.46875 
Q 16.015625 50.828125 16.015625 36.375 
Q 16.015625 21.96875 22.65625 14.328125 
Q 29.296875 6.6875 41.796875 6.6875 
Q 48.140625 6.6875 53.78125 8.984375 
Q 59.421875 11.28125 64.40625 15.921875 
L 64.40625 5.609375 
Q 59.234375 2.09375 53.4375 0.328125 
Q 47.65625 -1.421875 41.21875 -1.421875 
Q 24.65625 -1.421875 15.125 8.703125 
Q 5.609375 18.84375 5.609375 36.375 
Q 5.609375 53.953125 15.125 64.078125 
Q 24.65625 74.21875 41.21875 74.21875 
Q 47.75 74.21875 53.53125 72.484375 
Q 59.328125 70.75 64.40625 67.28125 
z
" id="DejaVuSans-43"/>
      <path d="M 30.609375 48.390625 
Q 23.390625 48.390625 19.1875 42.75 
Q 14.984375 37.109375 14.984375 27.296875 
Q 14.984375 17.484375 19.15625 11.84375 
Q 23.34375 6.203125 30.609375 6.203125 
Q 37.796875 6.203125 41.984375 11.859375 
Q 46.1875 17.53125 46.1875 27.296875 
Q 46.1875 37.015625 41.984375 42.703125 
Q 37.796875 48.390625 30.609375 48.390625 
z
M 30.609375 56 
Q 42.328125 56 49.015625 48.375 
Q 55.71875 40.765625 55.71875 27.296875 
Q 55.71875 13.875 49.015625 6.21875 
Q 42.328125 -1.421875 30.609375 -1.421875 
Q 18.84375 -1.421875 12.171875 6.21875 
Q 5.515625 13.875 5.515625 27.296875 
Q 5.515625 40.765625 12.171875 48.375 
Q 18.84375 56 30.609375 56 
z
" id="DejaVuSans-6f"/>
      <path d="M 9.421875 75.984375 
L 18.40625 75.984375 
L 18.40625 0 
L 9.421875 0 
z
" id="DejaVuSans-6c"/>
      <path d="M 56.203125 29.59375 
L 56.203125 25.203125 
L 14.890625 25.203125 
Q 15.484375 15.921875 20.484375 11.0625 
Q 25.484375 6.203125 34.421875 6.203125 
Q 39.59375 6.203125 44.453125 7.46875 
Q 49.3125 8.734375 54.109375 11.28125 
L 54.109375 2.78125 
Q 49.265625 0.734375 44.1875 -0.34375 
Q 39.109375 -1.421875 33.890625 -1.421875 
Q 20.796875 -1.421875 13.15625 6.1875 
Q 5.515625 13.8125 5.515625 26.8125 
Q 5.515625 40.234375 12.765625 48.109375 
Q 20.015625 56 32.328125 56 
Q 43.359375 56 49.78125 48.890625 
Q 56.203125 41.796875 56.203125 29.59375 
z
M 47.21875 32.234375 
Q 47.125 39.59375 43.09375 43.984375 
Q 39.0625 48.390625 32.421875 48.390625 
Q 24.90625 48.390625 20.390625 44.140625 
Q 15.875 39.890625 15.1875 32.171875 
z
" id="DejaVuSans-65"/>
      <path d="M 48.78125 52.59375 
L 48.78125 44.1875 
Q 44.96875 46.296875 41.140625 47.34375 
Q 37.3125 48.390625 33.40625 48.390625 
Q 24.65625 48.390625 19.8125 42.84375 
Q 14.984375 37.3125 14.984375 27.296875 
Q 14.984375 17.28125 19.8125 11.734375 
Q 24.65625 6.203125 33.40625 6.203125 
Q 37.3125 6.203125 41.140625 7.25 
Q 44.96875 8.296875 48.78125 10.40625 
L 48.78125 2.09375 
Q 45.015625 0.34375 40.984375 -0.53125 
Q 36.96875 -1.421875 32.421875 -1.421875 
Q 20.0625 -1.421875 12.78125 6.34375 
Q 5.515625 14.109375 5.515625 27.296875 
Q 5.515625 40.671875 12.859375 48.328125 
Q 20.21875 56 33.015625 56 
Q 37.15625 56 41.109375 55.140625 
Q 45.0625 54.296875 48.78125 52.59375 
z
" id="DejaVuSans-63"/>
      <path d="M 18.3125 70.21875 
L 18.3125 54.6875 
L 36.8125 54.6875 
L 36.8125 47.703125 
L 18.3125 47.703125 
L 18.3125 18.015625 
Q 18.3125 11.328125 20.140625 9.421875 
Q 21.96875 7.515625 27.59375 7.515625 
L 36.8125 7.515625 
L 36.8125 0 
L 27.59375 0 
Q 17.1875 0 13.234375 3.875 
Q 9.28125 7.765625 9.28125 18.015625 
L 9.28125 47.703125 
L 2.6875 47.703125 
L 2.6875 54.6875 
L 9.28125 54.6875 
L 9.28125 70.21875 
z
" id="DejaVuSans-74"/>
      <path d="M 45.40625 46.390625 
L 45.40625 75.984375 
L 54.390625 75.984375 
L 54.390625 0 
L 45.40625 0 
L 45.40625 8.203125 
Q 42.578125 3.328125 38.25 0.953125 
Q 33.9375 -1.421875 27.875 -1.421875 
Q 17.96875 -1.421875 11.734375 6.484375 
Q 5.515625 14.40625 5.515625 27.296875 
Q 5.515625 40.1875 11.734375 48.09375 
Q 17.96875 56 27.875 56 
Q 33.9375 56 38.25 53.625 
Q 42.578125 51.265625 45.40625 46.390625 
z
M 14.796875 27.296875 
Q 14.796875 17.390625 18.875 11.75 
Q 22.953125 6.109375 30.078125 6.109375 
Q 37.203125 6.109375 41.296875 11.75 
Q 45.40625 17.390625 45.40625 27.296875 
Q 45.40625 37.203125 41.296875 42.84375 
Q 37.203125 48.484375 30.078125 48.484375 
Q 22.953125 48.484375 18.875 42.84375 
Q 14.796875 37.203125 14.796875 27.296875 
z
" id="DejaVuSans-64"/>
      <path id="DejaVuSans-20"/>
      <path d="M 19.671875 64.796875 
L 19.671875 8.109375 
L 31.59375 8.109375 
Q 46.6875 8.109375 53.6875 14.9375 
Q 60.6875 21.78125 60.6875 36.53125 
Q 60.6875 51.171875 53.6875 57.984375 
Q 46.6875 64.796875 31.59375 64.796875 
z
M 9.8125 72.90625 
L 30.078125 72.90625 
Q 51.265625 72.90625 61.171875 64.09375 
Q 71.09375 55.28125 71.09375 36.53125 
Q 71.09375 17.671875 61.125 8.828125 
Q 51.171875 0 30.078125 0 
L 9.8125 0 
z
" id="DejaVuSans-44"/>
      <path d="M 34.28125 27.484375 
Q 23.390625 27.484375 19.1875 25 
Q 14.984375 22.515625 14.984375 16.5 
Q 14.984375 11.71875 18.140625 8.90625 
Q 21.296875 6.109375 26.703125 6.109375 
Q 34.1875 6.109375 38.703125 11.40625 
Q 43.21875 16.703125 43.21875 25.484375 
L 43.21875 27.484375 
z
M 52.203125 31.203125 
L 52.203125 0 
L 43.21875 0 
L 43.21875 8.296875 
Q 40.140625 3.328125 35.546875 0.953125 
Q 30.953125 -1.421875 24.3125 -1.421875 
Q 15.921875 -1.421875 10.953125 3.296875 
Q 6 8.015625 6 15.921875 
Q 6 25.140625 12.171875 29.828125 
Q 18.359375 34.515625 30.609375 34.515625 
L 43.21875 34.515625 
L 43.21875 35.40625 
Q 43.21875 41.609375 39.140625 45 
Q 35.0625 48.390625 27.6875 48.390625 
Q 23 48.390625 18.546875 47.265625 
Q 14.109375 46.140625 10.015625 43.890625 
L 10.015625 52.203125 
Q 14.9375 54.109375 19.578125 55.046875 
Q 24.21875 56 28.609375 56 
Q 40.484375 56 46.34375 49.84375 
Q 52.203125 43.703125 52.203125 31.203125 
z
" id="DejaVuSans-61"/>
     </defs>
     <g transform="translate(315.9958 48.386498)scale(0.0833 -0.0833)">
      <use xlink:href="#DejaVuSans-43"/>
      <use x="69.824219" xlink:href="#DejaVuSans-6f"/>
      <use x="131.005859" xlink:href="#DejaVuSans-6c"/>
      <use x="158.789062" xlink:href="#DejaVuSans-6c"/>
      <use x="186.572266" xlink:href="#DejaVuSans-65"/>
      <use x="248.095703" xlink:href="#DejaVuSans-63"/>
      <use x="303.076172" xlink:href="#DejaVuSans-74"/>
      <use x="342.285156" xlink:href="#DejaVuSans-65"/>
      <use x="403.808594" xlink:href="#DejaVuSans-64"/>
      <use x="467.285156" xlink:href="#DejaVuSans-20"/>
      <use x="499.072266" xlink:href="#DejaVuSans-44"/>
      <use x="576.074219" xlink:href="#DejaVuSans-61"/>
      <use x="637.353516" xlink:href="#DejaVuSans-74"/>
      <use x="676.5625" xlink:href="#DejaVuSans-61"/>
     </g>
    </g>
    <g id="line2d_25">
     <path d="M 292.6718 57.697877 
L 309.3318 57.697877 
" style="fill:none;stroke:#ff7f0e;stroke-linecap:square;stroke-width:1.5;"/>
    </g>
    <g id="line2d_26"/>
    <g id="text_17">
     <!--  Fitted Data -->
     <defs>
      <path d="M 9.8125 72.90625 
L 51.703125 72.90625 
L 51.703125 64.59375 
L 19.671875 64.59375 
L 19.671875 43.109375 
L 48.578125 43.109375 
L 48.578125 34.8125 
L 19.671875 34.8125 
L 19.671875 0 
L 9.8125 0 
z
" id="DejaVuSans-46"/>
      <path d="M 9.421875 54.6875 
L 18.40625 54.6875 
L 18.40625 0 
L 9.421875 0 
z
M 9.421875 75.984375 
L 18.40625 75.984375 
L 18.40625 64.59375 
L 9.421875 64.59375 
z
" id="DejaVuSans-69"/>
     </defs>
     <g transform="translate(315.9958 60.613377)scale(0.0833 -0.0833)">
      <use xlink:href="#DejaVuSans-20"/>
      <use x="31.787109" xlink:href="#DejaVuSans-46"/>
      <use x="89.197266" xlink:href="#DejaVuSans-69"/>
      <use x="116.980469" xlink:href="#DejaVuSans-74"/>
      <use x="156.189453" xlink:href="#DejaVuSans-74"/>
      <use x="195.398438" xlink:href="#DejaVuSans-65"/>
      <use x="256.921875" xlink:href="#DejaVuSans-64"/>
      <use x="320.398438" xlink:href="#DejaVuSans-20"/>
      <use x="352.185547" xlink:href="#DejaVuSans-44"/>
      <use x="429.1875" xlink:href="#DejaVuSans-61"/>
      <use x="490.466797" xlink:href="#DejaVuSans-74"/>
      <use x="529.675781" xlink:href="#DejaVuSans-61"/>
     </g>
    </g>
    <g id="line2d_27"/>
    <g id="line2d_28"/>
    <g id="text_18">
     <!-- A = $0.53 \pm 0.02$ -->
     <defs>
      <path d="M 34.1875 63.1875 
L 20.796875 26.90625 
L 47.609375 26.90625 
z
M 28.609375 72.90625 
L 39.796875 72.90625 
L 67.578125 0 
L 57.328125 0 
L 50.6875 18.703125 
L 17.828125 18.703125 
L 11.1875 0 
L 0.78125 0 
z
" id="DejaVuSans-41"/>
      <path d="M 10.59375 45.40625 
L 73.1875 45.40625 
L 73.1875 37.203125 
L 10.59375 37.203125 
z
M 10.59375 25.484375 
L 73.1875 25.484375 
L 73.1875 17.1875 
L 10.59375 17.1875 
z
" id="DejaVuSans-3d"/>
      <path d="M 46 62.703125 
L 46 43.796875 
L 73.1875 43.796875 
L 73.1875 35.5 
L 46 35.5 
L 46 16.609375 
L 37.796875 16.609375 
L 37.796875 35.5 
L 10.59375 35.5 
L 10.59375 43.796875 
L 37.796875 43.796875 
L 37.796875 62.703125 
z
M 10.59375 8.296875 
L 73.1875 8.296875 
L 73.1875 0 
L 10.59375 0 
z
" id="DejaVuSans-b1"/>
     </defs>
     <g transform="translate(315.9958 72.840255)scale(0.0833 -0.0833)">
      <use transform="translate(0 0.78125)" xlink:href="#DejaVuSans-41"/>
      <use transform="translate(68.408203 0.78125)" xlink:href="#DejaVuSans-20"/>
      <use transform="translate(100.195312 0.78125)" xlink:href="#DejaVuSans-3d"/>
      <use transform="translate(183.984375 0.78125)" xlink:href="#DejaVuSans-20"/>
      <use transform="translate(215.771484 0.78125)" xlink:href="#DejaVuSans-30"/>
      <use transform="translate(279.394531 0.78125)" xlink:href="#DejaVuSans-2e"/>
      <use transform="translate(311.181641 0.78125)" xlink:href="#DejaVuSans-35"/>
      <use transform="translate(374.804688 0.78125)" xlink:href="#DejaVuSans-33"/>
      <use transform="translate(457.910156 0.78125)" xlink:href="#DejaVuSans-b1"/>
      <use transform="translate(561.181641 0.78125)" xlink:href="#DejaVuSans-30"/>
      <use transform="translate(624.804688 0.78125)" xlink:href="#DejaVuSans-2e"/>
      <use transform="translate(656.591797 0.78125)" xlink:href="#DejaVuSans-30"/>
      <use transform="translate(720.214844 0.78125)" xlink:href="#DejaVuSans-32"/>
     </g>
    </g>
    <g id="line2d_29"/>
    <g id="line2d_30"/>
    <g id="text_19">
     <!--  = $4.47 \pm 0.21$ -->
     <defs>
      <path d="M 30.953125 67.4375 
L 56.203125 0 
L 46.6875 0 
L 31.34375 40.4375 
L 12.5 0 
L 2.984375 0 
L 26.953125 52.4375 
L 23.34375 62.109375 
Q 21.046875 68.265625 15.828125 68.265625 
L 11.140625 68.265625 
L 11.140625 75.984375 
L 16.84375 75.875 
Q 27.875 75.734375 30.953125 67.4375 
z
" id="DejaVuSans-3bb"/>
      <path d="M 8.203125 72.90625 
L 55.078125 72.90625 
L 55.078125 68.703125 
L 28.609375 0 
L 18.3125 0 
L 43.21875 64.59375 
L 8.203125 64.59375 
z
" id="DejaVuSans-37"/>
     </defs>
     <g transform="translate(315.9958 85.067133)scale(0.0833 -0.0833)">
      <use transform="translate(0 0.015625)" xlink:href="#DejaVuSans-3bb"/>
      <use transform="translate(59.179688 0.015625)" xlink:href="#DejaVuSans-20"/>
      <use transform="translate(90.966797 0.015625)" xlink:href="#DejaVuSans-3d"/>
      <use transform="translate(174.755859 0.015625)" xlink:href="#DejaVuSans-20"/>
      <use transform="translate(206.542969 0.015625)" xlink:href="#DejaVuSans-34"/>
      <use transform="translate(270.166016 0.015625)" xlink:href="#DejaVuSans-2e"/>
      <use transform="translate(301.953125 0.015625)" xlink:href="#DejaVuSans-34"/>
      <use transform="translate(365.576172 0.015625)" xlink:href="#DejaVuSans-37"/>
      <use transform="translate(448.681641 0.015625)" xlink:href="#DejaVuSans-b1"/>
      <use transform="translate(551.953125 0.015625)" xlink:href="#DejaVuSans-30"/>
      <use transform="translate(615.576172 0.015625)" xlink:href="#DejaVuSans-2e"/>
      <use transform="translate(647.285156 0.015625)" xlink:href="#DejaVuSans-32"/>
      <use transform="translate(710.908203 0.015625)" xlink:href="#DejaVuSans-31"/>
     </g>
    </g>
    <g id="LineCollection_2">
     <path d="M 301.0018 98.543511 
L 301.0018 90.213511 
" style="fill:none;stroke:#000000;stroke-width:1.5;"/>
    </g>
    <g id="line2d_31">
     <g>
      <use style="stroke:#000000;" x="301.0018" xlink:href="#m599ff14a36" y="98.543511"/>
     </g>
    </g>
    <g id="line2d_32">
     <g>
      <use style="stroke:#000000;" x="301.0018" xlink:href="#m599ff14a36" y="90.213511"/>
     </g>
    </g>
    <g id="line2d_33">
     <path d="M 292.6718 94.378511 
L 309.3318 94.378511 
" style="fill:none;stroke:#1f77b4;stroke-linecap:square;stroke-width:1.5;"/>
    </g>
    <g id="line2d_34"/>
    <g id="text_20">
     <!-- error in fit -->
     <defs>
      <path d="M 41.109375 46.296875 
Q 39.59375 47.171875 37.8125 47.578125 
Q 36.03125 48 33.890625 48 
Q 26.265625 48 22.1875 43.046875 
Q 18.109375 38.09375 18.109375 28.8125 
L 18.109375 0 
L 9.078125 0 
L 9.078125 54.6875 
L 18.109375 54.6875 
L 18.109375 46.1875 
Q 20.953125 51.171875 25.484375 53.578125 
Q 30.03125 56 36.53125 56 
Q 37.453125 56 38.578125 55.875 
Q 39.703125 55.765625 41.0625 55.515625 
z
" id="DejaVuSans-72"/>
      <path d="M 54.890625 33.015625 
L 54.890625 0 
L 45.90625 0 
L 45.90625 32.71875 
Q 45.90625 40.484375 42.875 44.328125 
Q 39.84375 48.1875 33.796875 48.1875 
Q 26.515625 48.1875 22.3125 43.546875 
Q 18.109375 38.921875 18.109375 30.90625 
L 18.109375 0 
L 9.078125 0 
L 9.078125 54.6875 
L 18.109375 54.6875 
L 18.109375 46.1875 
Q 21.34375 51.125 25.703125 53.5625 
Q 30.078125 56 35.796875 56 
Q 45.21875 56 50.046875 50.171875 
Q 54.890625 44.34375 54.890625 33.015625 
z
" id="DejaVuSans-6e"/>
      <path d="M 37.109375 75.984375 
L 37.109375 68.5 
L 28.515625 68.5 
Q 23.6875 68.5 21.796875 66.546875 
Q 19.921875 64.59375 19.921875 59.515625 
L 19.921875 54.6875 
L 34.71875 54.6875 
L 34.71875 47.703125 
L 19.921875 47.703125 
L 19.921875 0 
L 10.890625 0 
L 10.890625 47.703125 
L 2.296875 47.703125 
L 2.296875 54.6875 
L 10.890625 54.6875 
L 10.890625 58.5 
Q 10.890625 67.625 15.140625 71.796875 
Q 19.390625 75.984375 28.609375 75.984375 
z
" id="DejaVuSans-66"/>
     </defs>
     <g transform="translate(315.9958 97.294011)scale(0.0833 -0.0833)">
      <use xlink:href="#DejaVuSans-65"/>
      <use x="61.523438" xlink:href="#DejaVuSans-72"/>
      <use x="102.621094" xlink:href="#DejaVuSans-72"/>
      <use x="143.703125" xlink:href="#DejaVuSans-6f"/>
      <use x="204.884766" xlink:href="#DejaVuSans-72"/>
      <use x="245.998047" xlink:href="#DejaVuSans-20"/>
      <use x="277.785156" xlink:href="#DejaVuSans-69"/>
      <use x="305.568359" xlink:href="#DejaVuSans-6e"/>
      <use x="368.947266" xlink:href="#DejaVuSans-20"/>
      <use x="400.734375" xlink:href="#DejaVuSans-66"/>
      <use x="435.939453" xlink:href="#DejaVuSans-69"/>
      <use x="463.722656" xlink:href="#DejaVuSans-74"/>
     </g>
    </g>
   </g>
  </g>
  <g id="text_21">
   <!-- S35_300ml_small_wave Collected data and a fit of the data with errors -->
   <defs>
    <path d="M 53.515625 70.515625 
L 53.515625 60.890625 
Q 47.90625 63.578125 42.921875 64.890625 
Q 37.9375 66.21875 33.296875 66.21875 
Q 25.25 66.21875 20.875 63.09375 
Q 16.5 59.96875 16.5 54.203125 
Q 16.5 49.359375 19.40625 46.890625 
Q 22.3125 44.4375 30.421875 42.921875 
L 36.375 41.703125 
Q 47.40625 39.59375 52.65625 34.296875 
Q 57.90625 29 57.90625 20.125 
Q 57.90625 9.515625 50.796875 4.046875 
Q 43.703125 -1.421875 29.984375 -1.421875 
Q 24.8125 -1.421875 18.96875 -0.25 
Q 13.140625 0.921875 6.890625 3.21875 
L 6.890625 13.375 
Q 12.890625 10.015625 18.65625 8.296875 
Q 24.421875 6.59375 29.984375 6.59375 
Q 38.421875 6.59375 43.015625 9.90625 
Q 47.609375 13.234375 47.609375 19.390625 
Q 47.609375 24.75 44.3125 27.78125 
Q 41.015625 30.8125 33.5 32.328125 
L 27.484375 33.5 
Q 16.453125 35.6875 11.515625 40.375 
Q 6.59375 45.0625 6.59375 53.421875 
Q 6.59375 63.09375 13.40625 68.65625 
Q 20.21875 74.21875 32.171875 74.21875 
Q 37.3125 74.21875 42.625 73.28125 
Q 47.953125 72.359375 53.515625 70.515625 
z
" id="DejaVuSans-53"/>
    <path d="M 50.984375 -16.609375 
L 50.984375 -23.578125 
L -0.984375 -23.578125 
L -0.984375 -16.609375 
z
" id="DejaVuSans-5f"/>
    <path d="M 52 44.1875 
Q 55.375 50.25 60.0625 53.125 
Q 64.75 56 71.09375 56 
Q 79.640625 56 84.28125 50.015625 
Q 88.921875 44.046875 88.921875 33.015625 
L 88.921875 0 
L 79.890625 0 
L 79.890625 32.71875 
Q 79.890625 40.578125 77.09375 44.375 
Q 74.3125 48.1875 68.609375 48.1875 
Q 61.625 48.1875 57.5625 43.546875 
Q 53.515625 38.921875 53.515625 30.90625 
L 53.515625 0 
L 44.484375 0 
L 44.484375 32.71875 
Q 44.484375 40.625 41.703125 44.40625 
Q 38.921875 48.1875 33.109375 48.1875 
Q 26.21875 48.1875 22.15625 43.53125 
Q 18.109375 38.875 18.109375 30.90625 
L 18.109375 0 
L 9.078125 0 
L 9.078125 54.6875 
L 18.109375 54.6875 
L 18.109375 46.1875 
Q 21.1875 51.21875 25.484375 53.609375 
Q 29.78125 56 35.6875 56 
Q 41.65625 56 45.828125 52.96875 
Q 50 49.953125 52 44.1875 
z
" id="DejaVuSans-6d"/>
    <path d="M 44.28125 53.078125 
L 44.28125 44.578125 
Q 40.484375 46.53125 36.375 47.5 
Q 32.28125 48.484375 27.875 48.484375 
Q 21.1875 48.484375 17.84375 46.4375 
Q 14.5 44.390625 14.5 40.28125 
Q 14.5 37.15625 16.890625 35.375 
Q 19.28125 33.59375 26.515625 31.984375 
L 29.59375 31.296875 
Q 39.15625 29.25 43.1875 25.515625 
Q 47.21875 21.78125 47.21875 15.09375 
Q 47.21875 7.46875 41.1875 3.015625 
Q 35.15625 -1.421875 24.609375 -1.421875 
Q 20.21875 -1.421875 15.453125 -0.5625 
Q 10.6875 0.296875 5.421875 2 
L 5.421875 11.28125 
Q 10.40625 8.6875 15.234375 7.390625 
Q 20.0625 6.109375 24.8125 6.109375 
Q 31.15625 6.109375 34.5625 8.28125 
Q 37.984375 10.453125 37.984375 14.40625 
Q 37.984375 18.0625 35.515625 20.015625 
Q 33.0625 21.96875 24.703125 23.78125 
L 21.578125 24.515625 
Q 13.234375 26.265625 9.515625 29.90625 
Q 5.8125 33.546875 5.8125 39.890625 
Q 5.8125 47.609375 11.28125 51.796875 
Q 16.75 56 26.8125 56 
Q 31.78125 56 36.171875 55.265625 
Q 40.578125 54.546875 44.28125 53.078125 
z
" id="DejaVuSans-73"/>
    <path d="M 4.203125 54.6875 
L 13.1875 54.6875 
L 24.421875 12.015625 
L 35.59375 54.6875 
L 46.1875 54.6875 
L 57.421875 12.015625 
L 68.609375 54.6875 
L 77.59375 54.6875 
L 63.28125 0 
L 52.6875 0 
L 40.921875 44.828125 
L 29.109375 0 
L 18.5 0 
z
" id="DejaVuSans-77"/>
    <path d="M 2.984375 54.6875 
L 12.5 54.6875 
L 29.59375 8.796875 
L 46.6875 54.6875 
L 56.203125 54.6875 
L 35.6875 0 
L 23.484375 0 
z
" id="DejaVuSans-76"/>
    <path d="M 54.890625 33.015625 
L 54.890625 0 
L 45.90625 0 
L 45.90625 32.71875 
Q 45.90625 40.484375 42.875 44.328125 
Q 39.84375 48.1875 33.796875 48.1875 
Q 26.515625 48.1875 22.3125 43.546875 
Q 18.109375 38.921875 18.109375 30.90625 
L 18.109375 0 
L 9.078125 0 
L 9.078125 75.984375 
L 18.109375 75.984375 
L 18.109375 46.1875 
Q 21.34375 51.125 25.703125 53.5625 
Q 30.078125 56 35.796875 56 
Q 45.21875 56 50.046875 50.171875 
Q 54.890625 44.34375 54.890625 33.015625 
z
" id="DejaVuSans-68"/>
   </defs>
   <g transform="translate(3.306563 14.878125)scale(0.12 -0.12)">
    <use xlink:href="#DejaVuSans-53"/>
    <use x="63.476562" xlink:href="#DejaVuSans-33"/>
    <use x="127.099609" xlink:href="#DejaVuSans-35"/>
    <use x="190.722656" xlink:href="#DejaVuSans-5f"/>
    <use x="240.722656" xlink:href="#DejaVuSans-33"/>
    <use x="304.345703" xlink:href="#DejaVuSans-30"/>
    <use x="367.96875" xlink:href="#DejaVuSans-30"/>
    <use x="431.591797" xlink:href="#DejaVuSans-6d"/>
    <use x="529.003906" xlink:href="#DejaVuSans-6c"/>
    <use x="556.787109" xlink:href="#DejaVuSans-5f"/>
    <use x="606.787109" xlink:href="#DejaVuSans-73"/>
    <use x="658.886719" xlink:href="#DejaVuSans-6d"/>
    <use x="756.298828" xlink:href="#DejaVuSans-61"/>
    <use x="817.578125" xlink:href="#DejaVuSans-6c"/>
    <use x="845.361328" xlink:href="#DejaVuSans-6c"/>
    <use x="873.144531" xlink:href="#DejaVuSans-5f"/>
    <use x="923.144531" xlink:href="#DejaVuSans-77"/>
    <use x="1004.931641" xlink:href="#DejaVuSans-61"/>
    <use x="1066.210938" xlink:href="#DejaVuSans-76"/>
    <use x="1125.390625" xlink:href="#DejaVuSans-65"/>
    <use x="1186.914062" xlink:href="#DejaVuSans-20"/>
    <use x="1218.701172" xlink:href="#DejaVuSans-43"/>
    <use x="1288.525391" xlink:href="#DejaVuSans-6f"/>
    <use x="1349.707031" xlink:href="#DejaVuSans-6c"/>
    <use x="1377.490234" xlink:href="#DejaVuSans-6c"/>
    <use x="1405.273438" xlink:href="#DejaVuSans-65"/>
    <use x="1466.796875" xlink:href="#DejaVuSans-63"/>
    <use x="1521.777344" xlink:href="#DejaVuSans-74"/>
    <use x="1560.986328" xlink:href="#DejaVuSans-65"/>
    <use x="1622.509766" xlink:href="#DejaVuSans-64"/>
    <use x="1685.986328" xlink:href="#DejaVuSans-20"/>
    <use x="1717.773438" xlink:href="#DejaVuSans-64"/>
    <use x="1781.25" xlink:href="#DejaVuSans-61"/>
    <use x="1842.529297" xlink:href="#DejaVuSans-74"/>
    <use x="1881.738281" xlink:href="#DejaVuSans-61"/>
    <use x="1943.017578" xlink:href="#DejaVuSans-20"/>
    <use x="1974.804688" xlink:href="#DejaVuSans-61"/>
    <use x="2036.083984" xlink:href="#DejaVuSans-6e"/>
    <use x="2099.462891" xlink:href="#DejaVuSans-64"/>
    <use x="2162.939453" xlink:href="#DejaVuSans-20"/>
    <use x="2194.726562" xlink:href="#DejaVuSans-61"/>
    <use x="2256.005859" xlink:href="#DejaVuSans-20"/>
    <use x="2287.792969" xlink:href="#DejaVuSans-66"/>
    <use x="2322.998047" xlink:href="#DejaVuSans-69"/>
    <use x="2350.78125" xlink:href="#DejaVuSans-74"/>
    <use x="2389.990234" xlink:href="#DejaVuSans-20"/>
    <use x="2421.777344" xlink:href="#DejaVuSans-6f"/>
    <use x="2482.958984" xlink:href="#DejaVuSans-66"/>
    <use x="2518.164062" xlink:href="#DejaVuSans-20"/>
    <use x="2549.951172" xlink:href="#DejaVuSans-74"/>
    <use x="2589.160156" xlink:href="#DejaVuSans-68"/>
    <use x="2652.539062" xlink:href="#DejaVuSans-65"/>
    <use x="2714.0625" xlink:href="#DejaVuSans-20"/>
    <use x="2745.849609" xlink:href="#DejaVuSans-64"/>
    <use x="2809.326172" xlink:href="#DejaVuSans-61"/>
    <use x="2870.605469" xlink:href="#DejaVuSans-74"/>
    <use x="2909.814453" xlink:href="#DejaVuSans-61"/>
    <use x="2971.09375" xlink:href="#DejaVuSans-20"/>
    <use x="3002.880859" xlink:href="#DejaVuSans-77"/>
    <use x="3084.667969" xlink:href="#DejaVuSans-69"/>
    <use x="3112.451172" xlink:href="#DejaVuSans-74"/>
    <use x="3151.660156" xlink:href="#DejaVuSans-68"/>
    <use x="3215.039062" xlink:href="#DejaVuSans-20"/>
    <use x="3246.826172" xlink:href="#DejaVuSans-65"/>
    <use x="3308.349609" xlink:href="#DejaVuSans-72"/>
    <use x="3349.447266" xlink:href="#DejaVuSans-72"/>
    <use x="3390.529297" xlink:href="#DejaVuSans-6f"/>
    <use x="3451.710938" xlink:href="#DejaVuSans-72"/>
    <use x="3492.824219" xlink:href="#DejaVuSans-73"/>
   </g>
  </g>
 </g>
 <defs>
  <clipPath id="p0fd199d534">
   <rect height="217.44" width="334.8" x="54" y="34.56"/>
  </clipPath>
 </defs>
</svg>
